<svg xmlns="http://www.w3.org/2000/svg" width="360" height="540"><g transform="translate(0 -512.362)"><rect rx="29.944" ry="29.944" y="512.862" x=".5" height="539" width="359" fill="#fff" stroke="#000"/><path d="M152.75 769.612l56.25.5s-1.943 7.606-2.25 11.5c-.367 4.655.5 14 .5 14l-56.5-.5s2.177-8.935 2.5-13.5c.283-3.993-.5-12-.5-12zM30 542.362c-5.523 0-10 4.477-10 10v30c0 5.523 4.477 10 10 10 .434 0 .862-.04 1.281-.094A9.973 9.973 0 0040 597.362v-5c-1.64 0-3.088-.812-4-2.031 2.424-1.825 4-4.7 4-7.969v-30c0-5.523-4.477-10-10-10zm0 5a5 5 0 015 5v30c0 .716-.167 1.385-.438 2a10.031 10.031 0 00-9.562-7v-25a5 5 0 015-5zm-5 35a5 5 0 015 5 5 5 0 01-5-5zM330 1022.362c5.523 0 10-4.478 10-10v-30c0-5.523-4.477-10-10-10-.434 0-.862.04-1.281.094a9.973 9.973 0 00-8.719-5.094v5c1.64 0 3.088.812 4 2.031-2.424 1.825-4 4.7-4 7.969v30c0 5.523 4.477 10 10 10zm0-5a5 5 0 01-5-5v-30c0-.716.167-1.385.438-2 1.274 4.056 5.085 7 9.562 7v25a5 5 0 01-5 5zm5-35a5 5 0 01-5-5 5 5 0 015 5z"/><path d="M30 662.362v360h270M60 542.362h270v360" fill="none" stroke="#55a" stroke-width="2"/><path d="M194.985 687.495l17.677.354s-10.836 15.986-15.202 24.572c-3.115 6.125-5.696 12.543-7.779 19.091-1.888 5.94-3.115 12.08-4.242 18.208-.635 3.451-.961 6.951-1.414 10.43-.43 3.298-1.238 9.9-1.238 9.9h-8.308s1.338-10.735 2.12-16.087c.753-5.138 1.523-10.275 2.476-15.38.884-4.737 1.755-9.487 3.005-14.142 1.527-5.686 3.549-11.23 5.48-16.793 2.348-6.763 7.425-20.153 7.425-20.153z" fill="#ff5"/><path d="M194.1 769.873l8.663-.177s1.53-6.09 2.652-9.015c1.661-4.331 3.63-8.57 6.01-12.552 2.921-4.886 6.226-9.595 10.076-13.788 2.853-3.107 6.22-5.713 9.546-8.309 3.002-2.343 5.931-4.901 9.37-6.54 3.652-1.742 7.724-2.448 11.667-3.36 5.304-1.225 10.667-2.299 16.086-2.828 2.875-.28 5.776-.276 8.662-.176 3.962.136 11.844 1.06 11.844 1.06l8.84-11.667s-7.287-3.35-10.784-5.303c-2.127-1.188-4.259-2.401-6.187-3.89-2.047-1.578-5.657-5.303-5.657-5.303l-38.007-.353s-5.205 5.52-7.778 8.308c-4.216 4.567-8.88 8.774-12.552 13.789-3.54 4.836-6.32 10.203-9.015 15.556-2.943 5.847-5.583 11.865-7.778 18.032-1.664 4.674-3.065 9.459-4.066 14.318-.828 4.016-1.591 12.198-1.591 12.198z" fill="#ff5655"/><path d="M143.012 687.495l33.058.177-6.364 21.036-3.536 20.153-2.652 24.041.177 16.794h-10.43l-2.651-11.137-6.895-14.495-2.12-3.182 4.949-8.486 3.535-10.783.354-10.607-1.414-11.313-2.829-6.188z" fill="#f55"/><path d="M122.75 686.612l5-7 6.75-9.5 7.5-11 2.75-5.25 3.5-6 36.75-.75 5.25 4.25 5.5 1 7.25-1.25 3.5-1.5 44.75.5 2.75 5 3.25 5.5 3.25 5.75 2.75 4.5 3.25 5.75 3.75 5 4.5 6.5z" fill="#ff5"/><g stroke="#000" stroke-width="2" stroke-linecap="round" stroke-linejoin="round"><path d="M144.5 654.612l109.25.75M141.25 659.862l116.25 1.25M127.5 680.612l142.25.75M123.25 686.862l151.5 1" fill="#55a"/><path d="M141.375 660.362l-6.125 9.75h11.375l6.125-9.07zM148.262 671.237l-5.012 8.25 13.488-.5 4.262-8.174zM167.637 661.237l-5.012 9h11.988l5.512-9.174zM176.137 671.237l-5.262 8.75 12.238-.75 5.512-8.674zM193.887 661.987l-4.262 8.25h12.238l4.262-8.924zM202.387 670.987l-5.512 9.25 13.488-.5 5.762-8.674zM221.575 660.987l-5.2 9.5 12.55.25 5.2-9.174zM230.137 671.487l-5.512 8.25 12.488.25 4.512-8.674zM247.637 661.987l-4.262 8.5 11.738.75 4.006-5.837-1.744-2.587zM254.887 671.987l-5.512 8.25h13.238l2.63-3.837-1.868-4.337z"/></g><path d="M220.264 643.3l27.577.354 4.066 6.718-47.023-.177z" fill="#55a"/><path d="M147.785 648.25h37.83s-6.074-6.654-8.131-10.606c-2.169-4.166-3.096-8.88-4.243-13.435-1.157-4.595-1.9-9.287-2.651-13.965-.717-4.46-1.31-8.942-1.768-13.435-.33-3.233-.707-9.723-.707-9.723s-2.034 10.42-3.36 15.556c-1.43 5.542-3.042 11.044-4.949 16.44-1.717 4.86-3.87 9.554-5.833 14.32-2.043 4.957-6.188 14.849-6.188 14.849z"/><path d="M307 542.362a110.294 110.294 0 000 30c1.413 10.276 4.276 20.32 8 30a174.342 174.342 0 0015 30 57.333 57.333 0 00-15-2c-5.06 0-10.118.675-15 2l-50-90z" fill="#ff5" stroke="#55a" stroke-width="2" stroke-linecap="round" stroke-linejoin="round"/><path d="M261.43 542.362s-3.889 5.313-1.035 9.879c1.595 2.554 8.696 3.143 8.696 3.143s-2.712 7.967-.85 11.226c1.845 3.231 10.016 4.93 10.016 4.93s-3.62 7.18-1.306 11.235c3.355 5.88 9.755 3.893 9.755 3.893s-4.019 7.076.793 12.72c2.498 2.93 8.02 2.99 8.02 2.99-2.742 2.81-2.755 7.944-.894 11.19 1.446 2.523 7.854 3.794 7.854 3.794s-2.567 6.593-.21 8.95c2.357 2.357 6.008 3.361 6.008 3.361" fill="none" stroke="#000100" stroke-width="2" stroke-linecap="round" stroke-linejoin="round"/><path d="M287.432 589.432c.269 1.033.598 2.073 1.157 2.977.737 1.192 1.542 2.523 2.826 3.117 1.615.747 3.872 1.215 5.405.223 1.495-.967 2.203-3.185 1.97-4.899-.268-1.978-3.675-4.676-3.675-4.676s4.888-.981 5.961-2.895c1.009-1.797.52-4.422-.698-6.012-1.202-1.568-3.607-2.81-5.563-2.227-2.196.656-4.022 5.567-4.022 5.567s-.366-3.828-1.398-5.344c-.917-1.347-2.307-2.724-3.962-2.895-1.467-.151-3.271.556-4.12 1.782-1.335 1.929-1.223 4.853-.233 6.902.992 2.055 5.536 4.061 5.536 4.061s-.929-2.84 1.504-4.108c1.945-1.013 4.978.863 5.738 2.842.644 1.676-.176 4.634-1.954 5.146-3.55 1.02-4.865-2.344-4.865-2.344s.157 1.88.393 2.783zM271.342 558.933c.299 1.037.664 2.083 1.283 2.991.817 1.199 1.71 2.536 3.133 3.133 1.79.75 4.292 1.221 5.992.224 1.657-.972 2.442-3.201 2.184-4.923-.298-1.988-4.075-4.7-4.075-4.7s5.419-.986 6.609-2.91c1.118-1.805.576-4.444-.774-6.042-1.333-1.576-3.999-2.825-6.167-2.238-2.434.66-4.459 5.595-4.459 5.595s.035-4.181-1.11-5.705H265c-1.48 1.939-1.628 4.266-.698 6.153 1.028 2.087 6.137 4.081 6.137 4.081s-1.03-2.855 1.667-4.129c2.156-1.018 5.517.868 6.36 2.857.714 1.683-.195 4.657-2.166 5.17-3.934 1.026-5.393-2.355-5.393-2.355s.174 1.889.435 2.798zM303.809 619.625c.23.941.51 1.89.986 2.715.628 1.088 1.314 2.303 2.408 2.844 1.376.681 3.298 1.109 4.605.203 1.274-.882 1.877-2.905 1.679-4.469-.229-1.804-3.132-4.266-3.132-4.266s4.165-.895 5.08-2.641c.859-1.64.442-4.035-.596-5.485-1.024-1.431-3.073-2.565-4.74-2.032-1.87.598-3.426 5.079-3.426 5.079s-.312-3.493-1.191-4.876c-.782-1.228-1.966-2.485-3.376-2.64-1.25-.139-2.787.506-3.51 1.624-1.137 1.76-1.042 4.428-.199 6.298.845 1.875 4.717 3.705 4.717 3.705s-.792-2.591 1.282-3.748c1.657-.924 4.24.788 4.889 2.593.548 1.529-.15 4.228-1.666 4.694-3.023.931-4.145-2.138-4.145-2.138s.134 1.715.335 2.54z" stroke="#000100" stroke-width="2" stroke-linecap="round" stroke-linejoin="round"/><path d="M191.334 543.313s3.777 13.72 12.651 20.591c8.875 6.872 19.274 9.808 19.274 9.808" fill="none" stroke="#55a" stroke-width="2" stroke-linecap="round" stroke-linejoin="round"/><path d="M196.502 542.896s3.212 10.664 10.428 16.677c7.215 6.012 15.04 8.636 15.04 8.636" fill="none" stroke="#55a" stroke-width="2" stroke-linecap="round" stroke-linejoin="round"/><path d="M202.608 543.104s2.41 8.685 7.792 13.266c5.381 4.58 10.497 6.526 10.497 6.526M207.63 543s.73 5.562 5.028 9.112 6.999 5.034 6.999 5.034M213.255 543.313s.097 3.661 2.648 5.837c2.551 2.176 3.363 2.099 3.363 2.099M191.28 543.416s-1.312 8.523-6.616 17.395c-5.303 8.871-15.276 14.046-15.276 14.046M185.392 543.362s.884 4.945-3.94 12.458c-4.824 7.512-11.998 11.785-11.998 11.785M181.02 543.362s-.932 5.826-3.508 10.407c-2.575 4.58-7.86 7.898-7.86 7.898M175.895 543.362s.18 2.769-1.943 6.319-4.09 3.984-4.09 3.984M187.648 583.59s.398 5.171 0 7.71c-.5 3.186-1.985 6.137-2.963 9.21-.785 2.467-2.203 4.833-2.33 7.409-.072 1.467-.002 3.135.906 4.322.786 1.026 2.525.98 3.495 1.852.82.736 1.813 2.716 1.813 2.716" fill="none" stroke="#55a" stroke-width="2" stroke-linecap="round" stroke-linejoin="round"/><path d="M199.96 606.478s3.173 3.545 2.719 5.557c-.292 1.29-1.813 2.196-3.107 2.47-1.44.304-2.907-.562-4.272-1.112-1.56-.628-2.775-2.902-4.401-2.47-.65.173-1.313 1.117-1.036 1.73.76 1.677 3.603.822 5.437.987 2.235.201 5.023 1.455 6.732 0 .825-.703.743-2.15.517-3.21-.328-1.54-2.589-3.952-2.589-3.952zM223.29 580.274s-7.256-3.841-11.137-4.566c-2.642-.493-5.444-.65-8.021.195-1.378.452-3.722 2.523-3.722 2.523s3.415-1.202 5.175-1.457c2.65-.383 5.364-.529 8.008-.091 3.338.553 9.696 3.396 9.696 3.396zM169.902 578.305s5.292-2.955 8.12-2.632c3.521.403 9.115 5.48 9.115 5.48s-5.934-4.223-9.375-4.333c-2.888-.093-8.086 3.125-8.086 3.125zM203.815 625.378s-4.811-1.636-7.318-1.784c-1.882-.11-3.73.609-5.613.686-2.15.088-4.355-.745-6.45-.255-1.145.268-3.1 1.69-3.1 1.69s2.135-.402 3.21-.347c2.185.112 4.231 1.366 6.42 1.369 2.414.003 4.653-1.271 7.088-1.495 1.913-.175 5.763.136 5.763.136z" fill="#55a" stroke="#55a" stroke-width="2" stroke-linecap="round" stroke-linejoin="round"/><path d="M200.247 635.458s-4.102-1.452-6.344-1.482c-2.537-.034-7.276 1.482-7.276 1.482M197.767 629.622s-3.75 1.196-5.696 1.234c-1.667.033-4.92-.864-4.92-.864M186.402 587.816s-4.784-4.071-9.174-4.17c-4.699-.106-7.506 2.502-7.506 2.502M223.689 589.71s-8.137-7.264-12.808-7.102c-6.121.212-10.692 5.512-10.692 5.512" fill="none" stroke="#55a" stroke-width="2" stroke-linecap="round" stroke-linejoin="round"/><path d="M228.312 591.506c-5.564-.751-9.654-3.271-14.777-3.728-4.391-.39-13.256 1.028-13.256 1.028M169.124 591.578c5.122-2.52 4.025-3.322 9.147-3.779 4.392-.39 8.98 2.208 8.98 2.208" fill="none" stroke="#55a" stroke-width="2" stroke-linecap="round" stroke-linejoin="round"/><path d="M225.235 591.026c-5.008 1.19-10.239 5.039-15.904 5.333-4.198.218-8.7-2.79-9.07-6.84" fill="none" stroke="#55a" stroke-width="2" stroke-linecap="round" stroke-linejoin="round"/><path d="M214.693 588.832c.891 5.02-3.82 6.504-7.205 6.07-2.296-.295-4.425-3.233-3.32-6.102" fill="none" stroke="#55a" stroke-width="2" stroke-linecap="round" stroke-linejoin="round"/><path d="M206.85 591.188c-.093-.91.71-2.162 1.622-2.212.799-.044 1.64.97 1.622 1.77-.018.833-.936 1.747-1.77 1.768-.66.018-1.406-.669-1.474-1.326z" fill="#55a" stroke="#55a" stroke-width="2" stroke-linecap="round" stroke-linejoin="round"/><path d="M169.517 593.334c2.672 1.804 6.094 2.87 10.459 2.747 3.234-.09 6.521-2.538 6.579-5.496" fill="none" stroke="#55a" stroke-width="2" stroke-linecap="round" stroke-linejoin="round"/><path d="M174.792 589.023c-1.112 4.283 1.762 7.026 5.81 6.953 1.78-.032 3.922-4.551 2.914-6.567" fill="none" stroke="#55a" stroke-width="2" stroke-linecap="round" stroke-linejoin="round"/><path d="M181.59 591.256c.026-.71-.805-1.63-1.656-1.612-.745.017-1.457.856-1.387 1.475.073.645.987 1.295 1.763 1.26.616-.029 1.262-.608 1.28-1.123z" fill="#55a" stroke="#55a" stroke-width="2" stroke-linecap="round" stroke-linejoin="round"/><path d="M169.096 543.405s-.173 21.128-.208 31.692c-.02 6.047-.34 12.103 0 18.14.418 7.403 1.017 14.838 2.502 22.102 1.41 6.893 3.174 13.801 6.047 20.224 1.898 4.244 3.903 8.709 7.297 11.885 2.18 2.04 5.037 3.413 7.923 4.17 2.354.618 4.905.653 7.298.209 4.962-.922 9.424-3.646 13.97-5.838 4.286-2.068 8.487-4.338 12.51-6.881 4.924-3.112 14.178-10.217 14.178-10.217M185.777 595.322c-1.99 2.44-2.133 4.604-6.255 6.672M199.538 593.654c1.75 4.608 4.071 8.497 8.966 10.634" fill="none" stroke="#55a" stroke-width="2" stroke-linecap="round" stroke-linejoin="round"/><path d="M226.084 543.226S267.993 630.033 292 671.777c2.297 3.993 4.476 8.122 7.457 11.633 2.597 3.058 5.585 5.863 8.948 8.053 2.648 1.724 5.607 3.026 8.65 3.877 2.315.648 4.763 1.11 7.158.895 1.66-.149 4.772-1.491 4.772-1.491l-93.953-151.518z"/><g fill="none" stroke="#55a" stroke-width="2" stroke-linecap="round" stroke-linejoin="round"><path d="M218.496 542.892s2.801 20.833 4.95 31.112c1.246 5.96 2.817 11.855 4.596 17.678 3.834 12.547 7.957 25.045 13.081 37.123 3.19 7.52 7.036 14.756 10.96 21.92 5.74 10.476 11.383 21.083 18.385 30.76 2.743 3.79 5.596 7.615 9.193 10.606 4.833 4.02 10.39 7.304 16.263 9.546 4.728 1.805 9.825 2.856 14.883 2.995 3.679.1 7.376-.613 10.927-1.58 2.702-.737 7.778-3.183 7.778-3.183s-9.866 1.036-14.496-.353c-5.324-1.598-9.953-5.185-14.142-8.839-3.468-3.025-6.296-6.77-8.839-10.607-4.689-7.073-7.805-15.07-11.667-22.627-4.51-8.823-8.903-17.705-13.435-26.516-5.474-10.64-11.225-21.138-16.617-31.82-4.726-9.364-9.122-18.891-13.789-28.285-4.643-9.345-14.142-27.93-14.142-27.93zM220.131 551.002c4.523 5.416 9.045 10.928 13.568 15.578M221.247 561.144c6.007 6.327 11.444 12.654 19.71 18.981M223.8 570.469c11.18 12.128 16.536 16.49 23.223 22.627M225.92 580.015c11.026 11.811 21.135 22.017 28.992 28.284M227.435 588.832c11.65 11.967 22.916 24.454 33.807 31.863M231.224 600.52c11.875 11.912 25.01 25.68 35.355 31.467M235.224 612.652c13.411 12.092 27.733 25.407 38.073 31.356M238.472 622.21c12.047 11.444 27.014 23.657 39.852 31.94M245.72 636.937c11.374 9.467 22.938 18.744 36.659 25.865M251.355 649.345c11.001 9.592 23.053 16.56 35.642 22.185M259.078 662.205c11.11 7.11 22.221 14.422 33.332 19.224M265.684 672.922c10.664 6.99 21.814 13.008 34.019 16.916M273.386 684.943c12.61 6.12 27.904 14.937 40.514 14.385"/></g><path d="M300 632.362l-8 3-57-93h15zM164.402 543.245s.32 15.621-.707 23.335c-1.071 8.047-2.756 16.106-5.657 23.688-2.299 6.009-5.706 11.564-9.192 16.97-4.65 7.211-10.825 13.35-15.556 20.507-4.192 6.34-8.107 12.907-11.314 19.799-2.596 5.577-5 11.325-6.364 17.324a58.913 58.913 0 00-1.414 14.849c.165 5.248 2.475 15.556 2.475 15.556s8.597-12.417 12.728-18.738c5.938-9.088 12.31-17.948 17.324-27.577 4.902-9.416 8.805-19.347 12.374-29.345 3.222-9.026 6.514-18.131 8.132-27.577 1.136-6.63.8-13.431 1.06-20.153.37-9.542.708-28.638.708-28.638zM30.75 772.112l69.75-56.25 4.75 5.75-74.75 60z" fill="#f55" stroke="#55a" stroke-width="2" stroke-linecap="round" stroke-linejoin="round"/><path d="M101 715.112l27.75 37.25 5-2.909-28.866-39.548z" fill="none" stroke="#55a" stroke-width="2" stroke-linecap="round" stroke-linejoin="round"/><path d="M104.75 709.612l15-17.75s4.967 5.177 6.75 8.25c1.933 3.332 3.457 7 4.134 10.793.627 3.514.643 7.224-.134 10.707-.658 2.948-2.103 5.718-3.75 8.25-1.094 1.683-4 4.5-4 4.5z" fill="#55a" stroke="#55a" stroke-width="2" stroke-linecap="round" stroke-linejoin="round"/><path d="M126 687.862s6.092 6.257 8.25 10c1.91 3.312 3.323 6.987 4 10.75.694 3.855.732 7.903 0 11.75-.636 3.345-1.995 6.583-3.75 9.5-2.162 3.593-8.177 9.56-8.177 9.56l-3.853-5.103c3.078-3.07 5.067-4.745 6.78-7.707 1.719-2.97 3.04-6.328 3.31-9.75.261-3.297-.531-6.677-1.676-9.78-1.44-3.902-3.788-7.47-6.384-10.72-1.435-1.796-5-4.75-5-4.75l2.75-3.75z" stroke="#55a" stroke-width="2" stroke-linecap="round" stroke-linejoin="round"/><path d="M130.75 742.862s3.895-3.112 5.5-5a32.98 32.98 0 004.53-6.97c1.577-3.255 2.884-6.71 3.47-10.28.5-3.042.397-6.192 0-9.25a52.896 52.896 0 00-3.5-13.25c-1.462-3.556-5.75-10-5.75-10l7.866.323s4.663 7.674 5.945 11.927c1.21 4.016 1.444 8.295 1.543 12.488.074 3.16-.117 6.353-.72 9.457-.568 2.923-1.652 5.728-2.707 8.512-.781 2.06-1.59 4.127-2.677 6.043-.855 1.509-3 4.25-3 4.25s3.34 5.407 4.75 8.25c1.527 3.078 2.969 6.223 4 9.5 1.432 4.553 2.713 9.236 3 14 .388 6.432-.51 12.927-1.75 19.25-1.207 6.157-2.815 12.33-5.5 18-2.186 4.617-5.216 8.838-8.5 12.75-3.259 3.883-6.925 7.486-11 10.5-4.38 3.24-9.196 5.967-14.25 8-6.788 2.73-13.984 4.637-21.25 5.5-4.966.59-10.04.391-15-.25-4.51-.583-8.944-1.789-13.25-3.25-3.534-1.199-7.06-2.562-10.25-4.5-3.292-2-6.164-4.643-9-7.25-1.866-1.715-5.25-5.5-5.25-5.5l-8 6.5v-8.5l94-75.75 4.25 4.75 6.25-5.25z" fill="#fff954" stroke="#55a" stroke-width="2" stroke-linecap="round" stroke-linejoin="round"/><path d="M30.5 817.862l90.5-74.75-12.25-16.75-78.25 62.5zM61.5 806.862l12.75-9.75 30.25-25 13.543-11.336s2.874 6.92 3.457 10.586c.747 4.691.63 9.542 0 14.25-.63 4.709-1.407 9.618-3.75 13.75-2.907 5.127-7.276 9.59-12.25 12.75-4.382 2.785-9.6 4.342-14.75 5-4.558.583-9.326.244-13.75-1-2.978-.837-5.596-2.66-8.25-4.25-2.518-1.508-7.25-5-7.25-5z" fill="#55a" stroke="#55a" stroke-width="2" stroke-linecap="round" stroke-linejoin="round"/><path d="M75 797.862l29.75-24.75s1.69 4.934 1.75 7.5c.076 3.22-.303 6.623-1.75 9.5-1.483 2.95-4.029 5.38-6.75 7.25-2.48 1.705-5.412 2.847-8.375 3.375-2.709.483-5.56.325-8.25-.25-2.247-.48-6.375-2.625-6.375-2.625z" fill="#ff5554"/><path d="M42.5 823.362l14.75-12.75s7.836 6.721 12.5 8.75c4.766 2.074 10.053 3.186 15.25 3.25 5.426.067 10.912-1.113 16-3 5.146-1.908 10.079-4.682 14.25-8.25a37.539 37.539 0 008.5-10.5c2.305-4.236 3.74-8.987 4.5-13.75.577-3.62.186-7.338 0-11-.209-4.1-.27-8.264-1.25-12.25-.643-2.615-3-7.5-3-7.5l13.5-10.75s4.457 6.604 6 10.25c1.82 4.301 3.12 8.873 3.75 13.5.529 3.881.343 7.849 0 11.75-.46 5.227-1.29 10.46-2.75 15.5-1.653 5.708-3.615 11.452-6.75 16.5-2.99 4.815-7.038 8.957-11.25 12.75-3.952 3.56-8.272 6.814-13 9.25-4.076 2.1-8.511 3.564-13 4.5-5.237 1.092-10.65 1.251-16 1.25a80.72 80.72 0 01-12.75-1c-3.812-.611-7.666-1.315-11.25-2.75-3.57-1.429-6.947-3.412-10-5.75-2.994-2.293-8-8-8-8z" stroke="#000" stroke-width="2" stroke-linecap="round" stroke-linejoin="round"/><g stroke="#000" stroke-width="2.135" stroke-linecap="round" stroke-linejoin="round"><path transform="matrix(.87778 0 0 1 5.386 510.362)" d="M53.25 305.75s5.681-.833 8.5-.5c2.854.338 5.785 1.023 8.25 2.5 1.516.909 3.75 3.75 3.75 3.75s-4.87 2.336-7.5 2.5c-2.969.185-6.102-.395-8.75-1.75-1.417-.725-2.703-1.872-3.5-3.25-.557-.962-.75-3.25-.75-3.25z" fill="#ff5"/><path transform="matrix(.87778 0 0 1 5.386 510.362)" d="M53.75 306.5s3.39 2.082 5.25 2.75c1.523.547 4.75 1 4.75 1" fill="none"/></g><path d="M85.5 726.112s-3.848-4.968-6-7.25c-2.266-2.402-4.623-4.75-7.25-6.75-2.024-1.54-4.072-3.24-6.5-4-1.434-.449-3.125-.855-4.5-.25-1.084.477-2.05 1.583-2.25 2.75-.375 2.182 1.086 4.366 2.25 6.25 1.27 2.056 3.22 3.617 5 5.25 1.18 1.082 3.12 1.529 3.75 3 .757 1.769-.25 3.843-.5 5.75-.187 1.426-.75 4.25-.75 4.25" fill="none" stroke="#55a" stroke-width="2" stroke-linecap="round" stroke-linejoin="round"/><path d="M62.5 712.496s.426 1.588 1 2.116c.524.482 1.292.824 2 .75 1.08-.113 2.75-1.75 2.75-1.75M58.5 709.862s-3.465-1.73-5-1c-1.615.77-2.494 2.961-2.5 4.75-.01 2.721 2.32 4.935 3.75 7.25 1.19 1.93 2.218 4.099 4 5.5 1.204.947 2.755 2.086 4.25 1.75 1.209-.272 2.257-1.535 2.5-2.75.243-1.215-.496-2.517-1.25-3.5-.802-1.045-1.938-2.37-3.25-2.25-1.032.095-1.569 1.377-2.19 2.207-.616.825-1.487 2.707-1.487 2.707" fill="none" stroke="#55a" stroke-width="2" stroke-linecap="round" stroke-linejoin="round"/><path d="M50.25 714.862s-2.448.817-3.25 1.75c-.807.94-1.302 2.262-1.25 3.5.084 2.012 1.353 3.845 2.5 5.5 1.343 1.937 3.255 3.416 5 5 1.359 1.234 2.503 2.938 4.25 3.5 1.193.384 2.894.665 3.75-.25.797-.852.25-2.36 0-3.5-.256-1.165-.428-2.727-1.5-3.25-1.308-.638-3.14.059-4.25 1-.826.701-1.25 3-1.25 3" fill="none" stroke="#55a" stroke-width="2" stroke-linecap="round" stroke-linejoin="round"/><path d="M46.25 724.362s-3.043 2.109-3.25 3.75c-.14 1.11.791 2.136 1.5 3 1.807 2.205 4.322 3.756 6.75 5.25 1.492.918 2.998 2.229 4.75 2.25.82.01 1.842-.288 2.25-1 .376-.654.077-1.57-.25-2.25-.613-1.274-1.587-3.047-3-3-.885.03-1.401 1.186-1.75 2-.362.846-.25 2.75-.25 2.75" fill="none" stroke="#55a" stroke-width="2" stroke-linecap="round" stroke-linejoin="round"/><path d="M44.75 733.112s-1.098 1.95-1 3c.159 1.709 1.297 3.277 2.5 4.5 1.56 1.586 3.646 2.71 5.78 3.336 1.111.326 2.587.913 3.47.164 1.088-.922 1.159-2.984.5-4.25-.568-1.091-2.034-1.938-3.25-1.75-.918.142-1.506 1.179-1.94 2-.436.828-.56 2.75-.56 2.75" fill="none" stroke="#55a" stroke-width="2" stroke-linecap="round" stroke-linejoin="round"/><path d="M47.768 742.155L43 751.862s.336 3.036 1.5 3.647c.982.515 2.322-.102 3.25-.707 1.187-.775 2.5-3.44 2.5-3.44l2.06-6.84" fill="#ff5" stroke="#55a" stroke-width="2" stroke-linecap="round" stroke-linejoin="round"/><path d="M43.366 752.393s2.081-1.847 3.384-2.03c1.281-.181 3.75 1 3.75 1" fill="none" stroke="#55a" stroke-width="2" stroke-linecap="round" stroke-linejoin="round"/><path d="M59.75 707.362s-5.512-1.229-8-2.5c-1.896-.968-3.746-2.194-5.116-3.823-1.486-1.767-2.56-3.94-3.134-6.177-.642-2.504-.25-7.75-.25-7.75s3.56 2.675 5.5 3.75c2.093 1.16 4.519 1.658 6.573 2.884 1.532.914 2.945 2.045 4.22 3.293 1.02 1 2.03 2.065 2.707 3.323.661 1.23 1.04 2.62 1.25 4 .176 1.153 0 3.5 0 3.5z" fill="#ff5" stroke="#55a" stroke-width="2" stroke-linecap="round" stroke-linejoin="round"/><path d="M48.5 695.862s2.02 2.617 3.263 3.69c1.878 1.62 4.191 2.657 6.237 4.06 1.526 1.047 4.5 3.25 4.5 3.25" fill="none" stroke="#55a" stroke-width="2" stroke-linecap="round" stroke-linejoin="round"/><path d="M64.44 708.13l7.456-13.798 4.104 2.28-7.53 13.31zM71.25 710.112s3.313-3.896 5.5-5.116c2.535-1.414 5.506-2.042 8.396-2.31 2.7-.251 5.396.787 8.104.676 2.532-.103 7.5-1.25 7.5-1.25s-1.936 5.417-4 7.25c-2.152 1.912-5.223 2.495-8 3.25-3.332.907-6.802 1.693-10.25 1.5-1.635-.091-3.35-.4-4.75-1.25-1.06-.642-2.5-2.75-2.5-2.75z" fill="#ff5" stroke="#55a" stroke-width="2" stroke-linecap="round" stroke-linejoin="round"/><path d="M72.409 710.362s4.326-1.625 6.591-2c2.468-.408 5.052.264 7.5-.25 1.318-.276 3.75-1.5 3.75-1.5" fill="none" stroke="#55a" stroke-width="2" stroke-linecap="round" stroke-linejoin="round"/><path d="M81.5 685.362l1.5 7.25 6 1.5-.5-7.25zM81.5 676.362l1.5-7 6.25-1.5-1 7.25zM71.25 676.362l-7.043-1.336-.957-6.914 7 1.25zM65 687.112l-1 7 7-2.25v-6z" fill="#55a" stroke="#55a" stroke-width="2" stroke-linecap="round" stroke-linejoin="round"/><path d="M72.841 684.448s-2.059 2.992-2.164 4.72c-.106 1.726.449 3.63 1.573 4.944.848.991 2.207 1.577 3.5 1.75 1.685.226 3.697.092 5-1 1.577-1.322 2.248-3.692 2.25-5.75.002-1.61-1.75-4.5-1.75-4.5s3.173 2.219 5 2.25c1.98.034 4.323-.657 5.5-2.25 1.094-1.48 1.193-3.794.5-5.5-.578-1.423-2.048-2.497-3.5-3-1.891-.655-4.137-.483-6 .25-.715.282-1.75 1.5-1.75 1.5s1.395-3.093 1.5-4.75c.117-1.86.07-3.974-1-5.5-.664-.948-1.874-1.483-3-1.75-1.3-.308-2.824-.384-4 .25-1.467.792-2.622 2.377-3 4-.308 1.321.396 2.69.75 4 .323 1.196 1.25 3.5 1.25 3.5s-3.72-1.987-5.75-2c-1.845-.012-3.916.476-5.25 1.75-.84.802-1.194 2.09-1.25 3.25-.075 1.555.217 3.336 1.25 4.5 1.017 1.146 2.718 1.74 4.25 1.75 2.184.015 6.091-2.414 6.091-2.414z" fill="#ff5" stroke="#55a" stroke-width="2" stroke-linecap="round" stroke-linejoin="round"/><path d="M70 680.862c3.43-.473 5.72-3.225 7.75-6.5 1.435 2.256 1.709 4.125 5.75 7.25-3.551 1.292-5.55 3.827-6.75 7-1.536-2.94-2.518-6.157-6.75-7.75z" fill="#f55" stroke="#55a" stroke-width="2" stroke-linecap="round" stroke-linejoin="round"/><path d="M175.5 687.362s-4.923 15.893-6.75 24c-1.524 6.763-2.544 13.634-3.5 20.5-.856 6.143-1.647 12.308-2 18.5-.38 6.656-.125 20-.125 20h12.125s1.432-13.7 2.5-20.5c1.436-9.138 2.825-18.323 5.25-27.25 1.506-5.545 3.724-10.873 5.75-16.25 1.266-3.36 2.659-6.67 4-10 1.243-3.086 3.75-9.25 3.75-9.25zM211.75 687.362s-11.477 17.396-16 26.75c-2.87 5.936-5.088 12.19-7 18.5-1.935 6.384-3.395 12.921-4.5 19.5-.652 3.885-.885 7.828-1.25 11.75-.194 2.081-.5 6.25-.5 6.25l11.5.25s3.617-18.596 6.75-27.5c2.685-7.631 6.161-15.019 10.25-22 4.255-7.264 9.298-14.086 14.75-20.5 2.9-3.412 6.27-6.397 9.5-9.5 1.063-1.021 3.25-3 3.25-3z" fill="#000003"/><path d="M203 769.362s3.582-11.965 6.5-17.44c3.293-6.177 7.477-11.938 12.25-17.06 4.691-5.033 9.916-9.756 15.879-13.19 5.883-3.387 12.501-5.51 19.121-7.017 5.224-1.19 10.642-1.5 16-1.543 5.183-.04 15.5 1.25 15.5 1.25" fill="none" stroke="#55a" stroke-width="2" stroke-linecap="round" stroke-linejoin="round"/><path d="M162.75 702.779c.5.5 1.25 1 2.5 1 2.25 0 3.75-1.333 3.75-3s-1.5-3.167-3.75-3.167c-1.25 0-1.5.334-2.25.834l-.25-.167c.75-.5 2.5-2 2.5-3.167 0-1.333-1.75-3-3.75-3s-3.75 1.667-3.75 3c0 1.167 1.75 2.667 2.5 3.167l-.25.167c-.75-.5-1-.834-2.25-.834-2.25 0-3.75 1.5-3.75 3.167 0 1.667 1.5 3 3.75 3 1.25 0 2-.5 2.5-1l.25.167c-.25 1-.25.833-.5 1.666-.25.834-1 2.5-1 2.5 2.5-.333 2.5-.333 5 0 0 0-.75-1.666-1-2.5-.25-.833-.25-.666-.5-1.666zM155.25 739.529c.5.5 1.25 1 2.5 1 2.25 0 3.75-1.333 3.75-3s-1.5-3.167-3.75-3.167c-1.25 0-1.5.334-2.25.834l-.25-.167c.75-.5 2.5-2 2.5-3.167 0-1.333-1.75-3-3.75-3s-3.75 1.667-3.75 3c0 1.167 1.75 2.667 2.5 3.167l-.25.167c-.75-.5-1-.834-2.25-.834-2.25 0-3.75 1.5-3.75 3.167 0 1.667 1.5 3 3.75 3 1.25 0 2-.5 2.5-1l.25.167c-.25 1-.25.833-.5 1.666-.25.834-1 2.5-1 2.5 2.5-.333 2.5-.333 5 0 0 0-.75-1.666-1-2.5-.25-.833-.25-.666-.5-1.666zM224 724.029c.5.5 1.25 1 2.5 1 2.25 0 3.75-1.333 3.75-3s-1.5-3.167-3.75-3.167c-1.25 0-1.5.334-2.25.834l-.25-.167c.75-.5 2.5-2 2.5-3.167 0-1.333-1.75-3-3.75-3s-3.75 1.667-3.75 3c0 1.167 1.75 2.667 2.5 3.167l-.25.167c-.75-.5-1-.834-2.25-.834-2.25 0-3.75 1.5-3.75 3.167 0 1.667 1.5 3 3.75 3 1.25 0 2-.5 2.5-1l.25.167c-.25 1-.25.833-.5 1.666-.25.834-1 2.5-1 2.5 2.5-.333 2.5-.333 5 0 0 0-.75-1.666-1-2.5-.25-.833-.25-.666-.5-1.666zM245.5 705.779c.5.5 1.25 1 2.5 1 2.25 0 3.75-1.333 3.75-3s-1.5-3.167-3.75-3.167c-1.25 0-1.5.334-2.25.834l-.25-.167c.75-.5 2.5-2 2.5-3.167 0-1.333-1.75-3-3.75-3s-3.75 1.667-3.75 3c0 1.167 1.75 2.667 2.5 3.167l-.25.167c-.75-.5-1-.834-2.25-.834-2.25 0-3.75 1.5-3.75 3.167 0 1.667 1.5 3 3.75 3 1.25 0 2-.5 2.5-1l.25.167c-.25 1-.25.833-.5 1.666-.25.834-1 2.5-1 2.5 2.5-.333 2.5-.333 5 0 0 0-.75-1.666-1-2.5-.25-.833-.25-.666-.5-1.666zM274.5 703.529c.5.5 1.25 1 2.5 1 2.25 0 3.75-1.333 3.75-3s-1.5-3.167-3.75-3.167c-1.25 0-1.5.334-2.25.834l-.25-.167c.75-.5 2.5-2 2.5-3.167 0-1.333-1.75-3-3.75-3s-3.75 1.667-3.75 3c0 1.167 1.75 2.667 2.5 3.167l-.25.167c-.75-.5-1-.834-2.25-.834-2.25 0-3.75 1.5-3.75 3.167 0 1.667 1.5 3 3.75 3 1.25 0 2-.5 2.5-1l.25.167c-.25 1-.25.833-.5 1.666-.25.834-1 2.5-1 2.5 2.5-.333 2.5-.333 5 0 0 0-.75-1.666-1-2.5-.25-.833-.25-.666-.5-1.666z" fill="#fff"/><path d="M296.75 702.862l-12.25 16.5s9.346 1.384 13.75 3c4.165 1.529 8.094 3.737 11.75 6.25 4.186 2.878 11.5 10 11.5 10l8.5-6.25v-32s-6.082 2.449-9.25 3.25c-3.6.91-7.288 1.663-11 1.75-2.263.053-4.528-.318-6.75-.75-2.124-.412-6.25-1.75-6.25-1.75z" fill="#55a"/><path style="line-height:normal;-inkscape-font-specification:Sans;text-indent:0;text-align:start;text-decoration-line:none;text-transform:none;marker:none" d="M216.813 688.112c-2.359.77-.738 3.107.616 3.989l2.759 2.636-11.375 5.781c-1.757 1.268.052 3.163.533 4.64.306.963 1.64 2.275-.038 2.563-2.541 1.424-5.246 2.604-7.679 4.19-.901 1.594.72 3.088 1.208 4.586.16.95 1.747 2.268.808 2.934-2.192 1.641-5.31 2.58-7.385 4.355-.659 1.69 1.764 3.598 2.344 5.108 1.222 1.165-.035 1.686-1.06 2.268-1.65 1.126-3.474 2.034-5.006 3.31-.762 1.65.934 3.029 1.517 4.49.377.92 1.859 2.198.1 2.423-1.487.768-3.138 1.264-4.51 2.223-.977 1.644.79 3.132 1.353 4.635.14.837 2.028 2.378.553 2.563-1.568.561-3.22.918-4.725 1.634-1.532 1.554.628 2.829 1.448 4.038.394.805 2.41 1.84.805 2.36-1.18 1.037-3.44 1.5-3.254 3.415.68 1.281 1.78 2.291 2.644 3.453-1.127 1.298-2.941 2.173-3.449 3.863 1.482.863 3.203.826 4.252-.495.951-1.158 2.892-1.928 2.64-3.66-.662-1.178-1.664-2.13-2.474-3.208 1.233-.993 2.95-1.539 3.753-2.937-.046-1.86-2.408-3.29-3.032-5.03.632-.5 3.235-.725 4.218-1.051 2.47-.36 1.308-2.911.39-4.233l-1.954-3.624c1.83-.934 3.827-1.591 5.542-2.714.994-1.654-.822-3.115-1.412-4.603-.253-.9-1.968-2.167-.418-2.612 1.96-1.324 4.098-2.424 5.937-3.9.756-1.647-.921-3.036-1.493-4.503-1.078-1.128-.545-1.888.715-2.481 1.83-1.376 3.827-2.562 5.547-4.065.66-1.651-.892-3.115-1.396-4.641-.109-.873-1.858-2.29-.466-2.666 2.65-1.468 5.453-2.702 8.002-4.323.926-1.573-.667-3.088-1.127-4.588-.69-1.085-1.06-2.06.533-2.352 3.642-1.89 7.351-3.669 10.95-5.63 1.452-1.71-.798-2.902-1.803-4.011-1.506-1.327-2.806-2.925-4.457-4.062-.862-.175-1.122.4-1.715.993zM186.875 688.612c-2.55 1.165-4.87 2.858-7.329 4.235-2 .659-1.557 2.793-.36 4.012l2.689 4.034c-2.257 1.479-4.708 2.707-6.837 4.352-.81 1.643.985 2.873 1.671 4.22l2.228 3.272c-2.043 1.551-4.284 2.88-6.198 4.577-.681 1.685 1.117 2.907 1.818 4.288.444.85 1.496 1.79 1.562 2.585-1.945 1.663-4.069 3.144-5.897 4.925-.586 1.623 1.031 2.886 1.643 4.28.22.847 1.825 1.986.971 2.606-1.594 1.216-3.395 2.2-4.848 3.576-.665 1.706 1.174 2.898 1.908 4.27.79.878 1.4 1.729-.029 2.277-1.087.974-3.387 1.88-2.275 3.695l2.377 3.64c-1.107 1.027-3.421 1.655-2.813 3.562l2.219 4.407c-1.022 1.011-2.94 1.564-2.834 3.262.79 1.612 1.995 3 2.959 4.519 2.613 2.148 3.35-1.871 1.444-3.213-.966-.914-.987-1.68.293-2.24 1.56-.714 1.774-2.47.753-3.754l-1.584-3.168c1.092-1.004 3.109-1.507 3.046-3.258-.713-1.552-1.822-2.901-2.702-4.367 1.159-.963 2.499-1.734 3.526-2.837.621-1.697-1.19-2.876-1.918-4.24-.803-.876-1.356-1.708.088-2.201 1.335-1.02 2.844-1.841 4.054-3.004.67-1.639-1.004-2.928-1.625-4.337-.266-.842-1.631-1.876-1.176-2.594 1.927-1.652 4.034-3.121 5.839-4.896.598-1.668-1.151-2.859-1.846-4.225-.403-.81-1.483-1.742-1.492-2.483 1.998-1.518 4.192-2.814 6.06-4.48.681-1.684-1.115-2.907-1.814-4.289l-2.071-3.04c2.257-1.477 4.708-2.706 6.837-4.35.802-1.638-.97-2.884-1.643-4.24l-1.85-2.784c2.282-1.554 4.813-2.791 6.905-4.59 1.424-1.698.455-1.194.126-1.629-.385-.508-1.875-.375-1.875-.375z" color="#000" font-weight="400" font-family="Sans" overflow="visible" fill="#ff5"/><path d="M89.146 746.684l14.303-3.277-7.859 14.084s.662-3.406-.413-4.424c-.932-.883-3.847-.15-3.847-.15s2.315-3.077 1.675-4.566c-.553-1.288-3.859-1.667-3.859-1.667zM63.913 767.876l14.303-3.277-7.86 14.084s.662-3.405-.413-4.424c-.931-.882-3.846-.15-3.846-.15s2.314-3.077 1.674-4.566c-.553-1.287-3.858-1.667-3.858-1.667zM37.396 788.382l14.303-3.277-7.859 14.084s.662-3.405-.413-4.424c-.932-.882-3.847-.15-3.847-.15s2.314-3.077 1.675-4.566c-.553-1.287-3.859-1.667-3.859-1.667zM103.808 736.888c.588.483.522 1.809-.076 2.28-.507.399-1.548.15-1.898-.392-.279-.433-.022-1.143.342-1.509.394-.395 1.2-.733 1.632-.379zM111.217 736.199c.588.482.522 1.809-.076 2.279-.507.4-1.548.151-1.898-.391-.28-.434-.022-1.143.342-1.509.394-.396 1.2-.734 1.632-.38zM109.217 743.824c.588.482.522 1.809-.076 2.279-.507.4-1.548.151-1.898-.391-.28-.434-.022-1.143.342-1.509.394-.396 1.2-.734 1.632-.38zM78.388 757.45c.587.483.521 1.81-.076 2.28-.508.399-1.548.151-1.898-.392-.28-.433-.023-1.142.341-1.508.394-.396 1.201-.734 1.633-.38zM85.796 756.761c.588.483.522 1.81-.076 2.28-.507.399-1.547.15-1.897-.392-.28-.433-.023-1.143.341-1.508.394-.396 1.2-.734 1.632-.38zM83.796 764.386c.588.483.522 1.81-.076 2.28-.507.399-1.547.15-1.897-.392-.28-.433-.023-1.143.341-1.508.394-.396 1.2-.734 1.632-.38zM53.138 777.45c.587.483.521 1.81-.076 2.28-.508.399-1.548.151-1.898-.392-.28-.433-.023-1.142.341-1.508.394-.396 1.201-.734 1.633-.38zM60.546 776.761c.588.483.522 1.81-.076 2.28-.507.399-1.547.15-1.897-.392-.28-.433-.023-1.143.341-1.508.394-.396 1.2-.734 1.632-.38zM58.546 784.386c.588.483.522 1.81-.076 2.28-.507.399-1.547.15-1.897-.392-.28-.433-.023-1.143.341-1.508.394-.396 1.2-.734 1.632-.38zM35.967 798.449c.588.482.522 1.809-.076 2.279-.507.4-1.548.151-1.898-.391-.28-.434-.022-1.143.342-1.509.394-.396 1.2-.734 1.632-.38z" fill="#fff" stroke="#fff" stroke-width="2" stroke-linecap="round" stroke-linejoin="round"/><g stroke="#000" stroke-width="2" stroke-linecap="round" stroke-linejoin="round"><path d="M48.017 818.941s5.073 2.69 7.148 4.627c2.1 1.96 4.058 4.248 5.171 6.897.685 1.63.804 5.242.804 5.242s-5.308-.998-7.525-2.422c-2.503-1.608-4.685-3.93-6.019-6.589-.713-1.423-1.07-3.108-.898-4.69.12-1.106 1.319-3.065 1.319-3.065z" fill="#ff5"/><path d="M47.976 819.842s1.501 3.685 2.605 5.323c.904 1.343 3.237 3.617 3.237 3.617" fill="none"/></g><g stroke="#000" stroke-width="2" stroke-linecap="round" stroke-linejoin="round"><path d="M61.561 826.644s5.614 1.21 8.137 2.509c2.555 1.316 5.06 2.985 6.852 5.231 1.102 1.382 2.199 4.826 2.199 4.826s-5.38.483-7.9-.285c-2.846-.867-5.578-2.508-7.584-4.704-1.073-1.176-1.875-2.7-2.14-4.27-.184-1.097.436-3.307.436-3.307z" fill="#ff5"/><path d="M61.767 827.522s2.447 3.137 3.954 4.414c1.235 1.046 4.099 2.6 4.099 2.6" fill="none"/></g><g stroke="#000" stroke-width="2" stroke-linecap="round" stroke-linejoin="round"><path d="M79.31 834.357s5.347-2.094 8.168-2.404c2.856-.315 5.867-.308 8.601.575 1.682.543 4.5 2.807 4.5 2.807s-4.218 3.375-6.744 4.127c-2.85.85-6.034.991-8.92.269-1.544-.387-3.054-1.215-4.142-2.377-.76-.812-1.464-2.997-1.464-2.997z" fill="#ff5"/><path d="M79.966 834.975s3.773 1.263 5.735 1.495c1.607.19 4.853-.097 4.853-.097" fill="none"/></g><g stroke="#000" stroke-width="2" stroke-linecap="round" stroke-linejoin="round"><path d="M99.882 833.837s4.444-3.635 7.033-4.799c2.621-1.177 5.488-2.097 8.362-2.097 1.767 0 5.144 1.288 5.144 1.288s-2.976 4.508-5.147 6c-2.452 1.685-5.437 2.799-8.405 2.998-1.589.107-3.28-.216-4.673-.988-.972-.539-2.314-2.402-2.314-2.402z" fill="#ff5"/><path d="M100.696 834.224s3.979.042 5.917-.341c1.587-.313 4.588-1.584 4.588-1.584" fill="none"/></g><g stroke="#000" stroke-width="2" stroke-linecap="round" stroke-linejoin="round"><path d="M116.795 824.483s3.338-4.672 5.532-6.473c2.221-1.822 4.747-3.46 7.52-4.213 1.706-.463 5.303-.104 5.303-.104s-1.692 5.13-3.397 7.14c-1.925 2.267-4.515 4.123-7.327 5.093-1.505.519-3.223.65-4.769.27-1.08-.266-2.862-1.713-2.862-1.713z" fill="#ff5"/><path d="M117.682 824.643s3.851-1.001 5.621-1.878c1.45-.718 4.014-2.73 4.014-2.73" fill="none"/></g><g stroke="#000" stroke-width="2" stroke-linecap="round" stroke-linejoin="round"><path d="M129.52 812.085s1.647-5.5 3.14-7.914c1.513-2.444 3.373-4.81 5.754-6.42 1.464-.99 4.983-1.813 4.983-1.813s.06 5.4-.904 7.853c-1.088 2.769-2.938 5.363-5.285 7.19-1.256.978-2.839 1.658-4.425 1.799-1.107.097-3.262-.695-3.262-.695z" fill="#ff5"/><path d="M130.412 811.95s3.32-2.194 4.711-3.596c1.14-1.149 2.914-3.882 2.914-3.882" fill="none"/></g><g stroke="#000" stroke-width="1.933" stroke-linecap="round" stroke-linejoin="round"><path transform="matrix(.1895 -1.05162 .98188 .20295 -174.652 789.411)" d="M53.25 305.75s5.681-.833 8.5-.5c2.854.338 5.785 1.023 8.25 2.5 1.516.909 3.75 3.75 3.75 3.75s-4.87 2.336-7.5 2.5c-2.969.185-6.102-.395-8.75-1.75-1.417-.725-2.703-1.872-3.5-3.25-.557-.962-.75-3.25-.75-3.25z" fill="#ff5"/><path transform="matrix(.1895 -1.05162 .98188 .20295 -174.652 789.411)" d="M53.75 306.5s3.39 2.082 5.25 2.75c1.523.547 4.75 1 4.75 1" fill="none"/></g><g stroke="#000" stroke-width="1.933" stroke-linecap="round" stroke-linejoin="round"><path transform="matrix(-.18395 -1.0526 .99176 -.14732 -153.925 879.065)" d="M53.25 305.75s5.681-.833 8.5-.5c2.854.338 5.785 1.023 8.25 2.5 1.516.909 3.75 3.75 3.75 3.75s-4.87 2.336-7.5 2.5c-2.969.185-6.102-.395-8.75-1.75-1.417-.725-2.703-1.872-3.5-3.25-.557-.962-.75-3.25-.75-3.25z" fill="#ff5"/><path transform="matrix(-.18395 -1.0526 .99176 -.14732 -153.925 879.065)" d="M53.75 306.5s3.39 2.082 5.25 2.75c1.523.547 4.75 1 4.75 1" fill="none"/></g><g stroke="#000" stroke-width="2.083" stroke-linecap="round" stroke-linejoin="round"><path transform="matrix(-.15807 -1.05265 -.84587 .19754 405.252 774.663)" d="M53.25 305.75s5.681-.833 8.5-.5c2.854.338 5.785 1.023 8.25 2.5 1.516.909 3.75 3.75 3.75 3.75s-4.87 2.336-7.5 2.5c-2.969.185-6.102-.395-8.75-1.75-1.417-.725-2.703-1.872-3.5-3.25-.557-.962-.75-3.25-.75-3.25z" fill="#ff5"/><path transform="matrix(-.15807 -1.05265 -.84587 .19754 405.252 774.663)" d="M53.75 306.5s3.39 2.082 5.25 2.75c1.523.547 4.75 1 4.75 1" fill="none"/></g><g stroke="#000" stroke-width="2.083" stroke-linecap="round" stroke-linejoin="round"><path transform="matrix(.01286 -1.06437 -.8666 .05927 400.637 835.67)" d="M53.25 305.75s5.681-.833 8.5-.5c2.854.338 5.785 1.023 8.25 2.5 1.516.909 3.75 3.75 3.75 3.75s-4.87 2.336-7.5 2.5c-2.969.185-6.102-.395-8.75-1.75-1.417-.725-2.703-1.872-3.5-3.25-.557-.962-.75-3.25-.75-3.25z" fill="#ff5"/><path transform="matrix(.01286 -1.06437 -.8666 .05927 400.637 835.67)" d="M53.75 306.5s3.39 2.082 5.25 2.75c1.523.547 4.75 1 4.75 1" fill="none"/></g><g stroke="#000" stroke-width="2.083" stroke-linecap="round" stroke-linejoin="round"><path transform="matrix(.30932 -1.01852 -.84873 -.18488 371.415 923.556)" d="M53.25 305.75s5.681-.833 8.5-.5c2.854.338 5.785 1.023 8.25 2.5 1.516.909 3.75 3.75 3.75 3.75s-4.87 2.336-7.5 2.5c-2.969.185-6.102-.395-8.75-1.75-1.417-.725-2.703-1.872-3.5-3.25-.557-.962-.75-3.25-.75-3.25z" fill="#ff5"/><path transform="matrix(.30932 -1.01852 -.84873 -.18488 371.415 923.556)" d="M53.75 306.5s3.39 2.082 5.25 2.75c1.523.547 4.75 1 4.75 1" fill="none"/></g><g stroke="#000" stroke-width="2.36" stroke-linecap="round" stroke-linejoin="round"><path transform="matrix(.09809 -.92195 -.77467 -.03915 369.874 828.224)" d="M53.25 305.75s5.681-.833 8.5-.5c2.854.338 5.785 1.023 8.25 2.5 1.516.909 3.75 3.75 3.75 3.75s-4.87 2.336-7.5 2.5c-2.969.185-6.102-.395-8.75-1.75-1.417-.725-2.703-1.872-3.5-3.25-.557-.962-.75-3.25-.75-3.25z" fill="#ff5"/><path transform="matrix(.09809 -.92195 -.77467 -.03915 369.874 828.224)" d="M53.75 306.5s3.39 2.082 5.25 2.75c1.523.547 4.75 1 4.75 1" fill="none"/></g><g stroke="#000" stroke-width="2.083" stroke-linecap="round" stroke-linejoin="round"><path transform="matrix(.66533 -.8309 -.71944 -.48675 298.812 1019.04)" d="M53.25 305.75s5.681-.833 8.5-.5c2.854.338 5.785 1.023 8.25 2.5 1.516.909 3.75 3.75 3.75 3.75s-4.87 2.336-7.5 2.5c-2.969.185-6.102-.395-8.75-1.75-1.417-.725-2.703-1.872-3.5-3.25-.557-.962-.75-3.25-.75-3.25z" fill="#ff5"/><path transform="matrix(.66533 -.8309 -.71944 -.48675 298.812 1019.04)" d="M53.75 306.5s3.39 2.082 5.25 2.75c1.523.547 4.75 1 4.75 1" fill="none"/></g><g stroke="#000" stroke-width="2.083" stroke-linecap="round" stroke-linejoin="round"><path transform="matrix(.82178 -.67657 -.60416 -.6241 240.1 1058.938)" d="M53.25 305.75s5.681-.833 8.5-.5c2.854.338 5.785 1.023 8.25 2.5 1.516.909 3.75 3.75 3.75 3.75s-4.87 2.336-7.5 2.5c-2.969.185-6.102-.395-8.75-1.75-1.417-.725-2.703-1.872-3.5-3.25-.557-.962-.75-3.25-.75-3.25z" fill="#ff5"/><path transform="matrix(.82178 -.67657 -.60416 -.6241 240.1 1058.938)" d="M53.75 306.5s3.39 2.082 5.25 2.75c1.523.547 4.75 1 4.75 1" fill="none"/></g><g stroke="#000" stroke-width="2.083" stroke-linecap="round" stroke-linejoin="round"><path transform="matrix(1.01725 -.31348 -.32162 -.8069 124.213 1096.468)" d="M53.25 305.75s5.681-.833 8.5-.5c2.854.338 5.785 1.023 8.25 2.5 1.516.909 3.75 3.75 3.75 3.75s-4.87 2.336-7.5 2.5c-2.969.185-6.102-.395-8.75-1.75-1.417-.725-2.703-1.872-3.5-3.25-.557-.962-.75-3.25-.75-3.25z" fill="#ff5"/><path transform="matrix(1.01725 -.31348 -.32162 -.8069 124.213 1096.468)" d="M53.75 306.5s3.39 2.082 5.25 2.75c1.523.547 4.75 1 4.75 1" fill="none"/></g><g stroke="#000" stroke-width="2.14" stroke-linecap="round" stroke-linejoin="round"><path transform="matrix(.91024 -.30542 .32728 .84944 -85.263 581.788)" d="M53.25 305.75s5.681-.833 8.5-.5c2.854.338 5.785 1.023 8.25 2.5 1.516.909 3.75 3.75 3.75 3.75s-4.87 2.336-7.5 2.5c-2.969.185-6.102-.395-8.75-1.75-1.417-.725-2.703-1.872-3.5-3.25-.557-.962-.75-3.25-.75-3.25z" fill="#ff5"/><path transform="matrix(.91024 -.30542 .32728 .84944 -85.263 581.788)" d="M53.75 306.5s3.39 2.082 5.25 2.75c1.523.547 4.75 1 4.75 1" fill="none"/></g><g><path d="M165.015 877.23l-17.677-.354s10.836-15.987 15.202-24.572c3.115-6.125 5.696-12.543 7.779-19.092 1.888-5.939 3.115-12.079 4.242-18.208.635-3.45.961-6.95 1.414-10.43.43-3.298 1.238-9.9 1.238-9.9h8.308s-1.338 10.736-2.12 16.087c-.753 5.138-1.523 10.275-2.476 15.38-.884 4.737-1.755 9.488-3.005 14.142-1.527 5.687-3.549 11.231-5.48 16.794-2.348 6.763-7.425 20.152-7.425 20.152z" fill="#ff5"/><path d="M165.9 794.851l-8.663.177s-1.53 6.091-2.652 9.016c-1.661 4.33-3.63 8.57-6.01 12.55-2.921 4.887-6.226 9.597-10.076 13.79-2.853 3.107-6.22 5.712-9.546 8.308-3.002 2.344-5.931 4.902-9.37 6.54-3.652 1.742-7.724 2.448-11.667 3.36-5.304 1.226-10.667 2.3-16.086 2.828-2.875.28-5.776.276-8.662.177-3.962-.137-11.844-1.061-11.844-1.061l-8.84 11.667s7.287 3.351 10.784 5.304c2.127 1.187 4.259 2.4 6.187 3.889 2.047 1.579 5.657 5.303 5.657 5.303l38.007.354s5.205-5.521 7.778-8.309c4.216-4.567 8.88-8.773 12.552-13.789 3.54-4.836 6.32-10.202 9.015-15.556 2.943-5.847 5.583-11.864 7.778-18.031 1.664-4.674 3.065-9.46 4.066-14.319.828-4.016 1.591-12.198 1.591-12.198z" fill="#ff5655"/><path d="M216.988 877.23l-33.058-.177 6.364-21.037 3.536-20.152 2.652-24.042-.177-16.794h10.43l2.651 11.137 6.895 14.496 2.12 3.182-4.949 8.485-3.535 10.783-.354 10.607 1.414 11.314 2.829 6.187z" fill="#f55"/><path d="M237.25 878.112l-5 7-6.75 9.5-7.5 11-2.75 5.25-3.5 6-36.75.75-5.25-4.25-5.5-1-7.25 1.25-3.5 1.5-44.75-.5-2.75-5-3.25-5.5-3.25-5.75-2.75-4.5-3.25-5.75-3.75-5-4.5-6.5z" fill="#ff5"/><g stroke="#000" stroke-width="2" stroke-linecap="round" stroke-linejoin="round"><path d="M215.5 910.112l-109.25-.75M218.75 904.862l-116.25-1.25M232.5 884.112l-142.25-.75M236.75 877.862l-151.5-1" fill="#55a"/><path d="M218.625 904.362l6.125-9.75h-11.375l-6.125 9.07zM211.738 893.487l5.012-8.25-13.487.5-4.263 8.175zM192.363 903.487l5.012-9h-11.987l-5.513 9.175zM183.863 893.487l5.262-8.75-12.237.75-5.513 8.675zM166.113 902.737l4.262-8.25h-12.237l-4.263 8.925zM157.613 893.737l5.512-9.25-13.487.5-5.763 8.675zM138.425 903.737l5.2-9.5-12.55-.25-5.2 9.175zM129.863 893.237l5.512-8.25-12.487-.25-4.513 8.675zM112.363 902.737l4.262-8.5-11.737-.75-4.007 5.837 1.744 2.588zM105.113 892.737l5.512-8.25H97.388l-2.632 3.837 1.869 4.338z"/></g><path d="M139.736 921.423l-27.577-.353-4.066-6.718 47.023.177z" fill="#55a"/><path d="M212.215 916.474h-37.83s6.074 6.655 8.131 10.606c2.169 4.166 3.096 8.881 4.243 13.435 1.157 4.595 1.9 9.287 2.651 13.966.717 4.46 1.31 8.941 1.768 13.435.33 3.232.707 9.722.707 9.722s2.034-10.42 3.36-15.556c1.43-5.541 3.042-11.044 4.949-16.44 1.717-4.86 3.87-9.554 5.834-14.319a3811.04 3811.04 0 016.187-14.85z"/><path d="M53 1022.362a110.294 110.294 0 000-30c-1.413-10.276-4.276-20.319-8-30a174.342 174.342 0 00-15-30c4.882 1.326 9.941 2 15 2 5.06 0 10.118-.674 15-2l50 90z" fill="#ff5" stroke="#55a" stroke-width="2" stroke-linecap="round" stroke-linejoin="round"/><path d="M98.57 1022.362s3.889-5.312 1.035-9.878c-1.595-2.554-8.696-3.144-8.696-3.144s2.712-7.967.85-11.225c-1.845-3.232-10.016-4.93-10.016-4.93s3.62-7.181 1.306-11.235c-3.355-5.88-9.755-3.894-9.755-3.894s4.019-7.076-.793-12.72c-2.498-2.93-8.02-2.99-8.02-2.99 2.742-2.809 2.755-7.943.894-11.19-1.446-2.522-7.854-3.794-7.854-3.794s2.567-6.592.21-8.95c-2.357-2.356-6.008-3.36-6.008-3.36" fill="none" stroke="#000100" stroke-width="2" stroke-linecap="round" stroke-linejoin="round"/><path d="M72.568 975.292c-.269-1.032-.598-2.072-1.157-2.976-.737-1.193-1.542-2.524-2.826-3.118-1.615-.746-3.872-1.215-5.405-.222-1.495.967-2.203 3.185-1.97 4.898.268 1.978 3.675 4.677 3.675 4.677s-4.888.98-5.961 2.894c-1.009 1.797-.52 4.423.698 6.012 1.202 1.569 3.607 2.811 5.563 2.227 2.196-.656 4.022-5.567 4.022-5.567s.366 3.828 1.398 5.345c.917 1.346 2.307 2.724 3.962 2.894 1.467.152 3.271-.555 4.12-1.781 1.335-1.93 1.223-4.853.233-6.903-.992-2.054-5.536-4.061-5.536-4.061s.929 2.84-1.504 4.108c-1.945 1.013-4.978-.863-5.738-2.842-.644-1.675.176-4.634 1.954-5.145 3.55-1.02 4.865 2.344 4.865 2.344s-.157-1.88-.393-2.784zM88.658 1005.792c-.299-1.038-.664-2.083-1.283-2.992-.817-1.198-1.71-2.536-3.133-3.133-1.79-.75-4.292-1.22-5.992-.224-1.657.972-2.442 3.202-2.184 4.924.298 1.988 4.075 4.7 4.075 4.7s-5.419.985-6.609 2.909c-1.118 1.806-.576 4.445.774 6.042 1.333 1.576 3.999 2.825 6.167 2.238 2.434-.659 4.459-5.595 4.459-5.595s-.035 4.182 1.11 5.706H95c1.48-1.94 1.628-4.267.698-6.153-1.028-2.088-6.137-4.082-6.137-4.082s1.03 2.855-1.667 4.129c-2.156 1.018-5.517-.867-6.36-2.856-.714-1.684.195-4.658 2.166-5.171 3.934-1.026 5.393 2.355 5.393 2.355s-.174-1.889-.435-2.797zM56.191 945.1c-.23-.942-.51-1.89-.986-2.716-.628-1.088-1.314-2.302-2.408-2.844-1.376-.681-3.298-1.108-4.605-.203-1.274.882-1.877 2.906-1.679 4.47.229 1.804 3.132 4.266 3.132 4.266s-4.165.895-5.08 2.64c-.859 1.64-.442 4.036.596 5.486 1.024 1.43 3.073 2.564 4.74 2.031 1.87-.598 3.426-5.079 3.426-5.079s.312 3.493 1.191 4.876c.782 1.229 1.966 2.486 3.376 2.641 1.25.138 2.787-.507 3.51-1.625 1.137-1.76 1.042-4.428.199-6.298-.845-1.874-4.717-3.705-4.717-3.705s.792 2.592-1.282 3.748c-1.657.924-4.24-.787-4.889-2.593-.548-1.528.15-4.228 1.666-4.694 3.023-.93 4.145 2.139 4.145 2.139s-.134-1.715-.335-2.54z" stroke="#000100" stroke-width="2" stroke-linecap="round" stroke-linejoin="round"/><path d="M168.666 1021.412s-3.777-13.72-12.651-20.592c-8.875-6.871-19.274-9.808-19.274-9.808" fill="none" stroke="#55a" stroke-width="2" stroke-linecap="round" stroke-linejoin="round"/><path d="M163.498 1021.829s-3.212-10.665-10.428-16.677c-7.215-6.013-15.04-8.636-15.04-8.636" fill="none" stroke="#55a" stroke-width="2" stroke-linecap="round" stroke-linejoin="round"/><path d="M157.392 1021.62s-2.41-8.684-7.792-13.265c-5.381-4.581-10.497-6.526-10.497-6.526M152.37 1021.724s-.73-5.561-5.028-9.112c-4.298-3.55-6.999-5.033-6.999-5.033M146.745 1021.412s-.097-3.662-2.648-5.838-3.363-2.099-3.363-2.099M168.72 1021.308s1.312-8.523 6.616-17.394c5.303-8.872 15.276-14.047 15.276-14.047M174.608 1021.362s-.884-4.945 3.94-12.457c4.824-7.513 11.998-11.786 11.998-11.786M178.98 1021.362s.932-5.826 3.508-10.407c2.575-4.58 7.86-7.898 7.86-7.898M184.105 1021.362s-.18-2.768 1.943-6.319c2.123-3.55 4.09-3.984 4.09-3.984M172.352 981.134s-.398-5.171 0-7.71c.5-3.186 1.985-6.136 2.963-9.209.785-2.467 2.203-4.834 2.33-7.41.072-1.467.002-3.134-.906-4.321-.786-1.027-2.525-.98-3.495-1.852-.82-.736-1.813-2.717-1.813-2.717" fill="none" stroke="#55a" stroke-width="2" stroke-linecap="round" stroke-linejoin="round"/><path d="M160.04 958.247s-3.173-3.546-2.719-5.557c.292-1.29 1.813-2.196 3.107-2.47 1.44-.305 2.907.562 4.272 1.111 1.56.629 2.775 2.902 4.401 2.47.65-.173 1.313-1.117 1.036-1.729-.76-1.677-3.603-.822-5.437-.988-2.235-.201-5.023-1.454-6.732 0-.825.703-.743 2.15-.517 3.211.328 1.54 2.589 3.952 2.589 3.952zM136.71 984.45s7.256 3.842 11.137 4.566c2.642.494 5.444.65 8.021-.195 1.378-.452 3.722-2.523 3.722-2.523s-3.415 1.203-5.175 1.457c-2.65.384-5.364.53-8.008.091-3.338-.553-9.696-3.396-9.696-3.396zM190.098 986.42s-5.292 2.955-8.12 2.631c-3.521-.403-9.115-5.48-9.115-5.48s5.934 4.223 9.375 4.334c2.888.092 8.086-3.126 8.086-3.126zM156.185 939.346s4.811 1.637 7.318 1.784c1.882.11 3.73-.608 5.613-.685 2.15-.089 4.355.745 6.45.254 1.145-.268 3.1-1.69 3.1-1.69s-2.135.402-3.21.347c-2.185-.112-4.231-1.366-6.42-1.368-2.414-.003-4.653 1.27-7.088 1.494-1.913.175-5.763-.136-5.763-.136z" fill="#55a" stroke="#55a" stroke-width="2" stroke-linecap="round" stroke-linejoin="round"/><path d="M159.753 929.267s4.102 1.451 6.344 1.481c2.537.035 7.276-1.481 7.276-1.481M162.233 935.103s3.75-1.197 5.696-1.235c1.667-.033 4.92.864 4.92.864M173.598 976.908s4.784 4.072 9.174 4.17c4.699.106 7.506-2.502 7.506-2.502M136.311 975.014s8.137 7.264 12.808 7.102c6.121-.212 10.692-5.512 10.692-5.512" fill="none" stroke="#55a" stroke-width="2" stroke-linecap="round" stroke-linejoin="round"/><path d="M131.688 973.218c5.564.752 9.654 3.272 14.777 3.728 4.391.391 13.256-1.028 13.256-1.028M190.876 973.147c-5.122 2.52-4.025 3.322-9.147 3.778-4.392.391-8.98-2.207-8.98-2.207" fill="none" stroke="#55a" stroke-width="2" stroke-linecap="round" stroke-linejoin="round"/><path d="M134.765 973.698c5.008-1.19 10.239-5.038 15.904-5.333 4.198-.218 8.7 2.79 9.07 6.84" fill="none" stroke="#55a" stroke-width="2" stroke-linecap="round" stroke-linejoin="round"/><path d="M145.307 975.893c-.891-5.021 3.82-6.504 7.205-6.07 2.296.294 4.425 3.232 3.32 6.102" fill="none" stroke="#55a" stroke-width="2" stroke-linecap="round" stroke-linejoin="round"/><path d="M153.15 973.537c.093.91-.71 2.161-1.622 2.211-.799.044-1.64-.969-1.622-1.769.018-.834.936-1.747 1.77-1.77.66-.016 1.406.67 1.474 1.328z" fill="#55a" stroke="#55a" stroke-width="2" stroke-linecap="round" stroke-linejoin="round"/><path d="M190.483 971.39c-2.672-1.804-6.094-2.869-10.459-2.747-3.234.09-6.521 2.538-6.579 5.496" fill="none" stroke="#55a" stroke-width="2" stroke-linecap="round" stroke-linejoin="round"/><path d="M185.208 975.701c1.112-4.283-1.762-7.025-5.81-6.953-1.78.032-3.922 4.552-2.914 6.567" fill="none" stroke="#55a" stroke-width="2" stroke-linecap="round" stroke-linejoin="round"/><path d="M178.41 973.468c-.026.71.805 1.631 1.656 1.612.745-.017 1.457-.855 1.387-1.474-.073-.646-.987-1.296-1.763-1.26-.616.028-1.262.608-1.28 1.122z" fill="#55a" stroke="#55a" stroke-width="2" stroke-linecap="round" stroke-linejoin="round"/><path d="M190.904 1021.32s.173-21.129.208-31.693c.02-6.047.34-12.103 0-18.14-.418-7.402-1.017-14.837-2.502-22.101-1.41-6.894-3.174-13.802-6.047-20.225-1.898-4.244-3.903-8.708-7.297-11.885-2.18-2.04-5.037-3.413-7.923-4.17-2.354-.617-4.905-.653-7.298-.208-4.962.921-9.424 3.646-13.97 5.838-4.286 2.067-8.487 4.338-12.51 6.88-4.924 3.113-14.178 10.217-14.178 10.217M174.223 969.402c1.99-2.439 2.133-4.604 6.255-6.672M160.462 971.07c-1.75-4.607-4.071-8.496-8.966-10.633" fill="none" stroke="#55a" stroke-width="2" stroke-linecap="round" stroke-linejoin="round"/><path d="M133.916 1021.499S92.007 934.69 68 892.947c-2.297-3.992-4.476-8.122-7.457-11.632-2.597-3.059-5.585-5.864-8.948-8.053-2.648-1.724-5.607-3.026-8.65-3.878-2.315-.648-4.763-1.109-7.158-.895-1.66.149-4.772 1.492-4.772 1.492l93.953 151.518z"/><g fill="none" stroke="#55a" stroke-width="2" stroke-linecap="round" stroke-linejoin="round"><path d="M141.504 1021.833s-2.801-20.834-4.95-31.113c-1.246-5.96-2.817-11.855-4.596-17.678-3.834-12.547-7.957-25.045-13.081-37.123-3.19-7.52-7.036-14.756-10.96-21.92-5.74-10.476-11.383-21.082-18.385-30.76-2.743-3.79-5.596-7.614-9.193-10.606-4.833-4.02-10.39-7.304-16.263-9.546-4.728-1.804-9.824-2.855-14.883-2.994-3.679-.101-7.376.613-10.927 1.58-2.702.736-7.778 3.182-7.778 3.182s9.866-1.036 14.496.354c5.324 1.597 9.953 5.184 14.142 8.838 3.468 3.026 6.296 6.771 8.839 10.607 4.689 7.073 7.805 15.071 11.667 22.627 4.51 8.823 8.903 17.706 13.435 26.517 5.474 10.64 11.225 21.137 16.617 31.82 4.726 9.363 9.122 18.89 13.789 28.284 4.643 9.346 14.142 27.93 14.142 27.93zM139.869 1013.723c-4.523-5.416-9.045-10.928-13.568-15.578M138.753 1003.58c-6.007-6.327-11.444-12.654-19.71-18.981M136.2 994.255c-11.18-12.128-16.536-16.49-23.223-22.627M134.08 984.71c-11.026-11.812-21.135-22.018-28.992-28.285M132.566 975.893c-11.651-11.967-22.917-24.454-33.808-31.864M128.776 964.203c-11.875-11.91-25.01-25.678-35.355-31.466M124.776 952.072c-13.411-12.092-27.733-25.407-38.073-31.356M121.528 942.515c-12.047-11.445-27.014-23.658-39.852-31.941M114.28 927.787c-11.374-9.467-22.938-18.743-36.659-25.864M108.645 915.38c-11.001-9.593-23.053-16.56-35.642-22.185M100.922 902.52c-11.11-7.111-22.221-14.422-33.332-19.225M94.316 891.802c-10.664-6.99-21.814-13.008-34.019-16.915M86.614 879.781c-12.61-6.119-27.904-14.937-40.514-14.385"/></g><path d="M60 932.362l8-3 57 93h-15zM195.598 1021.48s-.32-15.622.707-23.335c1.071-8.047 2.756-16.106 5.657-23.688 2.299-6.01 5.706-11.564 9.192-16.971 4.65-7.21 10.825-13.349 15.556-20.506 4.192-6.341 8.107-12.908 11.314-19.8 2.596-5.577 5-11.324 6.364-17.323a58.913 58.913 0 001.414-14.85c-.165-5.248-2.475-15.556-2.475-15.556S234.73 881.87 230.6 888.19c-5.938 9.088-12.31 17.949-17.324 27.578-4.902 9.416-8.805 19.347-12.374 29.345-3.222 9.025-6.514 18.13-8.132 27.577-1.136 6.63-.8 13.43-1.06 20.152-.37 9.542-.708 28.638-.708 28.638zM329.25 792.612l-69.75 56.25-4.75-5.75 74.75-60z" fill="#f55" stroke="#55a" stroke-width="2" stroke-linecap="round" stroke-linejoin="round"/><path d="M259 849.612l-27.75-37.25-5 2.91 28.866 39.547z" fill="none" stroke="#55a" stroke-width="2" stroke-linecap="round" stroke-linejoin="round"/><path d="M255.25 855.112l-15 17.75s-4.967-5.176-6.75-8.25c-1.933-3.332-3.457-7-4.134-10.793-.627-3.513-.643-7.223.134-10.707.658-2.948 2.103-5.717 3.75-8.25 1.094-1.682 4-4.5 4-4.5z" fill="#55a" stroke="#55a" stroke-width="2" stroke-linecap="round" stroke-linejoin="round"/><path d="M234 876.862s-6.092-6.256-8.25-10c-1.91-3.312-3.323-6.987-4-10.75-.694-3.854-.732-7.902 0-11.75.636-3.344 1.995-6.583 3.75-9.5 2.162-3.593 8.177-9.56 8.177-9.56l3.853 5.103c-3.078 3.07-5.067 4.745-6.78 7.707-1.719 2.971-3.04 6.329-3.31 9.75-.26 3.298.531 6.677 1.676 9.78 1.44 3.902 3.788 7.471 6.384 10.72 1.435 1.796 5 4.75 5 4.75l-2.75 3.75z" stroke="#55a" stroke-width="2" stroke-linecap="round" stroke-linejoin="round"/><path d="M229.25 821.862s-3.895 3.113-5.5 5a32.98 32.98 0 00-4.53 6.97c-1.577 3.255-2.884 6.711-3.47 10.28-.5 3.043-.397 6.193 0 9.25a52.896 52.896 0 003.5 13.25c1.462 3.557 5.75 10 5.75 10l-7.866-.323s-4.663-7.674-5.945-11.927c-1.21-4.016-1.444-8.294-1.543-12.487-.074-3.16.117-6.354.72-9.457.568-2.923 1.652-5.729 2.707-8.513.781-2.06 1.59-4.126 2.677-6.043.855-1.508 3-4.25 3-4.25s-3.34-5.407-4.75-8.25c-1.527-3.078-2.969-6.222-4-9.5-1.432-4.552-2.713-9.236-3-14-.388-6.431.51-12.927 1.75-19.25 1.207-6.156 2.815-12.33 5.5-18 2.186-4.616 5.216-8.838 8.5-12.75 3.259-3.882 6.925-7.485 11-10.5 4.38-3.24 9.196-5.967 14.25-8 6.788-2.73 13.984-4.636 21.25-5.5 4.966-.59 10.04-.391 15 .25 4.51.583 8.944 1.789 13.25 3.25 3.534 1.2 7.06 2.563 10.25 4.5 3.292 2 6.164 4.643 9 7.25 1.866 1.716 5.25 5.5 5.25 5.5l8-6.5v8.5l-94 75.75-4.25-4.75-6.25 5.25z" fill="#fff954" stroke="#55a" stroke-width="2" stroke-linecap="round" stroke-linejoin="round"/><path d="M329.5 746.862l-90.5 74.75 12.25 16.75 78.25-62.5zM298.5 757.862l-12.75 9.75-30.25 25-13.543 11.336s-2.874-6.92-3.457-10.586c-.747-4.69-.63-9.542 0-14.25s1.407-9.617 3.75-13.75c2.907-5.127 7.276-9.589 12.25-12.75 4.382-2.784 9.6-4.342 14.75-5 4.558-.582 9.326-.244 13.75 1 2.978.838 5.596 2.66 8.25 4.25 2.518 1.509 7.25 5 7.25 5z" fill="#55a" stroke="#55a" stroke-width="2" stroke-linecap="round" stroke-linejoin="round"/><path d="M285 766.862l-29.75 24.75s-1.69-4.933-1.75-7.5c-.076-3.219.303-6.623 1.75-9.5 1.483-2.95 4.029-5.38 6.75-7.25 2.48-1.704 5.412-2.847 8.375-3.375 2.709-.483 5.56-.325 8.25.25 2.247.48 6.375 2.625 6.375 2.625z" fill="#ff5554"/><path d="M317.5 741.362l-14.75 12.75s-7.836-6.72-12.5-8.75c-4.766-2.073-10.053-3.186-15.25-3.25-5.426-.067-10.912 1.114-16 3-5.146 1.908-10.079 4.683-14.25 8.25a37.539 37.539 0 00-8.5 10.5c-2.305 4.236-3.74 8.988-4.5 13.75-.577 3.621-.186 7.338 0 11 .209 4.1.27 8.264 1.25 12.25.643 2.615 3 7.5 3 7.5l-13.5 10.75s-4.457-6.604-6-10.25c-1.82-4.301-3.12-8.872-3.75-13.5-.529-3.88-.343-7.848 0-11.75.46-5.227 1.29-10.46 2.75-15.5 1.653-5.708 3.615-11.451 6.75-16.5 2.99-4.815 7.038-8.957 11.25-12.75 3.952-3.559 8.272-6.814 13-9.25 4.076-2.1 8.511-3.564 13-4.5 5.237-1.092 10.65-1.25 16-1.25 4.263 0 8.54.325 12.75 1 3.812.611 7.666 1.315 11.25 2.75 3.57 1.43 6.947 3.412 10 5.75 2.994 2.293 8 8 8 8z" stroke="#000" stroke-width="2" stroke-linecap="round" stroke-linejoin="round"/><g stroke="#000" stroke-width="2.135" stroke-linecap="round" stroke-linejoin="round"><path transform="matrix(-.87778 0 0 -1 354.614 1054.362)" d="M53.25 305.75s5.681-.833 8.5-.5c2.854.338 5.785 1.023 8.25 2.5 1.516.909 3.75 3.75 3.75 3.75s-4.87 2.336-7.5 2.5c-2.969.185-6.102-.395-8.75-1.75-1.417-.725-2.703-1.872-3.5-3.25-.557-.962-.75-3.25-.75-3.25z" fill="#ff5"/><path transform="matrix(-.87778 0 0 -1 354.614 1054.362)" d="M53.75 306.5s3.39 2.082 5.25 2.75c1.523.547 4.75 1 4.75 1" fill="none"/></g><path d="M274.5 838.612s3.848 4.968 6 7.25c2.266 2.402 4.623 4.75 7.25 6.75 2.024 1.541 4.072 3.24 6.5 4 1.434.45 3.125.856 4.5.25 1.084-.477 2.05-1.582 2.25-2.75.375-2.182-1.086-4.366-2.25-6.25-1.27-2.056-3.22-3.616-5-5.25-1.18-1.082-3.12-1.528-3.75-3-.757-1.768.25-3.842.5-5.75.187-1.426.75-4.25.75-4.25" fill="none" stroke="#55a" stroke-width="2" stroke-linecap="round" stroke-linejoin="round"/><path d="M297.5 852.228s-.426-1.587-1-2.116c-.524-.482-1.292-.824-2-.75-1.08.113-2.75 1.75-2.75 1.75M301.5 854.862s3.465 1.731 5 1c1.615-.77 2.494-2.96 2.5-4.75.01-2.72-2.32-4.935-3.75-7.25-1.19-1.929-2.218-4.099-4-5.5-1.204-.947-2.755-2.086-4.25-1.75-1.209.272-2.257 1.535-2.5 2.75-.243 1.215.496 2.517 1.25 3.5.802 1.046 1.938 2.371 3.25 2.25 1.032-.095 1.569-1.377 2.19-2.207.616-.825 1.487-2.707 1.487-2.707" fill="none" stroke="#55a" stroke-width="2" stroke-linecap="round" stroke-linejoin="round"/><path d="M309.75 849.862s2.448-.817 3.25-1.75c.807-.94 1.302-2.262 1.25-3.5-.084-2.012-1.353-3.845-2.5-5.5-1.343-1.937-3.255-3.415-5-5-1.359-1.233-2.503-2.938-4.25-3.5-1.193-.383-2.894-.665-3.75.25-.797.852-.25 2.36 0 3.5.256 1.166.428 2.727 1.5 3.25 1.308.638 3.14-.058 4.25-1 .826-.7 1.25-3 1.25-3" fill="none" stroke="#55a" stroke-width="2" stroke-linecap="round" stroke-linejoin="round"/><path d="M313.75 840.362s3.043-2.109 3.25-3.75c.14-1.11-.791-2.135-1.5-3-1.807-2.204-4.322-3.756-6.75-5.25-1.492-.918-2.998-2.229-4.75-2.25-.82-.01-1.842.288-2.25 1-.376.655-.077 1.57.25 2.25.613 1.275 1.587 3.047 3 3 .885-.03 1.401-1.186 1.75-2 .362-.846.25-2.75.25-2.75" fill="none" stroke="#55a" stroke-width="2" stroke-linecap="round" stroke-linejoin="round"/><path d="M315.25 831.612s1.098-1.95 1-3c-.159-1.708-1.297-3.277-2.5-4.5-1.56-1.586-3.646-2.71-5.78-3.336-1.111-.325-2.587-.913-3.47-.164-1.088.923-1.159 2.985-.5 4.25.568 1.092 2.034 1.938 3.25 1.75.918-.142 1.506-1.178 1.94-2 .436-.827.56-2.75.56-2.75" fill="none" stroke="#55a" stroke-width="2" stroke-linecap="round" stroke-linejoin="round"/><path d="M312.232 822.57l4.768-9.708s-.336-3.036-1.5-3.646c-.982-.515-2.322.1-3.25.707-1.187.775-2.5 3.44-2.5 3.44l-2.06 6.84" fill="#ff5" stroke="#55a" stroke-width="2" stroke-linecap="round" stroke-linejoin="round"/><path d="M316.634 812.332s-2.081 1.847-3.384 2.03c-1.281.18-3.75-1-3.75-1" fill="none" stroke="#55a" stroke-width="2" stroke-linecap="round" stroke-linejoin="round"/><path d="M300.25 857.362s5.512 1.23 8 2.5c1.896.969 3.746 2.194 5.116 3.823 1.486 1.767 2.56 3.94 3.134 6.177.642 2.504.25 7.75.25 7.75s-3.56-2.674-5.5-3.75c-2.093-1.16-4.519-1.658-6.573-2.884-1.532-.914-2.945-2.044-4.22-3.293-1.02-1-2.03-2.064-2.707-3.323-.661-1.23-1.04-2.619-1.25-4-.176-1.153 0-3.5 0-3.5z" fill="#ff5" stroke="#55a" stroke-width="2" stroke-linecap="round" stroke-linejoin="round"/><path d="M311.5 868.862s-2.02-2.617-3.263-3.69c-1.878-1.62-4.191-2.656-6.237-4.06-1.526-1.046-4.5-3.25-4.5-3.25" fill="none" stroke="#55a" stroke-width="2" stroke-linecap="round" stroke-linejoin="round"/><path d="M295.56 856.594l-7.456 13.799-4.104-2.28 7.53-13.311zM288.75 854.612s-3.313 3.896-5.5 5.116c-2.535 1.415-5.506 2.043-8.396 2.311-2.7.25-5.396-.788-8.104-.677-2.532.104-7.5 1.25-7.5 1.25s1.936-5.417 4-7.25c2.152-1.911 5.223-2.494 8-3.25 3.332-.906 6.802-1.693 10.25-1.5 1.635.092 3.35.401 4.75 1.25 1.06.643 2.5 2.75 2.5 2.75z" fill="#ff5" stroke="#55a" stroke-width="2" stroke-linecap="round" stroke-linejoin="round"/><path d="M287.591 854.362s-4.326 1.625-6.591 2c-2.468.409-5.052-.264-7.5.25-1.318.277-3.75 1.5-3.75 1.5" fill="none" stroke="#55a" stroke-width="2" stroke-linecap="round" stroke-linejoin="round"/><path d="M278.5 879.362l-1.5-7.25-6-1.5.5 7.25zM278.5 888.362l-1.5 7-6.25 1.5 1-7.25zM288.75 888.362l7.043 1.336.957 6.914-7-1.25zM295 877.612l1-7-7 2.25v6z" fill="#55a" stroke="#55a" stroke-width="2" stroke-linecap="round" stroke-linejoin="round"/><path d="M287.159 880.276s2.059-2.992 2.164-4.72c.106-1.726-.449-3.63-1.573-4.944-.848-.991-2.207-1.577-3.5-1.75-1.685-.225-3.697-.092-5 1-1.577 1.322-2.248 3.692-2.25 5.75-.002 1.61 1.75 4.5 1.75 4.5s-3.173-2.218-5-2.25c-1.98-.034-4.323.657-5.5 2.25-1.094 1.48-1.193 3.795-.5 5.5.578 1.424 2.048 2.497 3.5 3 1.891.655 4.137.484 6-.25.715-.281 1.75-1.5 1.75-1.5s-1.395 3.093-1.5 4.75c-.117 1.86-.07 3.974 1 5.5.664.948 1.874 1.483 3 1.75 1.3.308 2.824.385 4-.25 1.467-.791 2.622-2.377 3-4 .308-1.32-.396-2.69-.75-4-.323-1.196-1.25-3.5-1.25-3.5s3.72 1.987 5.75 2c1.845.012 3.916-.475 5.25-1.75.84-.802 1.194-2.09 1.25-3.25.075-1.555-.217-3.335-1.25-4.5-1.017-1.146-2.718-1.74-4.25-1.75-2.184-.014-6.091 2.414-6.091 2.414z" fill="#ff5" stroke="#55a" stroke-width="2" stroke-linecap="round" stroke-linejoin="round"/><path d="M290 883.862c-3.43.473-5.72 3.225-7.75 6.5-1.435-2.256-1.709-4.125-5.75-7.25 3.551-1.292 5.55-3.826 6.75-7 1.536 2.94 2.518 6.158 6.75 7.75z" fill="#f55" stroke="#55a" stroke-width="2" stroke-linecap="round" stroke-linejoin="round"/><path d="M184.5 877.362s4.923-15.893 6.75-24c1.524-6.762 2.544-13.634 3.5-20.5.856-6.143 1.647-12.307 2-18.5.38-6.656.125-20 .125-20H184.75s-1.432 13.7-2.5 20.5c-1.436 9.138-2.825 18.323-5.25 27.25-1.506 5.545-3.724 10.873-5.75 16.25-1.266 3.36-2.659 6.67-4 10-1.243 3.086-3.75 9.25-3.75 9.25zM148.25 877.362s11.477-17.396 16-26.75c2.87-5.936 5.088-12.19 7-18.5 1.935-6.384 3.395-12.921 4.5-19.5.652-3.884.885-7.828 1.25-11.75.194-2.08.5-6.25.5-6.25l-11.5-.25s-3.617 18.597-6.75 27.5c-2.685 7.632-6.161 15.02-10.25 22-4.255 7.264-9.298 14.086-14.75 20.5-2.9 3.412-6.27 6.397-9.5 9.5-1.063 1.022-3.25 3-3.25 3z" fill="#000003"/><path d="M157 795.362s-3.582 11.965-6.5 17.44c-3.293 6.178-7.477 11.939-12.25 17.06-4.691 5.034-9.916 9.756-15.879 13.19-5.883 3.388-12.501 5.51-19.121 7.017-5.224 1.19-10.642 1.501-16 1.543-5.183.04-15.5-1.25-15.5-1.25" fill="none" stroke="#55a" stroke-width="2" stroke-linecap="round" stroke-linejoin="round"/><path d="M197.25 861.946c-.5-.5-1.25-1-2.5-1-2.25 0-3.75 1.333-3.75 3 0 1.666 1.5 3.166 3.75 3.166 1.25 0 1.5-.333 2.25-.833l.25.167c-.75.5-2.5 2-2.5 3.166 0 1.334 1.75 3 3.75 3s3.75-1.666 3.75-3c0-1.166-1.75-2.666-2.5-3.166l.25-.167c.75.5 1 .833 2.25.833 2.25 0 3.75-1.5 3.75-3.166 0-1.667-1.5-3-3.75-3-1.25 0-2 .5-2.5 1l-.25-.167c.25-1 .25-.833.5-1.667.25-.833 1-2.5 1-2.5-2.5.334-2.5.334-5 0 0 0 .75 1.667 1 2.5.25.834.25.667.5 1.667zM204.75 825.196c-.5-.5-1.25-1-2.5-1-2.25 0-3.75 1.333-3.75 3 0 1.666 1.5 3.166 3.75 3.166 1.25 0 1.5-.333 2.25-.833l.25.167c-.75.5-2.5 2-2.5 3.166 0 1.334 1.75 3 3.75 3s3.75-1.666 3.75-3c0-1.166-1.75-2.666-2.5-3.166l.25-.167c.75.5 1 .833 2.25.833 2.25 0 3.75-1.5 3.75-3.166 0-1.667-1.5-3-3.75-3-1.25 0-2 .5-2.5 1l-.25-.167c.25-1 .25-.833.5-1.667.25-.833 1-2.5 1-2.5-2.5.334-2.5.334-5 0 0 0 .75 1.667 1 2.5.25.834.25.667.5 1.667zM136 840.696c-.5-.5-1.25-1-2.5-1-2.25 0-3.75 1.333-3.75 3 0 1.666 1.5 3.166 3.75 3.166 1.25 0 1.5-.333 2.25-.833l.25.167c-.75.5-2.5 2-2.5 3.166 0 1.334 1.75 3 3.75 3s3.75-1.666 3.75-3c0-1.166-1.75-2.666-2.5-3.166l.25-.167c.75.5 1 .833 2.25.833 2.25 0 3.75-1.5 3.75-3.166 0-1.667-1.5-3-3.75-3-1.25 0-2 .5-2.5 1l-.25-.167c.25-1 .25-.833.5-1.667.25-.833 1-2.5 1-2.5-2.5.334-2.5.334-5 0 0 0 .75 1.667 1 2.5.25.834.25.667.5 1.667zM114.5 858.946c-.5-.5-1.25-1-2.5-1-2.25 0-3.75 1.333-3.75 3 0 1.666 1.5 3.166 3.75 3.166 1.25 0 1.5-.333 2.25-.833l.25.167c-.75.5-2.5 2-2.5 3.166 0 1.334 1.75 3 3.75 3s3.75-1.666 3.75-3c0-1.166-1.75-2.666-2.5-3.166l.25-.167c.75.5 1 .833 2.25.833 2.25 0 3.75-1.5 3.75-3.166 0-1.667-1.5-3-3.75-3-1.25 0-2 .5-2.5 1l-.25-.167c.25-1 .25-.833.5-1.667.25-.833 1-2.5 1-2.5-2.5.334-2.5.334-5 0 0 0 .75 1.667 1 2.5.25.834.25.667.5 1.667zM85.5 861.196c-.5-.5-1.25-1-2.5-1-2.25 0-3.75 1.333-3.75 3 0 1.666 1.5 3.166 3.75 3.166 1.25 0 1.5-.333 2.25-.833l.25.167c-.75.5-2.5 2-2.5 3.166 0 1.334 1.75 3 3.75 3s3.75-1.666 3.75-3c0-1.166-1.75-2.666-2.5-3.166l.25-.167c.75.5 1 .833 2.25.833 2.25 0 3.75-1.5 3.75-3.166 0-1.667-1.5-3-3.75-3-1.25 0-2 .5-2.5 1l-.25-.167c.25-1 .25-.833.5-1.667.25-.833 1-2.5 1-2.5-2.5.334-2.5.334-5 0 0 0 .75 1.667 1 2.5.25.834.25.667.5 1.667z" fill="#fff"/><path d="M63.25 861.862l12.25-16.5s-9.346-1.383-13.75-3c-4.165-1.529-8.094-3.736-11.75-6.25-4.186-2.878-11.5-10-11.5-10l-8.5 6.25v32s6.082-2.448 9.25-3.25c3.6-.91 7.288-1.662 11-1.75 2.263-.053 4.528.319 6.75.75 2.124.413 6.25 1.75 6.25 1.75z" fill="#55a"/><path style="line-height:normal;-inkscape-font-specification:Sans;text-indent:0;text-align:start;text-decoration-line:none;text-transform:none;marker:none" d="M143.188 876.612c2.358-.77.737-3.106-.617-3.988l-2.758-2.637 11.375-5.781c1.756-1.268-.053-3.162-.534-4.64-.306-.963-1.64-2.275.038-2.562 2.541-1.425 5.246-2.605 7.679-4.19.901-1.594-.72-3.089-1.208-4.586-.16-.95-1.747-2.268-.808-2.935 2.192-1.64 5.31-2.58 7.385-4.354.659-1.691-1.764-3.599-2.344-5.109-1.222-1.164.035-1.686 1.06-2.267 1.65-1.126 3.474-2.035 5.006-3.311.762-1.65-.934-3.028-1.517-4.49-.377-.919-1.859-2.197-.1-2.422 1.487-.768 3.138-1.264 4.51-2.223.977-1.645-.79-3.133-1.353-4.636-.14-.837-2.028-2.378-.553-2.563 1.568-.561 3.22-.918 4.725-1.633 1.532-1.555-.628-2.83-1.448-4.039-.394-.804-2.41-1.839-.805-2.36 1.18-1.036 3.44-1.5 3.254-3.415-.68-1.28-1.78-2.291-2.644-3.453 1.127-1.298 2.941-2.173 3.449-3.862-1.482-.863-3.203-.827-4.252.495-.951 1.157-2.892 1.927-2.64 3.66.662 1.177 1.664 2.129 2.474 3.208-1.233.992-2.95 1.538-3.753 2.937.046 1.859 2.408 3.289 3.032 5.03-.632.498-3.235.725-4.218 1.05-2.47.36-1.308 2.912-.39 4.234l1.954 3.624c-1.83.933-3.827 1.59-5.542 2.714-.994 1.653.822 3.115 1.412 4.603.253.899 1.968 2.166.418 2.611-1.96 1.325-4.098 2.425-5.937 3.9-.756 1.647.921 3.036 1.493 4.503 1.078 1.128.545 1.888-.715 2.481-1.83 1.377-3.827 2.562-5.547 4.065-.66 1.652.892 3.115 1.396 4.642.109.873 1.858 2.29.466 2.665-2.65 1.468-5.453 2.703-8.002 4.323-.926 1.573.667 3.088 1.127 4.588.69 1.085 1.06 2.06-.533 2.352-3.642 1.891-7.351 3.67-10.95 5.63-1.452 1.711.798 2.902 1.803 4.011 1.506 1.327 2.806 2.925 4.457 4.062.862.175 1.122-.4 1.715-.992zM173.125 876.112c2.55-1.165 4.87-2.858 7.329-4.234 2-.66 1.557-2.794.36-4.013l-2.689-4.034c2.257-1.478 4.708-2.707 6.837-4.352.81-1.642-.985-2.873-1.671-4.22l-2.228-3.272c2.043-1.55 4.284-2.88 6.198-4.577.681-1.685-1.117-2.906-1.818-4.288-.444-.85-1.496-1.79-1.562-2.585 1.945-1.662 4.069-3.144 5.897-4.925.586-1.622-1.031-2.885-1.643-4.28-.22-.847-1.825-1.986-.971-2.605 1.594-1.217 3.395-2.201 4.848-3.577.665-1.706-1.174-2.897-1.908-4.27-.79-.877-1.4-1.729.029-2.277 1.087-.974 3.387-1.88 2.275-3.695l-2.377-3.64c1.107-1.026 3.421-1.654 2.813-3.562l-2.219-4.406c1.022-1.012 2.94-1.565 2.834-3.263-.79-1.612-1.995-3-2.959-4.519-2.613-2.148-3.35 1.872-1.444 3.213.966.915.987 1.68-.293 2.24-1.56.714-1.774 2.47-.753 3.754l1.584 3.168c-1.092 1.004-3.109 1.508-3.046 3.259.713 1.551 1.822 2.9 2.702 4.366-1.159.963-2.499 1.735-3.526 2.838-.621 1.696 1.19 2.875 1.918 4.24.803.875 1.356 1.708-.088 2.2-1.335 1.02-2.844 1.842-4.054 3.004-.67 1.64 1.004 2.928 1.625 4.337.266.843 1.631 1.877 1.176 2.595-1.927 1.651-4.034 3.12-5.839 4.895-.598 1.668 1.151 2.859 1.846 4.225.403.811 1.483 1.742 1.492 2.483-1.998 1.518-4.192 2.815-6.06 4.48-.681 1.684 1.115 2.907 1.814 4.29l2.071 3.038c-2.257 1.479-4.708 2.707-6.837 4.352-.802 1.637.97 2.883 1.643 4.24l1.85 2.783c-2.282 1.555-4.813 2.792-6.905 4.59-1.424 1.698-.455 1.195-.126 1.63.385.507 1.875.374 1.875.374z" color="#000" font-weight="400" font-family="Sans" overflow="visible" fill="#ff5"/><path d="M270.854 818.04l-14.303 3.278 7.859-14.084s-.662 3.405.413 4.424c.932.882 3.847.15 3.847.15s-2.315 3.076-1.675 4.566c.553 1.287 3.859 1.667 3.859 1.667zM296.087 796.849l-14.303 3.277 7.86-14.084s-.662 3.405.413 4.423c.931.883 3.846.15 3.846.15s-2.314 3.077-1.674 4.567c.553 1.287 3.858 1.667 3.858 1.667zM322.604 776.342L308.3 779.62l7.859-14.084s-.662 3.405.413 4.423c.932.883 3.847.15 3.847.15s-2.314 3.077-1.675 4.566c.553 1.288 3.859 1.667 3.859 1.667zM256.192 827.836c-.588-.482-.522-1.808.076-2.279.507-.4 1.548-.151 1.898.392.279.433.022 1.142-.342 1.508-.394.396-1.2.734-1.632.38zM248.783 828.526c-.588-.483-.522-1.81.076-2.28.507-.399 1.548-.151 1.898.392.28.433.022 1.143-.342 1.508-.394.396-1.2.734-1.632.38zM250.783 820.9c-.588-.482-.522-1.808.076-2.279.507-.399 1.548-.151 1.898.392.28.433.022 1.143-.342 1.508-.394.396-1.2.734-1.632.38zM281.612 807.274c-.587-.483-.521-1.809.076-2.28.508-.399 1.548-.15 1.898.392.28.433.023 1.143-.341 1.508-.394.396-1.201.734-1.633.38zM274.204 807.963c-.588-.483-.522-1.809.076-2.279.507-.4 1.547-.151 1.897.391.28.434.023 1.143-.341 1.509-.394.396-1.2.733-1.632.379zM276.204 800.338c-.588-.483-.522-1.809.076-2.279.507-.4 1.547-.151 1.897.391.28.434.023 1.143-.341 1.509-.394.396-1.2.733-1.632.379zM306.862 787.274c-.587-.483-.521-1.809.076-2.28.508-.399 1.548-.15 1.898.392.28.433.023 1.143-.341 1.508-.394.396-1.201.734-1.633.38zM299.454 787.963c-.588-.483-.522-1.809.076-2.279.507-.4 1.547-.151 1.897.391.28.434.023 1.143-.341 1.509-.394.396-1.2.733-1.632.379zM301.454 780.338c-.588-.483-.522-1.809.076-2.279.507-.4 1.547-.151 1.897.391.28.434.023 1.143-.341 1.509-.394.396-1.2.733-1.632.379zM324.033 766.276c-.588-.483-.522-1.81.076-2.28.507-.399 1.548-.151 1.898.392.28.433.022 1.143-.342 1.508-.394.396-1.2.734-1.632.38z" fill="#fff" stroke="#fff" stroke-width="2" stroke-linecap="round" stroke-linejoin="round"/><g stroke="#000" stroke-width="2" stroke-linecap="round" stroke-linejoin="round"><path d="M311.983 745.783s-5.073-2.69-7.148-4.627c-2.1-1.96-4.058-4.248-5.171-6.897-.685-1.63-.804-5.242-.804-5.242s5.308.999 7.525 2.423c2.503 1.608 4.685 3.93 6.019 6.588.713 1.423 1.07 3.108.898 4.691-.12 1.105-1.319 3.064-1.319 3.064z" fill="#ff5"/><path d="M312.024 744.882s-1.501-3.684-2.605-5.323c-.904-1.342-3.237-3.617-3.237-3.617" fill="none"/></g><g stroke="#000" stroke-width="2" stroke-linecap="round" stroke-linejoin="round"><path d="M298.439 738.08s-5.614-1.209-8.137-2.509c-2.555-1.315-5.06-2.984-6.852-5.23-1.102-1.383-2.199-4.827-2.199-4.827s5.38-.482 7.9.286c2.846.866 5.578 2.507 7.584 4.704 1.073 1.175 1.875 2.7 2.14 4.27.184 1.096-.436 3.306-.436 3.306z" fill="#ff5"/><path d="M298.233 737.203s-2.447-3.138-3.954-4.415c-1.235-1.046-4.099-2.6-4.099-2.6" fill="none"/></g><g stroke="#000" stroke-width="2" stroke-linecap="round" stroke-linejoin="round"><path d="M280.69 730.368s-5.347 2.093-8.168 2.404c-2.856.314-5.867.308-8.601-.575-1.682-.543-4.5-2.808-4.5-2.808s4.218-3.374 6.744-4.127c2.85-.85 6.034-.991 8.92-.268 1.544.386 3.054 1.214 4.142 2.377.76.812 1.464 2.997 1.464 2.997z" fill="#ff5"/><path d="M280.034 729.75s-3.773-1.264-5.735-1.495c-1.607-.19-4.853.097-4.853.097" fill="none"/></g><g stroke="#000" stroke-width="2" stroke-linecap="round" stroke-linejoin="round"><path d="M260.118 730.887s-4.444 3.636-7.033 4.8c-2.621 1.177-5.488 2.096-8.362 2.096-1.767 0-5.144-1.288-5.144-1.288s2.976-4.507 5.147-6c2.452-1.685 5.437-2.798 8.405-2.998 1.589-.107 3.28.216 4.673.988.972.54 2.314 2.402 2.314 2.402z" fill="#ff5"/><path d="M259.304 730.5s-3.979-.041-5.917.341c-1.587.314-4.588 1.585-4.588 1.585" fill="none"/></g><g stroke="#000" stroke-width="2" stroke-linecap="round" stroke-linejoin="round"><path d="M243.205 740.241s-3.338 4.673-5.532 6.473c-2.221 1.823-4.747 3.46-7.52 4.213-1.706.464-5.303.104-5.303.104s1.692-5.13 3.397-7.139c1.925-2.268 4.515-4.124 7.327-5.093 1.505-.52 3.223-.65 4.769-.27 1.08.265 2.862 1.712 2.862 1.712z" fill="#ff5"/><path d="M242.318 740.081s-3.851 1.001-5.621 1.878c-1.45.718-4.014 2.73-4.014 2.73" fill="none"/></g><g stroke="#000" stroke-width="2" stroke-linecap="round" stroke-linejoin="round"><path d="M230.48 752.639s-1.647 5.501-3.14 7.915c-1.513 2.443-3.373 4.81-5.754 6.42-1.464.99-4.983 1.813-4.983 1.813s-.06-5.401.904-7.854c1.088-2.768 2.938-5.363 5.285-7.19 1.256-.978 2.839-1.658 4.425-1.798 1.107-.098 3.262.694 3.262.694z" fill="#ff5"/><path d="M229.588 752.775s-3.32 2.193-4.711 3.596c-1.14 1.148-2.914 3.882-2.914 3.882" fill="none"/></g><g stroke="#000" stroke-width="1.933" stroke-linecap="round" stroke-linejoin="round"><path transform="matrix(-.1895 1.05162 -.98188 -.20295 534.652 775.313)" d="M53.25 305.75s5.681-.833 8.5-.5c2.854.338 5.785 1.023 8.25 2.5 1.516.909 3.75 3.75 3.75 3.75s-4.87 2.336-7.5 2.5c-2.969.185-6.102-.395-8.75-1.75-1.417-.725-2.703-1.872-3.5-3.25-.557-.962-.75-3.25-.75-3.25z" fill="#ff5"/><path transform="matrix(-.1895 1.05162 -.98188 -.20295 534.652 775.313)" d="M53.75 306.5s3.39 2.082 5.25 2.75c1.523.547 4.75 1 4.75 1" fill="none"/></g><g stroke="#000" stroke-width="1.933" stroke-linecap="round" stroke-linejoin="round"><path transform="matrix(.18395 1.0526 -.99176 .14732 513.925 685.66)" d="M53.25 305.75s5.681-.833 8.5-.5c2.854.338 5.785 1.023 8.25 2.5 1.516.909 3.75 3.75 3.75 3.75s-4.87 2.336-7.5 2.5c-2.969.185-6.102-.395-8.75-1.75-1.417-.725-2.703-1.872-3.5-3.25-.557-.962-.75-3.25-.75-3.25z" fill="#ff5"/><path transform="matrix(.18395 1.0526 -.99176 .14732 513.925 685.66)" d="M53.75 306.5s3.39 2.082 5.25 2.75c1.523.547 4.75 1 4.75 1" fill="none"/></g><g stroke="#000" stroke-width="2.083" stroke-linecap="round" stroke-linejoin="round"><path transform="matrix(.15807 1.05265 .84587 -.19754 -45.252 790.062)" d="M53.25 305.75s5.681-.833 8.5-.5c2.854.338 5.785 1.023 8.25 2.5 1.516.909 3.75 3.75 3.75 3.75s-4.87 2.336-7.5 2.5c-2.969.185-6.102-.395-8.75-1.75-1.417-.725-2.703-1.872-3.5-3.25-.557-.962-.75-3.25-.75-3.25z" fill="#ff5"/><path transform="matrix(.15807 1.05265 .84587 -.19754 -45.252 790.062)" d="M53.75 306.5s3.39 2.082 5.25 2.75c1.523.547 4.75 1 4.75 1" fill="none"/></g><g stroke="#000" stroke-width="2.083" stroke-linecap="round" stroke-linejoin="round"><path transform="matrix(-.01286 1.06437 .8666 -.05927 -40.637 729.054)" d="M53.25 305.75s5.681-.833 8.5-.5c2.854.338 5.785 1.023 8.25 2.5 1.516.909 3.75 3.75 3.75 3.75s-4.87 2.336-7.5 2.5c-2.969.185-6.102-.395-8.75-1.75-1.417-.725-2.703-1.872-3.5-3.25-.557-.962-.75-3.25-.75-3.25z" fill="#ff5"/><path transform="matrix(-.01286 1.06437 .8666 -.05927 -40.637 729.054)" d="M53.75 306.5s3.39 2.082 5.25 2.75c1.523.547 4.75 1 4.75 1" fill="none"/></g><g stroke="#000" stroke-width="2.083" stroke-linecap="round" stroke-linejoin="round"><path transform="matrix(-.30932 1.01852 .84873 .18488 -11.415 641.168)" d="M53.25 305.75s5.681-.833 8.5-.5c2.854.338 5.785 1.023 8.25 2.5 1.516.909 3.75 3.75 3.75 3.75s-4.87 2.336-7.5 2.5c-2.969.185-6.102-.395-8.75-1.75-1.417-.725-2.703-1.872-3.5-3.25-.557-.962-.75-3.25-.75-3.25z" fill="#ff5"/><path transform="matrix(-.30932 1.01852 .84873 .18488 -11.415 641.168)" d="M53.75 306.5s3.39 2.082 5.25 2.75c1.523.547 4.75 1 4.75 1" fill="none"/></g><g stroke="#000" stroke-width="2.36" stroke-linecap="round" stroke-linejoin="round"><path transform="matrix(-.09809 .92195 .77467 .03915 -9.874 736.5)" d="M53.25 305.75s5.681-.833 8.5-.5c2.854.338 5.785 1.023 8.25 2.5 1.516.909 3.75 3.75 3.75 3.75s-4.87 2.336-7.5 2.5c-2.969.185-6.102-.395-8.75-1.75-1.417-.725-2.703-1.872-3.5-3.25-.557-.962-.75-3.25-.75-3.25z" fill="#ff5"/><path transform="matrix(-.09809 .92195 .77467 .03915 -9.874 736.5)" d="M53.75 306.5s3.39 2.082 5.25 2.75c1.523.547 4.75 1 4.75 1" fill="none"/></g><g stroke="#000" stroke-width="2.083" stroke-linecap="round" stroke-linejoin="round"><path transform="matrix(-.66533 .8309 .71944 .48675 61.188 545.684)" d="M53.25 305.75s5.681-.833 8.5-.5c2.854.338 5.785 1.023 8.25 2.5 1.516.909 3.75 3.75 3.75 3.75s-4.87 2.336-7.5 2.5c-2.969.185-6.102-.395-8.75-1.75-1.417-.725-2.703-1.872-3.5-3.25-.557-.962-.75-3.25-.75-3.25z" fill="#ff5"/><path transform="matrix(-.66533 .8309 .71944 .48675 61.188 545.684)" d="M53.75 306.5s3.39 2.082 5.25 2.75c1.523.547 4.75 1 4.75 1" fill="none"/></g><g stroke="#000" stroke-width="2.083" stroke-linecap="round" stroke-linejoin="round"><path transform="matrix(-.82178 .67657 .60416 .6241 119.9 505.787)" d="M53.25 305.75s5.681-.833 8.5-.5c2.854.338 5.785 1.023 8.25 2.5 1.516.909 3.75 3.75 3.75 3.75s-4.87 2.336-7.5 2.5c-2.969.185-6.102-.395-8.75-1.75-1.417-.725-2.703-1.872-3.5-3.25-.557-.962-.75-3.25-.75-3.25z" fill="#ff5"/><path transform="matrix(-.82178 .67657 .60416 .6241 119.9 505.787)" d="M53.75 306.5s3.39 2.082 5.25 2.75c1.523.547 4.75 1 4.75 1" fill="none"/></g><g stroke="#000" stroke-width="2.083" stroke-linecap="round" stroke-linejoin="round"><path transform="matrix(-1.01725 .31348 .32162 .8069 235.787 468.256)" d="M53.25 305.75s5.681-.833 8.5-.5c2.854.338 5.785 1.023 8.25 2.5 1.516.909 3.75 3.75 3.75 3.75s-4.87 2.336-7.5 2.5c-2.969.185-6.102-.395-8.75-1.75-1.417-.725-2.703-1.872-3.5-3.25-.557-.962-.75-3.25-.75-3.25z" fill="#ff5"/><path transform="matrix(-1.01725 .31348 .32162 .8069 235.787 468.256)" d="M53.75 306.5s3.39 2.082 5.25 2.75c1.523.547 4.75 1 4.75 1" fill="none"/></g><g stroke="#000" stroke-width="2.14" stroke-linecap="round" stroke-linejoin="round"><path transform="matrix(-.91024 .30542 -.32728 -.84944 445.263 982.936)" d="M53.25 305.75s5.681-.833 8.5-.5c2.854.338 5.785 1.023 8.25 2.5 1.516.909 3.75 3.75 3.75 3.75s-4.87 2.336-7.5 2.5c-2.969.185-6.102-.395-8.75-1.75-1.417-.725-2.703-1.872-3.5-3.25-.557-.962-.75-3.25-.75-3.25z" fill="#ff5"/><path transform="matrix(-.91024 .30542 -.32728 -.84944 445.263 982.936)" d="M53.75 306.5s3.39 2.082 5.25 2.75c1.523.547 4.75 1 4.75 1" fill="none"/></g></g><path d="M180 792.362l-3-4.804-5.66-.196 2.66-5-2.66-5 5.66-.196 3-4.804 3 4.804 5.66.196-2.66 5 2.66 5-5.66.196z" fill="#ff5"/><g><path d="M95.008 613.346c1.984 4.004 6.98 10.028 11.976 10.028 9 0 13.004-8.008 13.004-18 0-10.028-4.004-19.028-13.004-19.028-4.996 0-7.972 5.032-10.984 8.008-.992.992-1.984 0-.992-.992 2.976-3.012 8.008-10.984 8.008-18 0-8.008-5.032-18-13.004-18-8.008 0-13.004 9.992-13.004 18 0 7.016 4.996 14.988 8.008 18 .992.992 0 1.984-1.028.992-2.976-2.976-5.988-8.008-10.984-8.008-9 0-13.004 9-13.004 19.028 0 9.992 4.004 18 13.004 18 4.996 0 9.992-6.024 12.012-10.028.992-.992.992 0 .992 1.028-.992 7.972-.992 9.992-2.02 15.98-.992 6.024-4.004 17.008-4.004 17.008 5.032-1.984 15.024-1.984 20.02 0 0 0-3.012-10.984-4.004-17.008-.992-5.988-.992-8.008-1.984-15.98 0-1.028 0-2.02.992-1.028zM32.504 630.354c.992 2.02 3.508 4.996 5.988 4.996 4.5 0 6.52-4.004 6.52-9s-2.02-9.496-6.52-9.496c-2.48 0-4.004 2.516-5.492 4.004-.496.496-.992 0-.496-.496 1.488-1.488 4.004-5.492 4.004-9 0-4.004-2.516-9-6.52-9s-6.484 4.996-6.484 9c0 3.508 2.48 7.512 4.004 9 .496.496 0 .992-.496.496-1.524-1.488-3.012-4.004-5.528-4.004-4.5 0-6.484 4.5-6.484 9.496s1.984 9 6.484 9c2.516 0 5.032-2.976 6.024-4.996.496-.496.496 0 .496.496-.496 4.004-.496 4.996-.992 8.008-.496 3.012-2.02 8.504-2.02 8.504 2.516-.992 7.512-.992 9.992 0 0 0-1.488-5.492-1.984-8.504-.496-3.012-.496-4.004-.992-8.008 0-.496 0-.992.496-.496z"/></g><g><path d="M264.98 951.378c-1.984-4.004-6.98-10.028-11.976-10.028-9 0-13.004 8.008-13.004 18 0 10.028 4.004 19.028 13.004 19.028 4.996 0 7.972-5.032 10.984-8.008.992-.992 1.984 0 .992.992-2.976 3.012-8.008 10.984-8.008 18 0 8.008 5.032 18 13.004 18 8.008 0 13.004-9.992 13.004-18 0-7.016-4.996-14.988-8.008-18-.992-.992 0-1.984 1.028-.992 2.976 2.976 5.988 8.008 10.984 8.008 9 0 13.004-9 13.004-19.028 0-9.992-4.004-18-13.004-18-4.996 0-9.992 6.024-12.012 10.028-.992.992-.992 0-.992-1.028.992-7.972.992-9.992 2.02-15.98.992-6.024 4.004-17.008 4.004-17.008-5.032 1.984-15.024 1.984-20.02 0 0 0 3.012 10.984 4.004 17.008.992 5.988.992 8.008 1.984 15.98 0 1.028 0 2.02-.992 1.028zM327.484 934.37c-.992-2.02-3.508-4.996-5.988-4.996-4.5 0-6.52 4.004-6.52 9s2.02 9.496 6.52 9.496c2.48 0 4.004-2.516 5.492-4.004.496-.496.992 0 .496.496-1.488 1.488-4.004 5.492-4.004 9 0 4.004 2.516 9 6.52 9s6.484-4.996 6.484-9c0-3.508-2.48-7.512-4.004-9-.496-.496 0-.992.496-.496 1.524 1.488 3.012 4.004 5.528 4.004 4.5 0 6.484-4.5 6.484-9.496s-1.984-9-6.484-9c-2.516 0-5.032 2.976-6.024 4.996-.496.496-.496 0-.496-.496.496-4.004.496-4.996.992-8.008.496-3.012 2.02-8.504 2.02-8.504-2.516.992-7.512.992-9.992 0 0 0 1.488 5.492 1.984 8.504.496 3.012.496 4.004.992 8.008 0 .496 0 .992-.496.496z"/></g></g></svg>