<svg xmlns="http://www.w3.org/2000/svg" width="360" height="540"><g transform="translate(0 -512.362)"><rect rx="29.944" ry="29.944" y="512.862" x=".5" height="539" width="359" fill="#fff" stroke="#000"/><path d="M63.664 697.826l8.304-5.536.23 88.577-6.04-.641-5.039-1.06 2.417-6.407.59-3.887z" stroke="#030000" stroke-width="2" stroke-linecap="round" stroke-linejoin="round"/><path d="M226.474 788.841l-.967-17.074 3.544-22.873 4.972-21.262 5.337-19.007 4.51-12.242 6.765-13.53 5.477-9.665 3.221-6.765 2.255-2.577 2.577.322 2.578-2.9h3.543l19.652 10.954.322 3.866-6.443 8.698-6.765 11.92-7.41 14.818-5.799 17.074-3.866 19.008-1.932 14.819-1.29 12.886-8.326-.042-8.691 2.52-8.11 6.542z" fill="#ff5655"/><path d="M152.646 720.388l-.481 49.28s2.764 1.595 3.606 2.884c.68 1.042.8 2.373.961 3.606.177 1.35 0 4.086 0 4.086s2.42-1.785 3.846-1.923c1.49-.144 3.053.417 4.327 1.202 1.015.625 2.404 2.645 2.404 2.645s1.446-10.728 1.202-16.106c-.265-5.843-1.434-11.642-2.885-17.308-1.325-5.18-3.052-10.287-5.288-15.145-2.132-4.631-7.692-13.22-7.692-13.22zM38.221 823.514l-8.221-.24v-98.559l13.75-12.26 15.626-11.538-.24 66.106-6.01.962-4.568 4.807.63 3.92 3.478 3.92-4.108 4.18-4.567 1.442-3.217 3.977.834 6.122-1.944 3.844.611 4.327 2.24 1.33-.612 4.716-.076 3.569 2.164 1.202-.24 3.846-5.049.962zM321.709 741.106l8.221.24v98.559l-13.75 12.26-15.625 11.538.24-66.106 6.01-.962 4.567-4.808-4.936-7.666 3.494-1.949 1.442-2.404 4.568-1.442 2.07-2.795.57-4.116-1.474-3.119 2.828-7.487-3.4-1.831 1.536-4.058.033-4.479-2.163-1.202.24-3.846 5.048-.962z" fill="#f55"/><path d="M296.266 866.643l-8.304 5.687-.23-88.577 10.31 2.469-1.243 4.162-.662 3.419-.332 4.353z" stroke="#030000" stroke-width="2" stroke-linecap="round" stroke-linejoin="round"/><path d="M180.435 898.76l-28.872-20.429-23.288 14.3-5.856-2.316-4.086.818-3.132 1.498-1.362-1.09-4.086.136 41.674-25.875 38.54 27.373-2.995 2.18-.545 1.225-2.588-1.09-2.179 1.09z"/><path d="M179.972 898.338l-28.638-20.152-24.042 14.849 3.298 2.456 4.766 5.175.273-6.265 2.86-4.358 3.54-3.405 5.448-1.361 8.852-.273 8.989 4.63 6.673 7.219 3.95 6.128 2.996 5.039.68-5.856z" fill="#f55"/><path d="M70.505 872.117l-.721-41.587 2.884-1.202 4.808 2.404 5.048-2.164.962-5.048-3.125-3.365h-5.53l-8.894.48-9.134 2.404-6.49-.48-4.328-3.125v-3.126l3.366.481 5.529-.24 4.567.961 7.212-.72 3.846-.962 3.125-6.01.961-7.933v-7.932l-1.442-6.25-1.923-3.847-3.606-4.086 19.471.48 6.01 3.847 3.846 2.404-1.442 12.5-3.606 21.154-5.048 18.27-4.567 11.538-5.048 10.336zM191.9 778.847l-23.808 6.25-1.433 20.913 1.193 18.77 2.654 11.76 3.605 13.942 4.808 12.74 5.53 11.058 5.047 9.856 5.53 8.173 5.528-2.163 3.365.24 5.289-.721 3.365 1.683 5.289-.962 2.884 2.885 1.683 2.163 3.846 2.404 2.164 2.404 1.202 3.365 14.663-6.97 13.943-6.732-11.78-7.211-15.144-11.78-12.019-11.538-9.856-11.298-6.73-10.817-6.01-12.26-4.087-16.346-1.202-13.702z"/><path d="M133.457 775.779l.966 17.074-3.543 22.873-4.973 21.262-5.336 19.007-4.51 12.242-6.766 13.53-5.476 9.665-3.222 6.765-2.255 2.577-2.577-.322-2.577 2.9h-3.544l-19.651-10.954-.322-3.866 6.443-8.698 6.765-11.92 7.41-14.818 5.798-17.074 3.866-19.008 1.933-14.819 1.288-12.886 8.327.042 8.692-2.52 8.11-6.542z" fill="#ff5655"/><path d="M103.25 789.797c-1.368 16.94-3.73 33.99-8.783 50.213-3.798 12.192-9.506 23.812-15.994 34.81-2.44 4.138-5.655 7.96-8.55 11.6l.126-11.816c7.512-12.773 14.45-26.246 18.946-40.435 4.754-15.004 6.222-30.875 8.245-46.493l6.01 2.121z" fill="#ff5" stroke="#000" stroke-width="2" stroke-linecap="round" stroke-linejoin="round"/><path d="M193.463 893.25l-2.477-.495-39.004-27.93-42.744 26.94-.495 2.724-2.725-.99-4.46 3.22 8.176-15.359 9.66-20.56 5.698-18.663 4.211-16.514 2.725-15.358 2.18-12.486.05-9.314 3.22 2.477 6.44-.99-.495 6.936 2.973 4.706 5.945.248 4.955-2.477.743-4.211-1.239-4.955 6.193 1.239 3.716-3.22-.495 16.844.512 13.173 1.717 11.104 3.303 14.417 3.7 11.214 5.784 15.943 6.287 9.704 7.432 11.643z" fill="#ff5" stroke="#ff5" stroke-width="2" stroke-linecap="round" stroke-linejoin="round"/><path d="M101.13 897.277c7.856-13.788 15.152-28.046 20.137-43.099 6.763-20.422 11.167-41.783 12.979-63.22.49-5.79-.16-11.634-.59-17.424" fill="none" stroke="#020000" stroke-width="2" stroke-linecap="round" stroke-linejoin="round"/><path d="M89.87 903.087l-9.98-5.22-9.96-5.487" fill="none" stroke="#55a" stroke-width="2" stroke-linecap="round" stroke-linejoin="round"/><g transform="matrix(-1 0 0 -.94022 366.843 1527.84)" stroke="#55a" stroke-width="2.063" stroke-linecap="round" stroke-linejoin="round"><path d="M297 743.362v-152l14.5-13 12.5 13v154.5" fill="#fff"/><path d="M312.056 578.779s-2.944 17.13-3.145 25.8c-.204 8.765 2.059 17.453 1.966 26.22-.103 9.832-3.135 19.518-2.824 29.345.223 7.092 3.055 13.896 3.37 20.984.33 7.459-1.827 14.876-1.579 22.338.164 4.92 1.785 9.695 2.016 14.611.224 4.76.132 9.585-.616 14.285-.682 4.287-3.5 12.5-3.5 12.5" fill="none"/><ellipse transform="translate(0 512.362)" cx="311.215" cy="290.126" rx="7.159" ry="7.336" fill="#ff5"/><path d="M308.762 795.699c-1.733 1.743-1.886 3.15-1.79 4.9.112 2.025 1.293 3.984 2.68 5.377.67.675 1.608 1.056 2.516 1.23.77.147 1.905.118 2.342-.189" fill="#ff5"/></g><path d="M83.513 826.717c-.457 2.4-3.496 4.795-5.397 4.955-1.901.16-4.9-2.6-6.862-2.33-3.926.539-7.926.703-11.799.83-5.198.17-10.553.871-15.598-.392-3.24-.812-7.258-1.62-8.95-4.498-1.55-2.635-1.794-7.017.383-9.162 2.312-2.277 7.09-2.143 9.733-.26 1.754 1.249.242 4.845 1.948 6.158 3.896 3.001 9.824.919 14.737.706 3.899-.169 7.7-1.527 11.601-1.568 2.666-.028 5.772-.635 7.947.906 1.407.997 2.58 2.961 2.257 4.655z" fill="#ff5" stroke="#55a" stroke-width="2" stroke-linecap="round" stroke-linejoin="round"/><path d="M230.045 903.46c18.042-7.85 37.18-17.742 54.482-28.82 16.04-10.27 32.09-21.06 45.403-34.69" fill="none" stroke="#55a" stroke-width="2" stroke-linecap="round" stroke-linejoin="round"/><path d="M278.351 841.091l5.423-18.355s-1.537 1.37-2.445 1.252c-.767-.1-1.305-.901-1.728-1.548-.866-1.322-1.487-4.501-1.487-4.501s-.298 2.803-1.014 3.963c-.414.67-1.005 1.442-1.786 1.55-.718.1-1.967-.926-1.967-.926z" fill="#55a"/><path d="M207.285 844.232l.48-49.28s-2.764-1.595-3.605-2.884c-.68-1.042-.8-2.373-.962-3.606-.177-1.35 0-4.086 0-4.086s-2.42 1.785-3.846 1.923c-1.49.144-3.052-.417-4.327-1.202-1.014-.625-2.404-2.645-2.404-2.645s-1.446 10.728-1.202 16.106c.265 5.843 1.435 11.642 2.885 17.308 1.326 5.18 3.052 10.287 5.288 15.145 2.133 4.631 7.693 13.22 7.693 13.22z" fill="#f55"/><path d="M55.112 975.986l-12.135-11.557M56.268 967.607L44.133 956.05M58.002 960.095l-14.736-14.447M57.135 950.56l-13.77-13.191M56.283 941.449L43.33 929.074M55.45 932.611l-12.543-12.17M56.268 923.979L42.908 911.4M57.424 916.756l-13.565-13.6M58.445 908.616l-15.2-14.417M57.424 899.998l-14.178-13.6M55.296 889.61l-12.135-11.556M55.331 881.64l-12.135-11.556M55.824 873.84L43.69 862.283M56.846 866.771L43.69 853.784M55.162 856.624L43.844 845.68M54.753 847.463l-10.909-10.74M55.585 839.183l-9.275-8.697" fill="none" stroke="#55a" stroke-width="2" stroke-linecap="round" stroke-linejoin="round"/><g transform="matrix(1 0 0 -1 -47.375 1572.857)" stroke="#55a" stroke-linecap="round" stroke-linejoin="round"><path d="M219.278 604.94c-.293-.787-4.45-1.181-6.71-1.505-2.72-.39-5.49-.862-8.21-.518-3.055.387-6.143 1.251-8.856 2.872-1.234.737-3.22 3.024-3.22 3.024s5.556-3.215 8.557-4.087c2.315-.672 4.744-.858 7.138-.836 2.34.021 4.644.76 6.98.946 1.438.115 4.883 1.617 4.32.105zM219.438 615.39s-1.677-1.405-2.575-2.029c-1.444-1.003-2.897-2.033-4.506-2.743-1.278-.565-2.634-1.03-4.023-1.176a14.908 14.908 0 00-5.332.405c-2.334.619-4.482 1.85-6.546 3.104-1.356.824-2.6 1.83-3.792 2.878-.556.488-1.559 1.58-1.559 1.58s3.593.526 5.336.168c2.68-.55 4.793-2.773 7.439-3.47 1.658-.437 3.419-.54 5.129-.405 1.67.131 3.243.857 4.889 1.174.601.116 1.21.2 1.819.265 1.236.132 3.72.25 3.72.25z" fill="none" stroke-width="2"/><path d="M196.389 618.283s3.201 3 5.196 3.779c1.435.56 3.05.508 4.59.538 1.898.037 3.867.121 5.68-.442 1.735-.538 3.234-1.678 4.715-2.728.804-.57 2.244-1.927 2.244-1.927s-2.771-1.228-4.204-1.717c-1.436-.49-2.877-1.064-4.387-1.215-2.199-.22-4.47-.067-6.613.472-2.559.644-7.221 3.24-7.221 3.24z" fill="none" stroke-width="2"/><ellipse transform="matrix(1 0 0 .92308 0 520.115)" cx="208.064" cy="106.494" rx="5.399" ry="3.948" fill="none" stroke-width="2.082"/><ellipse transform="translate(0 512.362)" cx="208.401" cy="105.212" rx="1.957" ry="1.518" fill="#55a" stroke-width="2"/><path d="M255.938 608.209s-1.856-1.064-3.12-2.896c-1.15-1.668-3.334-2.437-5.275-3.013-1.624-.482-3.407-.605-5.072-.295-1.933.36-3.663 1.466-5.371 2.44-1.016.579-2.094 1.139-2.876 2.008-.881.98-1.908 3.463-1.908 3.463.86-2.216 2.9-3.62 4.874-4.727 1.503-.842 3.303-1.027 5.007-1.287 2.023-.308 4.147-.814 6.131-.313 2.878.727 7.61 4.62 7.61 4.62z" fill="#55a" stroke-width="2"/><path d="M232.209 611.155c.013 2.147.039 4.879.436 7.276.432 2.61 1.543 5.07 2.106 7.655.486 2.23.656 4.52 1.095 6.76.198 1.01.665 1.98.694 3.008.03 1.06.063 2.262-.54 3.133-1.2 1.733-3.809 1.88-5.455 3.197-.732.585-1.314 1.335-1.92 2.053" fill="none" stroke-width="2"/><path d="M218.334 632.08c-1.15-.34-2.81 1.063-3.426 2.012-.807 1.241-.13 3.331.965 4.32 1.477 1.334 3.978 1.102 5.927.704 1.63-.332 2.73-2.019 4.326-2.48.967-.28 2.185-.695 3.016-.127.49.336.87 1.172.577 1.69-.417.734-1.642.406-2.479.524-1.15.16-2.338.004-3.474.243-1.29.271-2.404 1.329-3.721 1.336-1.494.01-3.265-.33-4.235-1.465-1.047-1.226-1.52-3.297-.849-4.762.545-1.187 3.373-1.995 3.373-1.995zM207.271 641.342s-2.456-1.104-3.732-.993c-.65.057-1.357.31-1.803.828-.758.877-1.098 2.204-1.093 3.407.006 1.286.327 2.764 1.202 3.632 1.378 1.368 3.555 1.607 5.421 1.535 1.803-.07 3.442-1.186 5.128-1.883 1.139-.471 2.196-1.18 3.365-1.553 1.296-.413 2.647-.852 3.992-.739.826.07 2.186-.022 2.357.858.129.664-.796 1.147-1.386 1.37-1.594.605-3.375-.556-5.056-.369-1.836.204-3.527 1.208-5.336 1.611-1.696.378-3.447 1.099-5.149.751-1.401-.286-2.832-1.057-3.743-2.249-.615-.804-.93-1.93-.91-2.975.022-1.082.366-2.26 1.062-3.034.875-.974 2.23-1.627 3.48-1.542.84.057 2.201 1.345 2.201 1.345zM243.634 641.187s2.347.812 3.085 1.732c.645.804.838 1.932.89 2.961.072 1.413.07 3.056-.804 4.168-.556.705-1.558 1.017-2.45 1.116-1.326.148-2.648-.408-3.918-.816-1.33-.428-2.53-1.196-3.834-1.697-1.207-.462-2.394-1.163-3.686-1.202-.809-.025-1.697 1.09-2.349.611-.268-.198-.193-.7-.047-.999.303-.624 1.009-1.105 1.695-1.206 1.018-.15 1.968.609 2.925.988 1.351.536 2.636 1.227 3.965 1.816 1.397.618 2.69 1.692 4.214 1.803 1.19.087 2.659-.03 3.461-.914.945-1.04.88-2.77.68-4.162-.167-1.164-.682-2.362-1.527-3.181-.602-.584-2.3-1.018-2.3-1.018zM215.308 654.479s2.449.759 3.677 1.125c1.147.342 2.25 1.012 3.447 1 1.224-.013 2.305-.852 3.504-1.097.604-.123 1.227-.239 1.84-.184 1.25.111 2.364 1.046 3.617 1.03 1.123-.013 2.205-.49 3.217-1 .627-.315 1.724-1.25 1.724-1.25s-1.712.944-2.643 1c-1.215.075-2.35-.744-3.562-.874-1.525-.164-3.072-.054-4.595.125-1.008.118-1.985.457-2.988.625-.99.165-1.987.455-2.987.375-1.028-.083-1.965-.728-2.987-.875-.418-.06-1.264 0-1.264 0z" fill="#55a" stroke-width="2"/><path d="M233.5 614.862s3.289-2.474 5.125-3.375c1.502-.737 3.088-1.434 4.75-1.625 1.564-.18 3.155.17 4.7.475 1.118.22 2.275.43 3.275.974 1.117.607 2.9 2.478 2.9 2.478" fill="none" stroke-width="2"/><path d="M253.86 617.72s-3.079 2.765-4.916 3.641c-1.36.65-2.87 1.061-4.374 1.128-1.976.088-3.981-.33-5.858-.966-1.184-.4-2.25-1.085-3.317-1.762-.76-.482-2.186-1.631-2.186-1.631s2.231-1.6 3.404-2.282c1.175-.682 2.343-1.45 3.626-1.802 1.868-.513 3.877-.801 5.766-.41 2.883.6 7.855 4.085 7.855 4.085z" fill="none" stroke-width="2"/><ellipse transform="matrix(-.86252 .13343 .11957 .92476 409.327 491.368)" cx="208.064" cy="106.494" rx="5.399" ry="3.948" fill="none" stroke-width="2.217"/><ellipse transform="matrix(-.86252 .13343 .12953 1.00182 408.322 483.6)" cx="208.401" cy="105.212" rx="1.957" ry="1.518" fill="#55a" stroke-width="2.13"/><path d="M215.75 622.237l-5.125 4.5M235.75 623.862l5.125 3.75" fill="none" stroke-width="2"/></g><path d="M209.142 974.023l-.066-5.795-1.302-9.817-.501-7.513.2-9.816-.701-7.813-2.104-10.618-1.47-7.896.168-4.626" fill="none" stroke="#55a" stroke-width="2" stroke-linecap="round" stroke-linejoin="round"/><path d="M207.78 957.007s.402-2.349.936-3.394c.681-1.335 1.611-2.61 2.809-3.511 1.215-.915 2.693-1.834 4.213-1.756 1.552.08 3.214.945 4.096 2.224.827 1.199.861 2.9.586 4.33-.255 1.321-.84 2.813-1.99 3.512-.9.547-2.186.52-3.16.117-.689-.286-1.215-.96-1.522-1.639-.322-.715-.234-2.34-.234-2.34s-1.31 2.12-1.755 3.276c-.58 1.501-.878 3.1-1.17 4.682-.237 1.275-.248 2.584-.469 3.862-.211 1.222-.82 3.628-.82 3.628M207.428 949.282s.639-4.424 1.288-6.554c.616-2.024 1.372-4.035 2.457-5.852.67-1.119 1.434-2.236 2.458-3.043 1.29-1.014 4.448-2.106 4.448-2.106s-2.482 1.804-2.575 3.16c-.072 1.048.782 2.083 1.638 2.692.911.646 2.172.865 3.278.702 1.278-.189 2.571-.876 3.394-1.873.887-1.075 1.305-2.585 1.287-3.98-.019-1.406-.494-2.906-1.404-3.978-1.153-1.358-2.923-2.294-4.682-2.575-1.881-.302-3.898.234-5.618 1.053-1.524.726-2.843 1.93-3.862 3.277-1.19 1.573-2.458 5.384-2.458 5.384" fill="none" stroke="#55a" stroke-width="2" stroke-linecap="round" stroke-linejoin="round"/><g fill="none" stroke="#55a" stroke-width="2" stroke-linecap="round" stroke-linejoin="round"><path d="M143.806 902c-3.345.732-3.75-4.08-2.496-5.752 1.461-1.947 5.73-.989 7.244.918 2.024 2.549 1.436 7.554-1 9.713-2.143 1.9-6.158 1.361-8.59-.152-2.222-1.383-3.517-4.367-3.59-6.983-.121-4.272 1.622-9.395 5.212-11.713 6.222-4.016 16-3.898 22.215.127 5.309 3.438 7.858 7.647 11.01 12.095 1.756 2.476 3.784 6.857 4.325 8.012"/><path d="M172.959 908.188c-1.521-3.36-3.398-6.338-5.92-8.825-3.301-3.254-7.205-6.292-11.657-7.58-3.44-.997-7.406-1.156-10.746.139-1.361.528-2.689 2.408-3.274 2.911"/><path d="M168.398 908.514c-2.211-3.21-5.17-7.198-8.844-9.468-3.587-1.645-7.293-3.263-10.862-2.421M163.675 910.468c-1.656-2.837-3.767-5.552-6.483-7.38-2.012-1.354-4.5-1.855-6.872-2.392M159.278 912.911c-1.937-2.23-3.58-4.132-5.817-5.649-1.245-.844-3.058-1.424-4.118-1.843M155.695 916.169c-1.603-2.35-3.561-4.547-5.917-6.135-1.246-.84-3.26-1.263-4.181-1.683M151.786 919.263c-2.093-2.923-3.703-4.485-5.939-6.316-2.005-1.643-5.97-3.56-6.602-4.107M147.714 922.52c-1.197-2.346-2.846-4.465-4.705-6.32-.723-.721-1.622-1.242-2.46-1.823"/></g><g fill="#fff" stroke="#55a" stroke-width="2" stroke-linecap="round" stroke-linejoin="round"><path d="M74.659 808.902c-.434 1.89-1.334 3.68-2.388 5.308-.773 1.192-1.575 2.521-2.831 3.184-1.446.763-3.238.46-4.865.62-2.53.248-5.145 1.159-7.608.53-.848-.216-1.366-1.19-2.211-1.415-1.769-.472-3.707.7-5.485.265-.795-.195-1.663-.56-2.123-1.238-.334-.494-.265-1.77-.265-1.77s-2.641.706-3.715.089c-.847-.486-1.269-1.6-1.416-2.565-.2-1.31.278-2.674.796-3.892a8.936 8.936 0 011.947-2.831c.378-.373 1.326-.885 1.326-.885s-2.705 1.356-3.98.885c-.83-.307-1.42-1.255-1.592-2.123-.184-.926.38-1.857.707-2.742.466-1.262.818-2.676 1.77-3.627.997-.998 3.803-1.858 3.803-1.858s-2.717.916-3.892.354c-.767-.367-1.252-1.288-1.415-2.123-.225-1.152.15-2.416.707-3.45.415-.77 1.098-1.422 1.858-1.857.608-.349 2.034-.531 2.034-.531s-2.66-.814-2.83-1.946c-.19-1.266 1.255-2.413 2.388-3.008 2.329-1.223 5.315.081 7.873-.53 1.465-.351 2.694-1.412 4.158-1.77 2.24-.547 4.652-1.05 6.9-.53 1.699.393 3.26 1.437 4.51 2.653 1.473 1.431 2.377 3.372 3.274 5.22.916 1.887 1.69 3.873 2.123 5.926.592 2.806.547 5.714.619 8.58.033 1.327-.055 2.654-.089 3.981-.026 1.032.143 2.09-.088 3.096z"/><path d="M47.414 813.679c1.54-2.24 3.975-4.116 6.814-4.06 1.92-.375 3.856.728 5.67.243 1.253-.81 1.852-2.529 3.152-3.337 1.422-.884 3.46-1.536 4.802-1.479"/><path d="M45.998 804.037c3.159-1.83 5.732-3.607 9.405-3.968 1.604-.021 3.804-.114 4.586 1.616.685 1.367.138 3.151-1.272 3.81-2.373 1.378-4.824 3.732-7.411 4.645"/><path d="M56.648 806.514c-1.583-.017-4.293-1.356-4.515-3.172-.222-.627-.24-1.301-.262-1.959M46.352 795.014c4.034-.764 7.33-2.15 11.443-1.51 1.413.478 3.342.947 3.807 2.572.112 1.571-1.314 2.874-2.641 3.453-.522.15-2.418.46-2.959.5"/><path d="M55.313 799.862c-1.588-.774-3.133-3.152-2.63-4.768.046-.264.098-.527.161-.788M56.083 816.952c-.41-1.335-1.048-3.118-2.725-3.116-1.984-.11-3.864.613-5.59 1.524M55.798 793.245c2.422-.16 3.947-1.747 3.643-3.374-.45-2.41-2.84-2.892-6.835-2.713-2.47-.067-2.932.494-5.402.13-.55-.045-1.099-.093-1.648-.147"/><path d="M54.844 787.141c1.95-.685 3.85-2.67 2.508-3.923-.695-.878-2.527-1.47-3.57-1.65M53.287 792.98c-1.087-.841-1.566-1.809-1.61-2.92-.035-.872.869-1.988 1.079-2.388M52.456 786.699c-1.138-.739-2.475-2.032-1.62-3.488.156-.413.345-.814.558-1.2"/></g><path d="M61.216 778.919s3.527 9.27 4.063 14.146c.447 4.072-.747 12.267-.747 12.267l-5.129 4.526-5.567-1.007s4.718-2.321 5.875-4.5c.4-.754.513-1.785.15-2.558-.41-.873-2.33-1.715-2.33-1.715s2.249-.479 2.973-1.279c.64-.706 1.181-1.827.862-2.725-.618-1.738-4.626-3.037-4.626-3.037s3.012-1.292 2.67-4.036c-.302-2.417-5.53-1.678-5.53-1.678s3.906-.672 3.597-3.34c-.241-2.082-3.889-2.17-3.889-2.17l3.916-1.256z" fill="#ff5" stroke="#55a" stroke-width="2" stroke-linecap="round" stroke-linejoin="round"/><g stroke="#000" fill="none" stroke-width="2" stroke-linecap="round" stroke-linejoin="round"><path d="M190.578 893.035l-38.89-27.577-50.199 31.442"/><path d="M182.8 873.943l-31.113-22.274-39.951 25.456"/><path d="M177.007 858.114l-24.966-17.759-33.234 21.567"/><path d="M171.84 843.89l-20.506-15.202-27.224 18.385"/><path d="M169.012 829.395L150.3 817.388l-21.948 15.543"/><path d="M166.537 815.96l-15.76-9.668-20.982 14.821M166.537 805.354l-8.486-7.779M144.127 797.834l-11.735 10.66M134.717 795.454l5.888-4.922M184.921 888.085v-10.607M173.608 880.4v-12.467M162.79 872.707l-.142-12.2M152.041 865.104l-.354-13.081M140.02 872.175l-.284-12.304M128.353 879.953V867.58M116.508 887.202l.178-12.906"/></g><g fill="none" stroke="#55a" stroke-width="2" stroke-linecap="round" stroke-linejoin="round"><path d="M140.472 978.178c-2.307-11.491-4.152-39.695-4.772-50.265-.736-9.732-1.82-18.38-6.122-24.796-1.03-3.079-3.746-5.3-7.229-5.286-3.821-.34-5.835 8.535 1.36 8.588"/><path d="M146.608 979.03c-3.97-17.175-3.984-46.427-6.436-62.627-1.379-9.107-5.357-19.659-13.448-23.938-3.577-1.893-9.393-1.972-12.095 1.04-3.251 3.625-2.724 10.811.33 14.602 2.649 3.288 8.61 5.006 12.31 2.975 2.296-1.26 2.746-4.86 2.545-7.432"/><path d="M134.54 977.758c-3.352-14.595-3.031-18.321-3.55-33.927-.17-5.091-.23-14.777-1.698-21.975-.654-3.21-1.835-7.633-3.14-9.31M129.08 976.175c-3.353-14.595-3.032-18.321-3.551-33.927-.17-5.09.105-12.668-1.222-18.81-.785-3.627-2.628-8.74-3.933-10.417M124.331 975.463c-3.352-13.974-3.031-17.54-3.55-32.481-.17-4.875.105-12.13-1.223-18.009-.784-3.473-2.627-8.368-3.932-9.973M118.792 974.434c-3.109-13.242-2.811-16.622-3.293-30.78-.158-4.62.098-11.494-1.133-17.066-.728-3.292-2.437-7.93-3.647-9.451M113.568 973.642c-3.108-12.4-2.81-15.566-3.293-28.824-.157-4.326.099-10.764-1.133-15.982-.727-3.082-2.436-7.426-3.646-8.85M114.733 913.851c-.55 1.123-1.48 2.453-2.737 2.595-2.49.281-4.968-1.81-6.458-3.794-2.494-3.323-3.448-7.932-2.998-12.04.252-2.307 1.218-4.894 3.107-6.252.771-.554 1.632-.953 2.821-.388"/><path d="M109.36 916.055c-.314 1.105-.908 2.442-1.9 2.697-1.963.505-4.184-1.215-5.603-2.932-2.375-2.873-3.661-7.102-3.767-10.998-.059-2.187.422-4.705 1.782-6.162.554-.594 1.199-1.051 2.215-.637"/><path d="M104.564 918.507c-.313 1.106-.907 2.443-1.898 2.698-1.963.505-4.185-1.215-5.604-2.932-2.375-2.874-3.661-7.103-3.766-10.998-.06-2.187.42-4.706 1.78-6.162.555-.594 1.2-1.052 2.216-.637"/><path d="M99.232 920.242c-.33 1.068-.941 2.357-1.937 2.59-1.97.464-4.167-1.234-5.562-2.919-2.334-2.819-3.562-6.937-3.612-10.717-.03-2.122.245-4.65 1.867-5.952.828-.664 2.163-.687 3.174-.27M120.137 911.67c-.55 1.123-1.479 2.453-2.737 2.596-2.49.281-4.968-1.81-6.458-3.795-2.494-3.322-3.448-7.931-2.998-12.04.253-2.306 1.047-5.127 3.108-6.251 1.151-.628 2.739-.162 3.928.403"/></g><g fill="none" stroke="#55a" stroke-width="2" stroke-linecap="round" stroke-linejoin="round"><path d="M204.479 916.757c2.38-6.25 5.386-8.31 10.14-11.294 1.792-2.708 5.058-5.376 7.27-3.775 1.96 1.419 2.36 6.659-1.168 7.164"/><path d="M203.48 910.59c2.281-8.09 8.73-14.05 15.947-14.838 3.73-.407 8.445 2.175 9.703 5.71 1.536 4.317-.088 10.882-4.78 12.887-2.923 1.249-6.566.081-8.6-2.051-1.835-1.922-1.356-6.305-1.485-7.83"/><path d="M197.953 910.268c2.46-6.782 8.398-18.066 16.87-19.478 3.02-.504 6.284 1.876 7.941 4.617"/><path d="M193.36 909.072c2.598-6.807 3.465-13.537 8.77-17.156 2.936-2.003 8.074-2.61 10.61-1.056"/><path d="M188.501 908.497c1.751-6.238 2.364-11.981 6.688-15.658 2.3-1.957 6.221-3.665 8.795-2.175M184.044 908.517c.927-4.746.762-10.392 4.205-13.706 1.197-1.152 2.803-2.822 4.817-1.28M179.041 908.505c.976-4.22.472-5.85 1.854-9.989.567-1.7 2.886-3.733 4.826-2.344M219.717 915.943c-.857.757-1.912 1.553-3.054 1.554-1.894 0-3.844-1.124-5.067-2.57-1.217-1.44-1.438-3.527-1.684-5.398M214.151 917.414c-.612.47-1.365.964-2.181.965-1.353 0-2.746-.698-3.62-1.596-.868-.893-1.027-2.188-1.202-3.35M210.06 918.523s-1.376 1.41-2.286 1.548c-.837.127-2.432-.737-2.432-.737"/></g><path d="M194.605 890.944s-7.43-10.331-10.39-15.94c-3.873-7.336-6.865-15.132-9.547-22.981-2.33-6.818-4.272-13.79-5.656-20.86-1.118-5.71-1.768-11.517-2.122-17.324-.316-5.176-.063-10.371 0-15.556.06-4.833.354-14.496.354-14.496m25.456-4.596s-1.1 9.887-1.061 14.849c.042 5.441.376 10.922 1.414 16.263 1.152 5.929 2.958 11.76 5.303 17.324a106.246 106.246 0 0010.253 18.739c2.79 4.07 6.235 7.655 9.546 11.313 3.748 4.14 7.518 8.284 11.668 12.021 3.118 2.809 6.563 5.233 9.9 7.778 3.147 2.402 6.267 4.85 9.545 7.072 2.25 1.525 6.936 4.288 6.936 4.288" fill="none" stroke="#030000" stroke-width="2" stroke-linecap="round" stroke-linejoin="round"/><path d="M207.884 844.658l.018-49.911" fill="none" stroke="#000" stroke-width="2" stroke-linecap="round" stroke-linejoin="round"/><path d="M287.683 872.39l.122-88.957M296.164 866.872v-71.409M301.014 863.096l-.127-65.068" fill="none" stroke="#55a" stroke-width="2" stroke-linecap="round" stroke-linejoin="round"/><path d="M221.309 812.067l5.423-18.355s-1.538 1.369-2.446 1.251c-.767-.1-1.304-.9-1.728-1.548-.865-1.322-1.487-4.5-1.487-4.5s-.297 2.802-1.014 3.962c-.414.67-1.004 1.442-1.785 1.55-.718.1-1.967-.926-1.967-.926z" fill="#55a"/><path d="M152.046 719.962l-.018 49.911" fill="none" stroke="#000" stroke-width="2" stroke-linecap="round" stroke-linejoin="round"/><path d="M94.474 874.272c-.184-1.051-.66-2.263-2.12-3.064-2.631-1.443-5.453-.457-6.79 1.979-1.335 2.435-.784 5.589 1.846 7.032 1.461.801 2.02.474 3.298.225l.159.404c-1.278.25-4.526 1.319-5.461 3.024-1.069 1.948-.36 5.505 1.979 6.788 2.338 1.283 5.72-.03 6.788-1.979.936-1.705.092-5.019-.384-6.23l.426-.083c.476 1.211.501 1.859 1.962 2.66 2.63 1.443 5.586.213 6.922-2.222 1.336-2.436.652-5.346-1.978-6.789-1.462-.801-2.74-.552-3.724-.142l-.16-.404c1.095-1.3.961-1.057 1.921-2.114.96-1.058 3.173-3.012 3.173-3.012-3.19-1.116-3.19-1.116-5.845-3.207 0 0-.459 2.917-.835 4.295-.375 1.378-.242 1.134-.751 2.756zM114.1 805.58c-.57-.902-1.472-1.84-3.129-2.024-2.981-.331-5.214 1.657-5.52 4.417-.307 2.761 1.405 5.467 4.386 5.798 1.657.184 2.05-.332 3.135-1.05l.3.313c-1.085.718-3.68 2.945-3.894 4.878-.246 2.208 1.767 5.227 4.417 5.521 2.65.294 5.276-2.21 5.521-4.418.215-1.932-1.828-4.675-2.73-5.613l.362-.24c.902.94 1.172 1.528 2.828 1.712 2.982.331 5.246-1.933 5.552-4.694.307-2.76-1.436-5.19-4.418-5.521-1.656-.184-2.742.534-3.497 1.289l-.3-.313c.515-1.62.484-1.344.969-2.687.484-1.344 1.785-3.995 1.785-3.995-3.374.185-3.374.185-6.626-.735 0 0 .687 2.871.865 4.288.178 1.417.209 1.141.356 2.835zM315.18 829.036c-.5-.667-1.25-1.334-2.5-1.334-2.25 0-3.75 1.778-3.75 4s1.5 4.222 3.75 4.222c1.25 0 1.5-.444 2.25-1.11l.25.222c-.75.666-2.5 2.666-2.5 4.222 0 1.778 1.75 4 3.75 4s3.75-2.222 3.75-4c0-1.556-1.75-3.556-2.5-4.222l.25-.223c.75.667 1 1.111 2.25 1.111 2.25 0 3.75-2 3.75-4.222 0-2.222-1.5-4-3.75-4-1.25 0-2 .667-2.5 1.334l-.25-.223c.25-1.333.25-1.11.5-2.222.25-1.111 1-3.333 1-3.333-2.5.444-2.5.444-5 0 0 0 .75 2.222 1 3.333.25 1.111.25.889.5 2.222zM315.18 799.036c-.5-.667-1.25-1.334-2.5-1.334-2.25 0-3.75 1.778-3.75 4s1.5 4.222 3.75 4.222c1.25 0 1.5-.444 2.25-1.11l.25.222c-.75.666-2.5 2.666-2.5 4.222 0 1.778 1.75 4 3.75 4s3.75-2.222 3.75-4c0-1.556-1.75-3.556-2.5-4.222l.25-.223c.75.667 1 1.111 2.25 1.111 2.25 0 3.75-2 3.75-4.222 0-2.222-1.5-4-3.75-4-1.25 0-2 .667-2.5 1.334l-.25-.223c.25-1.333.25-1.11.5-2.222.25-1.111 1-3.333 1-3.333-2.5.444-2.5.444-5 0 0 0 .75 2.222 1 3.333.25 1.111.25.889.5 2.222z" fill="#fff"/><g transform="rotate(180 13.965 462.629)" fill="none" stroke-width="2" stroke-linecap="round" stroke-linejoin="round"><circle cx="-80" cy="80" r="10" stroke="#fffdff"/><circle cx="-80" cy="80" r="5" fill="#fff" stroke="#fff"/></g><g transform="rotate(180 179.965 782.31)" fill="#ff5"><path d="M139.124 679.001c.936-.214 1.94.503 2.634 1.166 1.06 1.014.951 2.877 1.963 3.94.933.98 2.303 1.439 3.54 1.986 1.809.8 3.737 1.3 5.63 1.877-3.223 1.34-7.006 2.301-10.288 1.227-2.18-.714-4.245-2.541-5.027-4.697-.493-1.36-.048-2.981.533-4.305.21-.478.506-1.078 1.015-1.194zM157.688 697.773s3.407.268 4.38 1.46c1.107 1.357 1.086 3.526.626 5.215-.482 1.771-1.693 3.565-3.338 4.38-1.495.74-3.396.441-5.006 0-2.104-.577-4.241-1.655-5.631-3.337-1.177-1.424-1.64-3.383-1.877-5.215-.208-1.591-.128-3.287.417-4.797.746-2.068 2.003-4.094 3.754-5.423 1.524-1.157 3.547-1.503 5.423-1.877 2.254-.45 4.631-.878 6.883-.418 2.59.53 5.11 1.797 7.092 3.546 2.631 2.323 4.53 5.505 5.84 8.76 1.03 2.556 1.148 5.398 1.46 8.135a64.19 64.19 0 01.418 8.344c-.056 3.348-.629 6.67-.835 10.012-.107 1.736-.524 3.503-.208 5.214.192 1.042.542 2.134 1.251 2.92.48.532 1.166 1.119 1.878 1.043.735-.078 1.43-.76 1.668-1.46.228-.671-.417-2.086-.417-2.086s2.113 1.545 2.503 2.712c.443 1.325.344 3-.417 4.171-.61.94-1.807 1.534-2.92 1.67-1.005.12-2.04-.337-2.92-.835-1.242-.702-3.13-2.92-3.13-2.92s-.874 6.106-.833 9.177c.031 2.38.248 4.785.834 7.092.46 1.814 1.055 3.652 2.086 5.215.541.82 1.177 1.71 2.086 2.085.963.4 3.128 0 3.128 0s-2.138-1.258-2.711-2.294c-.476-.86-.682-1.973-.417-2.92.265-.952 1.012-1.817 1.877-2.295.981-.542 2.27-.762 3.337-.417 1.357.44 2.454 1.663 3.129 2.92.8 1.491 1.235 3.363.834 5.006-.247 1.014-1.045 1.875-1.877 2.503-1.545 1.168-3.487 2.03-5.423 2.086-1.825.053-3.72-.621-5.215-1.668-1.583-1.11-2.713-2.845-3.546-4.59-1.169-2.45-1.672-5.218-1.877-7.925-.258-3.409.36-6.836.834-10.22.345-2.458 1.148-4.84 1.46-7.301.159-1.244.126-2.504.21-3.755.119-1.809.416-5.423.416-5.423s-3.12 2.5-5.006 2.712c-1.794.201-3.849-.28-5.214-1.46-1.554-1.344-2.338-3.584-2.503-5.632a6.33 6.33 0 011.043-3.963c.727-1.07 1.9-1.892 3.128-2.294.86-.282 1.908-.414 2.712 0 .532.273 1.043 1.46 1.043 1.46s-1.497.602-1.877 1.251c-.459.782-.4 1.825-.209 2.712.183.851.502 1.85 1.252 2.294.896.532 2.148.355 3.128 0 1.532-.555 2.994-1.688 3.755-3.129.684-1.297.37-2.914.417-4.38.074-2.294.106-4.61-.209-6.883-.314-2.272-.662-4.614-1.668-6.675-.892-1.824-2.24-3.444-3.755-4.797-1.583-1.414-3.413-2.655-5.423-3.337-1.92-.652-4.055-.99-6.049-.626-1.223.223-2.373.882-3.337 1.669-.96.782-1.837 1.77-2.295 2.92-.567 1.427-.859 3.118-.417 4.588.385 1.28 1.3 2.55 2.503 3.13 1.128.541 2.723.708 3.755 0 .798-.55 1.012-1.744 1.043-2.712.037-1.165-1.043-3.338-1.043-3.338z"/><ellipse transform="translate(-.209 511.945)" cx="166.865" cy="221.079" rx="3.968" ry="3.673"/><ellipse transform="translate(0 512.362)" cx="181.57" cy="260.709" rx="5.237" ry="5.26"/></g><path d="M220.806 851.412l5.423-18.356s-1.537 1.37-2.445 1.252c-.767-.1-1.305-.901-1.728-1.548-.866-1.322-1.487-4.5-1.487-4.5s-.298 2.802-1.014 3.962c-.414.67-1.005 1.442-1.785 1.55-.718.1-1.968-.926-1.968-.926zM240.267 873.64l5.423-18.356s-1.537 1.37-2.446 1.252c-.766-.1-1.304-.902-1.728-1.549-.865-1.321-1.486-4.5-1.486-4.5s-.298 2.802-1.015 3.963c-.414.67-1.004 1.442-1.785 1.55-.718.099-1.967-.926-1.967-.926zM259.057 886.558l5.424-18.355s-1.538 1.369-2.446 1.251c-.767-.1-1.304-.901-1.728-1.548-.865-1.322-1.487-4.5-1.487-4.5s-.298 2.802-1.014 3.962c-.414.67-1.005 1.442-1.785 1.55-.718.1-1.968-.926-1.968-.926zM278.016 870.955l5.423-18.355s-1.538 1.369-2.446 1.251c-.767-.1-1.304-.9-1.728-1.548-.865-1.322-1.487-4.5-1.487-4.5s-.297 2.802-1.014 3.962c-.414.67-1.004 1.442-1.785 1.55-.718.1-1.967-.926-1.967-.926z" fill="#55a"/><g transform="rotate(180 179.965 782.31)"><path d="M96.493 730.91s-1.559-4.579-2.845-6.6c-1.472-2.312-5.462-6.144-5.462-6.144s3.405-2.345 5.348-2.959c2.037-.643 6.372-.683 6.372-.683s1.64-3.025 2.617-4.437c1.274-1.842 4.21-5.235 4.21-5.235s4.222 3.246 5.804 5.349c.968 1.287 2.162 4.323 2.162 4.323s4.007-.059 5.917.456c2.277.613 6.372 3.072 6.372 3.072s-4.634 3.877-6.259 6.372c-1.402 2.155-2.844 7.169-2.844 7.169s-4.8-1.552-7.283-1.935c-2.439-.375-4.939-.571-7.396-.341-2.29.215-6.713 1.593-6.713 1.593z" fill="#ff5" stroke="#000" stroke-width="2" stroke-linecap="round" stroke-linejoin="round"/><path d="M101.613 728.976s-.929-3.69-1.82-5.348c-.705-1.31-2.732-3.528-2.732-3.528s2.108-.602 3.187-.569c1.287.04 3.755.91 3.755.91s.858-2.933 1.479-4.323c.443-.993 1.593-2.845 1.593-2.845s1.779 2.007 2.39 3.186c.623 1.203 1.251 3.869 1.251 3.869s2.337-.533 3.528-.57c1.143-.034 3.413.342 3.413.342s-2.154 2.538-2.958 3.983c-.953 1.71-2.162 5.462-2.162 5.462s-3.91-1.061-5.917-1.138c-1.679-.065-5.007.569-5.007.569z" stroke="#000200" stroke-width="2" stroke-linecap="round" stroke-linejoin="round"/><ellipse transform="translate(0 512.362)" cx="106.95" cy="247.611" rx="29.875" ry="30.406" stroke="#000" stroke-width="2" stroke-linecap="round" stroke-linejoin="round"/><ellipse transform="matrix(.9834 0 0 .94064 2.307 527.382)" cx="127.804" cy="248.455" rx="2.542" ry="2.658" fill="#ff5"/><ellipse transform="matrix(.9834 0 0 .94064 -18.81 524.718)" cx="127.804" cy="248.455" rx="2.542" ry="2.658" fill="#ff5"/><ellipse transform="matrix(.9834 0 0 .94064 -8.23 525.509)" cx="127.804" cy="248.455" rx="2.542" ry="2.658" fill="#ff5"/><ellipse transform="matrix(.9834 0 0 .94064 -18.979 513.98)" cx="127.804" cy="248.455" rx="2.542" ry="2.658" fill="#ff5"/><ellipse transform="matrix(.9834 0 0 .94064 -18.475 504.418)" cx="127.804" cy="248.455" rx="2.542" ry="2.658" fill="#ff5"/><ellipse transform="matrix(.9834 0 0 .94064 -30.22 525.725)" cx="127.804" cy="248.455" rx="2.542" ry="2.658" fill="#ff5"/><ellipse transform="matrix(.9834 0 0 .94064 -40.567 527.354)" cx="127.804" cy="248.455" rx="2.542" ry="2.658" fill="#ff5"/><path d="M113.078 731.75l.336 20.803s8.766.456 13.086 1.175c2.783.463 8.221 2.013 8.221 2.013" fill="none" stroke="#ff5" stroke-width="2" stroke-linecap="round" stroke-linejoin="round"/><path d="M117.44 733.092l.336 15.602s6.075.438 9.06 1.007c2.505.478 7.382 2.013 7.382 2.013M100.831 732.42l-.671 20.636s-7.416.403-11.073 1.007c-3.292.544-9.73 2.349-9.73 2.349" fill="none" stroke="#ff5" stroke-width="2" stroke-linecap="round" stroke-linejoin="round"/><path d="M96.637 733.427l-.671 15.938s-5.95.647-8.892 1.175c-2.484.445-7.382 1.678-7.382 1.678M80.363 770.673c6.101-2.369 13.22-4.205 20.074-4.802 6.047-.527 12.17.235 18.178 1.11 4.886.713 12.537 2.71 14.428 3.356" fill="none" stroke="#ff5" stroke-width="2" stroke-linecap="round" stroke-linejoin="round"/><path d="M86.63 776.173c1.277-.976 3.349.452 4.59 1.473 1.544 1.27 1.753 3.612 2.9 5.25 1.107 1.58 3.805 4.361 3.805 4.361s-5.344-2.394-7.604-4.206c-1.4-1.122-2.893-2.369-3.565-4.032-.356-.88-.88-2.27-.126-2.846z" fill="#ff5" stroke="#ff5" stroke-linecap="round" stroke-linejoin="round"/><path d="M102.296 786.894s-2.807-2.815-4.097-4.324c-.808-.946-1.802-1.808-2.275-2.959-.465-1.13-.713-2.445-.456-3.64.169-.783.545-1.675 1.252-2.049.672-.355 1.678-.355 2.276.114.935.733.774 2.252 1.024 3.413.242 1.123.223 2.29.455 3.414.255 1.235.654 2.436 1.024 3.641.247.803.797 2.39.797 2.39zM105.937 787.121s-1.106-4.223-1.48-6.372c-.28-1.617-.931-3.291-.568-4.893.268-1.18.924-2.406 1.934-3.072.61-.401 1.48-.602 2.162-.341.73.28 1.229 1.08 1.48 1.82.4 1.187.064 2.516-.114 3.755a23.822 23.822 0 01-1.366 5.235c-.529 1.36-2.048 3.868-2.048 3.868zM110.033 786.78s2.178-3.7 2.959-5.69c.575-1.464.688-3.082 1.252-4.55.303-.793.497-1.72 1.137-2.277.635-.55 1.623-1.137 2.39-.796.605.269.721 1.162.796 1.82.14 1.227-.179 2.514-.682 3.642-.585 1.31-1.672 2.335-2.617 3.413-.849.968-1.74 1.91-2.731 2.731-.778.645-2.504 1.707-2.504 1.707zM115.95 787.121s2.124-2.243 3.073-3.445c.95-1.204 1.883-2.433 2.617-3.758.663-1.199.456-2.911 1.593-3.759.537-.4 1.41-.558 2.048-.313.728.279 1.23 1.061 1.365 1.775.197 1.031-.336 2.123-.91 3.027-.81 1.276-2.137 2.234-3.414 3.133-.903.635-1.97 1.047-2.958 1.566-1.135.595-3.414 1.774-3.414 1.774z" fill="#ff5" stroke="#ff5" stroke-width="2" stroke-linecap="round" stroke-linejoin="round"/></g><path d="M235.77 1022.362c-9.272-17.202-17.565-31.47-26.836-48.672-9.965 3.777-21.234 4.785-32.045 5.682-11.478.952-23.086.757-34.55-.343-9.44-.906-18.836-2.703-27.98-5.132l-31.345 48.465h152.755z" fill="#ff5" stroke="#55a" stroke-width="2"/><path d="M194.665 1003.806c.695.379 1.022 2.133.573 3.072-.13.272-.494.466-.795.43-.848-.104-1.623-.9-1.857-1.708-.168-.576.464-1.138.465-1.738.002-.595-.092-1.252-.451-1.726-.703-.93-1.85-1.722-3.013-1.772-1.936-.083-4.38.818-5.247 2.506-.799 1.558.041 3.666 1.029 5.12.669.984 1.803 1.884 3.017 1.998 1.099.104 2.094-.718 3.043-1.266-.554 1.664-1.165 3.593-.47 5.197.665 1.537 2.349 2.663 3.987 3.188.69.22 1.455-.028 2.177-.108 1.296-.651 2.628-1.654 3.106-2.988.48-1.344-.044-2.894-.535-4.234-.377-1.027-1.128-1.89-1.795-2.77.954.316 2.06.337 2.938-.081 1.664-.79 3.46-2.372 3.517-4.162.055-1.724-1.534-3.42-3.126-4.203-1.472-.724-3.53-.805-4.957.028-1.112.65-1.69 2.088-1.916 3.356-.11.62.31 1.861.31 1.861zM221.039 1000.688c-.005.684-.484.714-.412 1.54.07.822 1.325 1.302 2.124 1.19.283-.04.618-1.202.678-1.49l5.176 9.08a8.747 8.747 0 01-.995 1.091c-.638.258-1.256.71-1.94.67-1.623-.096-3.459-.758-4.45-2.075-1.033-1.375-.957-3.39-.869-5.134-.727.766-1.421 1.796-2.448 1.972-1.134.194-2.392-.384-3.248-1.167-1.263-1.156-2.564-2.995-2.226-4.7.367-1.847 2.374-3.221 4.15-3.715 1.321-.367 2.787.2 4.027.799M148.772 998.87c2.27-.292 4.663.636 6.618 1.851 1.04.647 1.473 2.032 2.478 2.745.458.324 1.006.093 1.552.651-.31-3.105-1.37-3.427-2.596-4.753-1.61-1.743-3.756-3.033-5.957-3.894-2.368-.927-4.977-1.442-7.505-1.255-2.977.22-5.92 1.295-8.539 2.761-1.778.996-3.448 2.33-4.669 3.986-.679.921-1.257 2.282-1.37 3.164 1.136-1.413 3.028-3.063 4.913-3.987 1.719-.843 3.687-1.562 5.575-1.295 1.831.26 3.19 1.26 4.874 2.713 1.78-.987 2.867-2.462 4.626-2.688z"/><path d="M171.861 998.207c-2.394-.171-4.808.95-6.838 2.199-1.07.658-1.69 1.845-2.625 2.67-.443.391-.525 1.144-1.408 1.076.161-3.118 1.243-3.61 2.457-5.026 1.597-1.862 3.778-3.227 6.04-4.203 2.432-1.05 5.14-1.703 7.8-1.65 3.132.063 6.274.98 9.096 2.307 1.917.9 3.838 2.05 5.105 3.734.68.905 1 2.316 1.165 3.19-1.266-1.351-3.02-2.989-4.922-3.825-1.83-.804-3.948-1.365-5.912-.999-1.906.356-3.278 1.427-4.966 2.967-1.917-.892-3.135-2.308-4.992-2.44zM118.716 996.128c1.876.059 3.763 1.255 5.268 2.652.802.743 1.237 1.899 1.819 2.877.456.767.617 2.328 1.31 2.345-.02-2.896-.762-4.428-1.854-6.263-1.128-1.893-2.842-3.324-4.575-4.431-1.865-1.191-3.958-2.04-6.039-2.231-2.449-.226-4.935.338-7.185 1.309-1.528.658-2.886 1.811-4.115 2.99-1.044 1-2.555 2.614-2.713 3.408 1.451-.516 2.381-1.83 5.383-3.521 1.366-.77 3.354-1.014 4.94-.523 1.558.484 2.512 1.616 3.778 3.192 1.529-.651 2.529-1.85 3.983-1.804zM210.028 994.007c1.899-.7 4.464-.363 6.375.588 1.142.568 1.743 1.864 2.577 2.829.639.74 2.112 3.544 1.859 2.27-.387-1.941-1.725-4.984-3.599-6.684-1.72-1.562-4.232-2.263-6.428-2.697-2.362-.466-4.81-.489-6.968.157-2.543.761-4.79 2.348-6.633 4.257-1.25 1.296-2.382 2.956-2.86 4.738-.265.983-.118 2.174.055 3.053.759-2.153 1.34-3.807 2.796-5.075 1.208-1.05 2.875-1.686 4.487-1.715 1.811-.032 3.188.64 5.113 1.746 1.255-1.288 1.753-2.924 3.226-3.467z"/><path d="M216.954 989.583s-4.962-1.563-7.546-1.718c-3.062-.184-6.29-.08-9.143.952-2.018.73-3.655 2.187-5.229 3.559-1.067.929-2.81 3.124-2.81 3.124s-5.614-2.968-8.718-3.642c-3.074-.668-6.327-.631-9.465-.324-3.017.296-6.122.79-8.818 2.069-2.168 1.027-5.588 4.346-5.588 4.346s-4.176-4.282-6.965-5.358c-2.71-1.046-5.834-.863-8.768-.787-2.678.07-5.375.426-7.94 1.131-2.558.702-7.287 3.047-7.287 3.047s-2.614-3.428-4.394-4.678c-1.657-1.164-3.66-1.885-5.639-2.478-1.993-.598-4.091-1.196-6.18-1.06-2.554.166-7.273 2.26-7.273 2.26l4.144-6.708s15.4 2.61 23.163 3.395c6.28.636 12.595.883 18.904 1.062 6.794.192 13.6.274 20.39.013 5.676-.218 11.334-.748 16.98-1.319 4.248-.43 8.507-.81 12.704-1.585 3.794-.701 11.239-2.765 11.239-2.765z"/><path d="M212.691 982.306s-16.078 4.01-29.68 5.396c-13.167 1.341-26.493 1.655-39.7.77-11.35-.759-33.726-5.203-33.726-5.203l5.203-8.286s17.96 4.126 27.11 4.946c13.671 1.227 27.517 1.27 41.179-.064 8.556-.835 25.31-4.946 25.31-4.946z" fill="#f55"/><path d="M100.141 1000.378c-.035.683.441.741.321 1.563-.12.816-1.4 1.22-2.19 1.06-.281-.056-.547-1.235-.59-1.525l-5.702 8.757c.28.42.597.799.928 1.149.622.295 1.212.782 1.897.782 1.626 0 3.498-.552 4.564-1.808 1.113-1.311 1.156-3.327 1.171-5.074.68.808 1.313 1.877 2.328 2.114 1.12.26 2.41-.243 3.31-.974 1.33-1.08 2.738-2.838 2.5-4.56-.257-1.865-2.18-3.356-3.923-3.954-1.297-.444-2.793.035-4.067.56M126.738 1004.256c-.694.379-1.021 2.133-.572 3.072.13.272.494.466.795.429.848-.104 1.622-.9 1.857-1.707.167-.576-.4-1.142-.466-1.738-.046-.419.054-1.262.054-1.262 1.111-.91 2.054-2.144 3.41-2.236 1.934-.13 4.381.818 5.247 2.506.8 1.558-.04 3.666-1.028 5.12-.67.984-1.803 1.884-3.017 1.998-1.1.103-2.095-.718-3.043-1.266.553 1.663 1.165 3.592.47 5.197-.666 1.537-2.35 2.663-3.987 3.188-.69.22-1.455-.028-2.177-.108-1.296-.652-2.628-1.654-3.106-2.988-.481-1.344.044-2.894.535-4.234.376-1.027 1.128-1.89 1.795-2.77-.954.316-2.06.337-2.939-.081-1.663-.791-3.46-2.372-3.517-4.162-.055-1.724 1.535-3.42 3.127-4.203 1.472-.724 3.531-.808 4.956.028 1.196.702 1.322 2.296 2.05 3.622zM160.939 1005.582c.574.544.44 2.323-.235 3.116-.196.229-.597.323-.879.21-.793-.318-1.309-1.287-1.356-2.126-.03-.529.54-.922.697-1.428.137-.44.206-1.366.206-1.366-.842-1.164-1.236-2.587-2.458-3.036-1.819-.669-4.443-.334-5.714 1.075-1.172 1.3-.901 3.554-.32 5.212.394 1.123 1.26 2.284 2.403 2.706 1.036.382 2.209-.157 3.266-.443-.961 1.466-2.048 3.173-1.788 4.902.249 1.657 1.587 3.177 3.035 4.105.61.39 1.414.347 2.132.455 1.42-.298 2.965-.925 3.769-2.091.81-1.176.7-2.809.57-4.23-.1-1.089-.606-2.117-1.024-3.138.841.55 1.904.854 2.86.676 1.811-.338 3.953-1.405 4.468-3.12.496-1.652-.605-3.7-1.943-4.865-1.237-1.077-3.206-1.687-4.798-1.244-1.336.371-1.866 1.88-2.91 2.974zM340 1022.362v-50h-5v15l-3 7-7-22h-5l9 28-9 22h5l10-24v24zM20 542.362v50h5v-15l3-7 7 22h5l-9-28 9-22h-5l-10 24v-24z"/><path d="M30 662.362v360h270M60 542.362h270v360" fill="none" stroke="#55a" stroke-width="2"/><path d="M179.496 665.86l28.872 20.429 23.288-14.3 5.856 2.316 4.085-.818 3.133-1.498 1.362 1.09 4.085-.136-41.673 25.875-38.541-27.373 2.996-2.18.544-1.225 2.588 1.09 2.179-1.09z"/><path d="M179.959 666.282l28.637 20.152 24.042-14.849-3.298-2.456-4.766-5.175-.273 6.265-2.86 4.358-3.54 3.405-5.448 1.361-8.852.273-8.988-4.63-6.674-7.219-3.95-6.128-2.995-5.039-.681 5.856z" fill="#f55"/><path d="M289.426 692.503l.72 41.587-2.884 1.202-4.808-2.404-5.048 2.164-.961 5.048 3.125 3.365h5.529l8.894-.48 9.135-2.404 6.49.48 4.327 3.125v3.126l-3.365-.481-5.53.24-4.567-.961-7.211.72-3.846.962-3.125 6.01-.962 7.933v7.932l1.442 6.25 1.923 3.847 3.606 4.086-19.471-.48-6.01-3.847-3.846-2.404 1.442-12.5 3.606-21.154 5.048-18.27 4.568-11.538 5.048-10.336zM168.03 785.773l23.808-6.25 1.433-20.913-1.192-18.77-2.654-11.76-3.606-13.942-4.808-12.74-5.529-11.058-5.048-9.856-5.529-8.173-5.529 2.163-3.365-.24-5.289.721-3.365-1.683-5.288.962-2.885-2.885-1.683-2.163-3.846-2.404-2.163-2.404-1.202-3.365-14.664 6.97-13.942 6.732 11.779 7.211 15.144 11.78 12.02 11.538 9.855 11.298 6.73 10.817 6.01 12.26 4.087 16.346 1.202 13.702z"/><path d="M256.68 774.823c1.368-16.94 3.731-33.99 8.784-50.213 3.797-12.192 9.505-23.812 15.993-34.81 2.44-4.138 5.655-7.96 8.55-11.6l-.126 11.816c-7.512 12.773-14.45 26.246-18.946 40.435-4.754 15.004-6.221 30.875-8.245 46.493l-6.01-2.121z" fill="#ff5" stroke="#000" stroke-width="2" stroke-linecap="round" stroke-linejoin="round"/><path d="M166.468 671.37l2.477.495 39.003 27.93 42.744-26.94.496-2.724 2.725.99 4.459-3.22-8.175 15.359-9.661 20.56-5.698 18.663-4.211 16.514-2.725 15.358-2.18 12.486-.05 9.314-3.22-2.477-6.44.99.495-6.936-2.973-4.706-5.945-.248-4.954 2.477-.743 4.211 1.238 4.955-6.193-1.239-3.716 3.22.496-16.844-.513-13.173-1.717-11.104-3.303-14.417-3.7-11.214-5.784-15.943-6.287-9.704-7.432-11.643z" fill="#ff5" stroke="#ff5" stroke-width="2" stroke-linecap="round" stroke-linejoin="round"/><path d="M258.801 667.343c-7.857 13.788-15.153 28.046-20.138 43.099-6.763 20.422-11.166 41.783-12.978 63.22-.49 5.79.16 11.634.59 17.424" fill="none" stroke="#020000" stroke-width="2" stroke-linecap="round" stroke-linejoin="round"/><path d="M270.06 661.533l9.981 5.22L290 672.24" fill="none" stroke="#55a" stroke-width="2" stroke-linecap="round" stroke-linejoin="round"/><g fill="#fff" stroke="#55a" stroke-width="2" stroke-linecap="round" stroke-linejoin="round"><path d="M285.271 755.718c.435-1.891 1.334-3.68 2.389-5.308.772-1.192 1.574-2.522 2.83-3.184 1.446-.763 3.239-.46 4.866-.62 2.53-.248 5.144-1.159 7.607-.53.848.216 1.366 1.19 2.212 1.415 1.768.472 3.706-.7 5.484-.265.796.194 1.663.56 2.123 1.238.335.494.265 1.77.265 1.77s2.641-.706 3.716-.09c.846.487 1.268 1.6 1.415 2.566.2 1.31-.278 2.674-.796 3.892a8.936 8.936 0 01-1.946 2.831c-.379.373-1.327.885-1.327.885s2.706-1.356 3.98-.885c.83.307 1.421 1.255 1.593 2.123.183.926-.381 1.857-.708 2.742-.465 1.262-.818 2.676-1.77 3.627-.997.998-3.803 1.858-3.803 1.858s2.717-.916 3.892-.354c.768.367 1.253 1.288 1.416 2.123.225 1.152-.151 2.416-.708 3.45-.415.77-1.098 1.422-1.858 1.857-.608.349-2.034.531-2.034.531s2.66.814 2.83 1.946c.19 1.266-1.254 2.413-2.388 3.008-2.329 1.223-5.315-.081-7.873.53-1.464.351-2.694 1.412-4.157 1.77-2.241.547-4.653 1.05-6.9.53-1.7-.393-3.26-1.437-4.511-2.653-1.473-1.431-2.376-3.372-3.273-5.22-.917-1.887-1.69-3.873-2.123-5.926-.593-2.806-.548-5.714-.62-8.58-.033-1.327.055-2.654.089-3.981.026-1.032-.143-2.09.088-3.096z"/><path d="M312.517 750.941c-1.541 2.24-3.976 4.116-6.814 4.06-1.92.375-3.857-.728-5.67-.243-1.254.81-1.853 2.529-3.153 3.337-1.422.884-3.46 1.536-4.802 1.478"/><path d="M313.932 760.583c-3.158 1.83-5.731 3.607-9.404 3.968-1.605.021-3.805.114-4.587-1.616-.685-1.367-.138-3.151 1.272-3.81 2.373-1.378 4.824-3.732 7.411-4.646"/><path d="M303.282 758.106c1.584.017 4.293 1.356 4.516 3.172.222.627.239 1.301.261 1.959M313.578 769.606c-4.034.764-7.33 2.15-11.443 1.51-1.413-.478-3.342-.947-3.806-2.572-.112-1.571 1.313-2.874 2.64-3.453.523-.15 2.418-.46 2.959-.5"/><path d="M304.617 764.758c1.588.774 3.134 3.152 2.631 4.768-.046.264-.099.527-.162.788M303.848 747.668c.409 1.335 1.047 3.118 2.724 3.116 1.984.11 3.864-.613 5.59-1.524M304.133 771.375c-2.423.16-3.947 1.747-3.644 3.374.45 2.41 2.84 2.892 6.835 2.713 2.47.067 2.932-.494 5.402-.13.55.045 1.1.093 1.648.147"/><path d="M305.086 777.479c-1.95.685-3.85 2.67-2.507 3.923.694.878 2.527 1.47 3.569 1.65M306.644 771.64c1.087.841 1.565 1.809 1.61 2.919.035.873-.87 1.989-1.08 2.389M307.474 777.921c1.138.738 2.475 2.032 1.62 3.488a9.123 9.123 0 01-.558 1.2"/></g><g transform="matrix(1 0 0 .94022 -6.913 36.78)" stroke="#55a" stroke-width="2.063" stroke-linecap="round" stroke-linejoin="round"><path d="M297 743.362v-152l14.5-13 12.5 13v154.5" fill="#fff"/><path d="M312.056 578.779s-2.944 17.13-3.145 25.8c-.204 8.765 2.059 17.453 1.966 26.22-.103 9.832-3.135 19.518-2.824 29.345.223 7.092 3.055 13.896 3.37 20.984.33 7.459-1.827 14.876-1.579 22.338.164 4.92 1.785 9.695 2.016 14.611.224 4.76.132 9.585-.616 14.285-.682 4.287-3.5 12.5-3.5 12.5" fill="none"/><ellipse transform="translate(0 512.362)" cx="311.215" cy="290.126" rx="7.159" ry="7.336" fill="#ff5"/><path d="M308.762 795.699c-1.733 1.743-1.886 3.15-1.79 4.9.112 2.025 1.293 3.984 2.68 5.377.67.675 1.608 1.056 2.516 1.23.77.147 1.905.118 2.342-.189" fill="#ff5"/></g><path d="M276.417 737.903c.457-2.4 3.497-4.795 5.398-4.955 1.9-.16 4.899 2.6 6.862 2.33 3.926-.539 7.925-.703 11.798-.83 5.199-.17 10.553-.871 15.599.392 3.239.812 7.258 1.62 8.95 4.498 1.55 2.635 1.794 7.017-.384 9.162-2.312 2.277-7.09 2.143-9.733.26-1.753-1.249-.241-4.845-1.947-6.158-3.897-3.001-9.824-.919-14.738-.706-3.899.169-7.7 1.527-11.601 1.568-2.666.028-5.771.635-7.946-.906-1.408-.997-2.58-2.961-2.258-4.655z" fill="#ff5" stroke="#55a" stroke-width="2" stroke-linecap="round" stroke-linejoin="round"/><path d="M129.885 661.16c-18.042 7.85-37.18 17.742-54.482 28.82-16.04 10.27-32.089 21.06-45.403 34.69" fill="none" stroke="#55a" stroke-width="2" stroke-linecap="round" stroke-linejoin="round"/><path d="M81.58 723.529l-5.424 18.355s1.537-1.37 2.446-1.252c.767.1 1.304.901 1.728 1.548.865 1.322 1.486 4.501 1.486 4.501s.298-2.803 1.015-3.963c.414-.67 1.004-1.442 1.785-1.55.718-.1 1.967.926 1.967.926z" fill="#55a"/><path d="M304.818 588.634l12.135 11.557M303.662 597.013l12.135 11.557M301.929 604.525l14.735 14.447M302.795 614.06l13.77 13.191M303.648 623.171l12.952 12.375M304.48 632.009l12.543 12.17M303.662 640.641l13.361 12.579M302.507 647.864l13.565 13.6M301.485 656.004l15.2 14.417M302.507 664.622l14.177 13.6M304.634 675.01l12.135 11.556M304.6 682.98l12.134 11.556M304.106 690.78l12.135 11.557M303.084 697.849l13.157 12.987M304.768 707.996l11.318 10.944M305.177 717.157l10.91 10.74M304.345 725.437l9.275 8.697" fill="none" stroke="#55a" stroke-width="2" stroke-linecap="round" stroke-linejoin="round"/><g transform="matrix(-1 0 0 1 407.305 -8.237)" stroke="#55a" stroke-linecap="round" stroke-linejoin="round"><path d="M219.278 604.94c-.293-.787-4.45-1.181-6.71-1.505-2.72-.39-5.49-.862-8.21-.518-3.055.387-6.143 1.251-8.856 2.872-1.234.737-3.22 3.024-3.22 3.024s5.556-3.215 8.557-4.087c2.315-.672 4.744-.858 7.138-.836 2.34.021 4.644.76 6.98.946 1.438.115 4.883 1.617 4.32.105zM219.438 615.39s-1.677-1.405-2.575-2.029c-1.444-1.003-2.897-2.033-4.506-2.743-1.278-.565-2.634-1.03-4.023-1.176a14.908 14.908 0 00-5.332.405c-2.334.619-4.482 1.85-6.546 3.104-1.356.824-2.6 1.83-3.792 2.878-.556.488-1.559 1.58-1.559 1.58s3.593.526 5.336.168c2.68-.55 4.793-2.773 7.439-3.47 1.658-.437 3.419-.54 5.129-.405 1.67.131 3.243.857 4.889 1.174.601.116 1.21.2 1.819.265 1.236.132 3.72.25 3.72.25z" fill="none" stroke-width="2"/><path d="M196.389 618.283s3.201 3 5.196 3.779c1.435.56 3.05.508 4.59.538 1.898.037 3.867.121 5.68-.442 1.735-.538 3.234-1.678 4.715-2.728.804-.57 2.244-1.927 2.244-1.927s-2.771-1.228-4.204-1.717c-1.436-.49-2.877-1.064-4.387-1.215-2.199-.22-4.47-.067-6.613.472-2.559.644-7.221 3.24-7.221 3.24z" fill="none" stroke-width="2"/><ellipse transform="matrix(1 0 0 .92308 0 520.115)" cx="208.064" cy="106.494" rx="5.399" ry="3.948" fill="none" stroke-width="2.082"/><ellipse transform="translate(0 512.362)" cx="208.401" cy="105.212" rx="1.957" ry="1.518" fill="#55a" stroke-width="2"/><path d="M255.938 608.209s-1.856-1.064-3.12-2.896c-1.15-1.668-3.334-2.437-5.275-3.013-1.624-.482-3.407-.605-5.072-.295-1.933.36-3.663 1.466-5.371 2.44-1.016.579-2.094 1.139-2.876 2.008-.881.98-1.908 3.463-1.908 3.463.86-2.216 2.9-3.62 4.874-4.727 1.503-.842 3.303-1.027 5.007-1.287 2.023-.308 4.147-.814 6.131-.313 2.878.727 7.61 4.62 7.61 4.62z" fill="#55a" stroke-width="2"/><path d="M232.209 611.155c.013 2.147.039 4.879.436 7.276.432 2.61 1.543 5.07 2.106 7.655.486 2.23.656 4.52 1.095 6.76.198 1.01.665 1.98.694 3.008.03 1.06.063 2.262-.54 3.133-1.2 1.733-3.809 1.88-5.455 3.197-.732.585-1.314 1.335-1.92 2.053" fill="none" stroke-width="2"/><path d="M218.334 632.08c-1.15-.34-2.81 1.063-3.426 2.012-.807 1.241-.13 3.331.965 4.32 1.477 1.334 3.978 1.102 5.927.704 1.63-.332 2.73-2.019 4.326-2.48.967-.28 2.185-.695 3.016-.127.49.336.87 1.172.577 1.69-.417.734-1.642.406-2.479.524-1.15.16-2.338.004-3.474.243-1.29.271-2.404 1.329-3.721 1.336-1.494.01-3.265-.33-4.235-1.465-1.047-1.226-1.52-3.297-.849-4.762.545-1.187 3.373-1.995 3.373-1.995zM207.271 641.342s-2.456-1.104-3.732-.993c-.65.057-1.357.31-1.803.828-.758.877-1.098 2.204-1.093 3.407.006 1.286.327 2.764 1.202 3.632 1.378 1.368 3.555 1.607 5.421 1.535 1.803-.07 3.442-1.186 5.128-1.883 1.139-.471 2.196-1.18 3.365-1.553 1.296-.413 2.647-.852 3.992-.739.826.07 2.186-.022 2.357.858.129.664-.796 1.147-1.386 1.37-1.594.605-3.375-.556-5.056-.369-1.836.204-3.527 1.208-5.336 1.611-1.696.378-3.447 1.099-5.149.751-1.401-.286-2.832-1.057-3.743-2.249-.615-.804-.93-1.93-.91-2.975.022-1.082.366-2.26 1.062-3.034.875-.974 2.23-1.627 3.48-1.542.84.057 2.201 1.345 2.201 1.345zM243.634 641.187s2.347.812 3.085 1.732c.645.804.838 1.932.89 2.961.072 1.413.07 3.056-.804 4.168-.556.705-1.558 1.017-2.45 1.116-1.326.148-2.648-.408-3.918-.816-1.33-.428-2.53-1.196-3.834-1.697-1.207-.462-2.394-1.163-3.686-1.202-.809-.025-1.697 1.09-2.349.611-.268-.198-.193-.7-.047-.999.303-.624 1.009-1.105 1.695-1.206 1.018-.15 1.968.609 2.925.988 1.351.536 2.636 1.227 3.965 1.816 1.397.618 2.69 1.692 4.214 1.803 1.19.087 2.659-.03 3.461-.914.945-1.04.88-2.77.68-4.162-.167-1.164-.682-2.362-1.527-3.181-.602-.584-2.3-1.018-2.3-1.018zM215.308 654.479s2.449.759 3.677 1.125c1.147.342 2.25 1.012 3.447 1 1.224-.013 2.305-.852 3.504-1.097.604-.123 1.227-.239 1.84-.184 1.25.111 2.364 1.046 3.617 1.03 1.123-.013 2.205-.49 3.217-1 .627-.315 1.724-1.25 1.724-1.25s-1.712.944-2.643 1c-1.215.075-2.35-.744-3.562-.874-1.525-.164-3.072-.054-4.595.125-1.008.118-1.985.457-2.988.625-.99.165-1.987.455-2.987.375-1.028-.083-1.965-.728-2.987-.875-.418-.06-1.264 0-1.264 0z" fill="#55a" stroke-width="2"/><path d="M233.5 614.862s3.289-2.474 5.125-3.375c1.502-.737 3.088-1.434 4.75-1.625 1.564-.18 3.155.17 4.7.475 1.118.22 2.275.43 3.275.974 1.117.607 2.9 2.478 2.9 2.478" fill="none" stroke-width="2"/><path d="M253.86 617.72s-3.079 2.765-4.916 3.641c-1.36.65-2.87 1.061-4.374 1.128-1.976.088-3.981-.33-5.858-.966-1.184-.4-2.25-1.085-3.317-1.762-.76-.482-2.186-1.631-2.186-1.631s2.231-1.6 3.404-2.282c1.175-.682 2.343-1.45 3.626-1.802 1.868-.513 3.877-.801 5.766-.41 2.883.6 7.855 4.085 7.855 4.085z" fill="none" stroke-width="2"/><ellipse transform="matrix(-.86252 .13343 .11957 .92476 409.327 491.368)" cx="208.064" cy="106.494" rx="5.399" ry="3.948" fill="none" stroke-width="2.217"/><ellipse transform="matrix(-.86252 .13343 .12953 1.00182 408.322 483.6)" cx="208.401" cy="105.212" rx="1.957" ry="1.518" fill="#55a" stroke-width="2.13"/><path d="M215.75 622.237l-5.125 4.5M235.75 623.862l5.125 3.75" fill="none" stroke-width="2"/></g><path d="M150.788 590.597l.067 5.795 1.302 9.817.5 7.513-.2 9.816.702 7.813 2.103 10.618 1.47 7.896-.168 4.626" fill="none" stroke="#55a" stroke-width="2" stroke-linecap="round" stroke-linejoin="round"/><path d="M152.151 607.613s-.403 2.349-.936 3.394c-.682 1.335-1.612 2.61-2.81 3.511-1.215.915-2.693 1.834-4.213 1.756-1.551-.08-3.214-.945-4.096-2.224-.827-1.199-.861-2.9-.585-4.33.255-1.321.84-2.813 1.99-3.512.9-.547 2.186-.52 3.16-.117.688.286 1.214.96 1.521 1.639.323.715.234 2.34.234 2.34s1.31-2.12 1.756-3.276c.579-1.501.878-3.1 1.17-4.682.236-1.275.247-2.584.468-3.862.212-1.222.82-3.628.82-3.628M152.502 615.338s-.638 4.424-1.287 6.554c-.617 2.024-1.373 4.035-2.458 5.852-.669 1.119-1.433 2.236-2.458 3.043-1.289 1.014-4.447 2.106-4.447 2.106s2.482-1.804 2.574-3.16c.072-1.048-.782-2.083-1.638-2.692-.91-.646-2.172-.865-3.277-.702-1.278.189-2.572.876-3.394 1.873-.887 1.075-1.306 2.585-1.288 3.98.019 1.406.495 2.906 1.405 3.978 1.152 1.358 2.923 2.294 4.681 2.575 1.882.302 3.898-.234 5.618-1.053 1.525-.726 2.844-1.93 3.862-3.277 1.19-1.573 2.458-5.384 2.458-5.384" fill="none" stroke="#55a" stroke-width="2" stroke-linecap="round" stroke-linejoin="round"/><g fill="none" stroke="#55a" stroke-width="2" stroke-linecap="round" stroke-linejoin="round"><path d="M216.125 662.62c3.344-.732 3.75 4.08 2.495 5.752-1.46 1.947-5.73.989-7.244-.918-2.024-2.549-1.435-7.554 1-9.713 2.144-1.9 6.159-1.361 8.59.152 2.222 1.383 3.518 4.367 3.591 6.983.12 4.272-1.622 9.395-5.213 11.713-6.221 4.016-15.999 3.898-22.215-.127-5.308-3.438-7.857-7.647-11.01-12.095-1.756-2.476-3.784-6.857-4.325-8.012"/><path d="M186.972 656.432c1.52 3.36 3.397 6.338 5.92 8.825 3.3 3.254 7.204 6.292 11.656 7.58 3.441.997 7.406 1.156 10.746-.139 1.362-.528 2.689-2.408 3.274-2.911"/><path d="M191.532 656.106c2.212 3.21 5.17 7.198 8.845 9.468 3.586 1.645 7.292 3.263 10.862 2.421M196.255 654.152c1.656 2.837 3.767 5.552 6.484 7.38 2.012 1.354 4.499 1.855 6.871 2.392M200.652 651.709c1.938 2.23 3.58 4.132 5.818 5.649 1.244.844 3.057 1.424 4.117 1.843M204.236 648.451c1.602 2.35 3.56 4.547 5.916 6.135 1.246.84 3.26 1.263 4.181 1.683M208.144 645.357c2.093 2.923 3.704 4.485 5.94 6.316 2.004 1.643 5.969 3.56 6.601 4.107M212.216 642.1c1.198 2.346 2.846 4.465 4.706 6.32.722.721 1.621 1.242 2.46 1.823"/></g><path d="M298.715 785.701s-3.528-9.27-4.063-14.146c-.448-4.072.747-12.267.747-12.267l5.128-4.526 5.567 1.007s-4.718 2.321-5.875 4.5c-.4.754-.513 1.785-.15 2.558.41.873 2.331 1.715 2.331 1.715s-2.25.479-2.974 1.279c-.639.706-1.181 1.827-.862 2.725.618 1.738 4.626 3.037 4.626 3.037s-3.012 1.292-2.67 4.036c.302 2.417 5.53 1.678 5.53 1.678s-3.906.672-3.597 3.34c.241 2.082 3.89 2.17 3.89 2.17l-3.916 1.256z" fill="#ff5" stroke="#55a" stroke-width="2" stroke-linecap="round" stroke-linejoin="round"/><g stroke="#000" fill="none" stroke-width="2" stroke-linecap="round" stroke-linejoin="round"><path d="M169.352 671.585l38.89 27.577 50.2-31.442"/><path d="M177.13 690.677l31.113 22.274 39.951-25.456"/><path d="M182.923 706.506l24.966 17.759 33.234-21.567"/><path d="M188.09 720.73l20.506 15.202 27.224-18.385"/><path d="M190.919 735.225l18.71 12.007 21.948-15.543"/><path d="M193.394 748.66l15.76 9.668 20.982-14.821M193.394 759.266l8.485 7.779M215.804 766.786l11.734-10.66M225.214 769.166l-5.888 4.922M175.009 676.535v10.607M186.323 684.22v12.467M197.14 691.913l.143 12.2M207.89 699.516l.353 13.081M219.91 692.445l.284 12.304M231.577 684.667v12.374M243.423 677.418l-.178 12.906"/></g><g fill="none" stroke="#55a" stroke-width="2" stroke-linecap="round" stroke-linejoin="round"><path d="M219.458 586.442c2.307 11.491 4.153 39.695 4.772 50.265.736 9.732 1.821 18.38 6.122 24.796 1.03 3.079 3.746 5.3 7.229 5.286 3.821.34 5.836-8.535-1.36-8.588"/><path d="M213.322 585.59c3.971 17.175 3.985 46.427 6.436 62.627 1.379 9.107 5.358 19.659 13.448 23.938 3.577 1.893 9.394 1.972 12.096-1.04 3.25-3.625 2.723-10.811-.33-14.602-2.65-3.288-8.61-5.006-12.311-2.975-2.296 1.26-2.746 4.86-2.545 7.432"/><path d="M225.39 586.862c3.352 14.595 3.031 18.321 3.551 33.927.17 5.091.228 14.777 1.697 21.975.654 3.21 1.836 7.633 3.14 9.31M230.85 588.445c3.353 14.595 3.032 18.321 3.552 33.927.17 5.09-.106 12.668 1.222 18.81.784 3.627 2.627 8.74 3.932 10.417M235.599 589.157c3.352 13.974 3.032 17.54 3.551 32.481.17 4.875-.106 12.13 1.222 18.009.784 3.473 2.627 8.368 3.932 9.973M241.139 590.186c3.108 13.242 2.81 16.622 3.293 30.78.157 4.62-.098 11.494 1.133 17.066.727 3.292 2.436 7.93 3.646 9.451M246.362 590.978c3.109 12.4 2.811 15.566 3.293 28.824.157 4.326-.098 10.764 1.133 15.982.727 3.082 2.436 7.426 3.646 8.85M245.197 650.769c.55-1.123 1.48-2.453 2.737-2.595 2.49-.281 4.968 1.81 6.458 3.794 2.495 3.323 3.448 7.932 2.998 12.04-.252 2.307-1.217 4.894-3.107 6.252-.77.554-1.632.953-2.82.388"/><path d="M250.571 648.565c.314-1.105.907-2.442 1.899-2.697 1.963-.505 4.185 1.215 5.604 2.932 2.374 2.873 3.66 7.102 3.766 10.998.059 2.187-.421 4.705-1.781 6.162-.555.594-1.2 1.051-2.216.637"/><path d="M255.366 646.113c.314-1.106.907-2.443 1.899-2.698 1.963-.505 4.184 1.215 5.603 2.932 2.375 2.874 3.661 7.103 3.767 10.998.059 2.187-.421 4.706-1.781 6.162-.555.594-1.2 1.052-2.216.637"/><path d="M260.699 644.378c.329-1.068.94-2.357 1.936-2.59 1.97-.464 4.167 1.234 5.562 2.919 2.335 2.819 3.562 6.937 3.613 10.717.028 2.122-.245 4.65-1.867 5.952-.829.664-2.164.687-3.174.27M239.793 652.95c.55-1.123 1.48-2.453 2.737-2.596 2.49-.281 4.968 1.81 6.458 3.795 2.495 3.322 3.448 7.931 2.998 12.04-.252 2.306-1.047 5.127-3.107 6.251-1.152.628-2.74.162-3.929-.403"/></g><g fill="none" stroke="#55a" stroke-width="2" stroke-linecap="round" stroke-linejoin="round"><path d="M155.451 647.863c-2.38 6.25-5.386 8.31-10.14 11.294-1.792 2.708-5.058 5.376-7.27 3.775-1.96-1.42-2.359-6.659 1.168-7.164"/><path d="M156.45 654.03c-2.28 8.09-8.729 14.05-15.947 14.838-3.73.407-8.445-2.175-9.703-5.71-1.535-4.317.089-10.882 4.78-12.887 2.923-1.249 6.566-.081 8.6 2.051 1.835 1.922 1.356 6.305 1.486 7.83"/><path d="M161.977 654.352c-2.46 6.782-8.398 18.066-16.87 19.478-3.02.504-6.283-1.876-7.94-4.617"/><path d="M166.57 655.548c-2.598 6.807-3.464 13.537-8.77 17.156-2.936 2.003-8.073 2.61-10.609 1.056"/><path d="M171.43 656.123c-1.752 6.238-2.365 11.981-6.688 15.658-2.3 1.957-6.222 3.665-8.795 2.175M175.887 656.103c-.928 4.746-.763 10.392-4.206 13.706-1.197 1.152-2.803 2.822-4.817 1.28M180.889 656.115c-.976 4.22-.472 5.85-1.853 9.989-.568 1.7-2.886 3.733-4.827 2.344M140.213 648.677c.857-.757 1.912-1.553 3.054-1.554 1.894 0 3.844 1.124 5.067 2.57 1.217 1.44 1.439 3.527 1.684 5.398M145.78 647.206c.611-.47 1.365-.964 2.18-.965 1.353 0 2.746.698 3.62 1.596.869.893 1.027 2.188 1.203 3.35M149.87 646.097s1.376-1.41 2.286-1.548c.838-.127 2.433.737 2.433.737"/></g><path d="M165.325 673.676s7.43 10.331 10.391 15.94c3.872 7.336 6.864 15.132 9.546 22.981 2.33 6.818 4.273 13.79 5.657 20.86 1.118 5.71 1.767 11.517 2.121 17.324.316 5.176.063 10.371 0 15.556-.059 4.833-.353 14.496-.353 14.496m-25.456 4.596s1.099-9.887 1.06-14.849c-.042-5.441-.376-10.922-1.414-16.263-1.152-5.929-2.958-11.76-5.303-17.324a106.246 106.246 0 00-10.253-18.739c-2.79-4.07-6.235-7.655-9.546-11.313-3.747-4.14-7.518-8.284-11.667-12.021-3.119-2.809-6.564-5.233-9.9-7.778-3.148-2.402-6.268-4.85-9.546-7.072-2.25-1.525-6.935-4.288-6.935-4.288" fill="none" stroke="#030000" stroke-width="2" stroke-linecap="round" stroke-linejoin="round"/><path d="M72.248 692.23l-.123 92.954M63.767 697.748v71.56M58.916 701.524l.127 65.068" fill="none" stroke="#55a" stroke-width="2" stroke-linecap="round" stroke-linejoin="round"/><path d="M138.622 752.553l-5.423 18.355s1.537-1.369 2.445-1.251c.767.1 1.305.9 1.728 1.548.866 1.322 1.487 4.5 1.487 4.5s.298-2.802 1.014-3.962c.414-.67 1.005-1.442 1.785-1.55.718-.1 1.968.926 1.968.926z" fill="#55a"/><g stroke="#55a" stroke-linecap="round" stroke-linejoin="round"><path d="M203.431 774.116s-2.196-6.829-.22-9.074c2.574-2.927 8.56-3.456 11.49-.908 2.54 2.208.885 10.21.885 10.21s6.446-1.613 8.397.453c2.36 2.498 2.458 7.821.221 10.435-1.809 2.115-8.176.908-8.176.908s.409 6.499-1.768 8.167c-2.545 1.95-7.07 1.414-9.503-.68-2.094-1.804-1.989-8.168-1.989-8.168s-7.091 1.902-9.06-.453c-2.315-2.77-1.536-8.447 1.105-10.89 2.134-1.974 8.618 0 8.618 0z" fill="#fff" stroke-width="2"/><path d="M209.18 770.78l-9.05 8.845 9.256 8.845 10.079-9.462z" fill="#55a" stroke-width="2"/><circle transform="matrix(1.203 0 0 1.23496 -14.48 538.131)" cx="186.546" cy="195.472" r="4.133" fill="#ff5" stroke-width="1.641"/></g><path d="M265.456 690.348c.184 1.051.66 2.263 2.121 3.064 2.63 1.443 5.453.457 6.789-1.979 1.336-2.435.785-5.589-1.846-7.032-1.46-.801-2.02-.474-3.298-.225l-.158-.404c1.277-.25 4.525-1.319 5.46-3.024 1.07-1.948.36-5.505-1.978-6.788-2.338-1.283-5.72.03-6.789 1.979-.935 1.705-.092 5.019.384 6.23l-.426.083c-.476-1.211-.5-1.859-1.962-2.66-2.63-1.443-5.586-.213-6.922 2.222-1.336 2.436-.651 5.346 1.979 6.789 1.461.801 2.739.552 3.724.142l.158.404c-1.093 1.3-.96 1.057-1.92 2.114-.96 1.058-3.173 3.012-3.173 3.012 3.19 1.116 3.19 1.116 5.845 3.207 0 0 .46-2.917.835-4.295.376-1.378.242-1.134.751-2.756zM245.83 759.04c.57.902 1.472 1.84 3.129 2.024 2.982.331 5.215-1.657 5.521-4.417.307-2.761-1.405-5.467-4.387-5.798-1.657-.184-2.05.332-3.135 1.05l-.3-.313c1.085-.718 3.68-2.945 3.895-4.878.245-2.208-1.768-5.227-4.418-5.521-2.65-.294-5.276 2.21-5.521 4.418-.215 1.932 1.829 4.675 2.73 5.613l-.361.24c-.902-.94-1.172-1.528-2.829-1.712-2.982-.331-5.245 1.933-5.552 4.694-.306 2.76 1.436 5.19 4.418 5.521 1.657.184 2.742-.534 3.497-1.289l.3.313c-.515 1.62-.484 1.344-.969 2.687-.484 1.344-1.784 3.995-1.784 3.995 3.374-.185 3.374-.185 6.625.735 0 0-.687-2.871-.865-4.288-.178-1.417-.209-1.141-.356-2.835zM44.75 735.584c.5.667 1.25 1.334 2.5 1.334 2.25 0 3.75-1.778 3.75-4s-1.5-4.222-3.75-4.222c-1.25 0-1.5.444-2.25 1.11l-.25-.222c.75-.666 2.5-2.666 2.5-4.222 0-1.778-1.75-4-3.75-4s-3.75 2.222-3.75 4c0 1.556 1.75 3.556 2.5 4.222l-.25.223c-.75-.667-1-1.111-2.25-1.111-2.25 0-3.75 2-3.75 4.222 0 2.222 1.5 4 3.75 4 1.25 0 2-.667 2.5-1.334l.25.223c-.25 1.333-.25 1.11-.5 2.222-.25 1.111-1 3.333-1 3.333 2.5-.444 2.5-.444 5 0 0 0-.75-2.222-1-3.333-.25-1.111-.25-.889-.5-2.222zM44.75 765.584c.5.667 1.25 1.334 2.5 1.334 2.25 0 3.75-1.778 3.75-4s-1.5-4.222-3.75-4.222c-1.25 0-1.5.444-2.25 1.11l-.25-.222c.75-.666 2.5-2.666 2.5-4.222 0-1.778-1.75-4-3.75-4s-3.75 2.222-3.75 4c0 1.556 1.75 3.556 2.5 4.222l-.25.223c-.75-.667-1-1.111-2.25-1.111-2.25 0-3.75 2-3.75 4.222 0 2.222 1.5 4 3.75 4 1.25 0 2-.667 2.5-1.334l.25.223c-.25 1.333-.25 1.11-.5 2.222-.25 1.111-1 3.333-1 3.333 2.5-.444 2.5-.444 5 0 0 0-.75-2.222-1-3.333-.25-1.111-.25-.889-.5-2.222z" fill="#fff"/><g transform="translate(332 639.362)" fill="none" stroke-width="2" stroke-linecap="round" stroke-linejoin="round"><circle cx="-80" cy="80" r="10" stroke="#fffdff"/><circle cx="-80" cy="80" r="5" fill="#fff" stroke="#fff"/></g><g fill="#ff5"><path d="M139.124 679.001c.936-.214 1.94.503 2.634 1.166 1.06 1.014.951 2.877 1.963 3.94.933.98 2.303 1.439 3.54 1.986 1.809.8 3.737 1.3 5.63 1.877-3.223 1.34-7.006 2.301-10.288 1.227-2.18-.714-4.245-2.541-5.027-4.697-.493-1.36-.048-2.981.533-4.305.21-.478.506-1.078 1.015-1.194zM157.688 697.773s3.407.268 4.38 1.46c1.107 1.357 1.086 3.526.626 5.215-.482 1.771-1.693 3.565-3.338 4.38-1.495.74-3.396.441-5.006 0-2.104-.577-4.241-1.655-5.631-3.337-1.177-1.424-1.64-3.383-1.877-5.215-.208-1.591-.128-3.287.417-4.797.746-2.068 2.003-4.094 3.754-5.423 1.524-1.157 3.547-1.503 5.423-1.877 2.254-.45 4.631-.878 6.883-.418 2.59.53 5.11 1.797 7.092 3.546 2.631 2.323 4.53 5.505 5.84 8.76 1.03 2.556 1.148 5.398 1.46 8.135a64.19 64.19 0 01.418 8.344c-.056 3.348-.629 6.67-.835 10.012-.107 1.736-.524 3.503-.208 5.214.192 1.042.542 2.134 1.251 2.92.48.532 1.166 1.119 1.878 1.043.735-.078 1.43-.76 1.668-1.46.228-.671-.417-2.086-.417-2.086s2.113 1.545 2.503 2.712c.443 1.325.344 3-.417 4.171-.61.94-1.807 1.534-2.92 1.67-1.005.12-2.04-.337-2.92-.835-1.242-.702-3.13-2.92-3.13-2.92s-.874 6.106-.833 9.177c.031 2.38.248 4.785.834 7.092.46 1.814 1.055 3.652 2.086 5.215.541.82 1.177 1.71 2.086 2.085.963.4 3.128 0 3.128 0s-2.138-1.258-2.711-2.294c-.476-.86-.682-1.973-.417-2.92.265-.952 1.012-1.817 1.877-2.295.981-.542 2.27-.762 3.337-.417 1.357.44 2.454 1.663 3.129 2.92.8 1.491 1.235 3.363.834 5.006-.247 1.014-1.045 1.875-1.877 2.503-1.545 1.168-3.487 2.03-5.423 2.086-1.825.053-3.72-.621-5.215-1.668-1.583-1.11-2.713-2.845-3.546-4.59-1.169-2.45-1.672-5.218-1.877-7.925-.258-3.409.36-6.836.834-10.22.345-2.458 1.148-4.84 1.46-7.301.159-1.244.126-2.504.21-3.755.119-1.809.416-5.423.416-5.423s-3.12 2.5-5.006 2.712c-1.794.201-3.849-.28-5.214-1.46-1.554-1.344-2.338-3.584-2.503-5.632a6.33 6.33 0 011.043-3.963c.727-1.07 1.9-1.892 3.128-2.294.86-.282 1.908-.414 2.712 0 .532.273 1.043 1.46 1.043 1.46s-1.497.602-1.877 1.251c-.459.782-.4 1.825-.209 2.712.183.851.502 1.85 1.252 2.294.896.532 2.148.355 3.128 0 1.532-.555 2.994-1.688 3.755-3.129.684-1.297.37-2.914.417-4.38.074-2.294.106-4.61-.209-6.883-.314-2.272-.662-4.614-1.668-6.675-.892-1.824-2.24-3.444-3.755-4.797-1.583-1.414-3.413-2.655-5.423-3.337-1.92-.652-4.055-.99-6.049-.626-1.223.223-2.373.882-3.337 1.669-.96.782-1.837 1.77-2.295 2.92-.567 1.427-.859 3.118-.417 4.588.385 1.28 1.3 2.55 2.503 3.13 1.128.541 2.723.708 3.755 0 .798-.55 1.012-1.744 1.043-2.712.037-1.165-1.043-3.338-1.043-3.338z"/><ellipse transform="translate(-.209 511.945)" cx="166.865" cy="221.079" rx="3.968" ry="3.673"/><ellipse transform="translate(0 512.362)" cx="181.57" cy="260.709" rx="5.237" ry="5.26"/></g><path d="M139.124 713.208l-5.423 18.356s1.537-1.37 2.445-1.252c.767.1 1.305.901 1.728 1.548.866 1.322 1.487 4.5 1.487 4.5s.298-2.802 1.014-3.962c.415-.67 1.005-1.442 1.786-1.55.718-.1 1.967.926 1.967.926zM119.663 690.98l-5.423 18.356s1.538-1.37 2.446-1.252c.767.1 1.304.902 1.728 1.549.865 1.321 1.487 4.5 1.487 4.5s.297-2.802 1.014-3.963c.414-.67 1.005-1.442 1.785-1.55.718-.099 1.967.926 1.967.926zM100.873 678.062l-5.423 18.355s1.537-1.369 2.445-1.251c.767.1 1.305.901 1.728 1.548.866 1.322 1.487 4.5 1.487 4.5s.298-2.802 1.014-3.962c.414-.67 1.005-1.442 1.786-1.55.718-.1 1.967.926 1.967.926zM81.915 693.665l-5.423 18.355s1.537-1.369 2.445-1.251c.767.1 1.305.9 1.728 1.548.866 1.322 1.487 4.5 1.487 4.5s.298-2.802 1.014-3.962c.414-.67 1.005-1.442 1.785-1.55.718-.1 1.968.926 1.968.926z" fill="#55a"/><g><ellipse transform="translate(0 512.362)" cx="106.95" cy="247.611" rx="29.875" ry="30.406" stroke="#000" stroke-width="2" stroke-linecap="round" stroke-linejoin="round"/><path d="M96.493 730.91s-1.559-4.579-2.845-6.6c-1.472-2.312-5.462-6.144-5.462-6.144s3.405-2.345 5.348-2.959c2.037-.643 6.372-.683 6.372-.683s1.64-3.025 2.617-4.437c1.274-1.842 4.21-5.235 4.21-5.235s4.222 3.246 5.804 5.349c.968 1.287 2.162 4.323 2.162 4.323s4.007-.059 5.917.456c2.277.613 6.372 3.072 6.372 3.072s-4.634 3.877-6.259 6.372c-1.402 2.155-2.844 7.169-2.844 7.169s-4.8-1.552-7.283-1.935c-2.439-.375-4.939-.571-7.396-.341-2.29.215-6.713 1.593-6.713 1.593z" fill="#ff5" stroke="#000" stroke-width="2" stroke-linecap="round" stroke-linejoin="round"/><path d="M101.613 728.976s-.929-3.69-1.82-5.348c-.705-1.31-2.732-3.528-2.732-3.528s2.108-.602 3.187-.569c1.287.04 3.755.91 3.755.91s.858-2.933 1.479-4.323c.443-.993 1.593-2.845 1.593-2.845s1.779 2.007 2.39 3.186c.623 1.203 1.251 3.869 1.251 3.869s2.337-.533 3.528-.57c1.143-.034 3.413.342 3.413.342s-2.154 2.538-2.958 3.983c-.953 1.71-2.162 5.462-2.162 5.462s-3.91-1.061-5.917-1.138c-1.679-.065-5.007.569-5.007.569z" stroke="#000200" stroke-width="2" stroke-linecap="round" stroke-linejoin="round"/><ellipse transform="matrix(.9834 0 0 .94064 2.307 527.382)" cx="127.804" cy="248.455" rx="2.542" ry="2.658" fill="#ff5"/><ellipse transform="matrix(.9834 0 0 .94064 -18.81 524.718)" cx="127.804" cy="248.455" rx="2.542" ry="2.658" fill="#ff5"/><ellipse transform="matrix(.9834 0 0 .94064 -8.23 525.509)" cx="127.804" cy="248.455" rx="2.542" ry="2.658" fill="#ff5"/><ellipse transform="matrix(.9834 0 0 .94064 -18.979 513.98)" cx="127.804" cy="248.455" rx="2.542" ry="2.658" fill="#ff5"/><ellipse transform="matrix(.9834 0 0 .94064 -18.475 504.418)" cx="127.804" cy="248.455" rx="2.542" ry="2.658" fill="#ff5"/><ellipse transform="matrix(.9834 0 0 .94064 -30.22 525.725)" cx="127.804" cy="248.455" rx="2.542" ry="2.658" fill="#ff5"/><ellipse transform="matrix(.9834 0 0 .94064 -40.567 527.354)" cx="127.804" cy="248.455" rx="2.542" ry="2.658" fill="#ff5"/><path d="M113.078 731.75l.336 20.803s8.766.456 13.086 1.175c2.783.463 8.221 2.013 8.221 2.013" fill="none" stroke="#ff5" stroke-width="2" stroke-linecap="round" stroke-linejoin="round"/><path d="M117.44 733.092l.336 15.602s6.075.438 9.06 1.007c2.505.478 7.382 2.013 7.382 2.013M100.831 732.42l-.671 20.636s-7.416.403-11.073 1.007c-3.292.544-9.73 2.349-9.73 2.349" fill="none" stroke="#ff5" stroke-width="2" stroke-linecap="round" stroke-linejoin="round"/><path d="M96.637 733.427l-.671 15.938s-5.95.647-8.892 1.175c-2.484.445-7.382 1.678-7.382 1.678M80.363 770.673c6.101-2.369 13.22-4.205 20.074-4.802 6.047-.527 12.17.235 18.178 1.11 4.886.713 12.537 2.71 14.428 3.356" fill="none" stroke="#ff5" stroke-width="2" stroke-linecap="round" stroke-linejoin="round"/><path d="M86.63 776.173c1.277-.976 3.349.452 4.59 1.473 1.544 1.27 1.753 3.612 2.9 5.25 1.107 1.58 3.805 4.361 3.805 4.361s-5.344-2.394-7.604-4.206c-1.4-1.122-2.893-2.369-3.565-4.032-.356-.88-.88-2.27-.126-2.846z" fill="#ff5" stroke="#ff5" stroke-linecap="round" stroke-linejoin="round"/><path d="M102.296 786.894s-2.807-2.815-4.097-4.324c-.808-.946-1.802-1.808-2.275-2.959-.465-1.13-.713-2.445-.456-3.64.169-.783.545-1.675 1.252-2.049.672-.355 1.678-.355 2.276.114.935.733.774 2.252 1.024 3.413.242 1.123.223 2.29.455 3.414.255 1.235.654 2.436 1.024 3.641.247.803.797 2.39.797 2.39zM105.937 787.121s-1.106-4.223-1.48-6.372c-.28-1.617-.931-3.291-.568-4.893.268-1.18.924-2.406 1.934-3.072.61-.401 1.48-.602 2.162-.341.73.28 1.229 1.08 1.48 1.82.4 1.187.064 2.516-.114 3.755a23.822 23.822 0 01-1.366 5.235c-.529 1.36-2.048 3.868-2.048 3.868zM110.033 786.78s2.178-3.7 2.959-5.69c.575-1.464.688-3.082 1.252-4.55.303-.793.497-1.72 1.137-2.277.635-.55 1.623-1.137 2.39-.796.605.269.721 1.162.796 1.82.14 1.227-.179 2.514-.682 3.642-.585 1.31-1.672 2.335-2.617 3.413-.849.968-1.74 1.91-2.731 2.731-.778.645-2.504 1.707-2.504 1.707zM115.95 787.121s2.124-2.243 3.073-3.445c.95-1.204 1.883-2.433 2.617-3.758.663-1.199.456-2.911 1.593-3.759.537-.4 1.41-.558 2.048-.313.728.279 1.23 1.061 1.365 1.775.197 1.031-.336 2.123-.91 3.027-.81 1.276-2.137 2.234-3.414 3.133-.903.635-1.97 1.047-2.958 1.566-1.135.595-3.414 1.774-3.414 1.774z" fill="#ff5" stroke="#ff5" stroke-width="2" stroke-linecap="round" stroke-linejoin="round"/></g><g><path d="M124.16 542.258c9.272 17.202 17.565 31.47 26.836 48.672 9.966-3.777 21.234-4.785 32.045-5.682 11.478-.952 23.086-.757 34.551.343 9.438.906 18.835 2.703 27.979 5.132l31.345-48.465H124.161z" fill="#ff5" stroke="#55a" stroke-width="2"/><path d="M165.265 560.814c-.695-.379-1.022-2.133-.572-3.072.13-.272.494-.466.795-.43.848.104 1.622.9 1.857 1.708.167.576-.464 1.138-.466 1.738-.002.595.093 1.252.452 1.726.702.93 1.849 1.722 3.012 1.772 1.937.083 4.38-.818 5.247-2.506.8-1.558-.041-3.666-1.029-5.12-.668-.984-1.803-1.884-3.016-1.998-1.1-.104-2.095.718-3.043 1.266.553-1.664 1.164-3.593.47-5.197-.666-1.537-2.35-2.663-3.987-3.188-.69-.22-1.455.028-2.177.108-1.296.651-2.629 1.654-3.106 2.988-.482 1.344.043 2.894.535 4.234.376 1.027 1.128 1.89 1.794 2.77-.954-.316-2.059-.337-2.938.081-1.664.79-3.46 2.372-3.517 4.162-.055 1.724 1.534 3.42 3.126 4.203 1.473.724 3.53.805 4.957-.028 1.112-.65 1.69-2.088 1.916-3.356.11-.62-.31-1.861-.31-1.861zM138.891 563.932c.005-.684.484-.714.413-1.541-.071-.821-1.326-1.301-2.124-1.188-.284.04-.619 1.201-.678 1.488l-5.176-9.079c.305-.402.643-.762.994-1.091.638-.258 1.257-.71 1.94-.67 1.623.096 3.459.758 4.45 2.075 1.033 1.375.957 3.39.87 5.134.726-.766 1.42-1.796 2.448-1.972 1.134-.194 2.392.384 3.247 1.167 1.263 1.156 2.565 2.995 2.226 4.7-.367 1.847-2.374 3.221-4.15 3.715-1.32.367-2.786-.2-4.026-.799M211.158 565.75c-2.27.292-4.663-.636-6.618-1.851-1.04-.647-1.473-2.032-2.478-2.745-.458-.324-1.006-.093-1.552-.651.311 3.105 1.37 3.427 2.596 4.753 1.61 1.743 3.757 3.033 5.958 3.894 2.367.927 4.976 1.442 7.505 1.255 2.977-.22 5.92-1.295 8.538-2.761 1.778-.996 3.448-2.33 4.67-3.986.678-.921 1.256-2.282 1.37-3.164-1.137 1.413-3.03 3.063-4.914 3.987-1.718.843-3.687 1.562-5.574 1.295-1.832-.26-3.191-1.26-4.874-2.713-1.78.987-2.868 2.462-4.627 2.688z"/><path d="M188.07 566.413c2.393.171 4.807-.95 6.838-2.199 1.07-.658 1.689-1.845 2.624-2.67.443-.391.525-1.144 1.409-1.076-.162 3.118-1.244 3.61-2.458 5.026-1.596 1.862-3.778 3.227-6.039 4.203-2.433 1.05-5.14 1.703-7.8 1.65-3.133-.063-6.275-.98-9.097-2.307-1.916-.9-3.838-2.05-5.105-3.734-.68-.905-1-2.316-1.164-3.19 1.265 1.351 3.02 2.989 4.922 3.825 1.83.804 3.947 1.365 5.911.999 1.907-.356 3.278-1.427 4.966-2.967 1.918.892 3.136 2.308 4.992 2.44zM241.214 568.492c-1.876-.059-3.762-1.255-5.268-2.652-.801-.743-1.237-1.899-1.819-2.877-.456-.767-.617-2.328-1.31-2.345.02 2.896.762 4.428 1.855 6.263 1.127 1.893 2.841 3.324 4.575 4.431 1.865 1.191 3.958 2.04 6.038 2.231 2.45.226 4.935-.338 7.185-1.309 1.528-.658 2.886-1.811 4.116-2.99 1.044-1 2.554-2.614 2.713-3.408-1.452.516-2.382 1.83-5.384 3.521-1.366.77-3.354 1.014-4.94.523-1.558-.484-2.512-1.616-3.778-3.192-1.528.651-2.528 1.85-3.983 1.804zM149.903 570.613c-1.9.7-4.465.363-6.375-.588-1.142-.568-1.743-1.864-2.577-2.829-.64-.74-2.113-3.544-1.86-2.27.387 1.941 1.726 4.984 3.6 6.684 1.72 1.562 4.231 2.263 6.427 2.697 2.363.466 4.81.489 6.969-.157 2.542-.761 4.79-2.348 6.632-4.257 1.251-1.296 2.382-2.956 2.86-4.738.265-.983.119-2.174-.055-3.053-.758 2.153-1.339 3.807-2.796 5.075-1.208 1.05-2.875 1.686-4.487 1.715-1.81.032-3.188-.64-5.113-1.746-1.255 1.288-1.752 2.924-3.225 3.467z"/><path d="M142.976 575.037s4.962 1.563 7.546 1.718c3.062.184 6.29.08 9.144-.952 2.017-.73 3.654-2.187 5.228-3.559 1.067-.929 2.81-3.124 2.81-3.124s5.614 2.968 8.718 3.642c3.075.668 6.327.631 9.465.324 3.018-.296 6.123-.79 8.819-2.069 2.168-1.027 5.587-4.346 5.587-4.346s4.177 4.282 6.965 5.358c2.71 1.046 5.834.863 8.768.787 2.679-.07 5.375-.426 7.941-1.131 2.557-.702 7.286-3.047 7.286-3.047s2.615 3.428 4.395 4.678c1.656 1.164 3.659 1.885 5.638 2.478 1.994.598 4.092 1.196 6.18 1.06 2.554-.166 7.273-2.26 7.273-2.26l-4.144 6.708s-15.399-2.61-23.163-3.395c-6.279-.636-12.594-.883-18.904-1.062-6.794-.192-13.6-.274-20.39-.013-5.676.218-11.334.748-16.98 1.319-4.247.43-8.507.81-12.704 1.585-3.793.701-11.239 2.765-11.239 2.765z"/><path d="M147.24 582.314s16.078-4.01 29.678-5.396c13.168-1.341 26.495-1.655 39.701-.77 11.35.759 33.726 5.203 33.726 5.203l-5.203 8.286s-17.96-4.126-27.11-4.946c-13.67-1.227-27.517-1.27-41.179.064-8.555.835-25.31 4.946-25.31 4.946z" fill="#f55"/><path d="M259.789 564.242c.036-.683-.44-.741-.32-1.563.119-.816 1.4-1.22 2.19-1.06.28.056.546 1.235.589 1.525l5.703-8.757a8.75 8.75 0 00-.929-1.149c-.621-.295-1.212-.782-1.897-.782-1.625 0-3.497.552-4.564 1.808-1.113 1.311-1.156 3.327-1.171 5.074-.68-.808-1.313-1.877-2.328-2.114-1.12-.26-2.41.243-3.31.974-1.33 1.08-2.737 2.838-2.5 4.56.257 1.865 2.18 3.356 3.923 3.954 1.298.444 2.794-.035 4.067-.56M233.192 560.364c.695-.379 1.022-2.133.572-3.072-.13-.272-.494-.466-.795-.429-.848.104-1.622.9-1.857 1.707-.167.576.4 1.142.466 1.738.046.419-.053 1.262-.053 1.262-1.112.91-2.055 2.144-3.411 2.236-1.934.13-4.38-.818-5.247-2.506-.8-1.558.041-3.666 1.029-5.12.668-.984 1.803-1.884 3.016-1.998 1.1-.103 2.095.718 3.043 1.266-.553-1.663-1.164-3.592-.47-5.197.666-1.537 2.35-2.663 3.987-3.188.69-.22 1.455.028 2.177.108 1.296.652 2.629 1.654 3.106 2.988.482 1.344-.043 2.894-.535 4.234-.376 1.027-1.128 1.89-1.794 2.77.954-.316 2.059-.337 2.938.081 1.664.791 3.46 2.372 3.517 4.162.055 1.724-1.534 3.42-3.126 4.203-1.473.724-3.532.808-4.957-.028-1.196-.702-1.321-2.296-2.049-3.622zM198.991 559.038c-.574-.544-.44-2.323.236-3.116.195-.229.597-.323.878-.21.793.318 1.309 1.287 1.357 2.126.03.529-.54.922-.697 1.428-.137.44-.206 1.366-.206 1.366.84 1.164 1.235 2.587 2.457 3.036 1.82.669 4.444.334 5.714-1.075 1.172-1.3.902-3.554.32-5.212-.394-1.123-1.259-2.284-2.403-2.706-1.036-.382-2.209.157-3.266.443.962-1.466 2.048-3.173 1.788-4.902-.249-1.657-1.587-3.177-3.035-4.105-.61-.39-1.413-.347-2.132-.455-1.42.298-2.964.925-3.768 2.091-.81 1.176-.701 2.809-.57 4.23.1 1.089.605 2.117 1.023 3.138-.84-.55-1.903-.854-2.86-.676-1.811.338-3.953 1.405-4.468 3.12-.495 1.652.605 3.7 1.943 4.865 1.237 1.077 3.206 1.687 4.798 1.244 1.336-.371 1.866-1.88 2.91-2.974z"/></g><g transform="rotate(180 179.965 782.31)" stroke="#55a" stroke-linecap="round" stroke-linejoin="round"><path d="M203.431 774.116s-2.196-6.829-.22-9.074c2.574-2.927 8.56-3.456 11.49-.908 2.54 2.208.885 10.21.885 10.21s6.446-1.613 8.397.453c2.36 2.498 2.458 7.821.221 10.435-1.809 2.115-8.176.908-8.176.908s.409 6.499-1.768 8.167c-2.545 1.95-7.07 1.414-9.503-.68-2.094-1.804-1.989-8.168-1.989-8.168s-7.091 1.902-9.06-.453c-2.315-2.77-1.536-8.447 1.105-10.89 2.134-1.974 8.618 0 8.618 0z" fill="#fff" stroke-width="2"/><path d="M209.18 770.78l-9.05 8.845 9.256 8.845 10.079-9.462z" fill="#55a" stroke-width="2"/><circle transform="matrix(1.203 0 0 1.23496 -14.48 538.131)" cx="186.546" cy="195.472" r="4.133" fill="#ff5" stroke-width="1.641"/></g><g><path d="M95.008 613.346c1.984 4.004 6.98 10.028 11.976 10.028 9 0 13.004-8.008 13.004-18 0-10.028-4.004-19.028-13.004-19.028-4.996 0-7.972 5.032-10.984 8.008-.992.992-1.984 0-.992-.992 2.976-3.012 8.008-10.984 8.008-18 0-8.008-5.032-18-13.004-18-8.008 0-13.004 9.992-13.004 18 0 7.016 4.996 14.988 8.008 18 .992.992 0 1.984-1.028.992-2.976-2.976-5.988-8.008-10.984-8.008-9 0-13.004 9-13.004 19.028 0 9.992 4.004 18 13.004 18 4.996 0 9.992-6.024 12.012-10.028.992-.992.992 0 .992 1.028-.992 7.972-.992 9.992-2.02 15.98-.992 6.024-4.004 17.008-4.004 17.008 5.032-1.984 15.024-1.984 20.02 0 0 0-3.012-10.984-4.004-17.008-.992-5.988-.992-8.008-1.984-15.98 0-1.028 0-2.02.992-1.028zM32.504 630.354c.992 2.02 3.508 4.996 5.988 4.996 4.5 0 6.52-4.004 6.52-9s-2.02-9.496-6.52-9.496c-2.48 0-4.004 2.516-5.492 4.004-.496.496-.992 0-.496-.496 1.488-1.488 4.004-5.492 4.004-9 0-4.004-2.516-9-6.52-9s-6.484 4.996-6.484 9c0 3.508 2.48 7.512 4.004 9 .496.496 0 .992-.496.496-1.524-1.488-3.012-4.004-5.528-4.004-4.5 0-6.484 4.5-6.484 9.496s1.984 9 6.484 9c2.516 0 5.032-2.976 6.024-4.996.496-.496.496 0 .496.496-.496 4.004-.496 4.996-.992 8.008-.496 3.012-2.02 8.504-2.02 8.504 2.516-.992 7.512-.992 9.992 0 0 0-1.488-5.492-1.984-8.504-.496-3.012-.496-4.004-.992-8.008 0-.496 0-.992.496-.496z"/></g><g><path d="M264.98 951.378c-1.984-4.004-6.98-10.028-11.976-10.028-9 0-13.004 8.008-13.004 18 0 10.028 4.004 19.028 13.004 19.028 4.996 0 7.972-5.032 10.984-8.008.992-.992 1.984 0 .992.992-2.976 3.012-8.008 10.984-8.008 18 0 8.008 5.032 18 13.004 18 8.008 0 13.004-9.992 13.004-18 0-7.016-4.996-14.988-8.008-18-.992-.992 0-1.984 1.028-.992 2.976 2.976 5.988 8.008 10.984 8.008 9 0 13.004-9 13.004-19.028 0-9.992-4.004-18-13.004-18-4.996 0-9.992 6.024-12.012 10.028-.992.992-.992 0-.992-1.028.992-7.972.992-9.992 2.02-15.98.992-6.024 4.004-17.008 4.004-17.008-5.032 1.984-15.024 1.984-20.02 0 0 0 3.012 10.984 4.004 17.008.992 5.988.992 8.008 1.984 15.98 0 1.028 0 2.02-.992 1.028zM327.484 934.37c-.992-2.02-3.508-4.996-5.988-4.996-4.5 0-6.52 4.004-6.52 9s2.02 9.496 6.52 9.496c2.48 0 4.004-2.516 5.492-4.004.496-.496.992 0 .496.496-1.488 1.488-4.004 5.492-4.004 9 0 4.004 2.516 9 6.52 9s6.484-4.996 6.484-9c0-3.508-2.48-7.512-4.004-9-.496-.496 0-.992.496-.496 1.524 1.488 3.012 4.004 5.528 4.004 4.5 0 6.484-4.5 6.484-9.496s-1.984-9-6.484-9c-2.516 0-5.032 2.976-6.024 4.996-.496.496-.496 0-.496-.496.496-4.004.496-4.996.992-8.008.496-3.012 2.02-8.504 2.02-8.504-2.516.992-7.512.992-9.992 0 0 0 1.488 5.492 1.984 8.504.496 3.012.496 4.004.992 8.008 0 .496 0 .992-.496.496z"/></g></g></svg>