<svg xmlns="http://www.w3.org/2000/svg" width="360" height="540"><g transform="translate(0 -512.362)"><rect rx="29.944" ry="29.944" y="512.862" x=".5" height="539" width="359" fill="#fff" stroke="#000"/><path d="M102.177 790.026l13.274-15.78 142.768-.193-13.305 16.102zM30 542.362c-5.523 0-10 4.477-10 10v30c0 5.523 4.477 10 10 10 .434 0 .862-.04 1.281-.094A9.973 9.973 0 0040 597.362v-5c-1.64 0-3.088-.812-4-2.031 2.424-1.825 4-4.7 4-7.969v-30c0-5.523-4.477-10-10-10zm0 5a5 5 0 015 5v30c0 .716-.167 1.385-.438 2a10.031 10.031 0 00-9.562-7v-25a5 5 0 015-5zm-5 35a5 5 0 015 5 5 5 0 01-5-5zM330 1022.362c5.523 0 10-4.478 10-10v-30c0-5.523-4.477-10-10-10-.434 0-.862.04-1.281.094a9.973 9.973 0 00-8.719-5.094v5c1.64 0 3.088.812 4 2.031-2.424 1.825-4 4.7-4 7.969v30c0 5.523 4.477 10 10 10zm0-5a5 5 0 01-5-5v-30c0-.716.167-1.385.438-2 1.274 4.056 5.085 7 9.562 7v25a5 5 0 01-5 5zm5-35a5 5 0 01-5-5 5 5 0 015 5z"/><path d="M287.25 669.862l-22 75.5.25 8.5-2.5 8.25-4.5 4.75-4.5 1.5 7.75 1 15.75-21 51.75 35.75.5-81zM30 705.362v77.5l2.375-1.25 15.875-28.25-10.75-12.5 10.25-8.25-14.375-24.625z" fill="#f55"/><path d="M133.875 699.737L99.5 730.112l-8.125-3.25-7.25-.5-8.75 2.875-1.375-3.5-3.125-1.25-3.75 1.75L60 719.612l54.25-38.625 8.875 8.25z" fill="#5455aa" stroke="#55a" stroke-width="2" stroke-linecap="round" stroke-linejoin="round"/><path d="M215.639 768.563l34.233-.459-6.419-6.571-2.14-9.159-101.476-91.707-19.41 16.658 15.436 12.379 11.156 12.685 6.114 10.239 1.222 13.449 15.589-.306z" fill="#f55"/><path d="M291 672.862l38.75 30.25" fill="none" stroke="#55a" stroke-width="2" stroke-linecap="round" stroke-linejoin="round"/><path d="M131 542.362a130.747 130.747 0 017 27.5c1.006 7.116 1.423 14.326 1 21.5a92.468 92.468 0 01-5 25 116.003 116.003 0 0123 6l45.5-80z" fill="#ff5" stroke="#55a" stroke-width="2" stroke-linecap="round" stroke-linejoin="round"/><path d="M157.5 622.362l8 6 49.5-86h-12.5z" fill="#f55" stroke="#55a" stroke-width="2" stroke-linecap="round" stroke-linejoin="round"/><path d="M189.75 542.362s3.998 5.916.75 11c-1.817 2.844-9.5 3.5-9.5 3.5s3.079 9.223.5 12.5c-2.628 3.34-12.5 2.5-12.5 2.5s5.147 10.986 2.5 15.5c-3.84 6.547-10.671 4.336-10.671 4.336s4.073 7.879-1.329 14.164c-2.804 3.263-12.75 2-12.75 2 3.612 4.281 3.45 5.487 4 7.75.55 2.263.41 2.998.41 2.998" fill="none" stroke="#000100" stroke-width="2" stroke-linecap="round" stroke-linejoin="round"/><path d="M159.895 595.52c-.337 1.16-.742 2.327-1.395 3.342-.862 1.339-1.804 2.834-3.25 3.5-1.818.838-4.337 1.364-6 .25-1.62-1.085-2.322-3.576-2-5.5.372-2.22 4.25-5.25 4.25-5.25s-5.381-1.101-6.5-3.25c-1.05-2.017-.41-4.965 1-6.75 1.391-1.76 4.104-3.156 6.25-2.5 2.41.736 4.25 6.25 4.25 6.25s.549-4.298 1.75-6c1.067-1.512 2.66-3.058 4.5-3.25 1.633-.17 3.606.624 4.5 2 1.408 2.166 1.174 5.449 0 7.75-1.177 2.307-6.29 4.56-6.29 4.56s1.137-3.19-1.512-4.613c-2.118-1.137-5.55.97-6.468 3.191-.777 1.881.022 5.203 1.974 5.777 3.895 1.145 5.48-2.632 5.48-2.632s-.244 2.11-.54 3.125zM179.391 560.644c-.337 1.159-.741 2.327-1.394 3.341-.862 1.34-1.805 2.834-3.25 3.5-1.818.839-4.337 1.364-6 .25-1.621-1.085-2.322-3.576-2-5.5.371-2.22 4.25-5.25 4.25-5.25s-5.382-1.1-6.5-3.25c-1.05-2.017-.41-4.965 1-6.75 1.39-1.76 4.104-3.155 6.25-2.5 2.409.737 4.25 6.25 4.25 6.25s.548-4.297 1.75-6c2.232-3.059 6.88-2.572 9-1.25 1.407 2.167 1.174 5.45 0 7.75-1.177 2.307-6.29 4.56-6.29 4.56s1.137-3.19-1.513-4.612c-2.118-1.138-5.55.969-6.467 3.19-.777 1.881.021 5.203 1.973 5.777 3.896 1.145 5.48-2.632 5.48-2.632s-.243 2.11-.539 3.126z" stroke="#000100" stroke-width="2" stroke-linecap="round" stroke-linejoin="round"/><g stroke="#55a" stroke-width="2" stroke-linecap="round" stroke-linejoin="round"><g fill="none"><path d="M185.846 628.013c.525 4.582 1.647 9.67 2.839 12.92M190.07 621.818c.793 8.12 3.097 14.756 4.71 20.644M194.576 614.215c1.397 9.703 3.023 20.483 6.377 29.534M202.377 625.649c.586 7.253 3.051 13.729 4.23 19.204M208.655 633.053c1.036 6.686 2.463 9.391 3.247 12.606M215.297 639.116c.751 2.668 1.624 4.747 2.374 6.758"/></g><g fill="none"><path d="M250.5 542.362s.98 12.879 7.75 19.75c6.77 6.872 15.25 10.25 15.25 10.25"/><path d="M254.625 542.362s1.27 10.769 6.644 16.781c5.375 6.013 12.106 8.22 12.106 8.22"/><path d="M258.125 542.362s1.56 7.836 5.539 12.417c3.978 4.58 9.961 7.583 9.961 7.583M262.625 542.362s1.057 5.404 4.268 8.954c3.21 3.55 6.732 5.296 6.732 5.296M267 542.362s.62 4.078 2.505 6.254c1.885 2.176 4.245 3.246 4.245 3.246"/></g><g fill="none"><path d="M249.75 543.612s-.48 9.879-8.5 18.75c-8.02 8.872-22 8-22 8"/><path d="M246.375 543.112s-1.27 8.519-8.394 16.031c-7.125 7.513-15.856 6.47-15.856 6.47"/><path d="M241.625 543.112s-1.56 7.836-5.539 12.417c-3.978 4.58-11.711 5.083-11.711 5.083"/><path d="M237.125 543.112s-1.057 5.404-4.268 8.954c-3.21 3.55-5.232 3.046-5.232 3.046"/></g><path d="M274.546 579.298s6.145 18.823 8.448 28.44c2.666 11.137 4.949 22.408 6.194 33.79 1.114 10.178 1.127 30.694 1.127 30.694l-32.101-26.751s8.895-12.182 11.545-19.148c2.003-5.265 2.33-11.033 3.097-16.613.72-5.228 1.123-10.5 1.408-15.77.265-4.874.282-14.642.282-14.642z" fill="#55a"/><path d="M253.427 588.59s-.224 5.08 0 7.604c.236 2.659.789 5.287 1.408 7.884.682 2.86 2.396 5.51 2.534 8.447.079 1.674.002 3.575-.985 4.928-.855 1.171-2.747 1.118-3.802 2.112-.89.84-1.97 3.098-1.97 3.098" fill="none"/><path d="M238.221 611.68s-3.464 4.062-2.956 6.336c.32 1.431 1.946 2.505 3.379 2.816 1.568.342 3.167-.643 4.646-1.267 1.706-.72 2.998-3.292 4.787-2.816.731.195 1.443 1.284 1.126 1.971-.84 1.823-3.915.938-5.913 1.127-2.43.229-5.47 1.589-7.321 0-.937-.804-.812-2.452-.563-3.66.357-1.736 2.815-4.506 2.815-4.506zM217.384 579.58s6.27-3.172 9.787-3.78c3.37-.581 7.048-.678 10.317.223 2.347.647 6.084 3.557 6.084 3.557s-5.22-1.934-7.953-2.342c-3.396-.507-6.902-.598-10.3-.104-2.738.399-7.935 2.446-7.935 2.446z" fill="#55a"/><path d="M237.94 586.62l2.816-2.253s-4.45-1.554-6.758-1.971c-2.501-.452-5.114-1.077-7.603-.563-2.385.492-4.484 1.98-6.477 3.379-2.609 1.832-7.04 6.476-7.04 6.476" fill="none"/><path d="M215.976 591.688s6.782-3.32 10.419-4.224c2.243-.557 4.588-.625 6.899-.704 1.408-.048 4.223.141 4.223.141l2.957 5.069-4.787 2.252 4.394-.732c-1.518 4.466-6.722 7.327-9.462 9.18" fill="none"/><path d="M234.56 587.887s2.023 3.4 0 6.335c-1.172 1.703-4.348 1.212-6.194.282-3.205-1.614-6.483-2.899-8.448-4.083l5.914-1.408c-1.057 1.73.235 3.53 1.408 4.646 1.401 1.334 3.84 2.141 5.631 1.408 1.833-.75 3.278-3.793 3.098-5.068-.118-.838-1.408-2.112-1.408-2.112z" fill="none"/><path d="M231.182 589.435c-.818-.282-2.097.834-1.971 1.69.133.915 1.812 1.704 2.534 1.126.747-.598.342-2.503-.563-2.816z" fill="none"/><g><path d="M272.047 577.81s-5.794-2.065-8.604-1.336c-3.405.883-8.326 6.485-8.326 6.485s5.303-4.639 8.608-5.178c2.887-.47 8.568 1.9 8.568 1.9z" fill="#55a"/><path d="M253.286 587.605s4.007-4.062 6.617-4.928c2.852-.945 6.215-1.097 9.011 0 1.67.656 3.942 3.661 3.942 3.661M254.835 589.435s4.965-2.09 7.603-2.252c2.28-.14 4.559.51 6.758 1.126 1.46.409 4.224 1.69 4.224 1.69s-2.624 2.547-4.224 3.379c-2.082 1.082-4.412 2.015-6.758 1.97-1.187-.022-3.38-1.126-3.38-1.126l-3.66-1.436c.987 2.061 2.726 5.785 4.083 6.927" fill="none"/><path d="M258.777 588.872c-1.482 3.079.1 3.093.282 4.506l1.126 1.126M263.564 589.717c-.658.489-1.072 1.751-.563 2.394.583.735 2.152.663 2.816 0 .53-.531.514-1.706 0-2.253-.515-.548-1.649-.59-2.253-.14z" fill="none"/></g><g><path d="M235.406 632.936s4.803-2.009 7.462-1.99c2.021.014 3.61 1.55 5.631 1.592 2.819.058 5.348-2.516 8.025-1.89 1.088.253 1.972 1.99 1.972 1.99s-1.903-.812-2.957-.797c-2.501.036-4.405 1.948-6.899 2.09-2.507.142-4.815-1.14-7.321-1.294-1.969-.121-5.913.299-5.913.299z" fill="#55a"/><path d="M242.445 640.12s3.095-1.654 4.787-1.689c1.915-.039 5.491 1.69 5.491 1.69M241.741 636.32s4.078 1.364 6.195 1.407c1.813.038 5.35-.985 5.35-.985" fill="none"/></g><path d="M274.25 543.112s-.078 23.673-.5 35.5c-.467 13.097.478 26.432-2.25 39.25-1.224 5.753-3.718 11.192-6.25 16.5-1.994 4.18-3.53 8.933-7 12-2.853 2.522-6.726 3.99-10.5 4.5-4.251.574-8.648-.495-12.75-1.75-5.773-1.766-11.234-4.64-16.25-8-4.709-3.154-9.067-6.941-12.75-11.25-2.824-3.303-5.246-7.023-7-11-1.289-2.922-2.5-9.25-2.5-9.25" fill="none"/></g><path d="M302 603.612l9.75-16.25 8.75 16.25-9.5 15.75z" fill="#ff5" stroke="#000" stroke-width="2" stroke-linecap="round" stroke-linejoin="round"/><path d="M307.25 603.112l4-7 3.75 6.75-3.75 7.5z" fill="#f55" stroke="#000" stroke-width="2" stroke-linecap="round" stroke-linejoin="round"/><path d="M310.25 622.237c0 3.107-2.406 5.625-5.375 5.625s-5.375-2.518-5.375-5.625c0-3.106 2.406-5.625 5.375-5.625s5.375 2.519 5.375 5.625zM321.75 621.737c0 3.245-2.462 5.875-5.5 5.875s-5.5-2.63-5.5-5.875c0-3.244 2.462-5.875 5.5-5.875s5.5 2.63 5.5 5.875z" fill="#ff5" stroke="#000" stroke-width="2" stroke-linecap="round" stroke-linejoin="round"/><ellipse transform="translate(0 512.362)" cx="310.75" cy="193.25" rx="9" ry="8.25" fill="#ff5" stroke="#000" stroke-width="2" stroke-linecap="round" stroke-linejoin="round"/><path d="M310.5 697.362c-3.848-1.014-7.284-4.414-8.76-8.11-1.722-4.319.409-9.296.9-13.92 1.097-10.326 3.098-20.537 4.571-30.816.963-6.713 2.063-16.493 2.789-20.154 1.894-.53 2.13.826 2.074 2.514 1.904 15.045 4.097 30.057 5.7 45.138.52 4.887 2.064 9.838 1.271 14.688-.565 3.457-1.505 7.39-4.194 9.635-1.143.955-2.91 1.405-4.351 1.025z" fill="#ff5" stroke="#000" stroke-width="2" stroke-linecap="round" stroke-linejoin="round"/><path d="M311.25 644.112s1.545 16.68 2.5 25c.517 4.508 1.709 8.963 1.75 13.5.02 2.264.23 4.71-.75 6.75-.715 1.487-3.5 3.5-3.5 3.5M312.25 701.112c1.472 1.532 3.062 3.584 2.816 5.685-.165 1.411-1.415 2.724-2.722 3.28-.875.37-1.9-.114-2.844-.215" fill="none" stroke="#000" stroke-width="2" stroke-linecap="round" stroke-linejoin="round"/><path d="M306.25 768.112s-2.105-17.81-2.75-26.75c-.432-5.99-1.677-12.067-.75-18 .41-2.63.779-5.71 2.75-7.5 1.466-1.331 3.77-1.51 5.75-1.5 1.9.01 4.15.162 5.5 1.5 2.398 2.378 2.433 6.388 2.75 9.75.542 5.746-.822 11.518-1.5 17.25-.792 6.695-2.071 13.323-3 20-.451 3.246-1.25 9.75-1.25 9.75z" fill="#ff5" stroke="#000" stroke-width="2" stroke-linecap="round" stroke-linejoin="round"/><path d="M311.25 718.862s3.074 2.117 3.75 3.75c1.116 2.695.107 5.835 0 8.75-.208 5.678-.69 11.346-1.25 17-.73 7.354-2.75 22-2.75 22" fill="none" stroke="#000" stroke-width="2" stroke-linecap="round" stroke-linejoin="round"/><path d="M179.75 638.862l-9 15.75 78.25 72.75 16.75-63 9.408-2.845-17.503-15.344s-5.176 3.506-8.155 4.19c-3.412.782-7.032.228-10.5-.25-3.664-.506-10.75-2.75-10.75-2.75s-13.886-.72-20.75-1.75c-5.819-.875-11.543-2.317-17.25-3.75-3.53-.888-10.5-3-10.5-3z" fill="#ff5" stroke="#000" stroke-width="2" stroke-linecap="round" stroke-linejoin="round"/><path d="M177.25 643.862s12.911 4.018 19.5 5.5c5.36 1.206 10.799 2.07 16.25 2.75 6.14.767 12.316 1.304 18.5 1.5 4.748.15 9.518.177 14.25-.25 5.13-.463 15.25-2.5 15.25-2.5M176.5 659.612s12.744 3.726 19.25 5c6.188 1.212 12.47 1.926 18.75 2.5 4.985.456 9.994.764 15 .75 6.01-.016 12.017-.441 18-1 6.193-.578 18.5-2.43 18.5-2.43M194.75 669.612s18.621 3.31 28.04 3.826c6.801.372 13.635-.005 20.425-.538 5.207-.409 15.535-2.038 15.535-2.038l-12.25 48z" fill="none" stroke="#000" stroke-width="2" stroke-linecap="round" stroke-linejoin="round"/><path d="M211.75 677.862s14.661 1.168 22 1c6.144-.14 18.36-1.677 18.36-1.677L244 710.362z" fill="none" stroke="#000" stroke-width="2" stroke-linecap="round" stroke-linejoin="round"/><path d="M234.75 700.112l7.462 3.212 4.288-4.712M227.759 693.723c-.5-1 13.241 4.14 13.241 4.14l7.253-7" fill="none" stroke="#000" stroke-width="2" stroke-linecap="round" stroke-linejoin="round"/><path d="M219.828 685.4L239 692.862l11.358-9.82" fill="none" stroke="#000" stroke-width="2" stroke-linecap="round" stroke-linejoin="round"/><path d="M216.398 678.33L238 687.862l11.177-9.962" fill="none" stroke="#000" stroke-width="2" stroke-linecap="round" stroke-linejoin="round"/><path d="M228.61 678.865l7.89 4.247 5.25-4M218.25 657.862l6 .57v4.5l-6-.57zM174.985 648.053l4.186 1.792-1.906 4.076-4.436-2.541zM183.418 651.643l5.808 1.714-1.036 4.58-5.774-1.857zM194.717 654.383l6.252 1.056-.471 4.475-6.11-1.056zM206.554 656.571l6.28.658-.172 4.497-6.139-.515zM229.838 658.641l5.996.23-.172 4.497-5.996-.23zM241.29 658.435l5.66-.392.187 4.458-5.802.25zM252.006 657.613l5.374-.82.614 4.6-5.374.82z" fill="none" stroke="#000" stroke-width="2" stroke-linecap="round" stroke-linejoin="round"/><path transform="matrix(.94614 -.32376 .24215 .97024 0 0)" d="M95.526 707.644l3.098-.371 2.432 4.702-5.53.15z" fill="none" stroke="#000" stroke-width="2.004" stroke-linecap="round" stroke-linejoin="round"/><path d="M275.185 661.322l11.466 9.317-21.26 75.007s.478 6.608-.239 9.794c-.688 3.06-1.668 6.318-3.822 8.6-2.029 2.148-4.928 4.124-7.883 4.06-2.567-.056-4.88-1.998-6.688-3.822-1.607-1.62-2.632-3.804-3.345-5.972-.6-1.83-.716-5.733-.716-5.733l-102.956-93.162s9.334-8.206 13.377-12.899c4.66-5.406 8.956-11.2 12.422-17.438 17.28-31.104 49.925-86.473 49.925-86.473l17.677.24s-9.356 18.42-14.333 27.47c-7.047 12.817-14.696 25.294-21.976 37.981a5884.066 5884.066 0 00-16.722 29.382c-3.197 5.646-9.555 16.96-9.555 16.96l78.113 72.618 17.677-62.346z" stroke="#55a" stroke-width="2" stroke-linecap="round" stroke-linejoin="round"/><path d="M139.709 659.28L121 675.861l-7.5 5.5-38.646 27.763-8.117 6.121-7.5 5L30.5 705.862" fill="none" stroke="#55a" stroke-width="2" stroke-linecap="round" stroke-linejoin="round"/><path d="M58.402 719.96c3.228 2.017 9.098 6.902 9.098 6.902s1.439-1.887 2.5-2c1.853-.196 4.35.754 5 2.5.756 2.03-1.71 3.983-2.5 6-.86 2.198-1.977 4.332-2.44 6.647a36.403 36.403 0 00-.469 11.085c.41 3.696 2.825 7.051 2.909 10.768.035 1.536.264 3.626-1 4.5-1.939 1.341-7-1-7-1l-26.5 12.5c9.144 5.569 14.78 10.235 22.5 14.788 7.216 4.562 20 14.212 20 14.212s6.716-8.294 10-12.5c5.416-6.936 10.209-14.374 16-21 4.033-4.614 8.45-8.895 13-13 5.103-4.602 11.634-7.693 16-13 3.837-4.664 6.858-10.188 8.5-16 1.453-5.142 2.407-10.845 1-16-1.643-6.02-6.402-10.793-10.5-15.5-6.058-6.958-20.56-18.53-20.56-18.53l5.5-4s13.419 9.94 19.06 16.03c5.437 5.87 11.549 11.883 14 19.5 1.87 5.813 1.174 12.326 0 18.318-1.189 6.07-3.44 12.125-7 17.182-3.737 5.308-9.394 8.992-14.5 13-3.018 2.37-6.585 4.005-9.5 6.5-5.912 5.06-11.068 10.98-16 17-4.924 6.01-9.212 12.522-13.5 19-2.808 4.243-8 13-8 13l-52-35 16-28-11-13 10.5-8-15-26s17.698 7.97 25.902 13.098z" fill="#ff5" stroke="#55a" stroke-width="2" stroke-linecap="round" stroke-linejoin="round"/><path d="M67 727.362s-2.62 6.46-3.323 9.854c-1.056 5.105-1.612 10.382-1.293 15.586.262 4.268 2.616 12.56 2.616 12.56" fill="none" stroke="#55a" stroke-width="2" stroke-linecap="round" stroke-linejoin="round"/><path d="M77.22 723.352c-2.689.152-5.653.232-8.006-1.077-3.062-1.704-4.623-5.27-6.684-8.113 0 0 5.973-.613 8.808.154 2.434.658 4.49 2.317 6.6 3.7 1.785 1.169 5.1 3.87 5.1 3.87s-3.822 1.353-5.819 1.466z" fill="#ff5" stroke="#55a" stroke-width="2" stroke-linecap="round" stroke-linejoin="round"/><path d="M65 700.862s1.404 3.996 2.804 5.507c2.175 2.347 5.397 3.444 8.196 4.993 3.587 1.985 8.01 2.696 11 5.5 3.039 2.849 6.297 10.794 6.297 10.794-3.03-.563-5.172-2.265-8.203-1.993 0 0-2.522-4.64-4.5-6.297-2.378-1.993-5.604-2.664-8.402-4.004-2.569-1.23-5.454-1.951-7.7-3.703-1.64-1.28-3.137-2.9-3.992-4.797-.9-1.998-1-6.5-1-6.5z" fill="#ff5" stroke="#55a" stroke-width="2" stroke-linecap="round" stroke-linejoin="round"/><path d="M53.85 718.029L63 735.865l-6.542 7.255L62 753.362l-8.098 16.203-8.793 3.696 10.195-19.395L49 742.362l7.304-7.7-10.931-20.5z"/><path d="M57.378 681.217S53.395 675.763 54 672.8c.5-2.45 2.893-4.629 5.3-5.308 1.88-.531 4.23.081 5.7 1.37 1.746 1.53 2.515 4.178 2.5 6.5-.012 1.794-2 5-2 5s4.04-3.543 6.5-3.5c2.315.039 4.847 1.491 6 3.5 1.08 1.878.628 4.425 0 6.5-.522 1.725-1.327 3.827-3 4.5-2.942 1.181-9.285-2.062-9.285-2.062s2.7 5.947 1.586 8.663c-.773 1.882-2.966 3.477-5 3.5-3.005.034-6.309-2.242-7.5-5-.952-2.204 1.199-7.102 1.199-7.102s-5.08 2.303-7.5 1.5c-2.128-.706-4.364-2.762-4.5-5-.174-2.863 2.236-6.087 4.939-7.046 2.756-.979 8.439 2.4 8.439 2.4z" fill="#ff5" stroke="#55a" stroke-width="2" stroke-linecap="round" stroke-linejoin="round"/><path d="M53 684.862c3.287-2.164 6.718-3.99 9-8.5 2.26 4.678 4.905 6.667 7.5 9-2.606 1.277-5.214 2.62-8 8.5-1.961-3.261-3.217-6.735-8.5-9z" fill="none" stroke="#55a" stroke-width="2" stroke-linecap="round" stroke-linejoin="round"/><path d="M55.308 679.67l-7.954-3.338-1.616-7.208 6.97 2.561zM67 678.362l1.977-7.715 7.523-3.285-2.5 8.5zM66.768 689.723l1.232 7.14 8 4-1.5-8.5zM56.046 689.1l-8.347 3.266-1.605 7.7L54 696.858z" fill="#f55" stroke="#55a" stroke-width="2" stroke-linecap="round" stroke-linejoin="round"/><path d="M74.616 729.539c3.739-1.503 7.627-3.428 11.66-3.271 5.192.202 10.14 2.757 14.635 5.36 1.97 1.142 5.049 2.126 5.23 4.396.158 1.961-1.97 3.91-3.858 4.468-2.475.732-4.907-1.637-7.433-2.167-2.418-.508-9.344-1.123-7.35-.963 4.728.38 9.743 1.18 13.7 3.784 1.599 1.052 3.687 2.567 3.593 4.479-.085 1.71-1.933 3.254-3.594 3.67-3.34.837-6.44-2.64-9.851-3.103-1.602-.218-6.503.163-4.848.17 4.093.017 8.52.73 11.895 3.048 1.449.995 3.57 2.617 3.055 4.297-.63 2.051-3.9 1.989-6.028 2.253-4.8.597-10.592-1.908-14.422-1.598 4.774.189 6.956.218 10.024 1.652 1.661.776 4.391 1.77 4.169 3.59-.24 1.961-3.351 2.296-5.29 2.674-2.932.572-5.955-1-8.931-.741-2.393.208-4.686 1.089-6.972 1.825" fill="none" stroke="#55a" stroke-width="2" stroke-linecap="round" stroke-linejoin="round"/><path d="M94 726.862c-1.817-3.292-2.685-7.244-2.5-11 .155-3.158 2.207-5.939 3-9 .68-2.626 1.5-8 1.5-8s4.146 6.719 5 10.5c.698 3.089.54 6.38 0 9.5-.423 2.442-1.465 4.75-2.5 7-.561 1.221-2 3.5-2 3.5s-1.93-1.468-2.5-2.5z" fill="#ff5" stroke="#55a" stroke-width="2" stroke-linecap="round" stroke-linejoin="round"/><g stroke="#55a" stroke-width="2" stroke-linecap="round" stroke-linejoin="round"><path d="M122.75 716.362l13.5-5.75-5.25 15.25s.05-3.468-1.188-4.281c-1.072-.704-3.812.531-3.812.531s1.735-3.437.842-4.79c-.772-1.17-4.092-.96-4.092-.96z" fill="#55a"/><path d="M131.929 708.554c-.31-.063-.522-.66-.306-.89.21-.224.81-.062.9.231.086.282-.303.717-.594.659zM138.202 715.372c-.235-.184-.208-.69.03-.869.204-.152.62-.057.76.15.112.165.009.435-.137.574-.157.15-.48.28-.653.145z" fill="none"/></g><path d="M215.5 769.362l-45.5-42.75-16.639.097c-1.437 10.693-4.177 16.189-9.111 23.903l15.5 1.25 19.25 17.75" fill="#ff5" stroke="#55a" stroke-width="2" stroke-linecap="round" stroke-linejoin="round"/><path style="line-height:normal;-inkscape-font-specification:Sans;text-indent:0;text-align:start;text-decoration-line:none;text-transform:none;marker:none" d="M168.188 730.362l-14.563-.035-.41 3 14.441.066 37.844 36.313c.573.548 1.592.526 2.14-.047.549-.573.526-1.593-.046-2.14l-38.313-36.75a1.519 1.519 0 00-1.094-.407z" color="#000" font-weight="400" font-family="Sans" overflow="visible" fill="#000200"/><path d="M150.5 739.404l14-.042 31.5 29.5" fill="none" stroke="#55a" stroke-width="2" stroke-linecap="round" stroke-linejoin="round"/><path style="line-height:normal;-inkscape-font-specification:Sans;text-indent:0;text-align:start;text-decoration-line:none;text-transform:none;marker:none" d="M149.073 744.484l-1.664 2.77 13.716.327 22.344 21.594c.516.695 1.677.771 2.28.15.604-.622.493-1.78-.218-2.275l-22.75-22.032a1.517 1.517 0 00-1-.437z" color="#000" font-weight="400" font-family="Sans" overflow="visible" fill="#000200"/><path d="M121 769.612l139.5-.5" fill="none" stroke="#55a" stroke-width="2" stroke-linecap="round" stroke-linejoin="round"/><path style="line-height:normal;-inkscape-font-specification:Sans;text-indent:0;text-align:start;text-decoration-line:none;text-transform:none;marker:none" d="M294.737 678.124c-2.416 1.185-4.343 3.126-6.336 4.848-4.352 4.928-7.707 12.663-6.406 19.41.625 2.697 2.084 5.089 3.474 7.449.148 2.883.539 6.359-1.56 8.663-1.747 1.631-5.845-1.926-5.765 1.748 1.304 2.201 4.68 2.135 6.752 1.023 2.273-.411 3.442-4.79 3.624-4.872.988 4.447 1.654 8.996 1.605 13.563-.916 3.463-2.867 5.5-5.466 7.214-3.04 1.671-6.292-1.025-7.147-3.942.168-2.147-3.18-4.284-3.55-1.255.926 3.556 2.94 7.652 6.9 8.488 3.06.943 6.455-.659 8.17-3.255-1.33 3.432-2.96 7.615-.641 11.012 1.357 2.42 7.653 4.769 8.065.96-1.328-1.983-5.362-.334-6.068-3.582-.705-2.647.873-5.214 1.597-7.706 1.632-3.964 1.107-9.568.964-13.736-.494-6.039-1.611-11.03-5.07-16.139-.638-1.138-2.412-3.906-2.012-4.14 2.053 1.995 5.238 2.279 7.71.9 2.249-.827 6.014-5.55 2.454-6.694-2.117 1.29-3.013 5.557-6.507 4.337-2.606-1.239-5.95-3.48-4.246-6.66.897-2.973 2.713-10.791 10.179-14.487 1.246-1.023 1.292-3.212-.72-3.147z" color="#000" font-weight="400" font-family="Sans" overflow="visible" fill="#fff"/><g fill="#fff"><path d="M138.281 669.612c-5.465-.226-11.56 5.388-8.916 10.984 1.032 3.478 6.187 5.43 9.001 3.038.83-1.159-.594-2.82-1.866-2.178-7.061 1.563-5.127-9.36.883-8.72 5.544-1.03 7.758 5.097 8.936 9.306 1.909 5.203.773 10.96 2.81 16.165 1.58 7.912 5.666 15.883 13.277 19.456 4.97 3.028 10.898 2.347 16.2.744 5.561-.474 12.088-2.212 16.724 1.989 3.667 2.755 6.363 7.384 5.88 11.943-2.59 3.441-7.682 6.566-11.27 2.476-2.524-2.217.075-6.199-1.836-8.476-1.301-.917-2.854.677-2.408 2.076-.515 4.148.74 8.953 5.01 10.593 3.778 2.95 9.213-1.618 10.825-2.02.559 5.747 1.995 11.598 4.712 16.714 3.682 6.228 11.757 5.816 17.953 4.861 3.653-2.123 12.716-2.963 12.92 2.609-1.162 3.662-4.46 1.625-6.938 1.49-1.64.538-1.052 2.976.57 3.068 5.504 3.864 13.104-4.868 7.767-9.299-2.954-3.206-10.628-2.19-11.801-2.52 3.51-4.935.01-12.116-5.751-13.084-3.002-.75-6.93 1.029-8.348 3.732-.207 1.758 2.221 2.184 3.08.837 4.246-4.821 12.318 1.972 8.476 7-2.17 3.765-6.552 4.244-10.38 3.265-6.38-1.459-6.917-9.086-8.603-14.236-1.545-6.58.49-14.336-4.44-19.842-3.724-5.105-10.185-8.074-16.48-6.804-2.525-.042-8.143 1.955-4.402-1.864 3.009-5.15 1.698-13.217-4.564-15.237-2.404-.537-4.604-2.077-6.94-2.29-4.004-2.293-11.29-1.25-11.867-7.31-1.02-2.846 2.498-4.205 2.455-6.633-.535-1.814-3.117-1.074-3.587.464-3.927 4.68-1.4 13.095 4.887 14.078 2.289.715 6.26.879 2.375 2.813-3.132 2.547-1.648 8.557 1.913 9.908 1.768.142 2.124-2.48.525-3.041-4.136-6.013 5.832-8.699 9.685-4.915 5.082 2.197 4.2 9.37 1.064 12.891-1.886 4.545-7.778 3.416-11.304 1.696-7.246-3.048-10.988-10.561-12.489-17.884-2.058-5.818-.732-12.222-3.292-17.927-1.284-4.942-4.729-10.163-10.446-9.916z" style="line-height:normal;-inkscape-font-specification:Sans;text-indent:0;text-align:start;text-decoration-line:none;text-transform:none;marker:none" color="#000" font-weight="400" font-family="Sans" overflow="visible"/><path d="M143.51 688.994c0 1.105-1.007 2-2.25 2s-2.25-.895-2.25-2c0-1.104 1.007-2 2.25-2s2.25.896 2.25 2zM189.054 708.48c0 1.104-1.007 2-2.25 2s-2.25-.896-2.25-2c0-1.105 1.007-2 2.25-2s2.25.895 2.25 2zM182.06 725.674c0 1.105-1.008 2-2.25 2-1.243 0-2.25-.895-2.25-2s1.007-2 2.25-2c1.242 0 2.25.895 2.25 2zM214.117 733.542c0 1.105-1.008 2-2.25 2-1.243 0-2.25-.895-2.25-2 0-1.104 1.007-2 2.25-2 1.242 0 2.25.896 2.25 2z"/></g><path d="M175.355 668.606s.55 3.603.138 5.333c-.496 2.083-1.756 3.944-3.04 5.657-.589.787-2.121 1.088-2.1 2.071.034 1.558 1.913 3.206 3.47 3.134 1.759-.082 2.912-2.26 3.576-3.89.854-2.1.6-4.568.198-6.799-.353-1.95-2.242-5.506-2.242-5.506zM180.752 673.072s1.025 2.322 1 3.566c-.032 1.497-.686 2.99-1.382 4.39-.32.642-1.444 1.137-1.263 1.795.287 1.043 2.003 1.795 3.183 1.45 1.335-.39 1.854-2.077 2.089-3.303.303-1.577-.304-3.19-.987-4.617-.597-1.246-2.64-3.281-2.64-3.281zM185.637 677.92s1.025 2.322.999 3.566c-.03 1.497-.685 2.991-1.381 4.39-.32.642-1.444 1.137-1.263 1.795.287 1.043 2.003 1.795 3.183 1.45 1.335-.39 1.854-2.077 2.089-3.302.302-1.578-.305-3.191-.987-4.617-.597-1.247-2.64-3.282-2.64-3.282zM161.158 658.983s.371 1.756.093 2.598c-.334 1.015-1.185 1.922-2.05 2.757-.398.383-1.432.53-1.418 1.009.023.759 1.29 1.562 2.341 1.526 1.187-.04 1.965-1.1 2.413-1.895.576-1.023.406-2.225.134-3.312-.238-.95-1.513-2.683-1.513-2.683zM164.831 659.223s1.024 2.322.999 3.566c-.031 1.497-.685 2.991-1.381 4.39-.32.642-1.444 1.137-1.263 1.795.287 1.043 2.002 1.795 3.183 1.45 1.335-.39 1.854-2.077 2.089-3.302.302-1.578-.305-3.191-.987-4.617-.597-1.247-2.64-3.282-2.64-3.282zM169.716 664.071s1.024 2.323.999 3.566c-.031 1.497-.685 2.991-1.382 4.39-.32.643-1.443 1.137-1.262 1.795.287 1.043 2.002 1.795 3.183 1.45 1.335-.39 1.853-2.076 2.088-3.302.303-1.577-.304-3.191-.987-4.617-.596-1.246-2.64-3.282-2.64-3.282zM191.636 683.463s.55 3.733.138 5.525c-.495 2.157-1.756 4.085-3.04 5.86-.589.816-2.121 1.128-2.1 2.146.034 1.614 1.913 3.321 3.47 3.246 1.76-.084 2.912-2.34 3.576-4.03.854-2.176.6-4.732.198-7.043-.352-2.02-2.242-5.704-2.242-5.704zM197.034 687.928s1.024 2.323.998 3.566c-.03 1.498-.685 2.992-1.38 4.39-.32.643-1.444 1.137-1.263 1.795.287 1.043 2.002 1.796 3.183 1.45 1.334-.39 1.853-2.076 2.088-3.302.303-1.577-.304-3.19-.987-4.617-.596-1.246-2.64-3.282-2.64-3.282zM201.918 692.777s1.025 2.322 1 3.566c-.032 1.497-.686 2.99-1.382 4.39-.32.642-1.444 1.137-1.263 1.795.287 1.043 2.003 1.795 3.183 1.45 1.335-.39 1.854-2.077 2.089-3.303.303-1.577-.304-3.19-.987-4.616-.597-1.247-2.64-3.282-2.64-3.282zM207.52 697.597s.548 3.603.137 5.333c-.496 2.082-1.756 3.944-3.04 5.657-.589.787-2.121 1.088-2.1 2.071.034 1.558 1.913 3.206 3.47 3.134 1.759-.082 2.912-2.26 3.576-3.891.853-2.1.6-4.567.198-6.798-.353-1.95-2.242-5.506-2.242-5.506zM211.75 701.917s1.025 2.322 1 3.566c-.031 1.497-.686 2.991-1.382 4.39-.32.642-1.443 1.137-1.262 1.795.287 1.043 2.002 1.795 3.183 1.45 1.334-.39 1.853-2.077 2.088-3.303.303-1.577-.304-3.19-.987-4.616-.596-1.247-2.64-3.282-2.64-3.282z" fill="#ff5"/><path d="M216.053 705.89s1.024 2.323.998 3.567c-.03 1.497-.685 2.991-1.38 4.39-.32.642-1.444 1.137-1.263 1.795.287 1.043 2.002 1.795 3.183 1.45 1.334-.39 1.853-2.077 2.088-3.303.303-1.577-.304-3.19-.987-4.616-.596-1.247-2.64-3.282-2.64-3.282zM221.508 711.003s.549 3.603.137 5.332c-.495 2.083-1.756 3.944-3.04 5.658-.588.787-2.12 1.088-2.1 2.07.035 1.558 1.913 3.207 3.47 3.134 1.76-.081 2.912-2.259 3.576-3.89.854-2.1.601-4.567.198-6.798-.352-1.95-2.241-5.506-2.241-5.506zM226.03 715.177s1.025 2.322 1 3.566c-.032 1.497-.686 2.99-1.382 4.39-.32.642-1.444 1.137-1.263 1.795.287 1.043 2.003 1.795 3.183 1.45 1.335-.39 1.854-2.077 2.09-3.303.302-1.577-.305-3.19-.988-4.616-.596-1.247-2.64-3.282-2.64-3.282zM230.77 719.588s1.024 2.322.998 3.566c-.03 1.497-.685 2.991-1.38 4.39-.32.642-1.444 1.137-1.263 1.795.287 1.043 2.002 1.795 3.183 1.45 1.334-.39 1.853-2.077 2.088-3.303.303-1.577-.304-3.19-.987-4.616-.596-1.247-2.64-3.282-2.64-3.282zM236.662 723.388s.549 3.603.137 5.333c-.495 2.083-1.756 3.944-3.039 5.657-.59.787-2.122 1.088-2.1 2.071.034 1.558 1.912 3.206 3.469 3.134 1.76-.082 2.913-2.259 3.576-3.89.854-2.1.601-4.568.198-6.799-.352-1.95-2.241-5.506-2.241-5.506zM241.039 727.708s1.024 2.322.999 3.566c-.031 1.497-.685 2.991-1.382 4.39-.32.642-1.443 1.137-1.262 1.795.287 1.043 2.002 1.795 3.183 1.45 1.335-.39 1.853-2.077 2.088-3.302.303-1.578-.304-3.191-.986-4.617-.597-1.247-2.64-3.282-2.64-3.282zM262.346 703.55s.59 3.343 1.546 4.68c1.34 1.877 3.76 2.683 5.513 4.182.432.37 1.102.63 1.23 1.184.213.92-.178 2.152-.974 2.66-1.121.716-2.853.379-3.978-.333-1.915-1.212-2.836-3.69-3.413-5.882-.55-2.093.076-6.492.076-6.492zM260.398 710.427s.84 1.493 1.274 2.231c.658 1.12 1.194 2.329 2.017 3.334.638.78 2.291 1.038 2.225 2.043-.076 1.164-1.639 2.132-2.863 2.009-1.383-.14-2.13-1.673-2.658-2.864-.61-1.376-.45-2.996-.386-4.5.033-.762.39-2.253.39-2.253z" fill="#ff5"/><path d="M258.545 715.398s.522 2.36 1.112 3.392a11.69 11.69 0 003.015 3.42c.58.446 1.81.313 1.965.977.245 1.054-.905 2.533-2.107 2.792-1.36.292-2.62-.943-3.41-1.909-1.018-1.242-1.253-2.95-1.332-4.529-.07-1.38.757-4.143.757-4.143zM257.387 722.62s.59 3.343 1.545 4.68c1.341 1.877 3.76 2.683 5.513 4.182.433.37 1.103.63 1.23 1.184.213.92-.177 2.151-.973 2.66-1.122.715-2.854.379-3.978-.333-1.916-1.212-2.837-3.69-3.413-5.882-.55-2.093.076-6.492.076-6.492zM265.6 693.615s.635 1.424.972 2.127c.354.738.654 1.51 1.103 2.195.71 1.083 2.641 1.699 2.488 2.985-.106.88-1.254 1.666-2.136 1.582-1.192-.113-1.949-1.546-2.431-2.647-.558-1.272-.413-2.77-.353-4.16.03-.704.357-2.082.357-2.082zM264.54 699.752s.439 1.81.936 2.601c.635 1.012 1.522 1.913 2.536 2.623.488.342 1.524.24 1.653.75.206.807-.761 1.941-1.773 2.14-1.143.224-2.203-.723-2.868-1.464-.856-.953-1.054-2.262-1.12-3.473-.06-1.058.636-3.177.636-3.177zM267.449 687.787s.54 3.08 1.416 4.313c1.23 1.729 3.447 2.471 5.054 3.853.396.34 1.01.58 1.128 1.09.194.848-.164 1.983-.893 2.451-1.028.66-2.616.35-3.647-.306-1.755-1.117-2.6-3.4-3.128-5.42-.504-1.929.07-5.981.07-5.981zM270.522 677.852s.795 1.365 1.165 2.063c.467.878.729 1.878 1.33 2.67.692.911 2.618 1.157 2.55 2.3-.062 1.068-1.499 1.97-2.618 1.857-1.266-.129-1.95-1.546-2.432-2.647-.557-1.273-.412-2.77-.353-4.16.03-.704.358-2.083.358-2.083zM269.256 683.68s.438 1.81.936 2.602c.634 1.011 1.522 1.913 2.536 2.622.488.342 1.523.24 1.653.75.206.807-.761 1.941-1.773 2.14-1.144.224-2.204-.723-2.869-1.463-.856-.953-1.053-2.263-1.12-3.474-.059-1.058.637-3.177.637-3.177zM271.582 669.702s.59 3.344 1.545 4.68c1.341 1.878 3.76 2.683 5.514 4.182.432.37 1.102.63 1.23 1.185.212.92-.178 2.151-.974 2.66-1.122.715-2.854.378-3.978-.333-1.916-1.213-2.837-3.69-3.413-5.883-.55-2.093.076-6.491.076-6.491zM274.927 662.412s.939.498 1.348.831c.592.483 1.029 1.13 1.57 1.668.658.652 2.031.963 2.037 1.889.004.722-.848 1.487-1.57 1.492-1.188.008-2.023-1.39-2.614-2.419-.305-.53-.266-1.193-.399-1.789l-.372-1.672zM273.776 665.904s.438 1.81.936 2.602c.634 1.011 1.522 1.913 2.536 2.623.488.341 1.523.239 1.653.749.206.808-.761 1.941-1.773 2.14-1.144.225-2.204-.723-2.869-1.463-.856-.953-1.053-2.263-1.12-3.474-.059-1.058.637-3.177.637-3.177z" fill="#ff5"/><path style="line-height:normal;-inkscape-font-specification:Sans;text-indent:0;text-align:start;text-decoration-line:none;text-transform:none;marker:none" d="M253.75 734.862c-3.643.025-6.29 2.834-7.906 6.063-1.616 3.228-2.398 7.073-2.344 10.218.053 3.107.953 6.842 2.656 9.97 1.704 3.126 4.402 5.82 8 5.75 3.58-.071 6.129-2.862 7.688-6.032 1.559-3.17 2.31-6.897 2.281-9.969-.03-3.104-.864-6.884-2.5-10.062-1.636-3.179-4.257-5.963-7.875-5.938zm0 3c2.049-.014 3.847 1.617 5.219 4.281 1.371 2.665 2.132 6.157 2.156 8.72.024 2.53-.665 6.004-1.969 8.655-1.304 2.652-3.04 4.304-5.062 4.344-2.041.04-3.857-1.572-5.281-4.187-1.425-2.616-2.27-6.061-2.313-8.594-.044-2.57.677-6.105 2.031-8.813 1.355-2.707 3.145-4.391 5.219-4.406z" color="#000" font-weight="400" font-family="Sans" overflow="visible" fill="#ff5"/><path d="M252.5 751.362s-2.479-1.943-3.75-1.5c-.634.221-1.09 1.084-1 1.75.117.876.994 1.81 1.875 1.875 1.188.089 2.875-2.125 2.875-2.125zM255.125 751.112s1.072-2.206 2.125-2.5c.888-.248 2.337 0 2.625.875.27.824-.702 1.786-1.5 2.125-1.009.429-3.25-.5-3.25-.5zM253.25 748.737s-3.373-2.139-3.5-3.875c-.11-1.498 1.01-3.556 2.5-3.75 1.434-.186 2.96 1.458 3.25 2.875.352 1.717-2.25 4.75-2.25 4.75zM253.5 753.737s-2.079 3.307-1.625 5c.29 1.083 1.38 2.314 2.5 2.25 1.444-.082 2.896-1.804 2.875-3.25-.026-1.827-3.75-4-3.75-4z" fill="#ff5"/><g stroke="#55a" stroke-width="2.018" stroke-linecap="round" stroke-linejoin="round"><path transform="matrix(.99983 0 0 .98208 -5.007 541.786)" d="M121.986 205.245l14.264-6.995-6.473 15.25s1.076-3.325.035-4.281c-1.177-1.083-4.73.531-4.73.531s1.537-3.053.69-4.168c-.775-1.02-3.786-.337-3.786-.337z" fill="#55a"/><path d="M131.929 708.554c-.31-.063-.522-.66-.306-.89.21-.224.81-.062.9.231.086.282-.303.717-.594.659zM138.202 715.372c-.235-.184-.208-.69.03-.869.204-.152.62-.057.76.15.112.165.009.435-.137.574-.157.15-.48.28-.653.145z" fill="none" transform="matrix(.99983 0 0 .98208 -5.007 38.605)"/></g><g stroke="#55a" stroke-width="2" stroke-linecap="round" stroke-linejoin="round"><path d="M107.644 729.22l13.5-5.75-5.25 15.25s.05-3.47-1.187-4.282c-1.073-.704-3.813.531-3.813.531s1.735-3.436.842-4.79c-.771-1.17-4.092-.96-4.092-.96z" fill="#55a"/><path d="M116.823 721.411c-.31-.062-.522-.66-.306-.89.21-.224.81-.062.9.232.086.281-.303.717-.594.658zM123.096 728.229c-.235-.184-.208-.69.03-.868.204-.152.62-.058.76.149.112.165.009.435-.137.574-.157.151-.48.28-.653.145z" fill="none"/></g><g stroke="#55a" stroke-width="2.339" stroke-linecap="round" stroke-linejoin="round"><path transform="matrix(.78618 0 0 .93017 -.436 574.018)" d="M119.095 206.333l17.155-8.083L131 213.5s.363-3.624-1.188-4.281c-1.917-.813-5.9 2.17-5.9 2.17s3.03-3.75 1.736-5.168c-1.334-1.462-6.553.112-6.553.112z" fill="#55a"/><path d="M132.973 708.68c-.31-.062-.522-.66-.306-.89.211-.224.81-.062.9.231.086.282-.303.717-.594.659zM139.47 714.93c-.235-.184-.208-.689.03-.868.204-.152.62-.058.76.15.112.164.009.434-.137.574-.157.15-.48.28-.653.144z" fill="none" transform="matrix(.78618 0 0 .93017 -.436 97.434)"/></g><g stroke="#55a" stroke-width="2" stroke-linecap="round" stroke-linejoin="round"><path d="M56.732 777.656l13.5-5.75-5.25 15.25s.051-3.468-1.187-4.28c-1.073-.705-3.813.53-3.813.53s1.735-3.437.842-4.79c-.771-1.17-4.092-.96-4.092-.96z" fill="#55a"/><path d="M65.911 769.848c-.31-.062-.521-.66-.306-.89.211-.224.81-.062.9.232.086.28-.302.716-.594.658zM72.185 776.666c-.235-.184-.209-.69.03-.869.203-.152.62-.057.76.15.111.165.008.435-.137.574-.158.151-.48.28-.653.145z" fill="none"/></g><g stroke="#55a" stroke-width="2" stroke-linecap="round" stroke-linejoin="round"><path d="M72.289 788.793l13.5-5.75-5.25 15.25s.05-3.468-1.188-4.281c-1.072-.704-3.812.531-3.812.531s1.735-3.437.842-4.79c-.772-1.17-4.092-.96-4.092-.96z" fill="#55a"/><path d="M81.467 780.985c-.31-.063-.521-.66-.305-.89.21-.224.81-.062.9.231.086.282-.303.717-.595.659zM87.741 787.803c-.235-.184-.209-.69.03-.869.204-.152.62-.057.76.15.111.165.009.435-.137.574-.158.151-.48.28-.653.145z" fill="none"/></g><g transform="rotate(180 180.125 782.112)"><path d="M287.25 669.862l-22 75.5.25 8.5-2.5 8.25-4.5 4.75-4.5 1.5 8.104.293 13.982-22.293 52.81 35.275.854-78.525zM30 705.362v77.5l2.375-1.25 15.875-28.25-10.75-12.5 10.25-8.25-14.375-24.625z" fill="#f55"/><path d="M133.875 699.737L99.5 730.112l-8.125-3.25-7.25-.5-8.75 2.875-1.375-3.5-3.125-1.25-3.75 1.75L60 719.612l54.25-38.625 8.875 8.25z" fill="#5455aa" stroke="#55a" stroke-width="2" stroke-linecap="round" stroke-linejoin="round"/><path d="M215.639 768.563l34.233-.459-6.419-6.571-2.14-9.159-101.476-91.707-19.41 16.658 15.436 12.379 11.156 12.685 6.114 10.239 1.222 13.449 15.589-.306z" fill="#f55"/><path d="M291 672.862l38.75 30.25" fill="none" stroke="#55a" stroke-width="2" stroke-linecap="round" stroke-linejoin="round"/><path d="M131 542.362a130.747 130.747 0 017 27.5c1.006 7.116 1.423 14.326 1 21.5a92.468 92.468 0 01-5 25 116.003 116.003 0 0123 6l45.5-80z" fill="#ff5" stroke="#55a" stroke-width="2" stroke-linecap="round" stroke-linejoin="round"/><path d="M157.5 622.362l8 6 49.5-86h-12.5z" fill="#f55" stroke="#55a" stroke-width="2" stroke-linecap="round" stroke-linejoin="round"/><path d="M189.75 542.362s3.998 5.916.75 11c-1.817 2.844-9.5 3.5-9.5 3.5s3.079 9.223.5 12.5c-2.628 3.34-12.5 2.5-12.5 2.5s5.147 10.986 2.5 15.5c-3.84 6.547-10.671 4.336-10.671 4.336s4.073 7.879-1.329 14.164c-2.804 3.263-12.75 2-12.75 2 3.612 4.281 3.45 5.487 4 7.75.55 2.263.41 2.998.41 2.998" fill="none" stroke="#000100" stroke-width="2" stroke-linecap="round" stroke-linejoin="round"/><path d="M159.895 595.52c-.337 1.16-.742 2.327-1.395 3.342-.862 1.339-1.804 2.834-3.25 3.5-1.818.838-4.337 1.364-6 .25-1.62-1.085-2.322-3.576-2-5.5.372-2.22 4.25-5.25 4.25-5.25s-5.381-1.101-6.5-3.25c-1.05-2.017-.41-4.965 1-6.75 1.391-1.76 4.104-3.156 6.25-2.5 2.41.736 4.25 6.25 4.25 6.25s.549-4.298 1.75-6c1.067-1.512 2.66-3.058 4.5-3.25 1.633-.17 3.606.624 4.5 2 1.408 2.166 1.174 5.449 0 7.75-1.177 2.307-6.29 4.56-6.29 4.56s1.137-3.19-1.512-4.613c-2.118-1.137-5.55.97-6.468 3.191-.777 1.881.022 5.203 1.974 5.777 3.895 1.145 5.48-2.632 5.48-2.632s-.244 2.11-.54 3.125zM179.391 560.644c-.337 1.159-.741 2.327-1.394 3.341-.862 1.34-1.805 2.834-3.25 3.5-1.818.839-4.337 1.364-6 .25-1.621-1.085-2.322-3.576-2-5.5.371-2.22 4.25-5.25 4.25-5.25s-5.382-1.1-6.5-3.25c-1.05-2.017-.41-4.965 1-6.75 1.39-1.76 4.104-3.155 6.25-2.5 2.409.737 4.25 6.25 4.25 6.25s.548-4.297 1.75-6c2.232-3.059 6.88-2.572 9-1.25 1.407 2.167 1.174 5.45 0 7.75-1.177 2.307-6.29 4.56-6.29 4.56s1.137-3.19-1.513-4.612c-2.118-1.138-5.55.969-6.467 3.19-.777 1.881.021 5.203 1.973 5.777 3.896 1.145 5.48-2.632 5.48-2.632s-.243 2.11-.539 3.126z" stroke="#000100" stroke-width="2" stroke-linecap="round" stroke-linejoin="round"/><g stroke="#55a" stroke-width="2" stroke-linecap="round" stroke-linejoin="round"><g fill="none"><path d="M185.846 628.013c.525 4.582 1.647 9.67 2.839 12.92M190.07 621.818c.793 8.12 3.097 14.756 4.71 20.644M194.576 614.215c1.397 9.703 3.023 20.483 6.377 29.534M202.377 625.649c.586 7.253 3.051 13.729 4.23 19.204M208.655 633.053c1.036 6.686 2.463 9.391 3.247 12.606M215.297 639.116c.751 2.668 1.624 4.747 2.374 6.758"/></g><g fill="none"><path d="M250.5 542.362s.98 12.879 7.75 19.75c6.77 6.872 15.25 10.25 15.25 10.25"/><path d="M254.625 542.362s1.27 10.769 6.644 16.781c5.375 6.013 12.106 8.22 12.106 8.22"/><path d="M258.125 542.362s1.56 7.836 5.539 12.417c3.978 4.58 9.961 7.583 9.961 7.583M262.625 542.362s1.057 5.404 4.268 8.954c3.21 3.55 6.732 5.296 6.732 5.296M267 542.362s.62 4.078 2.505 6.254c1.885 2.176 4.245 3.246 4.245 3.246"/></g><g fill="none"><path d="M249.75 543.612s-.48 9.879-8.5 18.75c-8.02 8.872-22 8-22 8"/><path d="M246.375 543.112s-1.27 8.519-8.394 16.031c-7.125 7.513-15.856 6.47-15.856 6.47"/><path d="M241.625 543.112s-1.56 7.836-5.539 12.417c-3.978 4.58-11.711 5.083-11.711 5.083"/><path d="M237.125 543.112s-1.057 5.404-4.268 8.954c-3.21 3.55-5.232 3.046-5.232 3.046"/></g><path d="M274.546 579.298s6.145 18.823 8.448 28.44c2.666 11.137 4.949 22.408 6.194 33.79 1.114 10.178 1.127 30.694 1.127 30.694l-32.101-26.751s8.895-12.182 11.545-19.148c2.003-5.265 2.33-11.033 3.097-16.613.72-5.228 1.123-10.5 1.408-15.77.265-4.874.282-14.642.282-14.642z" fill="#55a"/><path d="M253.427 588.59s-.224 5.08 0 7.604c.236 2.659.789 5.287 1.408 7.884.682 2.86 2.396 5.51 2.534 8.447.079 1.674.002 3.575-.985 4.928-.855 1.171-2.747 1.118-3.802 2.112-.89.84-1.97 3.098-1.97 3.098" fill="none"/><path d="M238.221 611.68s-3.464 4.062-2.956 6.336c.32 1.431 1.946 2.505 3.379 2.816 1.568.342 3.167-.643 4.646-1.267 1.706-.72 2.998-3.292 4.787-2.816.731.195 1.443 1.284 1.126 1.971-.84 1.823-3.915.938-5.913 1.127-2.43.229-5.47 1.589-7.321 0-.937-.804-.812-2.452-.563-3.66.357-1.736 2.815-4.506 2.815-4.506zM217.384 579.58s6.27-3.172 9.787-3.78c3.37-.581 7.048-.678 10.317.223 2.347.647 6.084 3.557 6.084 3.557s-5.22-1.934-7.953-2.342c-3.396-.507-6.902-.598-10.3-.104-2.738.399-7.935 2.446-7.935 2.446z" fill="#55a"/><path d="M237.94 586.62l2.816-2.253s-4.45-1.554-6.758-1.971c-2.501-.452-5.114-1.077-7.603-.563-2.385.492-4.484 1.98-6.477 3.379-2.609 1.832-7.04 6.476-7.04 6.476" fill="none"/><path d="M215.976 591.688s6.782-3.32 10.419-4.224c2.243-.557 4.588-.625 6.899-.704 1.408-.048 4.223.141 4.223.141l2.957 5.069-4.787 2.252 4.394-.732c-1.518 4.466-6.722 7.327-9.462 9.18" fill="none"/><path d="M234.56 587.887s2.023 3.4 0 6.335c-1.172 1.703-4.348 1.212-6.194.282-3.205-1.614-6.483-2.899-8.448-4.083l5.914-1.408c-1.057 1.73.235 3.53 1.408 4.646 1.401 1.334 3.84 2.141 5.631 1.408 1.833-.75 3.278-3.793 3.098-5.068-.118-.838-1.408-2.112-1.408-2.112z" fill="none"/><path d="M231.182 589.435c-.818-.282-2.097.834-1.971 1.69.133.915 1.812 1.704 2.534 1.126.747-.598.342-2.503-.563-2.816z" fill="none"/><g><path d="M272.047 577.81s-5.794-2.065-8.604-1.336c-3.405.883-8.326 6.485-8.326 6.485s5.303-4.639 8.608-5.178c2.887-.47 8.568 1.9 8.568 1.9z" fill="#55a"/><path d="M253.286 587.605s4.007-4.062 6.617-4.928c2.852-.945 6.215-1.097 9.011 0 1.67.656 3.942 3.661 3.942 3.661M254.835 589.435s4.965-2.09 7.603-2.252c2.28-.14 4.559.51 6.758 1.126 1.46.409 4.224 1.69 4.224 1.69s-2.624 2.547-4.224 3.379c-2.082 1.082-4.412 2.015-6.758 1.97-1.187-.022-3.38-1.126-3.38-1.126l-3.66-1.436c.987 2.061 2.726 5.785 4.083 6.927" fill="none"/><path d="M258.777 588.872c-1.482 3.079.1 3.093.282 4.506l1.126 1.126M263.564 589.717c-.658.489-1.072 1.751-.563 2.394.583.735 2.152.663 2.816 0 .53-.531.514-1.706 0-2.253-.515-.548-1.649-.59-2.253-.14z" fill="none"/></g><g><path d="M235.406 632.936s4.803-2.009 7.462-1.99c2.021.014 3.61 1.55 5.631 1.592 2.819.058 5.348-2.516 8.025-1.89 1.088.253 1.972 1.99 1.972 1.99s-1.903-.812-2.957-.797c-2.501.036-4.405 1.948-6.899 2.09-2.507.142-4.815-1.14-7.321-1.294-1.969-.121-5.913.299-5.913.299z" fill="#55a"/><path d="M242.445 640.12s3.095-1.654 4.787-1.689c1.915-.039 5.491 1.69 5.491 1.69M241.741 636.32s4.078 1.364 6.195 1.407c1.813.038 5.35-.985 5.35-.985" fill="none"/></g><path d="M274.25 543.112s-.078 23.673-.5 35.5c-.467 13.097.478 26.432-2.25 39.25-1.224 5.753-3.718 11.192-6.25 16.5-1.994 4.18-3.53 8.933-7 12-2.853 2.522-6.726 3.99-10.5 4.5-4.251.574-8.648-.495-12.75-1.75-5.773-1.766-11.234-4.64-16.25-8-4.709-3.154-9.067-6.941-12.75-11.25-2.824-3.303-5.246-7.023-7-11-1.289-2.922-2.5-9.25-2.5-9.25" fill="none"/></g><path d="M302 603.612l9.75-16.25 8.75 16.25-9.5 15.75z" fill="#ff5" stroke="#000" stroke-width="2" stroke-linecap="round" stroke-linejoin="round"/><path d="M307.25 603.112l4-7 3.75 6.75-3.75 7.5z" fill="#f55" stroke="#000" stroke-width="2" stroke-linecap="round" stroke-linejoin="round"/><path d="M310.25 622.237c0 3.107-2.406 5.625-5.375 5.625s-5.375-2.518-5.375-5.625c0-3.106 2.406-5.625 5.375-5.625s5.375 2.519 5.375 5.625zM321.75 621.737c0 3.245-2.462 5.875-5.5 5.875s-5.5-2.63-5.5-5.875c0-3.244 2.462-5.875 5.5-5.875s5.5 2.63 5.5 5.875z" fill="#ff5" stroke="#000" stroke-width="2" stroke-linecap="round" stroke-linejoin="round"/><ellipse transform="translate(0 512.362)" cx="310.75" cy="193.25" rx="9" ry="8.25" fill="#ff5" stroke="#000" stroke-width="2" stroke-linecap="round" stroke-linejoin="round"/><path d="M310.5 697.362c-3.848-1.014-7.284-4.414-8.76-8.11-1.722-4.319.409-9.296.9-13.92 1.097-10.326 3.098-20.537 4.571-30.816.963-6.713 2.063-16.493 2.789-20.154 1.894-.53 2.13.826 2.074 2.514 1.904 15.045 4.097 30.057 5.7 45.138.52 4.887 2.064 9.838 1.271 14.688-.565 3.457-1.505 7.39-4.194 9.635-1.143.955-2.91 1.405-4.351 1.025z" fill="#ff5" stroke="#000" stroke-width="2" stroke-linecap="round" stroke-linejoin="round"/><path d="M311.25 644.112s1.545 16.68 2.5 25c.517 4.508 1.709 8.963 1.75 13.5.02 2.264.23 4.71-.75 6.75-.715 1.487-3.5 3.5-3.5 3.5M312.25 701.112c1.472 1.532 3.062 3.584 2.816 5.685-.165 1.411-1.415 2.724-2.722 3.28-.875.37-1.9-.114-2.844-.215" fill="none" stroke="#000" stroke-width="2" stroke-linecap="round" stroke-linejoin="round"/><path d="M306.25 768.112s-2.105-17.81-2.75-26.75c-.432-5.99-1.677-12.067-.75-18 .41-2.63.779-5.71 2.75-7.5 1.466-1.331 3.77-1.51 5.75-1.5 1.9.01 4.15.162 5.5 1.5 2.398 2.378 2.433 6.388 2.75 9.75.542 5.746-.822 11.518-1.5 17.25-.792 6.695-2.071 13.323-3 20-.451 3.246-1.25 9.75-1.25 9.75z" fill="#ff5" stroke="#000" stroke-width="2" stroke-linecap="round" stroke-linejoin="round"/><path d="M311.25 718.862s3.074 2.117 3.75 3.75c1.116 2.695.107 5.835 0 8.75-.208 5.678-.69 11.346-1.25 17-.73 7.354-2.75 22-2.75 22" fill="none" stroke="#000" stroke-width="2" stroke-linecap="round" stroke-linejoin="round"/><path d="M179.75 638.862l-9 15.75 78.25 72.75 16.75-63 9.408-2.845-17.503-15.344s-5.176 3.506-8.155 4.19c-3.412.782-7.032.228-10.5-.25-3.664-.506-10.75-2.75-10.75-2.75s-13.886-.72-20.75-1.75c-5.819-.875-11.543-2.317-17.25-3.75-3.53-.888-10.5-3-10.5-3z" fill="#ff5" stroke="#000" stroke-width="2" stroke-linecap="round" stroke-linejoin="round"/><path d="M177.25 643.862s12.911 4.018 19.5 5.5c5.36 1.206 10.799 2.07 16.25 2.75 6.14.767 12.316 1.304 18.5 1.5 4.748.15 9.518.177 14.25-.25 5.13-.463 15.25-2.5 15.25-2.5M176.5 659.612s12.744 3.726 19.25 5c6.188 1.212 12.47 1.926 18.75 2.5 4.985.456 9.994.764 15 .75 6.01-.016 12.017-.441 18-1 6.193-.578 18.5-2.43 18.5-2.43M194.75 669.612s18.621 3.31 28.04 3.826c6.801.372 13.635-.005 20.425-.538 5.207-.409 15.535-2.038 15.535-2.038l-12.25 48z" fill="none" stroke="#000" stroke-width="2" stroke-linecap="round" stroke-linejoin="round"/><path d="M211.75 677.862s14.661 1.168 22 1c6.144-.14 18.36-1.677 18.36-1.677L244 710.362z" fill="none" stroke="#000" stroke-width="2" stroke-linecap="round" stroke-linejoin="round"/><path d="M234.75 700.112l7.462 3.212 4.288-4.712M227.759 693.723c-.5-1 13.241 4.14 13.241 4.14l7.253-7" fill="none" stroke="#000" stroke-width="2" stroke-linecap="round" stroke-linejoin="round"/><path d="M219.828 685.4L239 692.862l11.358-9.82" fill="none" stroke="#000" stroke-width="2" stroke-linecap="round" stroke-linejoin="round"/><path d="M216.398 678.33L238 687.862l11.177-9.962" fill="none" stroke="#000" stroke-width="2" stroke-linecap="round" stroke-linejoin="round"/><path d="M228.61 678.865l7.89 4.247 5.25-4M218.25 657.862l6 .57v4.5l-6-.57zM174.985 648.053l4.186 1.792-1.906 4.076-4.436-2.541zM183.418 651.643l5.808 1.714-1.036 4.58-5.774-1.857zM194.717 654.383l6.252 1.056-.471 4.475-6.11-1.056zM206.554 656.571l6.28.658-.172 4.497-6.139-.515zM229.838 658.641l5.996.23-.172 4.497-5.996-.23zM241.29 658.435l5.66-.392.187 4.458-5.802.25zM252.006 657.613l5.374-.82.614 4.6-5.374.82z" fill="none" stroke="#000" stroke-width="2" stroke-linecap="round" stroke-linejoin="round"/><path transform="matrix(.94614 -.32376 .24215 .97024 0 0)" d="M95.526 707.644l3.098-.371 2.432 4.702-5.53.15z" fill="none" stroke="#000" stroke-width="2.004" stroke-linecap="round" stroke-linejoin="round"/><path d="M275.185 661.322l11.466 9.317-21.26 75.007s.478 6.608-.239 9.794c-.688 3.06-1.668 6.318-3.822 8.6-2.029 2.148-4.928 4.124-7.883 4.06-2.567-.056-4.88-1.998-6.688-3.822-1.607-1.62-2.632-3.804-3.345-5.972-.6-1.83-.716-5.733-.716-5.733l-102.956-93.162s9.334-8.206 13.377-12.899c4.66-5.406 8.956-11.2 12.422-17.438 17.28-31.104 49.925-86.473 49.925-86.473l17.677.24s-9.356 18.42-14.333 27.47c-7.047 12.817-14.696 25.294-21.976 37.981a5884.066 5884.066 0 00-16.722 29.382c-3.197 5.646-9.555 16.96-9.555 16.96l78.113 72.618 17.677-62.346z" stroke="#55a" stroke-width="2" stroke-linecap="round" stroke-linejoin="round"/><path d="M139.709 659.28L121 675.861l-7.5 5.5-38.646 27.763-8.117 6.121-7.5 5L30.5 705.862" fill="none" stroke="#55a" stroke-width="2" stroke-linecap="round" stroke-linejoin="round"/><path d="M58.402 719.96c3.228 2.017 9.098 6.902 9.098 6.902s1.439-1.887 2.5-2c1.853-.196 4.35.754 5 2.5.756 2.03-1.71 3.983-2.5 6-.86 2.198-1.977 4.332-2.44 6.647a36.403 36.403 0 00-.469 11.085c.41 3.696 2.825 7.051 2.909 10.768.035 1.536.264 3.626-1 4.5-1.939 1.341-7-1-7-1l-26.5 12.5c9.144 5.569 14.78 10.235 22.5 14.788 7.216 4.562 20 14.212 20 14.212s6.716-8.294 10-12.5c5.416-6.936 10.209-14.374 16-21 4.033-4.614 8.45-8.895 13-13 5.103-4.602 11.634-7.693 16-13 3.837-4.664 6.858-10.188 8.5-16 1.453-5.142 2.407-10.845 1-16-1.643-6.02-6.402-10.793-10.5-15.5-6.058-6.958-20.56-18.53-20.56-18.53l5.5-4s13.419 9.94 19.06 16.03c5.437 5.87 11.549 11.883 14 19.5 1.87 5.813 1.174 12.326 0 18.318-1.189 6.07-3.44 12.125-7 17.182-3.737 5.308-9.394 8.992-14.5 13-3.018 2.37-6.585 4.005-9.5 6.5-5.912 5.06-11.068 10.98-16 17-4.924 6.01-9.212 12.522-13.5 19-2.808 4.243-8 13-8 13l-52-35 16-28-11-13 10.5-8-15-26s17.698 7.97 25.902 13.098z" fill="#ff5" stroke="#55a" stroke-width="2" stroke-linecap="round" stroke-linejoin="round"/><path d="M67 727.362s-2.62 6.46-3.323 9.854c-1.056 5.105-1.612 10.382-1.293 15.586.262 4.268 2.616 12.56 2.616 12.56" fill="none" stroke="#55a" stroke-width="2" stroke-linecap="round" stroke-linejoin="round"/><path d="M77.22 723.352c-2.689.152-5.653.232-8.006-1.077-3.062-1.704-4.623-5.27-6.684-8.113 0 0 5.973-.613 8.808.154 2.434.658 4.49 2.317 6.6 3.7 1.785 1.169 5.1 3.87 5.1 3.87s-3.822 1.353-5.819 1.466z" fill="#ff5" stroke="#55a" stroke-width="2" stroke-linecap="round" stroke-linejoin="round"/><path d="M65 700.862s1.404 3.996 2.804 5.507c2.175 2.347 5.397 3.444 8.196 4.993 3.587 1.985 8.01 2.696 11 5.5 3.039 2.849 6.297 10.794 6.297 10.794-3.03-.563-5.172-2.265-8.203-1.993 0 0-2.522-4.64-4.5-6.297-2.378-1.993-5.604-2.664-8.402-4.004-2.569-1.23-5.454-1.951-7.7-3.703-1.64-1.28-3.137-2.9-3.992-4.797-.9-1.998-1-6.5-1-6.5z" fill="#ff5" stroke="#55a" stroke-width="2" stroke-linecap="round" stroke-linejoin="round"/><path d="M53.85 718.029L63 735.865l-6.542 7.255L62 753.362l-8.098 16.203-8.793 3.696 10.195-19.395L49 742.362l7.304-7.7-10.931-20.5z"/><path d="M57.378 681.217S53.395 675.763 54 672.8c.5-2.45 2.893-4.629 5.3-5.308 1.88-.531 4.23.081 5.7 1.37 1.746 1.53 2.515 4.178 2.5 6.5-.012 1.794-2 5-2 5s4.04-3.543 6.5-3.5c2.315.039 4.847 1.491 6 3.5 1.08 1.878.628 4.425 0 6.5-.522 1.725-1.327 3.827-3 4.5-2.942 1.181-9.285-2.062-9.285-2.062s2.7 5.947 1.586 8.663c-.773 1.882-2.966 3.477-5 3.5-3.005.034-6.309-2.242-7.5-5-.952-2.204 1.199-7.102 1.199-7.102s-5.08 2.303-7.5 1.5c-2.128-.706-4.364-2.762-4.5-5-.174-2.863 2.236-6.087 4.939-7.046 2.756-.979 8.439 2.4 8.439 2.4z" fill="#ff5" stroke="#55a" stroke-width="2" stroke-linecap="round" stroke-linejoin="round"/><path d="M53 684.862c3.287-2.164 6.718-3.99 9-8.5 2.26 4.678 4.905 6.667 7.5 9-2.606 1.277-5.214 2.62-8 8.5-1.961-3.261-3.217-6.735-8.5-9z" fill="none" stroke="#55a" stroke-width="2" stroke-linecap="round" stroke-linejoin="round"/><path d="M55.308 679.67l-7.954-3.338-1.616-7.208 6.97 2.561zM67 678.362l1.977-7.715 7.523-3.285-2.5 8.5zM66.768 689.723l1.232 7.14 8 4-1.5-8.5zM56.046 689.1l-8.347 3.266-1.605 7.7L54 696.858z" fill="#f55" stroke="#55a" stroke-width="2" stroke-linecap="round" stroke-linejoin="round"/><path d="M74.616 729.539c3.739-1.503 7.627-3.428 11.66-3.271 5.192.202 10.14 2.757 14.635 5.36 1.97 1.142 5.049 2.126 5.23 4.396.158 1.961-1.97 3.91-3.858 4.468-2.475.732-4.907-1.637-7.433-2.167-2.418-.508-9.344-1.123-7.35-.963 4.728.38 9.743 1.18 13.7 3.784 1.599 1.052 3.687 2.567 3.593 4.479-.085 1.71-1.933 3.254-3.594 3.67-3.34.837-6.44-2.64-9.851-3.103-1.602-.218-6.503.163-4.848.17 4.093.017 8.52.73 11.895 3.048 1.449.995 3.57 2.617 3.055 4.297-.63 2.051-3.9 1.989-6.028 2.253-4.8.597-10.592-1.908-14.422-1.598 4.774.189 6.956.218 10.024 1.652 1.661.776 4.391 1.77 4.169 3.59-.24 1.961-3.351 2.296-5.29 2.674-2.932.572-5.955-1-8.931-.741-2.393.208-4.686 1.089-6.972 1.825" fill="none" stroke="#55a" stroke-width="2" stroke-linecap="round" stroke-linejoin="round"/><path d="M94 726.862c-1.817-3.292-2.685-7.244-2.5-11 .155-3.158 2.207-5.939 3-9 .68-2.626 1.5-8 1.5-8s4.146 6.719 5 10.5c.698 3.089.54 6.38 0 9.5-.423 2.442-1.465 4.75-2.5 7-.561 1.221-2 3.5-2 3.5s-1.93-1.468-2.5-2.5z" fill="#ff5" stroke="#55a" stroke-width="2" stroke-linecap="round" stroke-linejoin="round"/><g stroke="#55a" stroke-width="2" stroke-linecap="round" stroke-linejoin="round"><path d="M122.75 716.362l13.5-5.75-5.25 15.25s.05-3.468-1.188-4.281c-1.072-.704-3.812.531-3.812.531s1.735-3.437.842-4.79c-.772-1.17-4.092-.96-4.092-.96z" fill="#55a"/><path d="M131.929 708.554c-.31-.063-.522-.66-.306-.89.21-.224.81-.062.9.231.086.282-.303.717-.594.659zM138.202 715.372c-.235-.184-.208-.69.03-.869.204-.152.62-.057.76.15.112.165.009.435-.137.574-.157.15-.48.28-.653.145z" fill="none"/></g><path d="M215.5 769.362l-45.5-42.75-16.639.097c-1.437 10.693-4.177 16.189-9.111 23.903l15.5 1.25 19.25 17.75" fill="#ff5" stroke="#55a" stroke-width="2" stroke-linecap="round" stroke-linejoin="round"/><path style="line-height:normal;-inkscape-font-specification:Sans;text-indent:0;text-align:start;text-decoration-line:none;text-transform:none;marker:none" d="M168.188 730.362l-14.563-.035-.41 3 14.441.066 37.844 36.313c.573.548 1.592.526 2.14-.047.549-.573.526-1.593-.046-2.14l-38.313-36.75a1.519 1.519 0 00-1.094-.407z" color="#000" font-weight="400" font-family="Sans" overflow="visible" fill="#000200"/><path d="M150.5 739.404l14-.042 31.5 29.5" fill="none" stroke="#55a" stroke-width="2" stroke-linecap="round" stroke-linejoin="round"/><path style="line-height:normal;-inkscape-font-specification:Sans;text-indent:0;text-align:start;text-decoration-line:none;text-transform:none;marker:none" d="M149.073 744.484l-1.664 2.77 13.716.327 22.344 21.594c.516.695 1.677.771 2.28.15.604-.622.493-1.78-.218-2.275l-22.75-22.032a1.517 1.517 0 00-1-.437z" color="#000" font-weight="400" font-family="Sans" overflow="visible" fill="#000200"/><path d="M121 769.612l139.5-.5" fill="none" stroke="#55a" stroke-width="2" stroke-linecap="round" stroke-linejoin="round"/><path style="line-height:normal;-inkscape-font-specification:Sans;text-indent:0;text-align:start;text-decoration-line:none;text-transform:none;marker:none" d="M294.737 678.124c-2.416 1.185-4.343 3.126-6.336 4.848-4.352 4.928-7.707 12.663-6.406 19.41.625 2.697 2.084 5.089 3.474 7.449.148 2.883.539 6.359-1.56 8.663-1.747 1.631-5.845-1.926-5.765 1.748 1.304 2.201 4.68 2.135 6.752 1.023 2.273-.411 3.442-4.79 3.624-4.872.988 4.447 1.654 8.996 1.605 13.563-.916 3.463-2.867 5.5-5.466 7.214-3.04 1.671-6.292-1.025-7.147-3.942.168-2.147-3.18-4.284-3.55-1.255.926 3.556 2.94 7.652 6.9 8.488 3.06.943 6.455-.659 8.17-3.255-1.33 3.432-2.96 7.615-.641 11.012 1.357 2.42 7.653 4.769 8.065.96-1.328-1.983-5.362-.334-6.068-3.582-.705-2.647.873-5.214 1.597-7.706 1.632-3.964 1.107-9.568.964-13.736-.494-6.039-1.611-11.03-5.07-16.139-.638-1.138-2.412-3.906-2.012-4.14 2.053 1.995 5.238 2.279 7.71.9 2.249-.827 6.014-5.55 2.454-6.694-2.117 1.29-3.013 5.557-6.507 4.337-2.606-1.239-5.95-3.48-4.246-6.66.897-2.973 2.713-10.791 10.179-14.487 1.246-1.023 1.292-3.212-.72-3.147z" color="#000" font-weight="400" font-family="Sans" overflow="visible" fill="#fff"/><g fill="#fff"><path d="M138.281 669.612c-5.465-.226-11.56 5.388-8.916 10.984 1.032 3.478 6.187 5.43 9.001 3.038.83-1.159-.594-2.82-1.866-2.178-7.061 1.563-5.127-9.36.883-8.72 5.544-1.03 7.758 5.097 8.936 9.306 1.909 5.203.773 10.96 2.81 16.165 1.58 7.912 5.666 15.883 13.277 19.456 4.97 3.028 10.898 2.347 16.2.744 5.561-.474 12.088-2.212 16.724 1.989 3.667 2.755 6.363 7.384 5.88 11.943-2.59 3.441-7.682 6.566-11.27 2.476-2.524-2.217.075-6.199-1.836-8.476-1.301-.917-2.854.677-2.408 2.076-.515 4.148.74 8.953 5.01 10.593 3.778 2.95 9.213-1.618 10.825-2.02.559 5.747 1.995 11.598 4.712 16.714 3.682 6.228 11.757 5.816 17.953 4.861 3.653-2.123 12.716-2.963 12.92 2.609-1.162 3.662-4.46 1.625-6.938 1.49-1.64.538-1.052 2.976.57 3.068 5.504 3.864 13.104-4.868 7.767-9.299-2.954-3.206-10.628-2.19-11.801-2.52 3.51-4.935.01-12.116-5.751-13.084-3.002-.75-6.93 1.029-8.348 3.732-.207 1.758 2.221 2.184 3.08.837 4.246-4.821 12.318 1.972 8.476 7-2.17 3.765-6.552 4.244-10.38 3.265-6.38-1.459-6.917-9.086-8.603-14.236-1.545-6.58.49-14.336-4.44-19.842-3.724-5.105-10.185-8.074-16.48-6.804-2.525-.042-8.143 1.955-4.402-1.864 3.009-5.15 1.698-13.217-4.564-15.237-2.404-.537-4.604-2.077-6.94-2.29-4.004-2.293-11.29-1.25-11.867-7.31-1.02-2.846 2.498-4.205 2.455-6.633-.535-1.814-3.117-1.074-3.587.464-3.927 4.68-1.4 13.095 4.887 14.078 2.289.715 6.26.879 2.375 2.813-3.132 2.547-1.648 8.557 1.913 9.908 1.768.142 2.124-2.48.525-3.041-4.136-6.013 5.832-8.699 9.685-4.915 5.082 2.197 4.2 9.37 1.064 12.891-1.886 4.545-7.778 3.416-11.304 1.696-7.246-3.048-10.988-10.561-12.489-17.884-2.058-5.818-.732-12.222-3.292-17.927-1.284-4.942-4.729-10.163-10.446-9.916z" style="line-height:normal;-inkscape-font-specification:Sans;text-indent:0;text-align:start;text-decoration-line:none;text-transform:none;marker:none" color="#000" font-weight="400" font-family="Sans" overflow="visible"/><path d="M143.51 688.994c0 1.105-1.007 2-2.25 2s-2.25-.895-2.25-2c0-1.104 1.007-2 2.25-2s2.25.896 2.25 2zM189.054 708.48c0 1.104-1.007 2-2.25 2s-2.25-.896-2.25-2c0-1.105 1.007-2 2.25-2s2.25.895 2.25 2zM182.06 725.674c0 1.105-1.008 2-2.25 2-1.243 0-2.25-.895-2.25-2s1.007-2 2.25-2c1.242 0 2.25.895 2.25 2zM214.117 733.542c0 1.105-1.008 2-2.25 2-1.243 0-2.25-.895-2.25-2 0-1.104 1.007-2 2.25-2 1.242 0 2.25.896 2.25 2z"/></g><path d="M175.355 668.606s.55 3.603.138 5.333c-.496 2.083-1.756 3.944-3.04 5.657-.589.787-2.121 1.088-2.1 2.071.034 1.558 1.913 3.206 3.47 3.134 1.759-.082 2.912-2.26 3.576-3.89.854-2.1.6-4.568.198-6.799-.353-1.95-2.242-5.506-2.242-5.506zM180.752 673.072s1.025 2.322 1 3.566c-.032 1.497-.686 2.99-1.382 4.39-.32.642-1.444 1.137-1.263 1.795.287 1.043 2.003 1.795 3.183 1.45 1.335-.39 1.854-2.077 2.089-3.303.303-1.577-.304-3.19-.987-4.617-.597-1.246-2.64-3.281-2.64-3.281zM185.637 677.92s1.025 2.322.999 3.566c-.03 1.497-.685 2.991-1.381 4.39-.32.642-1.444 1.137-1.263 1.795.287 1.043 2.003 1.795 3.183 1.45 1.335-.39 1.854-2.077 2.089-3.302.302-1.578-.305-3.191-.987-4.617-.597-1.247-2.64-3.282-2.64-3.282zM161.158 658.983s.371 1.756.093 2.598c-.334 1.015-1.185 1.922-2.05 2.757-.398.383-1.432.53-1.418 1.009.023.759 1.29 1.562 2.341 1.526 1.187-.04 1.965-1.1 2.413-1.895.576-1.023.406-2.225.134-3.312-.238-.95-1.513-2.683-1.513-2.683zM164.831 659.223s1.024 2.322.999 3.566c-.031 1.497-.685 2.991-1.381 4.39-.32.642-1.444 1.137-1.263 1.795.287 1.043 2.002 1.795 3.183 1.45 1.335-.39 1.854-2.077 2.089-3.302.302-1.578-.305-3.191-.987-4.617-.597-1.247-2.64-3.282-2.64-3.282zM169.716 664.071s1.024 2.323.999 3.566c-.031 1.497-.685 2.991-1.382 4.39-.32.643-1.443 1.137-1.262 1.795.287 1.043 2.002 1.795 3.183 1.45 1.335-.39 1.853-2.076 2.088-3.302.303-1.577-.304-3.191-.987-4.617-.596-1.246-2.64-3.282-2.64-3.282zM191.636 683.463s.55 3.733.138 5.525c-.495 2.157-1.756 4.085-3.04 5.86-.589.816-2.121 1.128-2.1 2.146.034 1.614 1.913 3.321 3.47 3.246 1.76-.084 2.912-2.34 3.576-4.03.854-2.176.6-4.732.198-7.043-.352-2.02-2.242-5.704-2.242-5.704zM197.034 687.928s1.024 2.323.998 3.566c-.03 1.498-.685 2.992-1.38 4.39-.32.643-1.444 1.137-1.263 1.795.287 1.043 2.002 1.796 3.183 1.45 1.334-.39 1.853-2.076 2.088-3.302.303-1.577-.304-3.19-.987-4.617-.596-1.246-2.64-3.282-2.64-3.282zM201.918 692.777s1.025 2.322 1 3.566c-.032 1.497-.686 2.99-1.382 4.39-.32.642-1.444 1.137-1.263 1.795.287 1.043 2.003 1.795 3.183 1.45 1.335-.39 1.854-2.077 2.089-3.303.303-1.577-.304-3.19-.987-4.616-.597-1.247-2.64-3.282-2.64-3.282zM207.52 697.597s.548 3.603.137 5.333c-.496 2.082-1.756 3.944-3.04 5.657-.589.787-2.121 1.088-2.1 2.071.034 1.558 1.913 3.206 3.47 3.134 1.759-.082 2.912-2.26 3.576-3.891.853-2.1.6-4.567.198-6.798-.353-1.95-2.242-5.506-2.242-5.506zM211.75 701.917s1.025 2.322 1 3.566c-.031 1.497-.686 2.991-1.382 4.39-.32.642-1.443 1.137-1.262 1.795.287 1.043 2.002 1.795 3.183 1.45 1.334-.39 1.853-2.077 2.088-3.303.303-1.577-.304-3.19-.987-4.616-.596-1.247-2.64-3.282-2.64-3.282z" fill="#ff5"/><path d="M216.053 705.89s1.024 2.323.998 3.567c-.03 1.497-.685 2.991-1.38 4.39-.32.642-1.444 1.137-1.263 1.795.287 1.043 2.002 1.795 3.183 1.45 1.334-.39 1.853-2.077 2.088-3.303.303-1.577-.304-3.19-.987-4.616-.596-1.247-2.64-3.282-2.64-3.282zM221.508 711.003s.549 3.603.137 5.332c-.495 2.083-1.756 3.944-3.04 5.658-.588.787-2.12 1.088-2.1 2.07.035 1.558 1.913 3.207 3.47 3.134 1.76-.081 2.912-2.259 3.576-3.89.854-2.1.601-4.567.198-6.798-.352-1.95-2.241-5.506-2.241-5.506zM226.03 715.177s1.025 2.322 1 3.566c-.032 1.497-.686 2.99-1.382 4.39-.32.642-1.444 1.137-1.263 1.795.287 1.043 2.003 1.795 3.183 1.45 1.335-.39 1.854-2.077 2.09-3.303.302-1.577-.305-3.19-.988-4.616-.596-1.247-2.64-3.282-2.64-3.282zM230.77 719.588s1.024 2.322.998 3.566c-.03 1.497-.685 2.991-1.38 4.39-.32.642-1.444 1.137-1.263 1.795.287 1.043 2.002 1.795 3.183 1.45 1.334-.39 1.853-2.077 2.088-3.303.303-1.577-.304-3.19-.987-4.616-.596-1.247-2.64-3.282-2.64-3.282zM236.662 723.388s.549 3.603.137 5.333c-.495 2.083-1.756 3.944-3.039 5.657-.59.787-2.122 1.088-2.1 2.071.034 1.558 1.912 3.206 3.469 3.134 1.76-.082 2.913-2.259 3.576-3.89.854-2.1.601-4.568.198-6.799-.352-1.95-2.241-5.506-2.241-5.506zM241.039 727.708s1.024 2.322.999 3.566c-.031 1.497-.685 2.991-1.382 4.39-.32.642-1.443 1.137-1.262 1.795.287 1.043 2.002 1.795 3.183 1.45 1.335-.39 1.853-2.077 2.088-3.302.303-1.578-.304-3.191-.986-4.617-.597-1.247-2.64-3.282-2.64-3.282zM262.346 703.55s.59 3.343 1.546 4.68c1.34 1.877 3.76 2.683 5.513 4.182.432.37 1.102.63 1.23 1.184.213.92-.178 2.152-.974 2.66-1.121.716-2.853.379-3.978-.333-1.915-1.212-2.836-3.69-3.413-5.882-.55-2.093.076-6.492.076-6.492zM260.398 710.427s.84 1.493 1.274 2.231c.658 1.12 1.194 2.329 2.017 3.334.638.78 2.291 1.038 2.225 2.043-.076 1.164-1.639 2.132-2.863 2.009-1.383-.14-2.13-1.673-2.658-2.864-.61-1.376-.45-2.996-.386-4.5.033-.762.39-2.253.39-2.253z" fill="#ff5"/><path d="M258.545 715.398s.522 2.36 1.112 3.392a11.69 11.69 0 003.015 3.42c.58.446 1.81.313 1.965.977.245 1.054-.905 2.533-2.107 2.792-1.36.292-2.62-.943-3.41-1.909-1.018-1.242-1.253-2.95-1.332-4.529-.07-1.38.757-4.143.757-4.143zM257.387 722.62s.59 3.343 1.545 4.68c1.341 1.877 3.76 2.683 5.513 4.182.433.37 1.103.63 1.23 1.184.213.92-.177 2.151-.973 2.66-1.122.715-2.854.379-3.978-.333-1.916-1.212-2.837-3.69-3.413-5.882-.55-2.093.076-6.492.076-6.492zM265.6 693.615s.635 1.424.972 2.127c.354.738.654 1.51 1.103 2.195.71 1.083 2.641 1.699 2.488 2.985-.106.88-1.254 1.666-2.136 1.582-1.192-.113-1.949-1.546-2.431-2.647-.558-1.272-.413-2.77-.353-4.16.03-.704.357-2.082.357-2.082zM264.54 699.752s.439 1.81.936 2.601c.635 1.012 1.522 1.913 2.536 2.623.488.342 1.524.24 1.653.75.206.807-.761 1.941-1.773 2.14-1.143.224-2.203-.723-2.868-1.464-.856-.953-1.054-2.262-1.12-3.473-.06-1.058.636-3.177.636-3.177zM267.449 687.787s.54 3.08 1.416 4.313c1.23 1.729 3.447 2.471 5.054 3.853.396.34 1.01.58 1.128 1.09.194.848-.164 1.983-.893 2.451-1.028.66-2.616.35-3.647-.306-1.755-1.117-2.6-3.4-3.128-5.42-.504-1.929.07-5.981.07-5.981zM270.522 677.852s.795 1.365 1.165 2.063c.467.878.729 1.878 1.33 2.67.692.911 2.618 1.157 2.55 2.3-.062 1.068-1.499 1.97-2.618 1.857-1.266-.129-1.95-1.546-2.432-2.647-.557-1.273-.412-2.77-.353-4.16.03-.704.358-2.083.358-2.083zM269.256 683.68s.438 1.81.936 2.602c.634 1.011 1.522 1.913 2.536 2.622.488.342 1.523.24 1.653.75.206.807-.761 1.941-1.773 2.14-1.144.224-2.204-.723-2.869-1.463-.856-.953-1.053-2.263-1.12-3.474-.059-1.058.637-3.177.637-3.177zM271.582 669.702s.59 3.344 1.545 4.68c1.341 1.878 3.76 2.683 5.514 4.182.432.37 1.102.63 1.23 1.185.212.92-.178 2.151-.974 2.66-1.122.715-2.854.378-3.978-.333-1.916-1.213-2.837-3.69-3.413-5.883-.55-2.093.076-6.491.076-6.491zM274.927 662.412s.939.498 1.348.831c.592.483 1.029 1.13 1.57 1.668.658.652 2.031.963 2.037 1.889.004.722-.848 1.487-1.57 1.492-1.188.008-2.023-1.39-2.614-2.419-.305-.53-.266-1.193-.399-1.789l-.372-1.672zM273.776 665.904s.438 1.81.936 2.602c.634 1.011 1.522 1.913 2.536 2.623.488.341 1.523.239 1.653.749.206.808-.761 1.941-1.773 2.14-1.144.225-2.204-.723-2.869-1.463-.856-.953-1.053-2.263-1.12-3.474-.059-1.058.637-3.177.637-3.177z" fill="#ff5"/><path style="line-height:normal;-inkscape-font-specification:Sans;text-indent:0;text-align:start;text-decoration-line:none;text-transform:none;marker:none" d="M253.75 734.862c-3.643.025-6.29 2.834-7.906 6.063-1.616 3.228-2.398 7.073-2.344 10.218.053 3.107.953 6.842 2.656 9.97 1.704 3.126 4.402 5.82 8 5.75 3.58-.071 6.129-2.862 7.688-6.032 1.559-3.17 2.31-6.897 2.281-9.969-.03-3.104-.864-6.884-2.5-10.062-1.636-3.179-4.257-5.963-7.875-5.938zm0 3c2.049-.014 3.847 1.617 5.219 4.281 1.371 2.665 2.132 6.157 2.156 8.72.024 2.53-.665 6.004-1.969 8.655-1.304 2.652-3.04 4.304-5.062 4.344-2.041.04-3.857-1.572-5.281-4.187-1.425-2.616-2.27-6.061-2.313-8.594-.044-2.57.677-6.105 2.031-8.813 1.355-2.707 3.145-4.391 5.219-4.406z" color="#000" font-weight="400" font-family="Sans" overflow="visible" fill="#ff5"/><path d="M252.5 751.362s-2.479-1.943-3.75-1.5c-.634.221-1.09 1.084-1 1.75.117.876.994 1.81 1.875 1.875 1.188.089 2.875-2.125 2.875-2.125zM255.125 751.112s1.072-2.206 2.125-2.5c.888-.248 2.337 0 2.625.875.27.824-.702 1.786-1.5 2.125-1.009.429-3.25-.5-3.25-.5zM253.25 748.737s-3.373-2.139-3.5-3.875c-.11-1.498 1.01-3.556 2.5-3.75 1.434-.186 2.96 1.458 3.25 2.875.352 1.717-2.25 4.75-2.25 4.75zM253.5 753.737s-2.079 3.307-1.625 5c.29 1.083 1.38 2.314 2.5 2.25 1.444-.082 2.896-1.804 2.875-3.25-.026-1.827-3.75-4-3.75-4z" fill="#ff5"/><g stroke="#55a" stroke-width="2.018" stroke-linecap="round" stroke-linejoin="round"><path transform="matrix(.99983 0 0 .98208 -5.007 541.786)" d="M121.986 205.245l14.264-6.995-6.473 15.25s1.076-3.325.035-4.281c-1.177-1.083-4.73.531-4.73.531s1.537-3.053.69-4.168c-.775-1.02-3.786-.337-3.786-.337z" fill="#55a"/><path d="M131.929 708.554c-.31-.063-.522-.66-.306-.89.21-.224.81-.062.9.231.086.282-.303.717-.594.659zM138.202 715.372c-.235-.184-.208-.69.03-.869.204-.152.62-.057.76.15.112.165.009.435-.137.574-.157.15-.48.28-.653.145z" fill="none" transform="matrix(.99983 0 0 .98208 -5.007 38.605)"/></g><g stroke="#55a" stroke-width="2" stroke-linecap="round" stroke-linejoin="round"><path d="M107.644 729.22l13.5-5.75-5.25 15.25s.05-3.47-1.187-4.282c-1.073-.704-3.813.531-3.813.531s1.735-3.436.842-4.79c-.771-1.17-4.092-.96-4.092-.96z" fill="#55a"/><path d="M116.823 721.411c-.31-.062-.522-.66-.306-.89.21-.224.81-.062.9.232.086.281-.303.717-.594.658zM123.096 728.229c-.235-.184-.208-.69.03-.868.204-.152.62-.058.76.149.112.165.009.435-.137.574-.157.151-.48.28-.653.145z" fill="none"/></g><g stroke="#55a" stroke-width="2.339" stroke-linecap="round" stroke-linejoin="round"><path transform="matrix(.78618 0 0 .93017 -.436 574.018)" d="M119.095 206.333l17.155-8.083L131 213.5s.363-3.624-1.188-4.281c-1.917-.813-5.9 2.17-5.9 2.17s3.03-3.75 1.736-5.168c-1.334-1.462-6.553.112-6.553.112z" fill="#55a"/><path d="M132.973 708.68c-.31-.062-.522-.66-.306-.89.211-.224.81-.062.9.231.086.282-.303.717-.594.659zM139.47 714.93c-.235-.184-.208-.689.03-.868.204-.152.62-.058.76.15.112.164.009.434-.137.574-.157.15-.48.28-.653.144z" fill="none" transform="matrix(.78618 0 0 .93017 -.436 97.434)"/></g><g stroke="#55a" stroke-width="2" stroke-linecap="round" stroke-linejoin="round"><path d="M56.732 777.656l13.5-5.75-5.25 15.25s.051-3.468-1.187-4.28c-1.073-.705-3.813.53-3.813.53s1.735-3.437.842-4.79c-.771-1.17-4.092-.96-4.092-.96z" fill="#55a"/><path d="M65.911 769.848c-.31-.062-.521-.66-.306-.89.211-.224.81-.062.9.232.086.28-.302.716-.594.658zM72.185 776.666c-.235-.184-.209-.69.03-.869.203-.152.62-.057.76.15.111.165.008.435-.137.574-.158.151-.48.28-.653.145z" fill="none"/></g><g stroke="#55a" stroke-width="2" stroke-linecap="round" stroke-linejoin="round"><path d="M72.289 788.793l13.5-5.75-5.25 15.25s.05-3.468-1.188-4.281c-1.072-.704-3.812.531-3.812.531s1.735-3.437.842-4.79c-.772-1.17-4.092-.96-4.092-.96z" fill="#55a"/><path d="M81.467 780.985c-.31-.063-.521-.66-.305-.89.21-.224.81-.062.9.231.086.282-.303.717-.595.659zM87.741 787.803c-.235-.184-.209-.69.03-.869.204-.152.62-.057.76.15.111.165.009.435-.137.574-.158.151-.48.28-.653.145z" fill="none"/></g></g><path d="M60 542.362h270v360M30 662.362v360h270" fill="none" stroke="#55a" stroke-width="2"/><path d="M95 613.362c1 4 5 14 12 14 9 0 13-8 13-18 0-7-2.579-11.612-5-17-2.578-5.737-6.38-10.857-10-16-4.645-6.598-15-19-15-19s-10.355 12.402-15 19c-3.62 5.143-7.422 10.263-10 16-2.421 5.388-5 10-5 17 0 10 4 18 13 18 7 0 11-10 12-14 1-1 1 0 1 1-1 8-1 10-2 16s-4 17-4 17c5-2 15-2 20 0 0 0-3-11-4-17s-1-8-2-16c0-1 0-2 1-1zM32.5 630.362c.5 2 2.5 7 6 7 4.5 0 6.5-4 6.5-9 0-3.5-1.29-5.806-2.5-8.5-1.289-2.868-3.19-5.429-5-8-2.323-3.299-7.5-9.5-7.5-9.5s-5.177 6.201-7.5 9.5c-1.81 2.571-3.711 5.132-5 8-1.21 2.694-2.5 5-2.5 8.5 0 5 2 9 6.5 9 3.5 0 5.5-5 6-7 .5-.5.5 0 .5.5-.5 4-.5 5-1 8s-2 8.5-2 8.5c2.5-1 7.5-1 10 0 0 0-1.5-5.5-2-8.5s-.5-4-1-8c0-.5 0-1 .5-.5zM265 951.362c-1-4-5-14-12-14-9 0-13 8-13 18 0 7 2.579 11.612 5 17 2.578 5.737 6.38 10.858 10 16 4.645 6.598 15 19 15 19s10.355-12.402 15-19c3.62-5.142 7.422-10.263 10-16 2.421-5.388 5-10 5-17 0-10-4-18-13-18-7 0-11 10-12 14-1 1-1 0-1-1 1-8 1-10 2-16s4-17 4-17c-5 2-15 2-20 0 0 0 3 11 4 17s1 8 2 16c0 1 0 2-1 1zM327.5 934.362c-.5-2-2.5-7-6-7-4.5 0-6.5 4-6.5 9 0 3.5 1.29 5.806 2.5 8.5 1.289 2.869 3.19 5.429 5 8 2.323 3.3 7.5 9.5 7.5 9.5s5.177-6.2 7.5-9.5c1.81-2.571 3.711-5.131 5-8 1.21-2.694 2.5-5 2.5-8.5 0-5-2-9-6.5-9-3.5 0-5.5 5-6 7-.5.5-.5 0-.5-.5.5-4 .5-5 1-8s2-8.5 2-8.5c-2.5 1-7.5 1-10 0 0 0 1.5 5.5 2 8.5s.5 4 1 8c0 .5 0 1-.5.5z"/></g></svg>