<svg xmlns="http://www.w3.org/2000/svg" width="360" height="540"><g transform="translate(0 -512.362)"><rect rx="29.944" ry="29.944" y="512.862" x=".5" height="539" width="359" fill="#fff" stroke="#000"/><path d="M144.438 707.83l-5.844 3-3.375 3.72-5.469-3.375-6-1.063-5.5 3.375-4.406 6.188 5.844 6.718 6.718 9.188 5.813 10.25 5.5 11.125 4.594 13.094 3 14.312 1.062.031 2.188 14.532s1.25 15.55 1.25 14.843c0-.707 1.78 13.094 1.78 13.094l4.407 8.656 7.438 6.344 8.656 1.063 6.531 5.843 7.438 4.594 7.937-.719 7.438-3 6.187 4.594 7.938 2.656 5.843-3 3.375-3.718 5.469 3.375 6 1.062 5.5-3.375 4.406-6.187-5.844-6.72-6.718-9.187-5.813-10.25-5.5-11.125-4.594-13.093-3-14.313-1.062-.031-2.188-14.531s-1.25-15.551-1.25-14.844c0 .707-1.78-13.094-1.78-13.094L204 729.206l-7.438-6.344-8.656-1.062-6.531-5.844-7.438-4.594-7.937.719-7.438 3-6.187-4.594z"/><path d="M144.78 582.49c-2.298 5.126-4.122 10.493-6.894 15.38-1.775 3.127-4.323 5.763-6.187 8.838-1.722 2.84-3.465 5.717-4.597 8.839-.843 2.325-1.642 4.775-1.59 7.248.047 2.315 1.178 4.478 1.767 6.717l-4.95 7.425c-2.533.295-5.332-.281-7.6.884-2.339 1.2-4.357 3.382-5.304 5.833-.956 2.474-.86 5.447 0 7.955.872 2.542 2.722 4.86 4.95 6.364 2.132 1.441 4.864 2.383 7.424 2.122 2.91-.297 5.442-2.306 7.778-4.066 2.73-2.057 4.714-4.95 7.071-7.425.707 2.004.918 4.26 2.122 6.01 1.184 1.723 2.836 3.282 4.773 4.066 1.696.688 3.668.613 5.48.354 2.048-.293 4.043-1.083 5.833-2.121.868-.504 1.35-1.617 2.298-1.945 4.515-1.56 9.546.354 14.32.53l6.363-16.263-1.767-3.535c2.298.353 4.592 1.391 6.894 1.06 2.061-.296 4.223-1.14 5.657-2.651 1.4-1.477 2.029-3.64 2.298-5.657a11.849 11.849 0 00-.707-5.834c-.807-2.038-2.11-4.024-3.89-5.303-1.104-.794-2.592-.825-3.888-1.238.648-2.475 1.12-5.002 1.944-7.424.927-2.725 2.155-5.34 3.359-7.955.937-2.035 2.087-3.967 3.005-6.01 1.3-2.895 2.592-5.81 3.536-8.84.79-2.538 1.206-5.179 1.767-7.778.496-2.293.943-4.596 1.415-6.894-3.89.118-7.792.014-11.668.354-3.262.285-6.484.927-9.722 1.414-3.42.514-6.863.905-10.253 1.59-3.096.627-6.203 1.281-9.193 2.299-2.373.808-4.638 1.911-6.894 3.005-1.684.817-3.3 1.768-4.95 2.652z" fill="#ff5"/><path d="M125.043 658.718s3.661-1.456 5.228-2.614c1.693-1.252 4.357-4.575 4.357-4.575l.218 61.868s-3.787-2.352-5.882-3.05c-1.257-.42-3.921-.654-3.921-.654z"/><path d="M134.192 683.334l78.206-.436-25.27 39.648s-8.972-8.855-14.813-10.239c-4.567-1.081-13.942 1.961-13.942 1.961s-8.446-5.996-13.289-5.882c-4.058.095-10.892 5.446-10.892 5.446" fill="#f55"/><path d="M227 661.612l-39 60.5s4.07-.28 6 .25c1.187.326 3.25 1.75 3.25 1.75l41.75-64.75-3.5-2-3.25 2.25z"/><path d="M135 682.362h78l12.785-19.581-90.785-.419z" fill="#ff5" stroke="#55a" stroke-width="2" stroke-linecap="round" stroke-linejoin="round"/><path d="M218.375 801.612l10.75 6.875 7.375 6.5 6.5 8.25 5 8.875 3.375 8.5.625 6.875-.5 6.625-8.75-10.75-5.5-6.75-5.25-7.625-4.375-7-4.75-8.125-3.5-7.5z" fill="#55a"/><path d="M213.868 743.664c7 1.333 11.439 2.579 16.882 4.698 9.238 3.597 18.256 7.995 26.5 13.5 6.833 4.563 13.12 10.015 18.75 16 6.931 7.37 13.316 15.418 18.25 24.25 3.811 6.823 6.525 14.28 8.56 21.826 2.1 7.79 3.169 15.872 3.69 23.924.452 6.988.23 14.036-.5 21-.425 4.048-1.46 8.008-2.25 12-.793 4.008-1.667 8-2.5 12 0 0 9.299 4.01 14.12 5.528 4.785 1.507 14.63 3.535 14.63 3.535V743.71l-82.513-51.972z" fill="#55a" stroke="#55a" stroke-width="2" stroke-linecap="round" stroke-linejoin="round"/><path d="M296.908 881.404c1.298-6.382 2.78-12.787 3.092-19.292.444-9.258-.076-18.634-1.75-27.75-1.323-7.207-3.565-14.285-6.5-21a115.907 115.907 0 00-13-22.5c-4.07-5.496-8.866-10.48-14-15-6.319-5.562-13.258-10.459-20.5-14.75-3.656-2.166-7.546-3.943-11.5-5.5-4.145-1.632-8.443-2.863-12.75-4-3.387-.894-7.022-1.837-10.272-2.212l2.064 18.665 11.448 3.604 17.808 7.42 19.293 17.384 11.872 16.96 6.784 17.385 3.18 20.776-1.272 13.78-2.756 13.993c6.784 5.304 11.024 7.606 16.536 11.024 0 0 1.608-5.963 2.223-8.987z" fill="#55a" stroke="#55a" stroke-width="2" stroke-linecap="round" stroke-linejoin="round"/><path d="M120 542.362l25 40s6.475-3.79 10-5c8.038-2.758 16.543-4.162 25-5 9.951-.985 20.034-.825 30 0 10.103.836 30 5 30 5l25-35z" fill="#f55" stroke="#55a" stroke-width="2" stroke-linecap="round" stroke-linejoin="round"/><path d="M239.478 577.394s3.14 9.29 2.353 13.935c-.45 2.652-3.22 4.465-3.89 7.07a6.358 6.358 0 000 3.183c1.77 6.578 8.079 11.222 10.253 17.677.304.9.701 1.944.354 2.829-1.405 3.582-7.214 3.937-8.839 7.424-1.045 2.244.783 5.077 0 7.425-.372 1.118-1.86 1.68-2.121 2.828-.399 1.758 1.276 3.514 1.06 5.304-.232 1.937-1.989 3.414-2.474 5.303-.441 1.716.543 3.775-.354 5.303-1.422 2.425-4.45 3.578-7.071 4.596-3.34 1.3-7.022 1.761-10.607 1.768-5.134.01-10.362-.761-15.202-2.475-4.479-1.585-8.453-4.389-12.375-7.07-2.481-1.698-4.959-3.478-7.01-5.676-3.005-3.222-7.584-10.827-7.584-10.827" fill="none" stroke="#55a" stroke-width="2" stroke-linecap="round" stroke-linejoin="round"/><path d="M234.53 588.12s-4.335-3.63-6.994-4.196c-3.777-.804-7.811.26-11.501 1.399-3.122.964-5.825 2.962-8.704 4.507-1.41.757-4.196 2.331-4.196 2.331s5.201-2.871 7.926-4.04c2.575-1.106 5.165-2.325 7.927-2.798 2.655-.455 5.431-.48 8.082 0 2.613.474 7.46 2.797 7.46 2.797zM227.07 591.695s-3.418-.82-5.13-.622c-2.246.26-4.378 1.263-6.371 2.332-1.927 1.033-3.649 2.435-5.285 3.885-1.755 1.556-4.818 5.13-4.818 5.13M230.489 593.56s-2 1.22-3.108 1.554c-2.05.617-4.278.339-6.373.777a27.506 27.506 0 00-4.662 1.4c-1.676.676-3.237 1.611-4.818 2.486-1.159.64-2.225 1.45-3.42 2.02-.798.382-2.486.933-2.486.933M228.624 603.507s-2.48 3.207-3.886 4.663c-.917.95-1.904 1.84-2.953 2.642-.981.75-3.108 2.02-3.108 2.02M228.469 618.117s-1.969 2.92-1.71 4.507c.237 1.453 1.467 2.788 2.797 3.42 1.311.62 2.937.316 4.352 0 .95-.213 1.8-.756 2.642-1.244 1.095-.635 1.889-1.843 3.109-2.176.651-.178 1.85-.498 2.02.155.236.904-1.498 1.133-2.331 1.554-1.082.548-2.25.921-3.42 1.244-1.321.365-2.669.802-4.04.777-1.382-.025-3.049.03-4.041-.933-.73-.708-.805-1.935-.777-2.953.04-1.523 1.398-4.351 1.398-4.351zM214.48 630.24s-2.18-2.214-3.574-2.176c-1.192.031-2.253 1.054-2.953 2.02-.76 1.049-1.23 2.443-1.088 3.73.13 1.176.793 2.362 1.71 3.109 1.64 1.334 3.956 2.062 6.061 1.865 2.1-.197 3.775-1.889 5.595-2.953 1.65-.965 3.158-2.162 4.818-3.109 1.409-.803 2.75-1.926 4.352-2.176 1.658-.258 3.692-.306 4.973.777.376.318.783 1.023.467 1.4-.91 1.082-2.784-.692-4.197-.623-1.706.084-3.39.602-4.973 1.244-2.108.854-3.842 2.463-5.906 3.42-2.096.97-4.223 2.5-6.528 2.33-1.756-.129-3.465-1.195-4.662-2.486-.962-1.038-1.732-2.471-1.71-3.886.02-1.32.67-2.76 1.71-3.575.999-.783 2.5-1.093 3.73-.777.925.238 2.176 1.865 2.176 1.865zM236.55 637.233c-1.498.28-3.003.525-4.507.777-2.226.374-4.59.244-6.683 1.088-.76.307-2.02 1.4-2.02 1.4s2.523-1.199 3.885-1.4c1.95-.287 3.935.325 5.906.311 1.558-.01 4.663-.31 4.663-.31l1.865-2.487s-2.07.428-3.109.621z" fill="none" stroke="#55a" stroke-width="2" stroke-linecap="round" stroke-linejoin="round"/><path d="M223.961 596.047c1.159 0 2.402.636 3.109 1.554.935 1.216 1.507 3.085.932 4.507-.517 1.28-2.043 2.239-3.419 2.332-1.734.117-3.69-.891-4.663-2.332-.726-1.077-.949-2.754-.31-3.885.796-1.413 2.73-2.176 4.351-2.176z" fill="none" stroke="#55a" stroke-width="2" stroke-linecap="round" stroke-linejoin="round"/><path d="M208.42 601.953s3.664-.219 5.439.155c1.478.312 2.73 1.346 4.196 1.71 2.022.502 6.217.622 6.217.622" fill="none" stroke="#55a" stroke-width="2" stroke-linecap="round" stroke-linejoin="round"/><path d="M224.738 598.223c-.955-.026-1.844 1.22-1.865 2.176-.02.922.788 2.19 1.71 2.176.964-.016 1.72-1.368 1.71-2.332-.01-.85-.705-1.998-1.555-2.02zM134.445 542.362l14.505 28.533c6.488-2.253 12.085-3.34 20.356-4.267l-3.9-24.266h-5.73l5.12 20.732c-4.75.332-9.186 1.293-13.286 2.925l-10.483-23.657zM174.303 542.362l3.048 23.291c10.076-.936 18.152-1.485 28.229-.487l5.485-22.804h-6.46l-3.048 17.806c-7.916-.472-12.561.009-19.209.488l-2.225-18.294zM220.866 542.362l-7.314 23.047c7.355.612 14.06 1.018 22.062 2.926l15.724-25.973H245l-12.067 21.341c-4.47-1.219-8.33-1.575-12.799-2.194l6.217-19.147z" fill="#55a" stroke="#55a" stroke-width="2" stroke-linecap="round" stroke-linejoin="round"/><path d="M144.971 582.629s-4.623 10.62-7.412 15.686c-3.053 5.544-7.918 10.118-10.17 16.031-1.265 3.32-2.35 7.02-1.725 10.516.513 2.862 2.063 5.738 4.31 7.584 1.825 1.5 4.36 2.233 6.723 2.241 2.598.01 5.613-.538 7.412-2.413 1.917-1.998 2.419-5.235 2.24-7.998-.18-2.78-1.191-5.84-3.274-7.689-1.074-.953-2.702-1.255-4.137-1.206-1.835.062-3.893.579-5.172 1.896-1.518 1.564-2.208 4.03-2.068 6.206.118 1.846.897 3.938 2.413 4.999 1.42.992 3.597 1.24 5.171.517 1.275-.585 2.235-2.057 2.413-3.448.158-1.24-.444-2.614-1.31-3.516-.579-.601-2.31-.966-2.31-.966" fill="none" stroke="#55a" stroke-width="2" stroke-linecap="round" stroke-linejoin="round"/><path d="M164.01 575.389s-4.428 14.135-7.412 20.898c-2.217 5.024-6.002 9.33-7.757 14.533-1.495 4.435-3.181 9.275-2.24 13.86.56 2.734 2.369 5.351 4.481 7.071 1.886 1.536 4.36 2.41 6.723 2.419 2.598.01 5.536-.778 7.412-2.605 2.192-2.134 3.445-5.519 3.275-8.573-.174-3.13-1.911-6.34-4.31-8.36-1.105-.932-2.7-1.355-4.136-1.303-1.835.067-3.893.625-5.172 2.047-1.518 1.689-2.208 4.35-2.068 6.699.118 1.993.918 4.113 2.413 5.396 1.357 1.164 3.453 1.912 5.172 1.42 1.547-.443 2.923-1.978 3.275-3.549.377-1.685-.444-4.146-1.552-4.942-2.973-2.136-4.31.794-4.31.794" fill="none" stroke="#55a" stroke-width="2" stroke-linecap="round" stroke-linejoin="round"/><path d="M183.63 572.458s-1.652 12.008-6.378 22.794c-2.257 5.15-5.443 9.964-6.896 15.396-1.318 4.932-2.512 10.224-1.551 15.239.585 3.055 1.967 6.23 4.31 8.277 1.793 1.567 4.344 2.296 6.722 2.42 2.66.137 5.784-.127 7.757-1.916 2.426-2.2 3.55-6 3.276-9.263-.268-3.178-2.183-6.345-4.655-8.36-1.12-.913-2.692-1.354-4.137-1.302-1.852.066-3.912.686-5.171 2.046-1.587 1.716-2.21 4.367-2.069 6.7.12 1.966.918 4.112 2.414 5.396 1.356 1.164 3.452 1.912 5.171 1.42 1.548-.443 2.923-1.979 3.275-3.55.378-1.684-.444-4.146-1.551-4.941-2.973-2.136-4.31.793-4.31.793M151.177 579.87c-1.15 3.62-1.933 7.378-3.448 10.86-1.867 4.295-4.436 8.255-6.895 12.24-1.674 2.712-3.825 5.127-5.344 7.929-1.546 2.852-2.815 6.033-3.792 8.964M157.555 577.716c-.968 3.387-1.628 6.902-2.904 10.16-1.572 4.018-3.696 7.728-5.806 11.452-1.604 2.83-3.796 5.323-5.199 8.258-1.17 2.45-1.817 4.967-2.64 7.709M169.966 573.837c-.968 3.884-1.628 7.916-2.903 11.653-1.573 4.607-3.697 8.862-5.807 13.131-1.603 3.246-3.795 6.106-5.198 9.471-1.172 2.81-1.818 5.696-2.64 8.84M177.378 573.32c-.907 3.558-1.526 7.25-2.722 10.674-1.474 4.22-3.533 8.064-5.443 12.028-1.438 2.985-3.216 5.806-4.529 8.848-1.111 2.575-2.049 5.045-2.82 7.925" fill="none" stroke="#55a" stroke-width="2" stroke-linecap="round" stroke-linejoin="round"/><path d="M190.134 571.941c-.877 4.46-1.344 9.019-2.63 13.377-1.428 4.833-3.805 9.335-5.608 14.041-1.511 3.948-3.151 7.858-4.366 11.907-.999 3.329-1.647 6.538-2.393 10.148M197.202 572.2c-.827 3.837-1.39 7.82-2.48 11.512-1.343 4.552-3.157 8.756-4.96 12.974-1.37 3.207-3.242 6.033-4.44 9.358-1 2.776-1.553 5.627-2.255 8.733M144.268 632.18c-2.333 5.25-4.035 10.78-7.31 15.438-2.638 3.75-5.72 7.482-9.708 9.744-2.69 1.526-5.95 2.764-9 2.25-2.553-.43-4.93-2.192-6.5-4.25-1.647-2.158-2.513-5.035-2.5-7.75.013-2.635.806-5.481 2.5-7.5 1.462-1.742 3.795-2.691 6-3.25 1.858-.47 4-.78 5.75 0 2.048.912 3.54 2.974 4.5 5 .94 1.981 1.682 4.417 1 6.5-.697 2.128-2.681 3.893-4.75 4.75-1.77.734-4.04.867-5.75 0-1.383-.7-2.268-2.277-2.75-3.75-.415-1.267-.599-2.809 0-4 .606-1.206 1.907-2.28 3.25-2.415 1.1-.109 2.401.486 3 1.415.545.846.27 2.393.043 3.019" fill="none" stroke="#55a" stroke-width="2" stroke-linecap="round" stroke-linejoin="round"/><path d="M168.923 628.72c-2.032 4.555-2.922 10.63-5.37 15.53-2.258 4.518-4.364 9.63-8.48 12.558-2.61 1.857-6.125 2.977-9.288 2.47-2.224-.356-4.293-1.902-5.66-3.687-1.434-1.872-2.213-4.368-2.177-6.723.032-2.157.82-4.415 2.177-6.092 1.287-1.593 3.254-2.674 5.224-3.235 1.606-.456 3.483-.676 5.007 0 1.784.792 3.086 2.577 3.919 4.338.738 1.56 1.25 3.464.767 5.12-.573 1.968-2.168 3.79-4.033 4.64-1.518.692-3.518.752-5.007 0-1.204-.608-2.047-1.952-2.394-3.253-.319-1.192-.24-2.632.414-3.678.506-.807 1.471-1.403 2.416-1.528 1.083-.143 2.481.093 3.13.972.615.831.56 2.793.01 3.102M126.999 629.793c-1.39 2.682-3.12 4.68-4.77 6.843M131.25 633.733c-1.618 2.537-2.893 4.047-4.251 5.806M137.47 634.873c-2.445 4.355-4.99 8.307-7.983 10.471M149.91 631.66c-.145 2.37-1.461 4.68-2.177 7.36M155.56 634.2c-.145 2.37-1.461 4.679-2.177 7.36M161.262 634.2c-.248 3.405-3.75 10.87-5.702 13.995M172.718 633.94c-.69 3.974-2.15 7.63-3.628 11.3-1.322 3.284-2.903 6.152-4.666 9.538M177.487 638.813c-.76 2.937-1.729 5.922-2.799 8.812-.952 2.57-2.039 4.838-3.214 7.568" fill="none" stroke="#55a" stroke-width="2" stroke-linecap="round" stroke-linejoin="round"/><path d="M310.773 595.218s5.47-6.671 7.071-10.607c1.447-3.554 2.85-7.546 2.122-11.314-.583-3.017-2.47-5.961-4.95-7.778-2.952-2.162-6.99-3.386-10.607-2.828-3.037.468-5.849 2.557-7.778 4.95-1.497 1.857-2.243 4.342-2.475 6.717-.289 2.97.367 6.045 1.415 8.839.78 2.082 2.266 3.83 3.535 5.657 1.488 2.14 4.77 6.196 4.77 6.196l-9.893 13.609 9.738 13.95s-4.713 5.494-6.383 8.671c-1.508 2.87-2.862 5.966-3.182 9.192-.258 2.604-.064 5.416 1.061 7.779 1.111 2.333 3.162 4.21 5.303 5.657 1.886 1.274 4.09 2.389 6.364 2.474 2.832.107 5.87-.769 8.132-2.474 1.906-1.437 3.12-3.752 3.89-6.01.913-2.683.973-5.653.7-8.474a23.722 23.722 0 00-2.301-8.138c-1.657-3.362-6.718-9.018-6.718-9.018l9.732-13.262z" fill="#ff5" stroke="#55a" stroke-width="2" stroke-linecap="round" stroke-linejoin="round"/><path d="M307.47 590.202s-4.778-5.677-6.25-9.028c-.74-1.684-1.45-3.558-1.215-5.382.225-1.745 1.177-3.452 2.43-4.687 1.29-1.272 3.05-2.405 4.861-2.431 1.787-.026 3.63.963 4.862 2.257 1.378 1.447 2.109 3.562 2.257 5.556.145 1.96-.583 3.937-1.39 5.729-1.33 2.957-3.152 5.365-5.555 7.986zM307.397 627.355s-4.757 6.292-6.25 9.896c-.704 1.7-1.45 3.558-1.216 5.382.225 1.746 1.177 3.452 2.431 4.688 1.29 1.271 3.05 2.404 4.861 2.43 1.787.026 3.63-.963 4.861-2.257 1.379-1.447 2.11-3.562 2.257-5.555.146-1.96-.625-3.919-1.389-5.73-1.353-3.21-3.152-6.232-5.555-8.854z" fill="#f55" stroke="#55a" stroke-width="2" stroke-linecap="round" stroke-linejoin="round"/><path d="M306.95 617.286l-5.904-8.16 6.077-8.854 6.076 8.333z" fill="#55a" stroke="#55a" stroke-width="2" stroke-linecap="round" stroke-linejoin="round"/><g fill="none" stroke="#55a" stroke-width="2" stroke-linecap="round" stroke-linejoin="round"><path d="M274.875 681.987c2.21-4.83 3.847-10.192 7.445-14.107 3.396-3.695 7.946-6.446 12.675-8.124 3.812-1.353 8.013-1.345 12.057-1.357 1.716-.005 4.021-.773 5.12.545 1.217 1.46.57 4.069-.43 5.686-1.618 2.619-5 3.782-7.925 4.741-2.487.816-5.198.66-7.817.741.615 4.236.796 7.787.055 11.574-.47 2.406-2.16 4.877-2.805 6.801"/><path d="M302.125 659.237c0 1.292-.68 2.776 0 3.875.539.872 1.76 1.109 2.75 1.375 1.29.348 2.667.334 4 .25.889-.056 1.75-.333 2.625-.5M313 664.737c1.083.292 2.43.11 3.25.875 1.03.963 1.556 2.602 1.375 4-.135 1.043-1.004 1.884-1.75 2.625-1.238 1.23-2.79 2.146-4.375 2.875a19.433 19.433 0 01-5.625 1.625c-1.53.196-3.125.234-4.625-.125-.852-.204-1.808-.457-2.375-1.125-.392-.463-.556-1.146-.5-1.75.069-.742.468-1.477 1-2a5.042 5.042 0 012.875-1.375c.974-.113 2.088.04 2.875.625.689.512 1.035 1.42 1.25 2.25.157.605.118 1.261 0 1.875-.085.44-.333.834-.5 1.25"/><path d="M316.375 672.362c.958.792 2.319 1.264 2.875 2.375.392.784.45 1.812.125 2.625-.513 1.287-1.859 2.09-3 2.875-1.367.94-2.914 1.64-4.5 2.125-1.572.481-3.237.604-4.875.75-1.62.145-3.263.336-4.875.125-.732-.096-1.538-.176-2.125-.625-.505-.386-.927-.993-1-1.625-.076-.654.246-1.336.625-1.875.58-.825 1.402-1.61 2.375-1.875.893-.243 1.876.072 2.75.375.776.27 1.67.565 2.125 1.25.349.526.304 1.247.25 1.875-.06.696-.417 1.334-.625 2"/><path d="M316.5 680.487c.625.959 1.62 1.76 1.875 2.875.29 1.27.22 2.79-.5 3.875-.827 1.244-2.462 1.765-3.875 2.25-1.75.601-3.654.625-5.5.75-1.58.107-3.206.35-4.75 0-.945-.213-1.917-.588-2.625-1.25-.559-.522-1.087-1.236-1.125-2-.036-.727.359-1.487.875-2 .676-.67 1.685-.974 2.625-1.125.95-.152 2.02-.192 2.875.25.63.326 1.096.973 1.375 1.625.313.732.411 1.596.25 2.375-.155.75-.75 1.334-1.125 2"/><path d="M314.625 689.362c.792.375 2.16.691 2.5 1.625.343.941-.342 2.027-.875 2.875-.753 1.198-1.825 2.314-3.125 2.875-1.074.464-2.33.268-3.5.25-1.633-.025-3.296-.08-4.875-.5-1.19-.317-2.627-.522-3.375-1.5-.333-.435-.388-1.094-.25-1.625.239-.92.935-1.761 1.75-2.25 1.052-.63 2.496-1.103 3.625-.625 1.022.433 1.581 1.68 1.875 2.75a3.13 3.13 0 01-.125 2c-.266.624-.917 1-1.375 1.5M307.625 697.737c-.358 1.167-2.257 2.334-4.25 3.5"/></g><path d="M135 662.362h81.364s-9.907-.706-14.485-2.444c-2.079-.79-5.657-3.536-5.657-3.536l-39.244-1.06s-3.598 2.519-5.657 3.182c-2.032.654-4.276 1.149-6.364.707-1.602-.34-3.033-1.372-4.243-2.475-.749-.683-1.321-1.565-1.768-2.475-.541-1.105-.882-2.318-1.06-3.535-.171-1.166 0-3.536 0-3.536L135 652.362z" fill="#55a" stroke="#55a" stroke-width="2" stroke-linecap="round" stroke-linejoin="round"/><path d="M135 667.362h87" fill="none" stroke="#55a" stroke-width="2" stroke-linecap="round" stroke-linejoin="round"/><path d="M167.384 693.264c1.406-1.406-1.405-4.558 0-5.964 1.406-1.405 4.558-1.405 5.964 0 1.406 1.406-1.406 4.558 0 5.964 1.406 1.406 4.558-1.406 5.964 0 1.406 1.406 1.406 4.558 0 5.964-1.406 1.406-4.558-1.406-5.964 0-1.406 1.406 1.406 4.558 0 5.964-1.406 1.405-4.558 1.405-5.964 0-1.405-1.406 1.406-4.558 0-5.964-1.405-1.406-4.558 1.406-5.964 0-1.405-1.406-1.405-4.558 0-5.964 1.406-1.406 4.559 1.406 5.964 0z" fill="#fff"/><path d="M238.674 659.547l6.826 4.815-42 65.25s-1.31-2.176-2.25-3c-1.15-1.008-4-2.25-4-2.25z" fill="#ff5"/><path d="M245.305 664.232l3.945 2.38-43 66.75-2.5-4z" fill="#55a"/><path d="M248.924 666.917l4.826 3.445-45 69.5-2.315-7.103z" fill="#ff5"/><path d="M254.25 670.362l74.75 47.25v8l-77.5-49.5z" fill="#f55"/><path d="M250.935 675.444l-5.473 8.687L329 737.862v-12.2z"/><path d="M245.555 683.629l-2.843 4.788L329 743.612v-6z" fill="#f55"/><path d="M330 784.362s-16.21-12.663-22.75-20.5c-5.586-6.694-10.379-14.21-13.75-22.25-3.096-7.385-5.723-23.331-5.723-23.331l-7.75-4.889s3.66 21.708 7.973 31.72c3.988 9.257 9.7 17.839 16.25 25.5 7.442 8.706 25.75 22.75 25.75 22.75z" fill="#ff5" stroke="#55a" stroke-width="2" stroke-linecap="round" stroke-linejoin="round"/><path d="M263.25 703.362s1.638 25.346 5 37.5c2.468 8.922 6.124 17.631 11 25.5 6.728 10.857 15.18 20.792 24.75 29.25 7.759 6.858 26 17 26 17v6.7s-21.109-12.055-30.25-19.95c-8.71-7.522-16.68-16.131-23-25.75-6.1-9.286-10.767-19.62-14-30.25-2.48-8.153-4-25.25-4-25.25l-20.625 32.75-6.5-2.625 30.125-45.875z" fill="#ff5" stroke="#55a" stroke-width="2" stroke-linecap="round" stroke-linejoin="round"/><path d="M330 902.362c-9.97-2.235-19.678-5.057-29-9-1.923-.813-3.7-1.941-5.5-3-5.78-3.399-11.701-6.642-17-10.75-1.537-1.192-2.818-2.683-4.25-4-4.453-4.094-9.124-7.949-13.5-12.125-3.09-2.95-6.11-5.979-9-9.125a190.755 190.755 0 01-8.875-10.375c-4.412-5.552-8.883-11.1-12.625-17.125-4.602-7.408-9.071-15.035-12-23.25-1.487-4.172-1.89-8.655-2.75-13-1.07-5.403-2.096-10.816-3-16.25a178.89 178.89 0 01-1-6.75c-.794-6.235-1.342-12.499-2-18.75-.338-3.208-.317-6.472-1-9.625-.465-2.148-1.095-4.295-2.094-6.253a18.88 18.88 0 00-3.151-4.411c-1.755-1.841-3.762-3.498-5.988-4.727-1.512-.836-3.193-1.382-4.884-1.733-1.495-.311-3.046-.21-4.57-.316 0 0-9.12-8.99-15.063-10.143-4.809-.934-14.377 3.05-14.377 3.05s-8.98-6.976-14.16-6.536c-3.717.316-9.225 6.337-9.225 6.337s-7.439-5.221-11.47-4.461c-4.363.822-9.803 9.017-9.803 9.017" fill="none" stroke="#55a" stroke-width="2" stroke-linecap="round" stroke-linejoin="round"/><path d="M187.814 721.797L216 677.362h-81" fill="none" stroke="#55a" stroke-width="2" stroke-linecap="round" stroke-linejoin="round"/><path d="M278.625 879.612c1-6.833 2.843-13.426 3.125-20.25.341-8.263.121-16.694-1.75-24.75-1.954-8.41-5.492-16.488-9.75-24-4.372-7.714-9.597-15.117-16-21.25-5.843-5.596-12.788-10.084-20-13.75-7.166-3.642-15.667-5.333-22.75-8 2.167 13.088 4.333 23.22 6.5 33.75 5 3.334 11.525 7.185 16.5 11.75a54.085 54.085 0 018.5 10c2.877 4.353 5.205 9.101 7 14 1.091 2.98 1.97 6.09 2.25 9.25.235 2.662-.5 5.834-.5 8l13.25 13.5z" fill="#ff5" stroke="#55a" stroke-width="2" stroke-linecap="round" stroke-linejoin="round"/><path d="M273.5 874.362c.917-5.583 2.593-11.094 2.75-16.75.217-7.791-.594-15.692-2.5-23.25-1.782-7.067-4.703-13.882-8.25-20.25-4.064-7.295-8.795-14.395-14.75-20.25-5.375-5.284-11.806-9.537-18.5-13-5.736-2.967-12.167-4.333-18.25-6.5l2.5 15.75c2.833 1.167 5.795 2.06 8.5 3.5 3.713 1.977 7.196 4.397 10.5 7 2.988 2.354 5.822 4.93 8.375 7.75a69.755 69.755 0 017.375 9.75c2.237 3.568 4.222 7.326 5.75 11.25 1.474 3.787 2.62 7.736 3.25 11.75.621 3.955.514 7.997.5 12-.012 3.42-.5 7.167-.5 10.25z" fill="#55a" stroke="#55a" stroke-width="2" stroke-linecap="round" stroke-linejoin="round"/><path d="M217.25 796.612c4.167 1.375 8.365 3.784 12.125 6.375 4.254 2.931 8.153 6.425 11.625 10.25 2.868 3.16 5.313 6.71 7.5 10.375 2.11 3.537 4.057 7.223 5.375 11.125 1.266 3.747 1.998 7.688 2.375 11.625.373 3.9-.125 8.084-.125 11.75" fill="none" stroke="#55a" stroke-width="2" stroke-linecap="round" stroke-linejoin="round"/><g fill="#f55"><path d="M222.967 770.085s-6.188-2.875-7.875-5.625c-1.455-2.37-1.25-8.25-1.25-8.25s4.943 2.941 6.5 5.25c1.68 2.492 2.625 8.625 2.625 8.625zM223.217 770.085s4.664-5.23 7.875-5.875c2.358-.473 7 1.75 7 1.75s-3.498 3.875-5.875 4.625c-2.865.904-9-.5-9-.5zM225.342 764.21c-1.812-.29-3.718-2.428-3.5-4.25.248-2.068 2.949-4.113 5-3.75 1.957.347 3.675 3.058 3.25 5-.4 1.83-2.901 3.297-4.75 3z"/></g><path d="M296.967 723.623s-3.548 4.21-3.95 6.8c-.235 1.518-.119 3.447 1 4.5 1.169 1.098 3.161.956 4.75.75 3.612-.468 10-4.4 10-4.4l-3.75-2.2s-3.143 2.886-5 2.6c-1.048-.162-2.006-1.218-2.25-2.25-.302-1.283 1.25-3.75 1.25-3.75zM310.36 732.55s-6.314 2.532-8.55 4.95c-1.441 1.56-2.65 3.628-2.75 5.75-.078 1.686.53 3.585 1.75 4.75 1.48 1.412 3.806 1.874 5.85 1.85 2.167-.024 4.244-1.07 6.15-2.1 2.509-1.354 4.514-3.482 6.75-5.25 1.023-.808 3.05-2.45 3.05-2.45l-3.45-2.2s-4.986 4.692-8.1 5.9c-1.406.546-3.089 1.037-4.5.5-1.047-.399-2.319-1.38-2.25-2.5.103-1.65 2.436-2.246 3.75-3.25 1.93-1.472 6.05-4.05 6.05-4.05zM324.3 741.463s-7.636 5.293-10.8 8.65c-1.681 1.783-4.042 3.557-4.25 6-.18 2.116.953 4.616 2.75 5.75 1.128.71 2.74.437 4 0 2.41-.839 4.025-3.137 6-4.75 2.701-2.209 8-6.75 8-6.75v-3.9s-4.23 3.447-6.4 5.1c-2.164 1.648-3.98 4.066-6.6 4.8-.966.27-2.617.677-3-.25-.835-2.023 2.68-3.478 4.25-5 1.516-1.47 3.28-2.66 4.952-3.951 1.563-1.208 4.748-3.55 4.748-3.55zM330 753.814s-9.493 5.661-12 10.298c-.92 1.7-1.43 3.94-.75 5.75.664 1.769 2.385 3.451 4.25 3.75 1.88.302 3.865-.944 5.25-2.25 1.762-1.661 3.25-6.499 3.25-6.499s-3.804 4.853-6.25 4.25c-1.375-.34-2.178-2.345-2-3.75.17-1.347 1.735-2.1 2.75-3 1.688-1.499 5.5-3.95 5.5-3.95z" fill="#ff5"/><path d="M279.25 717.862s-6.763-3.157-9.75-1.75c-1.384.652-2.868 2.6-2.25 4 .45 1.017 2.14.808 3.25.75 3.08-.16 8.75-3 8.75-3z" fill="#fff"/><g stroke="#55a" stroke-width="2" stroke-linecap="round" stroke-linejoin="round"><path d="M229.851 780.947c-1.716-.648-3.845-.557-5.498.237-1.647.79-3.052 2.384-3.606 4.124-.516 1.619-.293 3.577.516 5.07.817 1.509 2.366 2.721 4.003 3.234 1.555.488 3.408.354 4.877-.353 1.532-.737 2.884-2.146 3.462-3.745.592-1.641.448-3.64-.278-5.228-.669-1.46-1.973-2.771-3.476-3.339z" fill="#ff5"/><path d="M227.804 784.638c-1.203-.297-2.877.674-3.215 1.866-.34 1.201.564 2.974 1.769 3.301 1.279.347 3.09-.783 3.392-2.073.278-1.186-.763-2.803-1.946-3.094z" fill="none"/></g><path d="M228.116 808.737c-1.535-.366-3.683 1.022-4 2.66-.267 1.373.966 3.143 2.25 3.458 1.49.365 3.63-.815 4-2.394.334-1.432-.897-3.401-2.25-3.724zM233.161 815.006c-1.837-.483-4.408 1.349-4.788 3.512-.319 1.812 1.156 4.15 2.693 4.565 1.785.482 4.347-1.075 4.789-3.16.4-1.891-1.074-4.491-2.694-4.917zM238.74 822.136c-2.199-.513-5.278 1.43-5.734 3.725-.381 1.922 1.385 4.401 3.226 4.842 2.137.511 5.206-1.14 5.734-3.353.48-2.005-1.285-4.762-3.225-5.214zM243.48 830.249c-1.958-.44-4.7 1.226-5.104 3.192-.34 1.648 1.232 3.772 2.87 4.15 1.903.439 4.634-.977 5.104-2.873.427-1.719-1.144-4.082-2.87-4.47zM247.366 838.359c-1.535-.344-3.683.96-4 2.5-.267 1.29.966 2.954 2.25 3.25 1.49.343 3.63-.766 4-2.25.334-1.346-.897-3.197-2.25-3.5z" fill="#ff5" stroke="#55a" stroke-width="2" stroke-linecap="round" stroke-linejoin="round"/><path d="M140 671.362v2h10v-2z" fill="none" stroke="#55a" stroke-width="2" stroke-linecap="round" stroke-linejoin="round"/><g stroke="#55a" stroke-width="2" stroke-linecap="round" stroke-linejoin="round"><path d="M242.13 788.35c-1.716-.649-3.845-.558-5.499.236-1.646.79-3.051 2.385-3.606 4.125-.515 1.618-.292 3.576.517 5.07.816 1.508 2.365 2.72 4.002 3.234 1.556.487 3.409.353 4.878-.353 1.532-.738 2.884-2.147 3.461-3.745.593-1.642.449-3.642-.278-5.228-.668-1.461-1.972-2.772-3.475-3.34z" fill="#ff5"/><path d="M240.083 792.04c-1.204-.297-2.877.675-3.215 1.867-.34 1.2.564 2.973 1.769 3.3 1.278.348 3.089-.782 3.392-2.072.278-1.187-.763-2.803-1.946-3.095z" fill="none"/></g><g stroke="#55a" stroke-width="2" stroke-linecap="round" stroke-linejoin="round"><path d="M252.13 797.35c-1.716-.649-3.845-.558-5.499.236-1.646.79-3.051 2.385-3.606 4.125-.515 1.618-.292 3.576.517 5.07.816 1.508 2.365 2.72 4.002 3.234 1.556.487 3.409.353 4.878-.353 1.532-.738 2.884-2.147 3.461-3.745.593-1.642.449-3.642-.278-5.228-.668-1.461-1.972-2.772-3.475-3.34z" fill="#ff5"/><path d="M250.083 801.04c-1.204-.297-2.877.675-3.215 1.867-.34 1.2.564 2.973 1.769 3.3 1.278.348 3.089-.782 3.392-2.072.278-1.187-.763-2.803-1.946-3.095z" fill="none"/></g><g stroke="#55a" stroke-width="2" stroke-linecap="round" stroke-linejoin="round"><path d="M259.88 808.35c-1.716-.649-3.845-.558-5.499.236-1.646.79-3.051 2.385-3.606 4.125-.515 1.618-.292 3.576.517 5.07.816 1.508 2.365 2.72 4.002 3.234 1.556.487 3.409.353 4.878-.353 1.532-.738 2.884-2.147 3.461-3.745.593-1.642.449-3.642-.278-5.228-.668-1.461-1.972-2.772-3.475-3.34z" fill="#ff5"/><path d="M257.833 812.04c-1.204-.297-2.877.675-3.215 1.867-.34 1.2.564 2.973 1.769 3.3 1.278.348 3.089-.782 3.392-2.072.278-1.187-.763-2.803-1.946-3.095z" fill="none"/></g><g stroke="#55a" stroke-width="2" stroke-linecap="round" stroke-linejoin="round"><path d="M265.88 820.975c-1.716-.649-3.845-.558-5.499.236-1.646.79-3.051 2.385-3.606 4.125-.515 1.618-.292 3.576.517 5.07.816 1.508 2.365 2.72 4.002 3.234 1.556.487 3.409.353 4.878-.353 1.532-.738 2.884-2.147 3.461-3.745.593-1.642.449-3.642-.278-5.228-.668-1.461-1.972-2.772-3.475-3.34z" fill="#ff5"/><path d="M263.833 824.665c-1.204-.297-2.877.675-3.215 1.867-.34 1.2.564 2.973 1.769 3.3 1.278.348 3.089-.782 3.392-2.072.278-1.187-.763-2.803-1.946-3.095z" fill="none"/></g><g stroke="#55a" stroke-width="2" stroke-linecap="round" stroke-linejoin="round"><path d="M270.255 834.1c-1.716-.649-3.845-.558-5.499.236-1.646.79-3.051 2.385-3.606 4.125-.515 1.618-.292 3.576.517 5.07.816 1.508 2.365 2.72 4.002 3.234 1.556.487 3.409.353 4.878-.353 1.532-.738 2.884-2.147 3.461-3.745.593-1.642.449-3.642-.278-5.228-.668-1.461-1.972-2.772-3.475-3.34z" fill="#ff5"/><path d="M268.208 837.79c-1.204-.297-2.877.675-3.215 1.867-.34 1.2.564 2.973 1.769 3.3 1.278.348 3.089-.782 3.392-2.072.278-1.187-.763-2.803-1.946-3.095z" fill="none"/></g><g stroke="#55a" stroke-width="2" stroke-linecap="round" stroke-linejoin="round"><path d="M271.13 860.75c-1.716.648-3.845.557-5.499-.237-1.646-.79-3.051-2.384-3.606-4.124-.515-1.619-.292-3.577.517-5.07.816-1.509 2.365-2.721 4.002-3.234 1.556-.488 3.409-.354 4.878.353 1.532.737 2.884 2.146 3.461 3.745.593 1.641.449 3.64-.278 5.228-.668 1.46-1.972 2.771-3.475 3.339z" fill="#ff5"/><path d="M269.083 857.06c-1.204.296-2.877-.675-3.215-1.867-.34-1.201.564-2.974 1.769-3.301 1.278-.347 3.089.783 3.392 2.073.278 1.186-.763 2.803-1.946 3.094z" fill="none"/></g><g stroke="#55a" stroke-width="2" stroke-linecap="round" stroke-linejoin="round"><path d="M271.883 872.667c1.718-1.642 2.152-4.75 1.347-6.978-.618-1.713-2.434-3.132-4.225-3.464-2.2-.409-5.595.067-6.374 2.111" fill="#ff5"/><path d="M268.857 870.73c1.051-.616 1.13-3.118.149-4.043-.84-.79-2.848-.992-3.444.335" fill="none"/></g><g stroke="#55a" stroke-width="2.054" stroke-linecap="round" stroke-linejoin="round"><path transform="matrix(.72957 .63826 -.6049 .76982 215.473 426.159)" d="M231.98 278.902c1.717-1.641 2.152-4.75 1.347-6.978-.62-1.713-2.39-3.167-4.226-3.464-2.275-.368-5.9.32-6.678 2.364" fill="#ff5"/><path d="M228.954 789.328c1.05-.616 1.13-3.119.148-4.043-.84-.791-2.848-.993-3.444.335" fill="none" transform="matrix(.72957 .63826 -.6049 .76982 525.397 31.732)"/></g><g fill="#f55"><path d="M245.737 781.262s-4.896-4.212-5.756-7.187c-.742-2.566.864-7.98.864-7.98s3.755 3.962 4.605 6.496c.916 2.734.287 8.671.287 8.671zM245.963 781.324s5.478-3.703 8.536-3.503c2.245.146 5.902 3.367 5.902 3.367s-4.098 2.733-6.427 2.84c-2.807.127-8.011-2.704-8.011-2.704zM249.303 776.391c-1.567-.721-2.773-3.182-2.135-4.821.723-1.862 3.658-3.092 5.424-2.243 1.685.809 2.582 3.757 1.728 5.456-.804 1.601-3.418 2.344-5.017 1.608z"/></g><g fill="#f55"><path d="M263.611 798.804s-3.805-5.296-3.825-8.313c-.017-2.6 3.202-7.205 3.202-7.205s2.706 4.746 2.843 7.347c.148 2.807-2.22 8.171-2.22 8.171zM263.825 798.925s6.698-1.927 9.78-.887c2.262.763 5.082 4.788 5.082 4.788s-5 1.407-7.42.856c-2.92-.663-7.442-4.757-7.442-4.757zM268.685 795.254c-1.4-1.11-1.924-3.743-.794-5.095 1.283-1.535 4.652-1.863 6.219-.58 1.495 1.226 1.56 4.227.192 5.574-1.29 1.27-4.19 1.234-5.617.1z"/></g><g fill="#f55"><path d="M276.959 821.276s-2.338-5.9-1.585-8.788c.649-2.49 4.954-6.18 4.954-6.18s1.412 5.131.878 7.648c-.575 2.715-4.247 7.32-4.247 7.32zM277.135 821.439s6.997-.365 9.722 1.307c2.001 1.229 3.709 5.698 3.709 5.698s-5.214.242-7.424-.818c-2.665-1.278-6.007-6.187-6.007-6.187zM282.794 819.001c-1.075-1.37-.91-4 .534-5.044 1.638-1.184 4.994-.755 6.186.817 1.138 1.5.434 4.383-1.24 5.37-1.578.929-4.384.255-5.48-1.143z"/></g><g fill="#f55"><path d="M283.009 845.037s.057-6.572 1.861-9.147c1.556-2.22 6.993-4.384 6.993-4.384s-.632 5.506-2.089 7.791c-1.573 2.467-6.765 5.74-6.765 5.74zM283.112 845.256s6.692 2.004 8.607 4.563c1.407 1.88 1.304 6.835 1.304 6.835s-4.975-1.523-6.642-3.308c-2.009-2.151-3.269-8.09-3.269-8.09zM289.34 844.777c-.485-1.704.671-4.227 2.42-4.762 1.986-.608 4.965.945 5.483 2.889.494 1.854-1.263 4.441-3.206 4.842-1.832.378-4.202-1.229-4.697-2.969z"/></g><g fill="#f55"><path d="M281.79 870.438s1.988-6.28 4.476-8.256c2.145-1.703 7.996-2.294 7.996-2.294s-2.225 5.102-4.295 6.895c-2.233 1.935-8.176 3.655-8.176 3.655zM281.826 870.676s5.828 3.744 6.913 6.718c.796 2.183-.76 6.903-.76 6.903s-4.324-2.814-5.397-4.979c-1.294-2.609-.756-8.642-.756-8.642zM287.94 871.915c.035-1.765 1.886-3.867 3.721-3.903 2.083-.041 4.484 2.259 4.409 4.262-.071 1.911-2.517 3.91-4.5 3.765-1.867-.136-3.668-2.323-3.63-4.124z"/></g><path d="M280.94 729.909s-7.236-1.833-9.905.11c-1.237.9-2.33 3.093-1.46 4.351.632.915 2.254.392 3.333.127 2.995-.734 8.032-4.588 8.032-4.588zM283.691 740.913s-7.431-.694-9.769 1.638c-1.083 1.08-1.824 3.414-.77 4.524.765.806 2.286.04 3.312-.39 2.846-1.187 7.227-5.772 7.227-5.772zM287.761 751.376s-7.42.804-9.246 3.555c-.845 1.275-1.105 3.71.148 4.587.911.637 2.249-.418 3.169-1.042 2.55-1.732 5.93-7.1 5.93-7.1zM294.01 762.698s-7.42.804-9.246 3.555c-.846 1.275-1.106 3.71.148 4.587.91.637 2.248-.418 3.168-1.042 2.551-1.732 5.93-7.1 5.93-7.1zM301.459 772.074s-7.216 1.909-8.607 4.903c-.645 1.388-.536 3.834.835 4.513.997.493 2.16-.751 2.976-1.507 2.262-2.095 4.796-7.91 4.796-7.91zM310.67 781.549s-7.215 1.909-8.606 4.904c-.645 1.387-.536 3.834.835 4.512.997.493 2.16-.75 2.976-1.506 2.262-2.096 4.796-7.91 4.796-7.91zM319.682 789.581s-6.97 2.67-8.034 5.796c-.492 1.448-.122 3.87 1.313 4.397 1.044.384 2.068-.977 2.798-1.816 2.025-2.325 3.923-8.377 3.923-8.377zM328.859 795.714s-6.56 3.56-7.206 6.797c-.299 1.5.385 3.853 1.878 4.188 1.084.244 1.921-1.24 2.535-2.166 1.704-2.57 2.793-8.819 2.793-8.819z" fill="#fff"/><g fill="#fff"><path d="M224.472 734.5s2.919 5.745 5.7 6.472c1.48.387 3.87-.06 4.33-1.518.335-1.06-1.033-2.073-1.945-2.71-2.293-1.6-8.085-2.243-8.085-2.243zM222.016 734.558c-.776 4.85-1.174 6.08.981 8.58.999 1.16 3.273 2.068 4.456 1.099.86-.705.255-2.296-.147-3.333-.994-2.568-5.29-6.346-5.29-6.346zM223.393 732.326s6.222 2.456 8.851 1.07c1.123-.592 2.188-2.183 1.759-3.378-.374-1.042-1.95-1.324-3.058-1.3-2.789.062-7.552 3.608-7.552 3.608z"/></g><g fill="#fff"><path d="M235.856 718.802s2.213 5.83 4.826 6.646c1.46.456 3.87-.06 4.33-1.518.335-1.06-1.05-2.05-1.944-2.71-2.04-1.505-7.212-2.418-7.212-2.418zM232.701 718.568s-1.165 6.749.806 9.047c.997 1.16 3.274 2.067 4.457 1.097.86-.704.228-2.285-.147-3.332-.958-2.673-5.116-6.812-5.116-6.812zM234.66 716.394s5.65 2.721 8.094 1.477c1.364-.693 2.698-2.777 1.992-4.134-.513-.987-2.19-.696-3.29-.543-2.48.346-6.795 3.2-6.795 3.2z"/></g><g fill="#fff"><path d="M245.493 701.777s2.322 6.185 5.088 7.054c1.46.458 3.871-.06 4.331-1.518.335-1.06-1.063-2.033-1.945-2.71-2.112-1.622-7.474-2.826-7.474-2.826zM242.63 702.038s-1.172 6.682.777 8.96c.995 1.162 3.273 2.067 4.456 1.097.86-.704.23-2.286-.147-3.332-.953-2.644-5.086-6.725-5.086-6.725zM244.152 699.456s5.902 3.076 8.502 1.798c1.373-.674 2.697-2.777 1.992-4.134-.513-.987-2.186-.663-3.291-.543-2.57.28-7.203 2.88-7.203 2.88z"/></g><path d="M329.448 744.64l-86.902-55.819M235.082 657.355L330 718.016M254.462 669.802l-45.85 70.115" stroke="#55a" stroke-width="2" stroke-linecap="round" stroke-linejoin="round"/><path d="M155 671.362v2h10v-2zM170 671.362v2h10v-2zM185 671.362v2h10v-2zM200 671.362v2h10v-2zM215 671.362v2h3.3l1.2-2z" fill="none" stroke="#55a" stroke-width="2" stroke-linecap="round" stroke-linejoin="round"/><path d="M86 667.362v22.375l-17.375-11.875z" fill="#f55"/><path d="M94.75 663.487l.25 34.625-9.625-8.25.375-22.375z"/><path d="M99.125 661.862l.125 40.125 13.25 14.25 1.375 1.375s1.654-1.844 2.5-2.75c1.232-1.32 3.75-3.91 3.75-3.91l-.125-50.34-4.375-1.625-3.375-2.125z" fill="#55a" stroke="#55a" stroke-width="2" stroke-linecap="round" stroke-linejoin="round"/><path style="line-height:normal;-inkscape-font-specification:Sans;text-indent:0;text-align:start;text-decoration-line:none;text-transform:none;marker:none" d="M112.225 658.018c-.314 2.874-.217 6.875-.812 9.063-.517 1.9-1.44 3.78-2.531 5.625-1.268 2.143-3.711 4.13-5.407 7.187-1.583 2.856-3.443 6.115-3.75 9.938-.262 3.273.519 4.585 1.97 7.437 1.675 3.296 4.591 4.963 6.093 6.844 1.187 1.487 3.174 2.61 3.906 4.031.58 1.129 1.93 6.287 2.531 8l5.125-4.062c-.48-1.37-1.554-4.847-2.468-6.625-.993-1.929-2.555-3.26-3.72-4.719-2.142-2.684-4.308-3.87-5.28-5.781-1.135-2.232-1.6-3.275-1.407-5.688.215-2.67.924-4.594 2.5-7.437 1.19-2.146 3.583-4.085 5.344-7.063 1.187-2.006 2.311-4.205 2.969-6.625.813-2.99.668-5.852.937-8.312z" color="#000" font-weight="400" font-family="Sans" overflow="visible" fill="#ff5" stroke="#55a" stroke-width="2"/><path style="line-height:normal;-inkscape-font-specification:Sans;text-indent:0;text-align:start;text-decoration-line:none;text-transform:none;marker:none" d="M107.875 659.456l-6 1.437c.266 3.188-.337 7.04.969 10.97 1.19 3.583 3.73 6.039 5.219 8.437 1.748 2.816 3.819 4.84 4.374 6.937.466 1.758.135 4.017-.28 6.406-.368 2.11-1.008 4.197-1.938 6.094-.599 1.22-1.769 2.482-2.875 4.156-.924 1.398-1.669 2.176-2.531 3.532l4 4.875c.887-1.395 2.97-4.897 3.843-6.22.843-1.275 2.167-2.638 3.125-4.593a26.72 26.72 0 002.313-7.156c.413-2.375.992-5.177.219-8.094-.95-3.581-3.525-5.888-4.876-8.062-1.828-2.946-3.988-5.178-4.78-7.563-.91-2.737-.464-7.343-.782-11.156z" color="#000" font-weight="400" font-family="Sans" overflow="visible" fill="#ff5" stroke="#55a" stroke-width="2" stroke-linecap="round" stroke-linejoin="round"/><path d="M112.375 656.487a218.65 218.65 0 00-15.875 5.75c-4.281 1.747-8.547 3.57-12.625 5.75-5.792 3.097-11.167 6.917-16.75 10.375" fill="none" stroke="#55a" stroke-width="2" stroke-linecap="round" stroke-linejoin="round"/><path d="M135 682.57v31.715" fill="#fff" stroke="#55a" stroke-width="2" stroke-linecap="round" stroke-linejoin="round"/><path d="M113.223 718.946s-4.598-6.654-7.162-9.776c-1.991-2.425-4.184-4.68-6.366-6.935-1.882-1.944-3.788-3.871-5.797-5.684-2.778-2.505-5.648-4.916-8.64-7.161-5.455-4.095-16.938-11.482-16.938-11.482" fill="none" stroke="#55a" stroke-width="2" stroke-linecap="round" stroke-linejoin="round"/><path d="M165.281 775.362l-.093 4.031c-3.839.482-5.932-1.062-9.094-2.968-.635 3.574-1.127 6.122-1.344 10.812 3.122-2.214 5.468-2.905 9.094-2.812l-.25 4.937h31.125l.093-4.031c3.839-.481 5.932 1.063 9.094 2.969.635-3.574 1.128-6.122 1.344-10.813-3.122 2.214-5.468 2.906-9.094 2.813l.25-4.938z" fill="#ff5"/><path d="M178.014 767.221s-.218-14.745 0-22.98c.063-2.384 1.363-4.843 3.182-6.365 1.602-1.34 3.928-1.918 6.01-1.767 2.394.173 4.853 1.3 6.541 3.005 1.318 1.33 2.257 3.263 2.298 5.126.18 8.076-.353 22.451-.353 22.451z" fill="#f55"/><path d="M185.616 751.398s-4.597-.925-4.42-5.439c.094-2.392 2.803-5.058 5.303-5.077 2.626-.02 4.705 2.904 5.657 5.247.728 1.79.312 3.941-.353 5.754-.743 2.023-2.943 3.303-3.89 5.247-.591 1.216-.788 2.577-1.06 3.893-.254 1.229-.53 3.723-.53 3.723s-1.362-3.896-1.591-5.923c-.178-1.572-.056-3.176.176-4.74.136-.915.708-2.685.708-2.685z"/><path d="M157.4 767.143s-.219-23.407 0-31.643c.063-2.383 1.81-4.716 3.712-6.187 1.652-1.278 3.927-1.919 6.01-1.768 2.393.173 4.792 1.363 6.541 3.005 1.269 1.191 2.433 2.734 2.475 4.596.18 8.076.177 31.82.177 31.82z" fill="#f55"/><path d="M166.688 745.377s-5.304-.432-5.127-5.381c.094-2.622 2.803-5.546 5.303-5.567 2.626-.021 4.705 3.185 5.657 5.752.728 1.964.312 4.322-.353 6.31-.743 2.217-2.943 3.62-3.89 5.751-.591 1.333-.807 2.824-1.06 4.268-.297 1.698-.53 5.143-.53 5.143s-1.368-4.991-1.591-7.555c-.15-1.726-.18-3.503.176-5.196.262-1.245 1.415-3.525 1.415-3.525z"/><path d="M137.67 753.797s-1.457-13.861-1.238-22.097c.063-2.383 1.81-4.716 3.712-6.187 1.652-1.278 3.928-1.919 6.01-1.768 2.394.174 4.792 1.363 6.541 3.005 1.269 1.191 2.433 2.734 2.475 4.597.18 8.075.177 35.708.177 35.708l-13.082.177c-1.187-4.301-2.48-9.133-4.596-13.435z" fill="#f55"/><path d="M145.651 740.339s-5.303-.432-5.126-5.381c.093-2.622 2.803-5.546 5.303-5.567 2.625-.022 4.704 3.184 5.657 5.752.728 1.963.312 4.322-.354 6.31-.742 2.217-2.942 3.62-3.889 5.751-.592 1.333-.863 2.816-1.06 4.268-.295 2.166-.177 6.557-.177 6.557s-1.67-5.922-1.945-8.97c-.155-1.725-.179-3.502.177-5.195.262-1.245 1.414-3.525 1.414-3.525z"/><path d="M135.057 748.13s-2.437-3.843-3.535-5.834c-.764-1.384-2.121-4.243-2.121-4.243s.268-4.025 0-6.01c-.238-1.757-.376-3.69-1.415-5.127-.747-1.033-1.936-1.848-3.182-2.121-1.107-.243-2.444-.14-3.358.53-.32.234-.53 1.061-.53 1.061l-1.769-2.298s1.394-2.111 2.475-2.652c1.485-.741 3.347-.958 4.95-.53 2.323.62 4.357 2.345 5.834 4.243 1.169 1.502 2.072 3.4 2.121 5.303.168 6.502.53 17.677.53 17.677z" fill="#f55"/><g><path d="M179.986 797.503s.218 14.745 0 22.981c-.063 2.383-1.363 4.842-3.182 6.364-1.602 1.34-3.928 1.919-6.01 1.768-2.394-.174-4.853-1.301-6.541-3.005-1.318-1.33-2.257-3.264-2.298-5.127-.18-8.075.353-22.45.353-22.45zM200.6 797.581s.219 23.408 0 31.643c-.063 2.384-1.81 4.716-3.712 6.188-1.652 1.277-3.927 1.918-6.01 1.767-2.393-.173-4.792-1.363-6.541-3.005-1.269-1.19-2.433-2.733-2.475-4.596-.18-8.075-.177-31.82-.177-31.82zM220.33 810.927s1.457 13.862 1.238 22.097c-.063 2.384-1.81 4.716-3.712 6.187-1.652 1.278-3.928 1.92-6.01 1.768-2.394-.173-4.792-1.363-6.541-3.005-1.269-1.19-2.433-2.733-2.475-4.596-.18-8.075-.177-35.709-.177-35.709l13.082-.177c1.187 4.302 2.48 9.134 4.596 13.435zM222.943 816.595s2.437 3.843 3.535 5.834c.764 1.384 2.121 4.242 2.121 4.242s-.268 4.025 0 6.01c.238 1.757.376 3.69 1.415 5.127.747 1.033 1.936 1.849 3.182 2.121 1.107.243 2.444.14 3.358-.53.32-.233.53-1.06.53-1.06l1.769 2.298s-1.394 2.11-2.475 2.651c-1.485.742-3.347.959-4.95.53-2.323-.62-4.357-2.344-5.834-4.242-1.169-1.503-2.072-3.4-2.121-5.303-.168-6.503-.53-17.678-.53-17.678z" fill="#f55"/><path d="M215.22 982.235c2.298-5.127 4.122-10.494 6.894-15.38 1.775-3.128 4.323-5.764 6.187-8.839 1.722-2.84 3.465-5.717 4.597-8.839.843-2.325 1.642-4.774 1.59-7.247-.047-2.315-1.178-4.479-1.767-6.718l4.95-7.425c2.533-.294 5.332.282 7.6-.883 2.339-1.2 4.357-3.383 5.304-5.834.956-2.473.86-5.447 0-7.955-.872-2.542-2.722-4.86-4.95-6.364-2.132-1.44-4.864-2.383-7.424-2.121-2.91.297-5.442 2.305-7.778 4.066-2.73 2.056-4.714 4.95-7.071 7.424-.707-2.003-.918-4.26-2.122-6.01-1.184-1.722-2.836-3.281-4.773-4.066-1.696-.688-3.668-.613-5.48-.354-2.048.294-4.043 1.084-5.833 2.122-.868.503-1.35 1.617-2.298 1.944-4.515 1.56-9.546-.353-14.32-.53l-6.363 16.263 1.767 3.536c-2.298-.354-4.592-1.392-6.894-1.06-2.061.296-4.223 1.14-5.657 2.65-1.4 1.477-2.029 3.64-2.298 5.658a11.849 11.849 0 00.707 5.833c.807 2.039 2.11 4.025 3.89 5.304 1.104.793 2.592.825 3.888 1.237-.648 2.475-1.12 5.003-1.944 7.425-.927 2.725-2.155 5.34-3.359 7.955-.937 2.034-2.087 3.967-3.005 6.01-1.3 2.895-2.592 5.81-3.536 8.839-.79 2.538-1.206 5.18-1.767 7.778-.496 2.293-.943 4.596-1.415 6.894 3.89-.117 7.792-.014 11.668-.353 3.262-.286 6.484-.928 9.722-1.414 3.42-.514 6.863-.906 10.253-1.591 3.096-.626 6.203-1.28 9.193-2.298 2.373-.808 4.638-1.912 6.894-3.006 1.684-.816 3.3-1.767 4.95-2.651z" fill="#ff5"/><path d="M234.957 906.007s-3.661 1.455-5.228 2.614c-1.693 1.252-4.357 4.575-4.357 4.575l-.218-61.868s3.787 2.351 5.882 3.05c1.257.419 3.921.653 3.921.653z"/><path d="M225.808 881.39l-78.206.436 25.27-39.648s8.972 8.856 14.813 10.239c4.567 1.082 13.942-1.96 13.942-1.96s8.446 5.995 13.289 5.881c4.058-.095 10.892-5.446 10.892-5.446" fill="#f55"/><path d="M133 903.112l39-60.5s-4.07.28-6-.25c-1.187-.325-3.25-1.75-3.25-1.75L121 905.362l3.5 2 3.25-2.25z"/><path d="M225 882.362h-78l-12.785 19.581 90.785.42z" fill="#ff5" stroke="#55a" stroke-width="2" stroke-linecap="round" stroke-linejoin="round"/><path d="M141.625 763.112l-10.75-6.875-7.375-6.5-6.5-8.25-5-8.875-3.375-8.5-.625-6.875.5-6.625 8.75 10.75 5.5 6.75 5.25 7.625 4.375 7 4.75 8.125 3.5 7.5z" fill="#55a"/><path d="M146.132 821.06c-7-1.333-11.439-2.578-16.882-4.698-9.238-3.597-18.256-7.994-26.5-13.5-6.833-4.563-13.12-10.015-18.75-16-6.931-7.37-13.316-15.418-18.25-24.25-3.811-6.822-6.525-14.28-8.56-21.826-2.1-7.79-3.169-15.872-3.69-23.924-.452-6.987-.23-14.036.5-21 .425-4.047 1.46-8.007 2.25-12 .793-4.008 1.667-8 2.5-12 0 0-9.299-4.009-14.12-5.527-4.785-1.508-14.63-3.536-14.63-3.536v158.215l82.513 51.973z" fill="#55a" stroke="#55a" stroke-width="2" stroke-linecap="round" stroke-linejoin="round"/><path d="M63.092 683.32c-1.298 6.382-2.78 12.787-3.092 19.292-.444 9.258.076 18.634 1.75 27.75 1.323 7.207 3.565 14.286 6.5 21a115.907 115.907 0 0013 22.5c4.07 5.497 8.866 10.481 14 15 6.319 5.562 13.258 10.459 20.5 14.75 3.656 2.166 7.546 3.944 11.5 5.5 4.145 1.632 8.443 2.864 12.75 4 3.387.894 7.022 1.837 10.272 2.212l-2.064-18.664-11.448-3.605-17.808-7.42-19.293-17.384-11.872-16.96-6.784-17.385-3.18-20.776 1.272-13.78 2.756-13.993c-6.784-5.303-11.024-7.605-16.536-11.024 0 0-1.608 5.963-2.223 8.987z" fill="#55a" stroke="#55a" stroke-width="2" stroke-linecap="round" stroke-linejoin="round"/><path d="M240 1022.362l-25-40s-6.475 3.79-10 5c-8.038 2.758-16.543 4.163-25 5-9.951.986-20.034.825-30 0-10.103-.836-30-5-30-5l-25 35z" fill="#f55" stroke="#55a" stroke-width="2" stroke-linecap="round" stroke-linejoin="round"/><path d="M120.522 987.33s-3.14-9.29-2.353-13.934c.45-2.652 3.22-4.466 3.89-7.071a6.358 6.358 0 000-3.182c-1.77-6.578-8.079-11.222-10.253-17.678-.304-.9-.701-1.944-.354-2.828 1.405-3.582 7.214-3.937 8.839-7.425 1.045-2.243-.783-5.077 0-7.425.372-1.118 1.86-1.679 2.121-2.828.399-1.758-1.276-3.513-1.06-5.303.232-1.937 1.989-3.414 2.474-5.304.441-1.715-.543-3.775.354-5.303 1.422-2.425 4.45-3.578 7.071-4.596 3.34-1.299 7.022-1.761 10.607-1.768 5.134-.01 10.362.762 15.202 2.475 4.479 1.586 8.453 4.39 12.375 7.071 2.481 1.697 4.959 3.477 7.01 5.676 3.005 3.222 7.584 10.827 7.584 10.827" fill="none" stroke="#55a" stroke-width="2" stroke-linecap="round" stroke-linejoin="round"/><path d="M125.47 976.604s4.335 3.63 6.994 4.196c3.777.804 7.811-.26 11.501-1.398 3.122-.964 5.825-2.963 8.704-4.508 1.41-.756 4.196-2.33 4.196-2.33s-5.201 2.87-7.926 4.04c-2.575 1.105-5.165 2.325-7.927 2.798-2.655.454-5.431.48-8.082 0-2.613-.474-7.46-2.798-7.46-2.798zM132.93 973.03s3.418.819 5.13.621c2.246-.26 4.378-1.262 6.371-2.331 1.927-1.034 3.649-2.435 5.285-3.886 1.755-1.556 4.818-5.129 4.818-5.129M129.511 971.164s2-1.22 3.108-1.554c2.05-.617 4.278-.339 6.373-.777a27.506 27.506 0 004.662-1.399c1.676-.677 3.237-1.612 4.818-2.487 1.159-.64 2.225-1.449 3.42-2.02.798-.382 2.486-.933 2.486-.933M131.376 961.217s2.48-3.207 3.886-4.662c.917-.95 1.904-1.84 2.953-2.642.981-.751 3.108-2.02 3.108-2.02M131.532 946.608s1.968-2.921 1.71-4.507c-.238-1.454-1.468-2.789-2.798-3.42-1.311-.62-2.937-.316-4.352 0-.95.213-1.8.756-2.642 1.244-1.095.634-1.889 1.842-3.109 2.176-.651.178-1.85.498-2.02-.156-.236-.903 1.498-1.132 2.331-1.554 1.082-.548 2.25-.92 3.42-1.243 1.321-.365 2.669-.803 4.04-.778 1.382.026 3.049-.03 4.041.933.73.709.805 1.936.777 2.953-.04 1.523-1.398 4.352-1.398 4.352zM145.52 934.485s2.18 2.213 3.574 2.176c1.192-.032 2.253-1.055 2.953-2.02.76-1.05 1.23-2.443 1.088-3.73-.13-1.176-.793-2.363-1.71-3.11-1.64-1.334-3.956-2.062-6.061-1.864-2.1.197-3.775 1.888-5.595 2.953-1.65.965-3.158 2.161-4.818 3.108-1.409.804-2.75 1.927-4.352 2.176-1.658.258-3.692.307-4.973-.777-.376-.317-.783-1.022-.467-1.399.91-1.083 2.784.691 4.197.622 1.706-.084 3.39-.602 4.973-1.243 2.108-.855 3.842-2.463 5.906-3.42 2.096-.971 4.223-2.5 6.528-2.331 1.756.13 3.465 1.195 4.662 2.487.962 1.037 1.732 2.47 1.71 3.885-.02 1.32-.67 2.76-1.71 3.575-.999.784-2.5 1.093-3.73.777-.925-.238-2.176-1.865-2.176-1.865zM123.45 927.491c1.498-.279 3.003-.525 4.507-.777 2.226-.373 4.59-.244 6.683-1.088.76-.306 2.02-1.399 2.02-1.399s-2.523 1.198-3.885 1.399c-1.95.288-3.935-.325-5.906-.31-1.558.01-4.663.31-4.663.31l-1.865 2.487s2.07-.429 3.109-.622z" fill="none" stroke="#55a" stroke-width="2" stroke-linecap="round" stroke-linejoin="round"/><path d="M136.039 968.678c-1.159 0-2.402-.636-3.109-1.555-.935-1.216-1.507-3.084-.932-4.507.517-1.279 2.043-2.238 3.419-2.331 1.734-.117 3.69.89 4.663 2.331.726 1.077.949 2.754.31 3.886-.796 1.412-2.73 2.176-4.351 2.176z" fill="none" stroke="#55a" stroke-width="2" stroke-linecap="round" stroke-linejoin="round"/><path d="M151.58 962.772s-3.664.218-5.439-.156c-1.478-.311-2.73-1.346-4.196-1.71-2.022-.501-6.217-.621-6.217-.621" fill="none" stroke="#55a" stroke-width="2" stroke-linecap="round" stroke-linejoin="round"/><path d="M135.262 966.502c.955.025 1.844-1.221 1.865-2.176.02-.922-.788-2.191-1.71-2.176-.964.016-1.72 1.368-1.71 2.331.01.85.705 1.998 1.555 2.02zM225.555 1022.362L211.05 993.83c-6.488 2.252-12.085 3.34-20.356 4.266l3.9 24.266h5.73l-5.12-20.731c4.75-.332 9.186-1.293 13.286-2.925l10.483 23.656zM185.697 1022.362l-3.048-23.29c-10.076.935-18.152 1.484-28.229.487l-5.485 22.803h6.46l3.048-17.806c7.916.473 12.561-.008 19.209-.487l2.225 18.293zM139.134 1022.362l7.314-23.047c-7.355-.612-14.06-1.018-22.062-2.925l-15.724 25.972H115l12.067-21.34c4.47 1.218 8.33 1.575 12.799 2.193l-6.217 19.147z" fill="#55a" stroke="#55a" stroke-width="2" stroke-linecap="round" stroke-linejoin="round"/><path d="M215.029 982.096s4.623-10.621 7.412-15.687c3.053-5.543 7.918-10.117 10.17-16.031 1.265-3.32 2.35-7.019 1.725-10.515-.513-2.863-2.063-5.739-4.31-7.585-1.825-1.5-4.36-2.233-6.723-2.24-2.598-.01-5.613.537-7.412 2.412-1.917 1.999-2.419 5.236-2.24 7.999.18 2.78 1.191 5.839 3.274 7.688 1.074.954 2.702 1.255 4.137 1.207 1.835-.062 3.893-.58 5.172-1.897 1.518-1.564 2.208-4.03 2.068-6.205-.118-1.847-.897-3.939-2.413-5-1.42-.992-3.597-1.239-5.171-.516-1.275.585-2.235 2.056-2.413 3.447-.158 1.241.444 2.615 1.31 3.517.579.6 2.31.965 2.31.965" fill="none" stroke="#55a" stroke-width="2" stroke-linecap="round" stroke-linejoin="round"/><path d="M195.99 989.336s4.428-14.136 7.412-20.898c2.217-5.024 6.002-9.33 7.757-14.534 1.496-4.434 3.181-9.275 2.24-13.86-.56-2.733-2.369-5.35-4.481-7.07-1.886-1.536-4.36-2.41-6.723-2.42-2.598-.01-5.536.779-7.412 2.605-2.192 2.134-3.445 5.52-3.275 8.574.174 3.13 1.911 6.34 4.31 8.36 1.105.93 2.7 1.355 4.136 1.302 1.835-.067 3.893-.625 5.172-2.047 1.518-1.689 2.208-4.35 2.068-6.699-.118-1.993-.918-4.113-2.413-5.396-1.357-1.164-3.453-1.912-5.172-1.42-1.547.443-2.923 1.978-3.275 3.55-.377 1.684.445 4.146 1.552 4.941 2.973 2.136 4.31-.793 4.31-.793" fill="none" stroke="#55a" stroke-width="2" stroke-linecap="round" stroke-linejoin="round"/><path d="M176.37 992.266s1.652-12.008 6.378-22.794c2.257-5.15 5.443-9.963 6.896-15.395 1.318-4.933 2.512-10.225 1.551-15.24-.585-3.054-1.967-6.23-4.31-8.277-1.793-1.567-4.344-2.296-6.722-2.419-2.66-.137-5.784.127-7.757 1.916-2.426 2.2-3.55 6-3.276 9.262.268 3.179 2.183 6.345 4.655 8.36 1.12.914 2.692 1.355 4.137 1.303 1.852-.067 3.912-.686 5.171-2.047 1.587-1.715 2.21-4.366 2.069-6.699-.12-1.967-.918-4.113-2.414-5.396-1.356-1.164-3.452-1.912-5.171-1.42-1.548.443-2.923 1.978-3.275 3.549-.378 1.685.444 4.146 1.551 4.942 2.973 2.136 4.31-.794 4.31-.794M208.823 984.854c1.15-3.62 1.933-7.377 3.448-10.86 1.867-4.294 4.436-8.255 6.895-12.239 1.674-2.712 3.825-5.127 5.344-7.93 1.546-2.852 2.815-6.033 3.792-8.963M202.445 987.009c.968-3.387 1.628-6.903 2.904-10.161 1.572-4.018 3.696-7.728 5.806-11.451 1.604-2.83 3.796-5.324 5.199-8.259 1.17-2.45 1.817-4.966 2.64-7.708M190.034 990.887c.968-3.884 1.628-7.915 2.903-11.652 1.573-4.608 3.697-8.862 5.807-13.132 1.603-3.246 3.795-6.105 5.198-9.471 1.172-2.81 1.818-5.696 2.64-8.84M182.622 991.404c.907-3.558 1.526-7.25 2.722-10.673 1.474-4.22 3.533-8.064 5.443-12.03 1.438-2.984 3.216-5.805 4.529-8.847 1.111-2.574 2.049-5.045 2.82-7.925" fill="none" stroke="#55a" stroke-width="2" stroke-linecap="round" stroke-linejoin="round"/><path d="M169.866 992.783c.877-4.459 1.344-9.018 2.63-13.377 1.428-4.833 3.805-9.334 5.608-14.04 1.511-3.949 3.151-7.859 4.366-11.908.999-3.328 1.647-6.538 2.393-10.148M162.798 992.525c.827-3.838 1.39-7.82 2.48-11.513 1.343-4.552 3.157-8.755 4.96-12.974 1.37-3.207 3.242-6.032 4.44-9.357 1-2.777 1.553-5.627 2.255-8.734M215.732 932.545c2.333-5.25 4.035-10.78 7.31-15.439 2.638-3.75 5.72-7.481 9.708-9.744 2.69-1.526 5.95-2.764 9-2.25 2.553.43 4.93 2.192 6.5 4.25 1.647 2.158 2.513 5.036 2.5 7.75-.013 2.635-.806 5.481-2.5 7.5-1.462 1.743-3.795 2.691-6 3.25-1.858.471-4 .78-5.75 0-2.048-.912-3.54-2.974-4.5-5-.94-1.98-1.682-4.416-1-6.5.697-2.128 2.681-3.893 4.75-4.75 1.77-.733 4.04-.866 5.75 0 1.383.7 2.268 2.277 2.75 3.75.415 1.267.599 2.809 0 4-.606 1.206-1.907 2.281-3.25 2.415-1.1.11-2.401-.485-3-1.415-.545-.846-.27-2.392-.043-3.018" fill="none" stroke="#55a" stroke-width="2" stroke-linecap="round" stroke-linejoin="round"/><path d="M191.077 936.004c2.032-4.554 2.922-10.63 5.37-15.53 2.258-4.518 4.364-9.63 8.48-12.557 2.61-1.858 6.125-2.977 9.288-2.47 2.224.355 4.293 1.9 5.66 3.686 1.434 1.872 2.213 4.368 2.177 6.724-.032 2.156-.82 4.415-2.177 6.092-1.287 1.593-3.254 2.674-5.224 3.234-1.606.457-3.483.677-5.007 0-1.784-.791-3.086-2.576-3.919-4.338-.738-1.56-1.25-3.463-.767-5.12.573-1.968 2.168-3.79 4.033-4.64 1.518-.692 3.518-.751 5.007 0 1.204.608 2.047 1.953 2.394 3.254.319 1.191.24 2.632-.414 3.677-.506.808-1.471 1.403-2.416 1.528-1.083.143-2.481-.093-3.13-.971-.615-.832-.56-2.794-.01-3.102M233.001 934.931c1.39-2.682 3.12-4.68 4.77-6.842M228.75 930.991c1.618-2.537 2.893-4.047 4.251-5.805M222.53 929.851c2.445-4.354 4.99-8.307 7.983-10.47M210.09 933.065c.145-2.371 1.461-4.68 2.177-7.36M204.44 930.525c.145-2.37 1.461-4.68 2.177-7.36M198.738 930.525c.248-3.406 3.75-10.87 5.702-13.996M187.282 930.784c.69-3.974 2.15-7.63 3.628-11.3 1.322-3.283 2.903-6.151 4.666-9.538M182.513 925.911c.76-2.937 1.729-5.921 2.799-8.812.952-2.57 2.039-4.838 3.214-7.568" fill="none" stroke="#55a" stroke-width="2" stroke-linecap="round" stroke-linejoin="round"/><path d="M49.227 969.507s-5.47 6.67-7.071 10.606c-1.447 3.554-2.85 7.547-2.122 11.314.583 3.018 2.471 5.962 4.95 7.778 2.952 2.163 6.99 3.387 10.607 2.829 3.037-.469 5.849-2.558 7.778-4.95 1.497-1.858 2.243-4.343 2.475-6.718.29-2.97-.367-6.045-1.415-8.838-.78-2.083-2.266-3.831-3.535-5.657-1.488-2.14-4.77-6.197-4.77-6.197l9.893-13.609-9.738-13.95s4.713-5.494 6.383-8.67c1.508-2.87 2.862-5.966 3.182-9.193.258-2.604.064-5.416-1.061-7.778-1.111-2.334-3.162-4.21-5.303-5.657-1.886-1.274-4.09-2.39-6.364-2.475-2.832-.107-5.87.77-8.132 2.475-1.906 1.436-3.12 3.752-3.89 6.01-.913 2.683-.973 5.652-.7 8.473a23.722 23.722 0 002.301 8.138c1.657 3.362 6.718 9.019 6.718 9.019l-9.732 13.261z" fill="#ff5" stroke="#55a" stroke-width="2" stroke-linecap="round" stroke-linejoin="round"/><path d="M52.53 974.522s4.778 5.677 6.25 9.028c.74 1.684 1.45 3.558 1.215 5.382-.225 1.746-1.177 3.452-2.43 4.688-1.29 1.271-3.05 2.404-4.861 2.43-1.787.026-3.63-.963-4.862-2.257-1.378-1.447-2.109-3.562-2.257-5.555-.145-1.96.583-3.938 1.39-5.73 1.33-2.957 3.152-5.364 5.555-7.986zM52.603 937.37s4.757-6.292 6.25-9.897c.704-1.699 1.45-3.558 1.216-5.382-.225-1.746-1.177-3.452-2.431-4.687-1.29-1.272-3.05-2.405-4.861-2.431-1.787-.026-3.63.963-4.861 2.257-1.379 1.447-2.11 3.562-2.257 5.556-.146 1.96.625 3.918 1.389 5.729 1.353 3.21 3.152 6.233 5.555 8.854z" fill="#f55" stroke="#55a" stroke-width="2" stroke-linecap="round" stroke-linejoin="round"/><path d="M53.05 947.438l5.904 8.16-6.077 8.855-6.076-8.334z" fill="#55a" stroke="#55a" stroke-width="2" stroke-linecap="round" stroke-linejoin="round"/><g fill="none" stroke="#55a" stroke-width="2" stroke-linecap="round" stroke-linejoin="round"><path d="M85.125 882.737c-2.21 4.831-3.847 10.192-7.445 14.107-3.396 3.696-7.946 6.447-12.675 8.125-3.812 1.352-8.013 1.344-12.057 1.356-1.716.005-4.021.774-5.12-.545-1.217-1.46-.57-4.069.43-5.685 1.618-2.62 5-3.783 7.925-4.742 2.487-.815 5.198-.66 7.817-.74-.615-4.237-.796-7.788-.055-11.574.47-2.407 2.16-4.877 2.805-6.802"/><path d="M57.875 905.487c0-1.291.68-2.776 0-3.875-.539-.872-1.76-1.108-2.75-1.375-1.29-.347-2.667-.334-4-.25-.889.056-1.75.334-2.625.5M47 899.987c-1.083-.291-2.43-.109-3.25-.875-1.03-.962-1.556-2.601-1.375-4 .135-1.043 1.004-1.884 1.75-2.625 1.238-1.23 2.79-2.145 4.375-2.875a19.433 19.433 0 015.625-1.625c1.53-.195 3.125-.233 4.625.125.852.204 1.808.457 2.375 1.125.392.463.556 1.146.5 1.75-.069.742-.468 1.478-1 2a5.042 5.042 0 01-2.875 1.375c-.974.114-2.088-.04-2.875-.625-.689-.511-1.035-1.42-1.25-2.25-.157-.605-.118-1.261 0-1.875.085-.44.333-.833.5-1.25"/><path d="M43.625 892.362c-.958-.791-2.319-1.263-2.875-2.375-.392-.783-.45-1.811-.125-2.625.513-1.286 1.859-2.09 3-2.875 1.367-.94 2.914-1.64 4.5-2.125 1.572-.48 3.237-.603 4.875-.75 1.62-.144 3.263-.336 4.875-.125.732.096 1.538.177 2.125.625.505.386.927.993 1 1.625.076.655-.246 1.336-.625 1.875-.58.826-1.402 1.61-2.375 1.875-.893.244-1.876-.072-2.75-.375-.776-.269-1.67-.565-2.125-1.25-.349-.525-.304-1.247-.25-1.875.06-.696.417-1.333.625-2"/><path d="M43.5 884.237c-.625-.958-1.62-1.76-1.875-2.875-.29-1.27-.22-2.79.5-3.875.827-1.244 2.462-1.765 3.875-2.25 1.75-.6 3.654-.624 5.5-.75 1.58-.107 3.206-.349 4.75 0 .945.214 1.917.589 2.625 1.25.559.522 1.087 1.236 1.125 2 .036.727-.359 1.488-.875 2-.676.67-1.685.974-2.625 1.125-.95.153-2.02.192-2.875-.25-.63-.326-1.096-.972-1.375-1.625a4.083 4.083 0 01-.25-2.375c.155-.749.75-1.333 1.125-2"/><path d="M45.375 875.362c-.792-.375-2.16-.691-2.5-1.625-.343-.941.342-2.027.875-2.875.753-1.198 1.825-2.314 3.125-2.875 1.074-.463 2.33-.268 3.5-.25 1.633.025 3.296.08 4.875.5 1.19.317 2.627.522 3.375 1.5.333.436.388 1.095.25 1.625-.239.92-.935 1.762-1.75 2.25-1.052.63-2.496 1.104-3.625.625-1.022-.433-1.581-1.68-1.875-2.75a3.13 3.13 0 01.125-2c.266-.624.917-1 1.375-1.5M52.375 866.987c.358-1.166 2.257-2.333 4.25-3.5"/></g><path d="M225 902.362h-81.364s9.907.706 14.485 2.444c2.079.79 5.657 3.536 5.657 3.536l39.244 1.06s3.598-2.518 5.657-3.181c2.032-.655 4.276-1.15 6.364-.707 1.602.339 3.033 1.371 4.243 2.474.749.684 1.321 1.565 1.768 2.475.541 1.105.882 2.319 1.06 3.536.171 1.166 0 3.535 0 3.535l2.886-5.172z" fill="#55a" stroke="#55a" stroke-width="2" stroke-linecap="round" stroke-linejoin="round"/><path d="M225 897.362h-87" fill="none" stroke="#55a" stroke-width="2" stroke-linecap="round" stroke-linejoin="round"/><path d="M192.616 871.46c-1.406 1.406 1.405 4.558 0 5.964-1.406 1.406-4.558 1.406-5.964 0-1.406-1.406 1.406-4.558 0-5.964-1.406-1.405-4.558 1.406-5.964 0-1.406-1.405-1.406-4.558 0-5.964 1.406-1.405 4.558 1.406 5.964 0 1.406-1.405-1.406-4.558 0-5.963 1.406-1.406 4.558-1.406 5.964 0 1.405 1.405-1.406 4.558 0 5.963 1.405 1.406 4.558-1.405 5.964 0 1.405 1.406 1.405 4.559 0 5.964-1.406 1.406-4.559-1.405-5.964 0z" fill="#fff"/><path d="M121.326 905.177l-6.826-4.815 42-65.25s1.31 2.176 2.25 3c1.15 1.009 4 2.25 4 2.25z" fill="#ff5"/><path d="M114.695 900.492l-3.945-2.38 43-66.75 2.5 4z" fill="#55a"/><path d="M111.076 897.808l-4.826-3.446 45-69.5 2.315 7.103z" fill="#ff5"/><path d="M105.75 894.362L31 847.112v-8l77.5 49.5z" fill="#f55"/><path d="M109.065 889.28l5.473-8.687L31 826.863v12.2z"/><path d="M114.445 881.096l2.843-4.788L31 821.112v6z" fill="#f55"/><path d="M30 780.362s16.21 12.663 22.75 20.5c5.586 6.694 10.379 14.21 13.75 22.25 3.096 7.385 5.723 23.332 5.723 23.332l7.75 4.888s-3.66-21.707-7.973-31.72c-3.988-9.256-9.7-17.838-16.25-25.5-7.442-8.706-25.75-22.75-25.75-22.75z" fill="#ff5" stroke="#55a" stroke-width="2" stroke-linecap="round" stroke-linejoin="round"/><path d="M96.75 861.362s-1.638-25.346-5-37.5c-2.468-8.922-6.124-17.63-11-25.5-6.727-10.856-15.18-20.792-24.75-29.25-7.759-6.857-26-17-26-17v-6.7s21.109 12.055 30.25 19.95c8.71 7.523 16.68 16.131 23 25.75 6.1 9.286 10.767 19.62 14 30.25 2.48 8.153 4 25.25 4 25.25l20.625-32.75 6.5 2.625-30.125 45.875z" fill="#ff5" stroke="#55a" stroke-width="2" stroke-linecap="round" stroke-linejoin="round"/><path d="M30 662.362c9.97 2.236 19.678 5.057 29 9 1.923.814 3.7 1.942 5.5 3 5.78 3.399 11.701 6.642 17 10.75 1.537 1.192 2.818 2.683 4.25 4 4.453 4.094 9.124 7.95 13.5 12.125 3.09 2.95 6.11 5.98 9 9.125a190.755 190.755 0 018.875 10.375c4.412 5.553 8.883 11.101 12.625 17.125 4.602 7.409 9.071 15.035 12 23.25 1.487 4.172 1.89 8.655 2.75 13 1.07 5.403 2.096 10.817 3 16.25a178.89 178.89 0 011 6.75c.794 6.235 1.342 12.5 2 18.75.338 3.208.317 6.473 1 9.625.465 2.148 1.095 4.295 2.094 6.253a18.88 18.88 0 003.151 4.412c1.755 1.84 3.762 3.497 5.988 4.727 1.512.835 3.193 1.381 4.884 1.733 1.495.31 3.046.21 4.57.315 0 0 9.12 8.99 15.063 10.144 4.809.934 14.377-3.05 14.377-3.05s8.98 6.975 14.16 6.535c3.717-.316 9.225-6.336 9.225-6.336s7.439 5.22 11.47 4.46c4.363-.822 9.803-9.016 9.803-9.016" fill="none" stroke="#55a" stroke-width="2" stroke-linecap="round" stroke-linejoin="round"/><path d="M172.186 842.927L144 887.362h81" fill="none" stroke="#55a" stroke-width="2" stroke-linecap="round" stroke-linejoin="round"/><path d="M81.375 685.112c-1 6.834-2.843 13.426-3.125 20.25-.341 8.264-.121 16.694 1.75 24.75 1.954 8.411 5.492 16.488 9.75 24 4.372 7.714 9.597 15.117 16 21.25 5.843 5.596 12.788 10.085 20 13.75 7.166 3.642 15.667 5.334 22.75 8-2.167-13.088-4.333-23.22-6.5-33.75-5-3.333-11.525-7.184-16.5-11.75a54.085 54.085 0 01-8.5-10c-2.877-4.352-5.205-9.1-7-14-1.091-2.98-1.97-6.089-2.25-9.25-.235-2.661.5-5.833.5-8L95 696.862z" fill="#ff5" stroke="#55a" stroke-width="2" stroke-linecap="round" stroke-linejoin="round"/><path d="M86.5 690.362c-.917 5.584-2.593 11.094-2.75 16.75-.217 7.792.594 15.692 2.5 23.25 1.782 7.068 4.703 13.883 8.25 20.25 4.064 7.296 8.795 14.396 14.75 20.25 5.375 5.284 11.806 9.538 18.5 13 5.736 2.967 12.167 4.334 18.25 6.5l-2.5-15.75c-2.833-1.166-5.795-2.06-8.5-3.5-3.713-1.977-7.196-4.396-10.5-7-2.988-2.354-5.822-4.93-8.375-7.75a69.755 69.755 0 01-7.375-9.75c-2.237-3.568-4.222-7.325-5.75-11.25-1.474-3.787-2.62-7.735-3.25-11.75-.621-3.955-.514-7.996-.5-12 .012-3.42.5-7.166.5-10.25z" fill="#55a" stroke="#55a" stroke-width="2" stroke-linecap="round" stroke-linejoin="round"/><path d="M142.75 768.112c-4.167-1.375-8.365-3.784-12.125-6.375-4.254-2.931-8.153-6.424-11.625-10.25-2.868-3.16-5.313-6.71-7.5-10.375-2.11-3.536-4.057-7.223-5.375-11.125-1.266-3.747-1.998-7.688-2.375-11.625-.373-3.899.125-8.083.125-11.75" fill="none" stroke="#55a" stroke-width="2" stroke-linecap="round" stroke-linejoin="round"/><g fill="#f55"><path d="M137.033 794.64s6.188 2.875 7.875 5.624c1.455 2.37 1.25 8.25 1.25 8.25s-4.943-2.94-6.5-5.25c-1.68-2.491-2.625-8.625-2.625-8.625zM136.783 794.64s-4.664 5.23-7.875 5.874c-2.358.473-7-1.75-7-1.75s3.498-3.875 5.875-4.625c2.865-.904 9 .5 9 .5zM134.658 800.514c1.812.291 3.718 2.428 3.5 4.25-.248 2.069-2.949 4.114-5 3.75-1.957-.347-3.675-3.058-3.25-5 .4-1.83 2.901-3.297 4.75-3z"/></g><path d="M63.033 841.101s3.548-4.21 3.95-6.8c.235-1.518.12-3.447-1-4.5-1.169-1.097-3.161-.955-4.75-.75-3.612.469-10 4.4-10 4.4l3.75 2.2s3.143-2.886 5-2.6c1.048.162 2.006 1.218 2.25 2.25.302 1.283-1.25 3.75-1.25 3.75zM49.64 832.173s6.314-2.53 8.55-4.949c1.441-1.56 2.65-3.628 2.75-5.75.078-1.685-.53-3.585-1.75-4.75-1.48-1.412-3.806-1.874-5.85-1.85-2.167.024-4.244 1.071-6.15 2.1-2.509 1.354-4.514 3.483-6.75 5.25-1.023.809-3.05 2.45-3.05 2.45l3.45 2.2s4.986-4.692 8.1-5.9c1.406-.546 3.089-1.037 4.5-.5 1.047.399 2.319 1.381 2.25 2.5-.103 1.651-2.436 2.247-3.75 3.25-1.93 1.473-6.05 4.05-6.05 4.05zM35.7 823.262s7.636-5.294 10.8-8.65c1.681-1.783 4.042-3.558 4.25-6 .18-2.117-.953-4.617-2.75-5.75-1.128-.71-2.74-.438-4 0-2.41.838-4.025 3.136-6 4.75-2.701 2.208-8 6.75-8 6.75v3.9s4.23-3.448 6.4-5.1c2.164-1.648 3.98-4.067 6.6-4.8.966-.27 2.617-.677 3 .25.835 2.022-2.68 3.478-4.25 5-1.516 1.47-3.28 2.66-4.952 3.95-1.563 1.209-4.748 3.55-4.748 3.55zM30 810.91s9.493-5.661 12-10.298c.92-1.7 1.43-3.94.75-5.75-.664-1.769-2.385-3.45-4.25-3.75-1.88-.301-3.865.944-5.25 2.25-1.762 1.662-3.25 6.5-3.25 6.5s3.804-4.853 6.25-4.25c1.375.34 2.178 2.345 2 3.75-.17 1.346-1.735 2.1-2.75 3-1.688 1.498-5.5 3.95-5.5 3.95z" fill="#ff5"/><path d="M80.75 846.862s6.763 3.158 9.75 1.75c1.384-.652 2.868-2.6 2.25-4-.45-1.017-2.14-.807-3.25-.75-3.08.16-8.75 3-8.75 3z" fill="#fff"/><g stroke="#55a" stroke-width="2" stroke-linecap="round" stroke-linejoin="round"><path d="M130.149 783.777c1.716.649 3.845.558 5.499-.236 1.646-.791 3.05-2.385 3.605-4.125.516-1.618.293-3.576-.516-5.07-.817-1.508-2.366-2.72-4.003-3.234-1.555-.487-3.408-.354-4.877.353-1.532.737-2.884 2.146-3.462 3.745-.592 1.642-.448 3.641.278 5.228.669 1.46 1.973 2.772 3.476 3.34z" fill="#ff5"/><path d="M132.196 780.087c1.203.296 2.877-.675 3.215-1.867.34-1.2-.564-2.973-1.769-3.3-1.279-.348-3.09.782-3.392 2.072-.278 1.187.763 2.803 1.946 3.095z" fill="none"/></g><path d="M131.884 755.987c1.535.366 3.683-1.021 4-2.66.267-1.372-.966-3.142-2.25-3.457-1.49-.366-3.63.814-4 2.394-.334 1.432.897 3.4 2.25 3.723zM126.839 749.718c1.837.483 4.408-1.348 4.788-3.511.319-1.813-1.156-4.15-2.693-4.566-1.785-.482-4.347 1.075-4.789 3.161-.4 1.89 1.074 4.49 2.694 4.916zM121.26 742.589c2.199.512 5.278-1.43 5.734-3.725.381-1.923-1.385-4.402-3.226-4.842-2.137-.512-5.206 1.14-5.734 3.352-.48 2.005 1.285 4.763 3.225 5.215zM116.52 734.476c1.958.439 4.7-1.226 5.104-3.193.34-1.648-1.232-3.772-2.87-4.15-1.903-.438-4.634.978-5.104 2.873-.427 1.72 1.144 4.082 2.87 4.47zM112.634 726.366c1.535.344 3.683-.96 4-2.5.267-1.29-.966-2.954-2.25-3.25-1.49-.344-3.63.765-4 2.25-.334 1.346.897 3.197 2.25 3.5z" fill="#ff5" stroke="#55a" stroke-width="2" stroke-linecap="round" stroke-linejoin="round"/><path d="M220 893.362v-2h-10v2z" fill="none" stroke="#55a" stroke-width="2" stroke-linecap="round" stroke-linejoin="round"/><g stroke="#55a" stroke-width="2" stroke-linecap="round" stroke-linejoin="round"><path d="M117.87 776.375c1.716.648 3.845.557 5.499-.237 1.646-.79 3.051-2.384 3.606-4.124.515-1.619.292-3.577-.517-5.07-.816-1.509-2.365-2.721-4.002-3.234-1.556-.488-3.409-.354-4.878.353-1.532.737-2.884 2.146-3.461 3.745-.593 1.641-.449 3.64.278 5.228.668 1.46 1.972 2.771 3.475 3.339z" fill="#ff5"/><path d="M119.917 772.685c1.204.296 2.877-.675 3.215-1.867.34-1.201-.564-2.974-1.769-3.301-1.278-.347-3.089.783-3.392 2.073-.278 1.186.763 2.803 1.946 3.095z" fill="none"/></g><g stroke="#55a" stroke-width="2" stroke-linecap="round" stroke-linejoin="round"><path d="M107.87 767.375c1.716.648 3.845.557 5.499-.237 1.646-.79 3.051-2.384 3.606-4.124.515-1.619.292-3.577-.517-5.07-.816-1.509-2.365-2.721-4.002-3.234-1.556-.488-3.409-.354-4.878.353-1.532.737-2.884 2.146-3.461 3.745-.593 1.641-.449 3.64.278 5.228.668 1.46 1.972 2.771 3.475 3.339z" fill="#ff5"/><path d="M109.917 763.685c1.204.296 2.877-.675 3.215-1.867.34-1.201-.564-2.974-1.769-3.301-1.278-.347-3.089.783-3.392 2.073-.278 1.186.763 2.803 1.946 3.095z" fill="none"/></g><g stroke="#55a" stroke-width="2" stroke-linecap="round" stroke-linejoin="round"><path d="M100.12 756.375c1.716.648 3.845.557 5.499-.237 1.646-.79 3.051-2.384 3.606-4.124.515-1.619.292-3.577-.517-5.07-.816-1.509-2.365-2.721-4.002-3.234-1.556-.488-3.409-.354-4.878.353-1.532.737-2.884 2.146-3.461 3.745-.593 1.641-.449 3.64.278 5.228.668 1.46 1.972 2.771 3.475 3.339z" fill="#ff5"/><path d="M102.167 752.685c1.204.296 2.877-.675 3.215-1.867.34-1.201-.564-2.974-1.769-3.301-1.278-.347-3.089.783-3.392 2.073-.278 1.186.763 2.803 1.946 3.095z" fill="none"/></g><g stroke="#55a" stroke-width="2" stroke-linecap="round" stroke-linejoin="round"><path d="M94.12 743.75c1.716.648 3.845.557 5.499-.237 1.646-.79 3.051-2.384 3.606-4.124.515-1.619.292-3.577-.517-5.07-.816-1.509-2.365-2.721-4.002-3.234-1.556-.488-3.409-.354-4.878.353-1.532.737-2.884 2.146-3.461 3.745-.593 1.641-.449 3.64.278 5.228.668 1.46 1.972 2.771 3.475 3.339z" fill="#ff5"/><path d="M96.167 740.06c1.204.296 2.877-.675 3.215-1.867.34-1.201-.564-2.974-1.769-3.301-1.278-.347-3.089.783-3.392 2.073-.278 1.186.763 2.803 1.946 3.095z" fill="none"/></g><g stroke="#55a" stroke-width="2" stroke-linecap="round" stroke-linejoin="round"><path d="M89.745 730.625c1.716.648 3.845.557 5.499-.237 1.646-.79 3.051-2.384 3.606-4.124.515-1.619.292-3.577-.517-5.07-.816-1.509-2.365-2.721-4.002-3.234-1.556-.488-3.409-.354-4.878.353-1.532.737-2.884 2.146-3.461 3.745-.593 1.641-.449 3.64.278 5.228.668 1.46 1.972 2.771 3.475 3.339z" fill="#ff5"/><path d="M91.792 726.935c1.204.296 2.877-.675 3.215-1.867.34-1.201-.564-2.974-1.769-3.301-1.278-.347-3.089.783-3.392 2.073-.278 1.186.763 2.803 1.946 3.095z" fill="none"/></g><g stroke="#55a" stroke-width="2" stroke-linecap="round" stroke-linejoin="round"><path d="M88.87 703.975c1.716-.649 3.845-.558 5.499.236 1.646.79 3.051 2.385 3.606 4.125.515 1.618.292 3.576-.517 5.07-.816 1.508-2.365 2.72-4.002 3.234-1.556.487-3.409.353-4.878-.353-1.532-.738-2.884-2.147-3.461-3.745-.593-1.642-.449-3.641.278-5.228.668-1.461 1.972-2.772 3.475-3.34z" fill="#ff5"/><path d="M90.917 707.665c1.204-.297 2.877.675 3.215 1.867.34 1.2-.564 2.973-1.769 3.3-1.278.348-3.089-.782-3.392-2.072-.278-1.187.763-2.803 1.946-3.095z" fill="none"/></g><g stroke="#55a" stroke-width="2" stroke-linecap="round" stroke-linejoin="round"><path d="M88.117 692.058c-1.718 1.641-2.152 4.75-1.347 6.978.618 1.713 2.434 3.132 4.225 3.464 2.2.408 5.595-.068 6.374-2.112" fill="#ff5"/><path d="M91.143 693.994c-1.051.616-1.13 3.119-.149 4.043.84.791 2.848.993 3.444-.335" fill="none"/></g><g stroke="#55a" stroke-width="2.054" stroke-linecap="round" stroke-linejoin="round"><path transform="matrix(-.72957 -.63826 .6049 -.76982 144.527 1138.566)" d="M231.98 278.902c1.717-1.641 2.152-4.75 1.347-6.978-.62-1.713-2.39-3.167-4.226-3.464-2.275-.368-5.9.32-6.678 2.364" fill="#ff5"/><path d="M228.954 789.328c1.05-.616 1.13-3.119.148-4.043-.84-.791-2.848-.993-3.444.335" fill="none" transform="matrix(-.72957 -.63826 .6049 -.76982 -165.397 1532.992)"/></g><g fill="#f55"><path d="M114.263 783.462s4.896 4.212 5.756 7.188c.742 2.565-.864 7.98-.864 7.98s-3.755-3.963-4.605-6.497c-.916-2.734-.287-8.67-.287-8.67zM114.037 783.4s-5.478 3.703-8.536 3.504c-2.245-.147-5.902-3.368-5.902-3.368s4.098-2.732 6.427-2.839c2.807-.128 8.011 2.703 8.011 2.703zM110.697 788.333c1.567.722 2.773 3.182 2.135 4.822-.723 1.861-3.658 3.09-5.424 2.243-1.685-.81-2.582-3.757-1.728-5.457.804-1.6 3.418-2.344 5.017-1.608z"/></g><g fill="#f55"><path d="M96.389 765.92s3.805 5.296 3.825 8.313c.017 2.6-3.202 7.205-3.202 7.205s-2.706-4.745-2.843-7.347c-.148-2.806 2.22-8.17 2.22-8.17zM96.175 765.8s-6.698 1.926-9.78.887c-2.262-.763-5.082-4.79-5.082-4.79s5-1.405 7.42-.855c2.92.664 7.442 4.757 7.442 4.757zM91.315 769.47c1.4 1.11 1.924 3.743.794 5.095-1.283 1.535-4.652 1.864-6.219.58-1.495-1.226-1.56-4.226-.192-5.574 1.29-1.27 4.19-1.233 5.617-.1z"/></g><g fill="#f55"><path d="M83.041 743.448s2.338 5.901 1.585 8.789c-.649 2.49-4.954 6.18-4.954 6.18s-1.412-5.132-.878-7.648c.575-2.716 4.247-7.32 4.247-7.32zM82.865 743.286s-6.997.364-9.722-1.308c-2.001-1.228-3.709-5.698-3.709-5.698s5.214-.242 7.424.818c2.665 1.278 6.007 6.188 6.007 6.188zM77.206 745.723c1.075 1.37.91 4.001-.534 5.044-1.638 1.185-4.994.756-6.186-.817-1.138-1.5-.434-4.383 1.24-5.37 1.578-.928 4.384-.254 5.48 1.143z"/></g><g fill="#f55"><path d="M76.991 719.688s-.057 6.571-1.861 9.146c-1.556 2.22-6.993 4.385-6.993 4.385s.632-5.506 2.089-7.792c1.573-2.466 6.765-5.74 6.765-5.74zM76.888 719.468s-6.692-2.004-8.607-4.563c-1.407-1.879-1.304-6.835-1.304-6.835s4.975 1.523 6.642 3.308c2.009 2.152 3.269 8.09 3.269 8.09zM70.66 719.947c.485 1.705-.671 4.228-2.42 4.763-1.986.607-4.965-.946-5.483-2.89-.494-1.854 1.263-4.44 3.206-4.842 1.832-.378 4.202 1.23 4.697 2.969z"/></g><g fill="#f55"><path d="M78.21 694.286s-1.988 6.28-4.476 8.256c-2.145 1.703-7.996 2.295-7.996 2.295s2.225-5.103 4.295-6.896c2.233-1.934 8.176-3.655 8.176-3.655zM78.174 694.048s-5.828-3.744-6.913-6.717c-.796-2.184.76-6.904.76-6.904s4.324 2.815 5.397 4.979c1.294 2.609.756 8.642.756 8.642zM72.06 692.81c-.035 1.765-1.886 3.867-3.721 3.903-2.083.04-4.484-2.26-4.409-4.262.071-1.912 2.517-3.911 4.5-3.766 1.867.137 3.668 2.323 3.63 4.124z"/></g><path d="M79.06 834.816s7.236 1.832 9.905-.11c1.237-.901 2.33-3.093 1.46-4.352-.632-.915-2.254-.392-3.333-.127-2.995.735-8.032 4.589-8.032 4.589zM76.309 823.812s7.431.694 9.769-1.638c1.083-1.08 1.824-3.415.77-4.524-.765-.807-2.286-.04-3.312.389-2.846 1.187-7.227 5.773-7.227 5.773zM72.239 813.348s7.42-.803 9.246-3.555c.845-1.274 1.105-3.71-.148-4.587-.911-.637-2.249.418-3.169 1.043-2.55 1.732-5.93 7.1-5.93 7.1zM65.99 802.026s7.42-.803 9.246-3.555c.846-1.274 1.106-3.71-.148-4.587-.91-.637-2.248.418-3.168 1.043-2.551 1.732-5.93 7.1-5.93 7.1zM58.541 792.65s7.216-1.908 8.607-4.903c.645-1.387.536-3.834-.835-4.513-.997-.493-2.16.751-2.976 1.507-2.262 2.095-4.796 7.91-4.796 7.91zM49.329 783.176s7.216-1.91 8.607-4.904c.645-1.387.536-3.834-.835-4.513-.997-.493-2.16.751-2.976 1.507-2.262 2.095-4.796 7.91-4.796 7.91zM40.318 775.143s6.97-2.67 8.034-5.795c.492-1.449.122-3.87-1.313-4.398-1.044-.384-2.068.978-2.798 1.816-2.025 2.325-3.923 8.377-3.923 8.377zM31.141 769.01s6.56-3.559 7.206-6.797c.299-1.5-.385-3.852-1.878-4.188-1.084-.244-1.921 1.24-2.535 2.167-1.704 2.57-2.793 8.818-2.793 8.818z" fill="#fff"/><g fill="#fff"><path d="M135.528 830.224s-2.919-5.744-5.7-6.471c-1.48-.387-3.87.058-4.33 1.517-.335 1.06 1.033 2.074 1.945 2.71 2.293 1.6 8.085 2.244 8.085 2.244zM137.984 830.167c.776-4.85 1.174-6.08-.981-8.581-.999-1.16-3.273-2.068-4.456-1.098-.86.705-.255 2.295.147 3.332.994 2.568 5.29 6.347 5.29 6.347zM136.607 832.399s-6.222-2.456-8.851-1.07c-1.123.592-2.188 2.182-1.759 3.377.374 1.043 1.95 1.324 3.058 1.3 2.789-.061 7.552-3.607 7.552-3.607z"/></g><g fill="#fff"><path d="M124.144 845.923s-2.213-5.83-4.826-6.646c-1.46-.456-3.87.059-4.33 1.518-.335 1.06 1.05 2.049 1.944 2.71 2.04 1.505 7.212 2.418 7.212 2.418zM127.299 846.157s1.165-6.75-.806-9.047c-.997-1.161-3.274-2.068-4.457-1.098-.86.705-.228 2.286.147 3.332.958 2.674 5.116 6.813 5.116 6.813zM125.34 848.33s-5.65-2.72-8.094-1.477c-1.364.694-2.698 2.777-1.992 4.135.513.986 2.19.695 3.29.542 2.48-.345 6.795-3.2 6.795-3.2z"/></g><g fill="#fff"><path d="M114.507 862.947s-2.322-6.184-5.088-7.053c-1.46-.459-3.871.059-4.331 1.518-.335 1.06 1.063 2.032 1.945 2.71 2.112 1.621 7.474 2.825 7.474 2.825zM117.37 862.686s1.172-6.682-.777-8.96c-.995-1.162-3.273-2.067-4.456-1.097-.86.705-.23 2.286.147 3.332.953 2.644 5.086 6.725 5.086 6.725zM115.848 865.268s-5.902-3.075-8.502-1.798c-1.373.675-2.697 2.777-1.992 4.135.513.986 2.186.662 3.291.542 2.57-.28 7.203-2.879 7.203-2.879z"/></g><path d="M30.552 820.085l86.902 55.818M124.918 907.37L30 846.708M105.538 894.922l45.85-70.115" stroke="#55a" stroke-width="2" stroke-linecap="round" stroke-linejoin="round"/><path d="M205 893.362v-2h-10v2zM190 893.362v-2h-10v2zM175 893.362v-2h-10v2zM160 893.362v-2h-10v2zM145 893.362v-2h-3.3l-1.2 2z" fill="none" stroke="#55a" stroke-width="2" stroke-linecap="round" stroke-linejoin="round"/><path d="M274 897.362v-22.375l17.375 11.875z" fill="#f55"/><path d="M265.25 901.237l-.25-34.625 9.625 8.25-.375 22.375z"/><path d="M260.875 902.862l-.125-40.125-13.25-14.25-1.375-1.375s-1.654 1.845-2.5 2.75c-1.232 1.32-3.75 3.91-3.75 3.91l.125 50.34 4.375 1.625 3.375 2.125z" fill="#55a" stroke="#55a" stroke-width="2" stroke-linecap="round" stroke-linejoin="round"/><path style="line-height:normal;-inkscape-font-specification:Sans;text-indent:0;text-align:start;text-decoration-line:none;text-transform:none;marker:none" d="M247.775 906.706c.314-2.873.217-6.875.812-9.063.517-1.899 1.44-3.779 2.531-5.625 1.268-2.143 3.711-4.13 5.407-7.187 1.583-2.855 3.443-6.114 3.75-9.938.262-3.272-.519-4.585-1.97-7.437-1.675-3.295-4.591-4.963-6.093-6.844-1.187-1.487-3.174-2.609-3.906-4.031-.58-1.128-1.93-6.286-2.531-8l-5.125 4.062c.48 1.37 1.554 4.848 2.468 6.625.993 1.929 2.555 3.261 3.72 4.72 2.142 2.683 4.308 3.87 5.28 5.78 1.135 2.232 1.6 3.275 1.407 5.688-.215 2.671-.924 4.595-2.5 7.437-1.19 2.147-3.583 4.085-5.344 7.063-1.187 2.007-2.311 4.205-2.969 6.625-.813 2.99-.668 5.852-.937 8.312z" color="#000" font-weight="400" font-family="Sans" overflow="visible" fill="#ff5" stroke="#55a" stroke-width="2"/><path style="line-height:normal;-inkscape-font-specification:Sans;text-indent:0;text-align:start;text-decoration-line:none;text-transform:none;marker:none" d="M252.125 905.268l6-1.437c-.266-3.187.337-7.04-.969-10.969-1.19-3.584-3.73-6.04-5.219-8.437-1.748-2.816-3.819-4.84-4.375-6.938-.465-1.758-.134-4.016.282-6.406.367-2.11 1.007-4.197 1.937-6.094.599-1.22 1.769-2.481 2.875-4.156.924-1.398 1.669-2.176 2.531-3.531l-4-4.875c-.887 1.394-2.97 4.897-3.843 6.218-.843 1.276-2.167 2.64-3.125 4.594a26.72 26.72 0 00-2.313 7.156c-.413 2.375-.992 5.177-.219 8.094.95 3.581 3.525 5.888 4.875 8.063 1.829 2.945 3.99 5.178 4.782 7.562.91 2.737.463 7.344.781 11.156z" color="#000" font-weight="400" font-family="Sans" overflow="visible" fill="#ff5" stroke="#55a" stroke-width="2" stroke-linecap="round" stroke-linejoin="round"/><path d="M247.625 908.237a218.65 218.65 0 0015.875-5.75c4.281-1.747 8.547-3.57 12.625-5.75 5.792-3.096 11.167-6.916 16.75-10.375" fill="none" stroke="#55a" stroke-width="2" stroke-linecap="round" stroke-linejoin="round"/><path d="M225 882.155V850.44" fill="#fff" stroke="#55a" stroke-width="2" stroke-linecap="round" stroke-linejoin="round"/><path d="M246.777 845.778s4.598 6.655 7.162 9.777c1.991 2.425 4.184 4.68 6.366 6.934 1.882 1.945 3.788 3.871 5.797 5.684 2.778 2.505 5.648 4.916 8.64 7.162 5.455 4.094 16.938 11.481 16.938 11.481" fill="none" stroke="#55a" stroke-width="2" stroke-linecap="round" stroke-linejoin="round"/><path d="M174.384 813.326s4.597.925 4.42 5.44c-.094 2.391-2.803 5.058-5.303 5.077-2.626.02-4.705-2.905-5.657-5.247-.728-1.79-.312-3.942.353-5.755.743-2.023 2.943-3.303 3.89-5.247.591-1.215.788-2.577 1.06-3.892.254-1.23.53-3.724.53-3.724s1.362 3.897 1.591 5.924c.178 1.571.056 3.175-.176 4.739-.136.916-.708 2.685-.708 2.685zM193.312 819.347s5.304.433 5.127 5.381c-.094 2.623-2.803 5.546-5.303 5.567-2.626.022-4.705-3.184-5.657-5.752-.728-1.963-.312-4.321.353-6.309.743-2.218 2.943-3.621 3.89-5.752.591-1.333.808-2.824 1.06-4.268.297-1.697.53-5.143.53-5.143s1.368 4.992 1.591 7.555c.15 1.727.18 3.504-.176 5.196-.262 1.245-1.415 3.525-1.415 3.525zM214.349 824.386s5.303.432 5.126 5.38c-.093 2.623-2.803 5.546-5.303 5.567-2.625.022-4.704-3.184-5.657-5.752-.728-1.963-.312-4.321.354-6.309.742-2.218 2.943-3.62 3.889-5.752.592-1.332.863-2.815 1.06-4.268.295-2.166.177-6.557.177-6.557s1.67 5.923 1.945 8.97c.155 1.725.179 3.503-.177 5.195-.262 1.245-1.414 3.526-1.414 3.526z"/></g><path d="M30 662.362v360h270M60 542.362h270v360" fill="none" stroke="#55a" stroke-width="2"/><path d="M30 542.362v5h5v35a5 5 0 01-10 0v-5h-5v5c0 5.523 4.477 10 10 10s10-4.477 10-10v-40zM330 1022.362v-5h-5v-35a5 5 0 0110 0v5h5v-5c0-5.523-4.477-10-10-10s-10 4.477-10 10v40zM95 613.362c1 4 5 14 12 14 9 0 13-8 13-18 0-7-2.579-11.612-5-17-2.578-5.737-6.38-10.857-10-16-4.645-6.598-15-19-15-19s-10.355 12.402-15 19c-3.62 5.143-7.422 10.263-10 16-2.421 5.388-5 10-5 17 0 10 4 18 13 18 7 0 11-10 12-14 1-1 1 0 1 1-1 8-1 10-2 16s-4 17-4 17c5-2 15-2 20 0 0 0-3-11-4-17s-1-8-2-16c0-1 0-2 1-1zM32.5 630.362c.5 2 2.5 7 6 7 4.5 0 6.5-4 6.5-9 0-3.5-1.29-5.806-2.5-8.5-1.289-2.868-3.19-5.429-5-8-2.323-3.299-7.5-9.5-7.5-9.5s-5.177 6.201-7.5 9.5c-1.81 2.571-3.711 5.132-5 8-1.21 2.694-2.5 5-2.5 8.5 0 5 2 9 6.5 9 3.5 0 5.5-5 6-7 .5-.5.5 0 .5.5-.5 4-.5 5-1 8s-2 8.5-2 8.5c2.5-1 7.5-1 10 0 0 0-1.5-5.5-2-8.5s-.5-4-1-8c0-.5 0-1 .5-.5zM265 951.362c-1-4-5-14-12-14-9 0-13 8-13 18 0 7 2.579 11.612 5 17 2.578 5.737 6.38 10.858 10 16 4.645 6.598 15 19 15 19s10.355-12.402 15-19c3.62-5.142 7.422-10.263 10-16 2.421-5.388 5-10 5-17 0-10-4-18-13-18-7 0-11 10-12 14-1 1-1 0-1-1 1-8 1-10 2-16s4-17 4-17c-5 2-15 2-20 0 0 0 3 11 4 17s1 8 2 16c0 1 0 2-1 1zM327.5 934.362c-.5-2-2.5-7-6-7-4.5 0-6.5 4-6.5 9 0 3.5 1.29 5.806 2.5 8.5 1.289 2.869 3.19 5.429 5 8 2.323 3.3 7.5 9.5 7.5 9.5s5.177-6.2 7.5-9.5c1.81-2.571 3.711-5.131 5-8 1.21-2.694 2.5-5 2.5-8.5 0-5-2-9-6.5-9-3.5 0-5.5 5-6 7-.5.5-.5 0-.5-.5.5-4 .5-5 1-8s2-8.5 2-8.5c-2.5 1-7.5 1-10 0 0 0 1.5 5.5 2 8.5s.5 4 1 8c0 .5 0 1-.5.5z"/></g></svg>